<svg xmlns="http://www.w3.org/2000/svg" width="902.882" height="879.119" viewBox="0 0 902.882 879.119"><linearGradient id="a" gradientUnits="userSpaceOnUse" x1="451.436" y1="871.617" x2="451.436" y2="511.618"><stop offset="0" stop-color="#C68945"/><stop offset="1" stop-color="#C69C6D"/></linearGradient><path fill="url(#a)" d="M160.197 511.617h582.479v360h-582.479z"/><path fill="#1A1A1A" d="M742.73 864.115h-582.48c2.482 2.519 4.965 5.037 7.448 7.556v-359.999c-2.519 2.482-5.038 4.965-7.556 7.448h582.479l-7.448-7.556v360.001c0 9.686 15.004 9.771 15.004.107v-359.999c0-4.065-3.342-7.556-7.448-7.556h-582.48c-4.065 0-7.556 3.342-7.556 7.448v360.001c0 4.064 3.342 7.556 7.448 7.556h582.479c9.688-.003 9.774-15.007.11-15.007z"/><path fill="#C69C6D" d="M640.853 409.794l101.823 101.823h-582.479l101.824-101.823z"/><path fill="#1A1A1A" d="M635.578 415.126l100.229 100.23 1.594 1.593 5.329-12.834h-582.48l5.278 12.777 100.047-100.046 1.777-1.777-5.387 2.226h378.832c9.686 0 9.771-15.003.107-15.003h-377.593c-5.177 0-7.91 3.511-11.274 6.874-32.392 32.392-64.784 64.783-97.175 97.175-4.58 4.579-1.211 12.777 5.278 12.777h582.479c6.596 0 10.003-8.161 5.329-12.834l-100.229-100.23-1.594-1.593c-6.832-6.835-17.4 3.813-10.547 10.665z"/><path fill="#C7B299" d="M393.189 511.617h116.495v72h-116.495z"/><path fill="#1A1A1A" d="M509.738 576.116h-116.495c2.482 2.519 4.965 5.037 7.448 7.556v-72c-2.519 2.482-5.038 4.965-7.556 7.448h116.496l-7.448-7.556v72c0 9.687 15.004 9.772 15.004.108v-72c0-4.065-3.342-7.556-7.448-7.556h-116.495c-4.065 0-7.556 3.342-7.556 7.448v72c0 4.065 3.342 7.556 7.448 7.556h116.496c9.684-.001 9.77-15.004.106-15.004z"/><path fill="#C7B299" d="M478.999 409.794l30.685 101.823h-116.495l30.687-101.823z"/><path fill="#1A1A1A" d="M471.754 411.735l30.686 101.823 7.298-9.443h-116.495l7.181 9.482 30.687-101.823-7.289 5.521h55.123c9.686 0 9.771-15.003.107-15.003h-55.122c-3.433 0-6.311 2.275-7.289 5.521-10.229 33.941-20.458 67.882-30.688 101.823-1.397 4.638 2.422 9.482 7.181 9.482h116.496c4.758 0 8.72-4.727 7.298-9.443l-30.686-101.823c-2.784-9.243-17.282-5.388-14.488 3.883z"/><path fill="#8C6239" d="M742.676 511.617h-582.479l101.824-101.823h378.832z"/><path fill="#1A1A1A" d="M742.73 504.115h-582.479l5.278 12.777c33.41-33.41 66.82-66.82 100.23-100.229l1.593-1.594-5.387 2.226h378.832l-5.222-2.169 100.229 100.23 1.594 1.593c6.836 6.835 17.403-3.812 10.551-10.665l-100.229-100.23c-2.983-2.983-6.055-3.762-10.066-3.762h-370.738c-3.991 0-7.584-.42-10.746 2.741-33.665 33.665-67.329 67.33-100.994 100.994l-.314.314c-4.58 4.579-1.211 12.777 5.278 12.777h582.478c9.69.001 9.776-15.003.112-15.003zm-488.211-94.375v101.823c0 9.687 15.003 9.772 15.003.108v-101.823c0-9.686-15.003-9.772-15.003-.108zm378.832 0v101.823c0 9.687 15.004 9.772 15.004.108v-101.823c0-9.686-15.004-9.772-15.004-.108z"/><path fill="#C69C6D" d="M740.131 310.516l-99.278 99.278 101.823 101.823 152.735-152.735z"/><path fill="#1A1A1A" d="M734.799 305.24l-98.497 98.497-.782.782c-2.899 2.899-2.82 7.73.058 10.608l100.229 100.23 1.594 1.593c2.899 2.9 7.729 2.821 10.607-.057 34.249-34.248 68.497-68.496 102.745-102.745l49.989-49.99c4.094-4.094 1.949-10.86-3.352-12.511-47.317-14.739-94.635-29.477-141.952-44.215-4.442-1.384-8.885-2.768-13.327-4.151-9.265-2.886-13.167 11.603-3.961 14.47 47.317 14.739 94.635 29.477 141.952 44.215 4.442 1.384 8.885 2.768 13.327 4.151-1.117-4.17-2.234-8.34-3.352-12.511l-102.745 102.745-49.989 49.99 10.607-.057-100.229-100.23-1.594-1.593.058 10.608 98.496-98.496.781-.781c6.837-6.836-3.811-17.404-10.663-10.552z"/><path fill="#C69C6D" d="M162.742 310.516l99.279 99.278-101.824 101.823-152.734-152.735z"/><path fill="#1A1A1A" d="M157.466 315.849c32.833 32.832 65.665 65.665 98.497 98.497l.781.781-.057-10.608c-33.41 33.41-66.82 66.82-100.23 100.229l-1.593 1.594 10.608-.057c-34.249-34.248-68.497-68.497-102.745-102.745-16.663-16.664-33.327-33.327-49.99-49.99l-3.335 12.577c47.317-14.739 94.635-29.477 141.953-44.215 4.442-1.384 8.884-2.768 13.327-4.151 9.21-2.869 5.364-17.369-3.882-14.489-47.317 14.739-94.635 29.477-141.953 44.215-4.442 1.384-8.884 2.768-13.327 4.151-5.384 1.677-7.478 8.435-3.335 12.577 34.249 34.248 68.497 68.497 102.745 102.745 16.663 16.664 33.327 33.327 49.99 49.99 2.9 2.9 7.73 2.821 10.608-.057 33.41-33.41 66.82-66.82 100.23-100.229l1.593-1.594c2.9-2.899 2.821-7.73-.057-10.608-32.833-32.832-65.665-65.665-98.497-98.497l-.781-.781c-6.834-6.836-17.402 3.812-10.55 10.665z"/><path fill="#3FA9F5" d="M451.436 7.618l93.576 189.606 209.244 30.405-151.408 147.589 35.74 208.4-187.152-98.393-187.152 98.393 35.742-208.4-151.409-147.589 209.243-30.405z"/><path fill="#1A1A1A" d="M444.966 11.416c21.495 43.553 42.989 87.106 64.484 130.66 9.409 19.064 18.817 38.128 28.227 57.193 2.267 4.592 5.711 5.243 10.258 5.904l27.422 3.984 168.249 24.448 8.67 1.26c-1.117-4.17-2.234-8.34-3.352-12.511-34.779 33.902-69.559 67.803-104.337 101.705-15.224 14.839-30.448 29.679-45.671 44.519-2.457 2.395-3.957 4.824-3.304 8.637l.773 4.507 4.613 26.901 28.79 167.874 1.555 9.062c3.664-2.812 7.329-5.624 10.994-8.436-42.989-22.601-85.979-45.202-128.969-67.803l-56.452-29.679c-3.01-1.582-5.897-2.663-9.329-.858l-4.047 2.128c-8.053 4.233-16.106 8.467-24.159 12.701l-150.758 79.259-8.139 4.279 11.033 8.45c8.21-47.87 16.42-95.74 24.63-143.611 3.594-20.954 7.188-41.908 10.781-62.862.564-3.29 1.076-6.604-1.669-9.279l-3.274-3.192c-6.515-6.35-13.03-12.701-19.544-19.051-40.656-39.629-81.311-79.259-121.966-118.888l-6.584-6.418-3.334 12.577c48.064-6.984 96.128-13.968 144.192-20.953l63.116-9.171c4.993-.726 6.682-4.167 8.682-8.219l12.263-24.849c25.081-50.819 50.162-101.639 75.243-152.459l3.877-7.856c4.262-8.636-8.701-16.19-12.99-7.5-21.495 43.553-42.99 87.106-64.484 130.66l-29.092 58.947 4.554-3.495c-48.064 6.984-96.128 13.968-144.192 20.953-21.684 3.15-43.368 6.301-65.051 9.452-5.796.842-7.052 8.954-3.334 12.577l104.338 101.705c15.69 15.294 31.381 30.589 47.071 45.884l-1.959-7.313-24.631 143.61-11.112 64.79c-1.109 6.466 4.875 11.688 11.033 8.45l128.968-67.803c19.395-10.197 38.79-20.393 58.184-30.589l-7.548.025c42.989 22.601 85.979 45.202 128.969 67.803 19.395 10.197 38.789 20.393 58.184 30.589 6.113 3.214 12.092-2.038 10.994-8.436-8.209-47.87-16.419-95.741-24.629-143.611-3.703-21.596-7.407-43.193-11.111-64.789l-1.912 7.216c34.779-33.901 69.559-67.803 104.337-101.704 15.69-15.295 31.382-30.589 47.071-45.884 3.687-3.593 2.348-11.683-3.352-12.511l-144.192-20.953-65.052-9.453 4.489 3.437c-21.495-43.553-42.989-87.106-64.484-130.66-9.697-19.648-19.394-39.297-29.091-58.946-4.28-8.67-17.202-1.041-12.94 7.596z"/><linearGradient id="b" gradientUnits="userSpaceOnUse" x1="451.436" y1="871.617" x2="451.436" y2="511.618"><stop offset="0" stop-color="#C68945"/><stop offset="1" stop-color="#C69C6D"/></linearGradient><path fill="url(#b)" d="M160.197 511.617h582.479v360h-582.479z"/><path fill="#1A1A1A" d="M742.73 864.115h-582.479c2.482 2.519 4.965 5.037 7.448 7.556v-359.999c-2.519 2.482-5.038 4.965-7.556 7.448h582.479l-7.448-7.556v360.001c0 9.686 15.004 9.771 15.004.107v-359.999c0-4.065-3.342-7.556-7.448-7.556h-582.479c-4.065 0-7.556 3.342-7.556 7.448v360.001c0 4.064 3.342 7.556 7.448 7.556h582.479c9.686-.003 9.772-15.007.108-15.007z"/></svg>