<svg xmlns="http://www.w3.org/2000/svg" width="597.483" height="476.859" viewBox="0 0 597.483 476.859"><g><linearGradient id="a" gradientUnits="userSpaceOnUse" x1="298.741" y1="469.357" x2="298.741" y2="109.357"><stop offset="0" stop-color="#C68945"/><stop offset="1" stop-color="#C69C6D"/></linearGradient><path fill="url(#a)" d="M7.502 109.357h582.479v360h-582.479z"/><path fill="#1A1A1A" d="M590.035 461.855h-582.48c2.482 2.519 4.965 5.037 7.448 7.556v-359.999c-2.519 2.482-5.038 4.965-7.556 7.448h582.479l-7.448-7.556v360.001c0 9.686 15.004 9.771 15.004.107v-359.999c0-4.065-3.342-7.556-7.448-7.556h-582.48c-4.065 0-7.556 3.342-7.556 7.448v360.001c0 4.064 3.342 7.556 7.448 7.556h582.479c9.688-.003 9.774-15.007.11-15.007z"/><path fill="#C69C6D" d="M488.158 7.534l101.823 101.823h-582.479l101.824-101.823z"/><path fill="#1A1A1A" d="M482.883 12.866l100.229 100.23 1.594 1.593 5.329-12.834h-582.48l5.278 12.777c33.351-33.348 66.699-66.697 100.048-100.046l1.777-1.777-5.387 2.226h378.832c9.686 0 9.771-15.003.107-15.003h-377.59299999999996c-5.177 0-7.91 3.511-11.274 6.874-32.39 32.392-64.782 64.783-97.174 97.176-4.58 4.579-1.211 12.777 5.278 12.777h582.479c6.596 0 10.003-8.161 5.329-12.834l-100.229-100.23-1.594-1.593c-6.833-6.836-17.402 3.812-10.549 10.664z"/><path fill="#C7B299" d="M240.494 109.357h116.495v72h-116.495z"/><path fill="#1A1A1A" d="M357.043 173.856h-116.495c2.482 2.519 4.965 5.037 7.448 7.556v-72c-2.519 2.482-5.038 4.965-7.556 7.448h116.496l-7.448-7.556v72c0 9.687 15.004 9.772 15.004.108v-72c0-4.065-3.342-7.556-7.448-7.556h-116.495c-4.065 0-7.556 3.342-7.556 7.448v72c0 4.065 3.342 7.556 7.448 7.556h116.496c9.684-.001 9.77-15.004.106-15.004z"/><path fill="#C7B299" d="M326.304 7.534l30.685 101.823h-116.495l30.687-101.823z"/><path fill="#1A1A1A" d="M319.06 9.475l30.686 101.823 7.298-9.443h-116.495l7.181 9.482 30.687-101.823-7.289 5.521h55.123c9.686 0 9.771-15.003.107-15.003h-55.122c-3.433 0-6.311 2.275-7.289 5.521-10.229 33.941-20.458 67.882-30.688 101.823-1.397 4.638 2.422 9.482 7.181 9.482h116.496c4.758 0 8.72-4.727 7.298-9.443l-30.686-101.823c-2.785-9.243-17.282-5.388-14.488 3.883z"/></g><path fill="#1A1A1A" d="M364.111 357.376c-2.449 5.66-5.35 10.87-8.709 15.66-4.58 6.53-8.33 11.05-11.221 13.56-4.48 4.12-9.279 6.23-14.42 6.351-3.689 0-8.141-1.051-13.32-3.181-5.197-2.12-9.973-3.17-14.34-3.17-4.58 0-9.492 1.05-14.746 3.17-5.262 2.13-9.501 3.24-12.742 3.351-4.929.21-9.842-1.96-14.746-6.521-3.129-2.729-7.045-7.41-11.734-14.04-5.032-7.08-9.169-15.29-12.41-24.649-3.471-10.11-5.211-19.9-5.211-29.378 0-10.857 2.346-20.222 7.045-28.068 3.693-6.303 8.605-11.275 14.755-14.925 6.149-3.65 12.793-5.51 19.948-5.629 3.915 0 9.049 1.211 15.429 3.591 6.362 2.388 10.447 3.599 12.238 3.599 1.339 0 5.877-1.416 13.569-4.238 7.275-2.618 13.416-3.702 18.445-3.275 13.631 1.1 23.87 6.473 30.68 16.153-12.189 7.386-18.219 17.73-18.1 31.002.11 10.337 3.86 18.938 11.23 25.769 3.34 3.17 7.07 5.62 11.22 7.36-.899 2.608-1.85 5.108-2.86 7.508zm-31.259-123.009c0 8.102-2.96 15.667-8.859 22.669-7.121 8.324-15.732 13.134-25.071 12.375-.119-.973-.188-1.995-.188-3.07 0-7.778 3.387-16.102 9.399-22.908 3.002-3.445 6.819-6.311 11.45-8.597 4.619-2.252 8.99-3.497 13.1-3.71.119 1.082.169 2.166.169 3.241z"/></svg>