<svg xmlns="http://www.w3.org/2000/svg" width="597.483" height="476.859" viewBox="0 0 597.483 476.859"><linearGradient id="a" gradientUnits="userSpaceOnUse" x1="298.741" y1="469.357" x2="298.741" y2="109.357"><stop offset="0" stop-color="#C68945"/><stop offset="1" stop-color="#C69C6D"/></linearGradient><path fill="url(#a)" d="M7.502 109.357h582.479v360h-582.479z"/><path fill="#1A1A1A" d="M590.035 461.855h-582.48c2.482 2.519 4.965 5.037 7.448 7.556v-359.999c-2.519 2.482-5.038 4.965-7.556 7.448h582.479l-7.448-7.556v360.001c0 9.686 15.004 9.771 15.004.107v-359.999c0-4.065-3.342-7.556-7.448-7.556h-582.48c-4.065 0-7.556 3.342-7.556 7.448v360.001c0 4.064 3.342 7.556 7.448 7.556h582.479c9.688-.003 9.774-15.007.11-15.007z"/><path fill="#C69C6D" d="M488.158 7.534l101.823 101.823h-582.479l101.824-101.823z"/><path fill="#1A1A1A" d="M482.883 12.866l100.229 100.23 1.594 1.593 5.329-12.834h-582.48l5.278 12.777c33.351-33.348 66.699-66.697 100.048-100.046l1.777-1.777-5.387 2.226h378.832c9.686 0 9.771-15.003.107-15.003h-377.593c-5.177 0-7.91 3.511-11.274 6.874-32.39 32.392-64.782 64.783-97.174 97.176-4.58 4.579-1.211 12.777 5.278 12.777h582.479c6.596 0 10.003-8.161 5.329-12.834l-100.229-100.23-1.594-1.593c-6.833-6.836-17.402 3.812-10.549 10.664z"/><path fill="#C7B299" d="M240.494 109.357h116.495v72h-116.495z"/><path fill="#1A1A1A" d="M357.043 173.856h-116.495c2.482 2.519 4.965 5.037 7.448 7.556v-72c-2.519 2.482-5.038 4.965-7.556 7.448h116.496l-7.448-7.556v72c0 9.687 15.004 9.772 15.004.108v-72c0-4.065-3.342-7.556-7.448-7.556h-116.495c-4.065 0-7.556 3.342-7.556 7.448v72c0 4.065 3.342 7.556 7.448 7.556h116.496c9.684-.001 9.77-15.004.106-15.004z"/><path fill="#C7B299" d="M326.304 7.534l30.685 101.823h-116.495l30.687-101.823z"/><path fill="#1A1A1A" d="M319.06 9.475l30.686 101.823 7.298-9.443h-116.495l7.181 9.482 30.687-101.823-7.289 5.521h55.123c9.686 0 9.771-15.003.107-15.003h-55.122c-3.433 0-6.311 2.275-7.289 5.521-10.229 33.941-20.458 67.882-30.688 101.823-1.397 4.638 2.422 9.482 7.181 9.482h116.496c4.758 0 8.72-4.727 7.298-9.443l-30.686-101.823c-2.785-9.243-17.282-5.388-14.488 3.883z"/><path fill="#FF7BAC" d="M63.523 150.962h116.495v72.001h-116.495z"/><path fill="#1A1A1A" d="M180.073 215.461h-116.495c2.482 2.519 4.965 5.037 7.448 7.556v-72.001l-7.556 7.447h116.495c-2.482-2.519-4.965-5.037-7.448-7.556v72.002c0 9.686 15.004 9.771 15.004.107v-72.001c0-4.065-3.342-7.556-7.448-7.556h-116.495c-4.065 0-7.556 3.341-7.556 7.447v72.002c0 4.064 3.342 7.556 7.448 7.556h116.495c9.686.001 9.771-15.003.108-15.003zm-32.511-24.884h-53.722c-4.514 0-4.514 7 0 7h53.722c4.515 0 4.515-7 0-7zm0-18h-53.722c-4.514 0-4.514 7 0 7h53.722c4.515 0 4.515-7 0-7z"/><path fill="#FCEE21" d="M379.201 364.405h116.495v72.001h-116.495z"/><path fill="#1A1A1A" d="M495.75 428.904h-116.495l7.448 7.556v-72.001c-2.519 2.483-5.037 4.966-7.556 7.448h116.495c-2.483-2.519-4.966-5.037-7.448-7.556v72.001c0 9.686 15.004 9.771 15.004.107v-72.001c0-4.064-3.342-7.556-7.448-7.556h-116.495c-4.064 0-7.556 3.342-7.556 7.448v72.001c0 4.064 3.342 7.556 7.448 7.556h116.495c9.686.001 9.772-15.003.108-15.003z"/><path fill="#FCEE21" d="M463.24 407.52h-53.721"/><path fill="#1A1A1A" d="M463.24 404.02h-53.722c-4.514 0-4.514 7 0 7h53.722c4.514 0 4.514-7 0-7z"/><path fill="#FCEE21" d="M463.24 389.52h-53.721"/><path fill="#1A1A1A" d="M463.24 386.02h-53.722c-4.514 0-4.514 7 0 7h53.722c4.514 0 4.514-7 0-7z"/></svg>