<svg xmlns="http://www.w3.org/2000/svg" width="597.483" height="476.859" viewBox="0 0 597.483 476.859"><g><linearGradient id="a" gradientUnits="userSpaceOnUse" x1="298.741" y1="469.357" x2="298.741" y2="109.357"><stop offset="0" stop-color="#C68945"/><stop offset="1" stop-color="#C69C6D"/></linearGradient><path fill="url(#a)" d="M7.502 109.357h582.479v360h-582.479z"/><path fill="#1A1A1A" d="M590.035 461.855h-582.48c2.482 2.519 4.965 5.037 7.448 7.556v-359.999c-2.519 2.482-5.038 4.965-7.556 7.448h582.479l-7.448-7.556v360.001c0 9.686 15.004 9.771 15.004.107v-359.999c0-4.065-3.342-7.556-7.448-7.556h-582.48c-4.065 0-7.556 3.342-7.556 7.448v360.001c0 4.064 3.342 7.556 7.448 7.556h582.479c9.688-.003 9.774-15.007.11-15.007z"/><path fill="#C69C6D" d="M488.158 7.534l101.823 101.823h-582.479l101.824-101.823z"/><path fill="#1A1A1A" d="M482.883 12.866l100.229 100.23 1.594 1.593 5.329-12.834h-582.48l5.278 12.777c33.351-33.348 66.699-66.697 100.048-100.046l1.777-1.777-5.387 2.226h378.832c9.686 0 9.771-15.003.107-15.003h-377.59299999999996c-5.177 0-7.91 3.511-11.274 6.874-32.39 32.392-64.782 64.783-97.174 97.176-4.58 4.579-1.211 12.777 5.278 12.777h582.479c6.596 0 10.003-8.161 5.329-12.834l-100.229-100.23-1.594-1.593c-6.833-6.836-17.402 3.812-10.549 10.664z"/><path fill="#C7B299" d="M240.494 109.357h116.495v72h-116.495z"/><path fill="#1A1A1A" d="M357.043 173.856h-116.495c2.482 2.519 4.965 5.037 7.448 7.556v-72c-2.519 2.482-5.038 4.965-7.556 7.448h116.496l-7.448-7.556v72c0 9.687 15.004 9.772 15.004.108v-72c0-4.065-3.342-7.556-7.448-7.556h-116.495c-4.065 0-7.556 3.342-7.556 7.448v72c0 4.065 3.342 7.556 7.448 7.556h116.496c9.684-.001 9.77-15.004.106-15.004z"/><path fill="#C7B299" d="M326.304 7.534l30.685 101.823h-116.495l30.687-101.823z"/><path fill="#1A1A1A" d="M319.06 9.475l30.686 101.823 7.298-9.443h-116.495l7.181 9.482 30.687-101.823-7.289 5.521h55.123c9.686 0 9.771-15.003.107-15.003h-55.122c-3.433 0-6.311 2.275-7.289 5.521-10.229 33.941-20.458 67.882-30.688 101.823-1.397 4.638 2.422 9.482 7.181 9.482h116.496c4.758 0 8.72-4.727 7.298-9.443l-30.686-101.823c-2.785-9.243-17.282-5.388-14.488 3.883z"/></g><g fill="#004C82"><path d="M169.225 214.141h1.622l2.707.528 3.234.542 8.642 2.166 11.876 2.152 6.488 1.629 7.017 1.622 7.558 1.078 7.562 2.158 8.102 1.075 8.096 2.163 25.923 4.856 8.103 2.166 8.641 1.617 7.555 1.622 8.103 1.619 7.551 1.617 7.563 1.085 6.48 1.622 6.488 1.076 5.401 1.617 4.855 1.085 4.316.537 3.783.541 2.708.544 1.619.537h1.071l7.023 1.619 6.485 1.083 5.402 1.619 4.312 1.08 4.326 1.618 3.243 1.083 4.312 2.161 1.617 1.085 2.709 2.69v.541l.545.547v.526h23.209l2.166.546h2.162l1.617.542h1.617l1.619.544 4.326 2.149.536 1.089 3.78 5.939 1.084 7.015-1.084 8.642-2.698 8.105-3.24 8.097-3.249 6.485-2.691 4.319-1.077 1.622-1.085.539-2.697 1.075-3.782 1.62-5.398 2.161-5.947 2.153-7.551 3.252-8.109 3.233-9.18 3.237-10.262 4.329-10.797 3.78-10.795 4.312-23.761 9.736-12.425 4.858-12.423 4.315-12.417 5.391-12.954 4.871-12.423 4.314-11.885 5.407-12.416 4.315-11.345 4.314-21.602 8.655-9.718 3.766-9.182 3.249-8.096 3.233-7.016 2.705-5.946 2.703-4.854 1.627-3.785 1.622-2.16.518-.546.547h279.196l45.357-214.925h-305.111zM378.22 283.797l-1.629.544-10.794 2.149h-2.704l-2.162.547h-2.151l-3.248.541-1.617.541-1.08.532-.546 1.093v1.075l1.089 1.075h2.154l2.162.542h5.399l3.236-.542h3.238l7.566-1.075h3.784l4.317-.549 3.775-.526 3.254-.544 3.769-.549h14.585l1.613.549 1.091.544 1.073 1.614v2.155l-.54 2.159-.533 2.707-1.091 3.239-1.613 3.786-1.081 3.779-.543 2.154 1.08 1.082 1.086-.545 2.162-2.159 1.073-1.62 1.625-2.691 1.619-3.242 1.617-3.783 1.615-3.239 1.085-3.246.536-2.694v-3.24l-1.074-2.707-1.617-1.619-2.162-1.614-2.703-1.081-3.241-.539-3.774-.544h-22.686l-.54.544h-.541l-1.073.539-1.091 2.164-1.072.531-1.08 1.085zM158.967 262.743l-35.642 165.235 1.627-.547 3.236-2.14 5.403-2.176 7.024-3.781 8.09-3.78 9.187-4.843 10.801-4.863 10.258-5.405 10.799-4.875 10.261-5.39 10.259-4.861 9.716-4.858 8.107-4.327 7.016-3.236 5.401-2.705 3.782-1.607 5.402-2.705 4.861-2.704 5.937-2.703 5.94-3.233 5.398-2.702 6.482-2.705 5.941-3.234 6.476-2.69 6.487-3.264 32.395-13.483 14.586-4.862 2.158-.544 2.153-1.075 2.71-.539 9.713-3.241 11.341-3.246 3.784-.542 11.336-3.238 6.488-1.074 2.152-.541 1.619-.544h1.627l1.618-.532 1.082-1.088h.543v-.544l-1.09-2.147-1.618-.545-2.162-.546h-2.154l-3.234-.531h-3.254l-3.775.531-6.483.546-7.021 1.073-7.555 1.619-8.106 1.632-8.09 2.154-8.644 2.705-8.106 2.695-8.636 2.702-8.096 3.241-8.109 2.695-7.556 2.705-7.016 2.702-6.489 3.239-5.398 2.153-4.86 2.173-3.78 2.153-20.518-63.727h130.687l.531-2.692-2.152-2.707-3.246-1.62-4.861-1.619-5.401-1.614-14.04-2.166-22.678-1.612z"/></g></svg>