<svg xmlns="http://www.w3.org/2000/svg" width="597.483" height="476.859" viewBox="0 0 597.483 476.859"><linearGradient id="a" gradientUnits="userSpaceOnUse" x1="298.741" y1="469.357" x2="298.741" y2="109.357"><stop offset="0" stop-color="#C68945"/><stop offset="1" stop-color="#C69C6D"/></linearGradient><path fill="url(#a)" d="M7.502 109.357h582.479v360h-582.479z"/><path fill="#1A1A1A" d="M590.035 461.855h-582.48c2.482 2.519 4.965 5.037 7.448 7.556v-359.999c-2.519 2.482-5.038 4.965-7.556 7.448h582.479l-7.448-7.556v360.001c0 9.686 15.004 9.771 15.004.107v-359.999c0-4.065-3.342-7.556-7.448-7.556h-582.48c-4.065 0-7.556 3.342-7.556 7.448v360.001c0 4.064 3.342 7.556 7.448 7.556h582.479c9.688-.003 9.774-15.007.11-15.007z"/><path fill="#C69C6D" d="M488.158 7.534l101.823 101.823h-582.479l101.824-101.823z"/><path fill="#1A1A1A" d="M482.883 12.866l100.229 100.23 1.594 1.593 5.329-12.834h-582.48l5.278 12.777c33.351-33.348 66.699-66.697 100.048-100.046l1.777-1.777-5.387 2.226h378.832c9.686 0 9.771-15.003.107-15.003h-377.593c-5.177 0-7.91 3.511-11.274 6.874-32.39 32.392-64.782 64.783-97.174 97.176-4.58 4.579-1.211 12.777 5.278 12.777h582.479c6.596 0 10.003-8.161 5.329-12.834l-100.229-100.23-1.594-1.593c-6.833-6.836-17.402 3.812-10.549 10.664z"/><path fill="#C7B299" d="M240.494 109.357h116.495v72h-116.495z"/><path fill="#1A1A1A" d="M357.043 173.856h-116.495c2.482 2.519 4.965 5.037 7.448 7.556v-72c-2.519 2.482-5.038 4.965-7.556 7.448h116.496l-7.448-7.556v72c0 9.687 15.004 9.772 15.004.108v-72c0-4.065-3.342-7.556-7.448-7.556h-116.495c-4.065 0-7.556 3.342-7.556 7.448v72c0 4.065 3.342 7.556 7.448 7.556h116.496c9.684-.001 9.77-15.004.106-15.004z"/><path fill="#C7B299" d="M326.304 7.534l30.685 101.823h-116.495l30.687-101.823z"/><path fill="#1A1A1A" d="M319.06 9.475l30.686 101.823 7.298-9.443h-116.495l7.181 9.482 30.687-101.823-7.289 5.521h55.123c9.686 0 9.771-15.003.107-15.003h-55.122c-3.433 0-6.311 2.275-7.289 5.521-10.229 33.941-20.458 67.882-30.688 101.823-1.397 4.638 2.422 9.482 7.181 9.482h116.496c4.758 0 8.72-4.727 7.298-9.443l-30.686-101.823c-2.785-9.243-17.282-5.388-14.488 3.883z"/><path fill="#3FA9F5" d="M153.842 210.405h289.8v180h-289.8z"/><path fill="#1A1A1A" d="M443.695 382.903h-289.799c2.482 2.519 4.965 5.037 7.448 7.556v-180c-2.519 2.482-5.038 4.965-7.556 7.448h289.8c-2.483-2.519-4.966-5.037-7.448-7.556v180c0 9.686 15.004 9.771 15.004.107v-180c0-4.065-3.342-7.556-7.448-7.556h-289.799c-4.065 0-7.556 3.342-7.556 7.448v180c0 4.064 3.342 7.556 7.448 7.556h289.8c9.684.001 9.77-15.003.106-15.003z"/><path d="M194.523 283.065c0-3.096 2.448-5.544 5.544-5.544 3.097 0 5.545 2.448 5.545 5.544v35.211h20.521c2.808 0 5.041 2.232 5.041 5.041 0 2.808-2.232 5.04-5.041 5.04h-26.066c-3.096 0-5.544-2.448-5.544-5.545v-39.747zm39.456 20.233v-.144c0-14.329 11.305-26.066 26.858-26.066s26.714 11.593 26.714 25.922v.145c0 14.329-11.305 26.066-26.858 26.066s-26.714-11.593-26.714-25.923zm41.979 0v-.144c0-8.641-6.336-15.842-15.265-15.842s-15.122 7.057-15.122 15.697v.145c0 8.641 6.337 15.842 15.266 15.842s15.121-7.056 15.121-15.698zm19.221 0v-.144c0-14.329 11.161-26.066 26.426-26.066 7.633 0 12.674 1.729 17.21 4.896 1.08.792 2.304 2.305 2.304 4.465 0 3.023-2.448 5.472-5.472 5.472-1.585 0-2.593-.575-3.385-1.151-3.024-2.16-6.265-3.457-11.017-3.457-8.064 0-14.474 7.129-14.474 15.697v.145c0 9.217 6.337 15.985 15.266 15.985 4.032 0 7.633-1.008 10.44-3.024v-7.2h-7.488c-2.664 0-4.824-2.089-4.824-4.753s2.16-4.824 4.824-4.824h12.673c3.097 0 5.545 2.448 5.545 5.545v12.24c0 3.24-1.225 5.473-3.889 7.057-4.104 2.521-10.081 5.041-17.642 5.041-15.697-.001-26.497-11.018-26.497-25.924zm56.447 0v-.144c0-14.329 11.305-26.066 26.858-26.066s26.714 11.593 26.714 25.922v.145c0 14.329-11.305 26.066-26.858 26.066s-26.714-11.593-26.714-25.923zm41.979 0v-.144c0-8.641-6.337-15.842-15.266-15.842s-15.121 7.057-15.121 15.697v.145c0 8.641 6.337 15.842 15.266 15.842s15.121-7.056 15.121-15.698z" fill="#1A1A1A" stroke="#1A1A1A"/><path fill="#fff" d="M402.519 145.357h144v232.992h-144z"/><path fill="#1A1A1A" d="M546.572 370.847h-144c2.483 2.519 4.966 5.037 7.448 7.556v-232.992c-2.519 2.482-5.037 4.965-7.556 7.448h144l-7.448-7.556v232.993c0 9.686 15.004 9.771 15.004.107v-232.992c0-4.065-3.342-7.556-7.448-7.556h-144c-4.064 0-7.556 3.342-7.556 7.448v232.993c0 4.064 3.342 7.556 7.448 7.556h144c9.686-.001 9.772-15.005.108-15.005z"/><path stroke="#1A1A1A" stroke-miterlimit="10" d="M546.519 378.349h-144" fill="none"/><path fill="#1A1A1A" d="M424.019 358.127v-54c0-4.514-7-4.514-7 0v54c0 4.514 7 4.514 7 0zm18-.278v-53.722c0-4.514-7-4.514-7 0v53.722c0 4.514 7 4.514 7 0zm18 0v-53.722c0-4.514-7-4.514-7 0v53.722c0 4.514 7 4.514 7 0zm18 0v-53.722c0-4.514-7-4.514-7 0v53.722c0 4.514 7 4.514 7 0zm18 0v-53.722c0-4.514-7-4.514-7 0v53.722c0 4.514 7 4.514 7 0zm18 0v-53.722c0-4.514-7-4.514-7 0v53.722c0 4.514 7 4.514 7 0zm18 0v-53.722c0-4.514-7-4.514-7 0v53.722c0 4.514 7 4.514 7 0zm-30.917-84.222h-53.722c-4.514 0-4.514 7 0 7h53.722c4.513 0 4.513-7 0-7zm0-18h-53.722c-4.514 0-4.514 7 0 7h53.722c4.513 0 4.513-7 0-7zm0-18h-53.722c-4.514 0-4.514 7 0 7h53.722c4.513 0 4.513-7 0-7zm0-18h-53.722c-4.514 0-4.514 7 0 7h53.722c4.513 0 4.513-7 0-7z"/><path fill="#1A1A1A" stroke="#1A1A1A" d="M425.559 169.693c0-2.58 2.04-4.62 4.619-4.62h12.54c10.02 0 16.079 5.939 16.079 14.519v.12c0 9.72-7.56 14.759-16.979 14.759h-7.02v8.34c0 2.58-2.04 4.62-4.62 4.62-2.579 0-4.619-2.04-4.619-4.62v-33.118zm16.559 16.559c4.619 0 7.319-2.76 7.319-6.359v-.12c0-4.14-2.88-6.36-7.5-6.36h-7.14v12.839h7.321z"/><path fill="#1A1A1A" d="M527.963 189.19h-53.722c-4.514 0-4.514 7 0 7h53.722c4.514 0 4.514-7 0-7zm0-18h-53.722c-4.514 0-4.514 7 0 7h53.722c4.514 0 4.514-7 0-7z"/><path fill="#FF7BAC" d="M63.523 150.962h116.495v72.001h-116.495z"/><path fill="#1A1A1A" d="M180.073 215.461h-116.495c2.482 2.519 4.965 5.037 7.448 7.556v-72.001l-7.556 7.447h116.495c-2.482-2.519-4.965-5.037-7.448-7.556v72.002c0 9.686 15.004 9.771 15.004.107v-72.001c0-4.065-3.342-7.556-7.448-7.556h-116.495c-4.065 0-7.556 3.341-7.556 7.447v72.002c0 4.064 3.342 7.556 7.448 7.556h116.495c9.686.001 9.771-15.003.108-15.003zm-32.511-24.884h-53.722c-4.514 0-4.514 7 0 7h53.722c4.515 0 4.515-7 0-7zm0-18h-53.722c-4.514 0-4.514 7 0 7h53.722c4.515 0 4.515-7 0-7z"/><path fill="#FCEE21" d="M379.201 364.405h116.495v72.001h-116.495z"/><path fill="#1A1A1A" d="M495.75 428.904h-116.495l7.448 7.556v-72.001c-2.519 2.483-5.037 4.966-7.556 7.448h116.495c-2.483-2.519-4.966-5.037-7.448-7.556v72.001c0 9.686 15.004 9.771 15.004.107v-72.001c0-4.064-3.342-7.556-7.448-7.556h-116.495c-4.064 0-7.556 3.342-7.556 7.448v72.001c0 4.064 3.342 7.556 7.448 7.556h116.495c9.686.001 9.772-15.003.108-15.003z"/><path fill="#FCEE21" d="M463.24 407.52h-53.721"/><path fill="#1A1A1A" d="M463.24 404.02h-53.722c-4.514 0-4.514 7 0 7h53.722c4.514 0 4.514-7 0-7z"/><path fill="#FCEE21" d="M463.24 389.52h-53.721"/><path fill="#1A1A1A" d="M463.24 386.02h-53.722c-4.514 0-4.514 7 0 7h53.722c4.514 0 4.514-7 0-7z"/><path fill="#8C6239" d="M79.502 397.357l-72 72h144l-144-144v144"/><path fill="#1A1A1A" d="M74.169 392.082l-72 72c-4.58 4.579-1.211 12.777 5.278 12.777h144c6.596 0 10.004-8.16 5.33-12.835l-104.133-104.133-39.867-39.867c-4.579-4.579-12.777-1.21-12.777 5.279v144c0 9.686 15.004 9.771 15.004.107v-144l-12.777 5.279 104.133 104.133 39.867 39.867c1.776-4.278 3.553-8.557 5.33-12.835h-144c1.759 4.26 3.519 8.519 5.278 12.777l72-72c6.835-6.834-3.813-17.402-10.666-10.549z"/><path fill="#fff" d="M43.502 433.357h72l-72-72z"/><path fill="#1A1A1A" d="M43.448 440.859h72c6.596 0 10.004-8.16 5.33-12.835l-72-72c-4.58-4.579-12.778-1.21-12.778 5.279v72c0 9.686 15.004 9.771 15.004.107v-72l-12.777 5.279 72 72c1.776-4.278 3.553-8.557 5.33-12.835h-72c-9.687.001-9.773 15.005-.109 15.005zm262.795-331.448v-101.823c0-9.687-15.004-9.772-15.004-.108v101.823c0 9.686 15.004 9.772 15.004.108z"/></svg>