<?xml version="1.0" encoding="utf-8"?>
<!-- Generator: Adobe Illustrator 15.0.0, SVG Export Plug-In . SVG Version: 6.00 Build 0)  -->
<!DOCTYPE svg PUBLIC "-//W3C//DTD SVG 1.1//EN" "http://www.w3.org/Graphics/SVG/1.1/DTD/svg11.dtd">
<svg version="1.1" xmlns="http://www.w3.org/2000/svg" xmlns:xlink="http://www.w3.org/1999/xlink" x="0px" y="0px"
	 width="902.882px" height="576.224px" viewBox="0 0 902.882 576.224" enable-background="new 0 0 902.882 576.224"
	 xml:space="preserve">
<g id="Layer_10" display="none">
	<g display="inline">
		<g>
			<path fill="#1A1A1A" d="M-19.857,468.224c17.078,0,34.155,0,51.232,0c44.12,0,88.24,0,132.36,0c60.495,0,120.99,0,181.486,0
				c66.202,0,132.405,0,198.607,0c61.242,0,122.483,0,183.726,0c45.613,0,91.228,0,136.841,0c19.317,0,38.636,0,57.953,0
				c0.092,0,0.184,0,0.275,0c9.686,0,9.771-15.004,0.107-15.004c-17.077,0-34.154,0-51.231,0c-44.12,0-88.24,0-132.36,0
				c-60.495,0-120.99,0-181.485,0c-66.203,0-132.405,0-198.607,0c-61.242,0-122.484,0-183.726,0c-45.614,0-91.228,0-136.841,0
				c-19.318,0-38.635,0-57.953,0c-0.092,0-0.184,0-0.275,0C-29.436,453.22-29.521,468.224-19.857,468.224L-19.857,468.224z"/>
		</g>
	</g>
	<g display="inline">
		<polygon fill="#CCCCCC" points="742.676,388.722 922.676,568.722 -19.803,568.722 160.197,388.722 		"/>
		<g>
			<path fill="#1A1A1A" d="M737.401,394.055c32.118,32.118,64.237,64.237,96.356,96.356c27.881,27.881,55.762,55.762,83.644,83.644
				c1.776-4.278,3.553-8.557,5.329-12.835c-17.077,0-34.154,0-51.231,0c-44.12,0-88.24,0-132.36,0c-60.495,0-120.99,0-181.485,0
				c-66.203,0-132.405,0-198.607,0c-61.242,0-122.484,0-183.726,0c-45.614,0-91.228,0-136.841,0c-19.318,0-38.635,0-57.953,0
				c-0.092,0-0.184,0-0.275,0c1.759,4.26,3.519,8.519,5.278,12.777c32.119-32.118,64.238-64.237,96.356-96.356
				c27.881-27.881,55.762-55.762,83.644-83.644c-1.795,0.742-3.591,1.484-5.387,2.227c25.848,0,51.696,0,77.544,0
				c58.932,0,117.864,0,176.796,0c64.097,0,128.193,0,192.29,0c41.344,0,82.687,0,124.029,0c3.94,0,7.88,0,11.82,0
				c9.686,0,9.771-15.004,0.107-15.004c-25.848,0-51.696,0-77.544,0c-58.932,0-117.864,0-176.796,0c-64.097,0-128.193,0-192.291,0
				c-41.343,0-82.686,0-124.029,0c-3.509,0-7.018,0-10.526,0c-3.574,0-6.133,1.68-8.559,4.105
				c-14.03,14.029-28.06,28.06-42.089,42.089c-41.492,41.492-82.985,82.984-124.477,124.477c-3.852,3.852-7.704,7.704-11.555,11.556
				c-4.58,4.579-1.211,12.777,5.278,12.777c17.078,0,34.155,0,51.232,0c44.12,0,88.24,0,132.36,0c60.495,0,120.99,0,181.486,0
				c66.202,0,132.405,0,198.607,0c61.242,0,122.483,0,183.726,0c45.613,0,91.228,0,136.841,0c19.317,0,38.636,0,57.953,0
				c0.092,0,0.184,0,0.275,0c6.596,0,10.003-8.16,5.329-12.835c-32.118-32.118-64.237-64.237-96.356-96.356
				c-27.881-27.881-55.762-55.762-83.644-83.644C741.116,376.554,730.548,387.202,737.401,394.055z"/>
		</g>
	</g>
	<g display="inline">
		<rect x="-19.803" y="568.722" fill="#CCCCCC" width="942.479" height="72"/>
		<g>
			<path fill="#1A1A1A" d="M922.73,633.22c-17.077,0-34.154,0-51.231,0c-44.12,0-88.24,0-132.36,0c-60.495,0-120.99,0-181.485,0
				c-66.203,0-132.405,0-198.607,0c-61.242,0-122.484,0-183.726,0c-45.614,0-91.228,0-136.841,0c-19.318,0-38.635,0-57.953,0
				c-0.092,0-0.184,0-0.275,0c2.482,2.519,4.965,5.037,7.447,7.556c0-24,0-48,0-72c-2.519,2.482-5.037,4.966-7.556,7.448
				c17.078,0,34.155,0,51.232,0c44.12,0,88.24,0,132.36,0c60.495,0,120.99,0,181.486,0c66.202,0,132.405,0,198.607,0
				c61.242,0,122.483,0,183.726,0c45.613,0,91.228,0,136.841,0c19.317,0,38.636,0,57.953,0c0.092,0,0.184,0,0.275,0
				c-2.483-2.519-4.966-5.037-7.448-7.556c0,24,0,48,0,72c0,9.686,15.004,9.771,15.004,0.107c0-24,0-48,0-72
				c0-4.064-3.342-7.556-7.448-7.556c-17.077,0-34.154,0-51.231,0c-44.12,0-88.24,0-132.36,0c-60.495,0-120.99,0-181.485,0
				c-66.203,0-132.405,0-198.607,0c-61.242,0-122.484,0-183.726,0c-45.614,0-91.228,0-136.841,0c-19.318,0-38.635,0-57.953,0
				c-0.092,0-0.184,0-0.275,0c-4.065,0-7.556,3.342-7.556,7.448c0,24,0,48,0,72c0,4.064,3.341,7.556,7.447,7.556
				c17.078,0,34.155,0,51.232,0c44.12,0,88.24,0,132.36,0c60.495,0,120.99,0,181.486,0c66.202,0,132.405,0,198.607,0
				c61.242,0,122.483,0,183.726,0c45.613,0,91.228,0,136.841,0c19.317,0,38.636,0,57.953,0c0.092,0,0.184,0,0.275,0
				C932.308,648.224,932.394,633.22,922.73,633.22z"/>
		</g>
	</g>
	<defs>
		<filter id="Adobe_OpacityMaskFilter" filterUnits="userSpaceOnUse" x="152.695" y="-172.731" width="597.483" height="568.956">
			
				<feColorMatrix  type="matrix" values="-1 0 0 0 1  0 -1 0 0 1  0 0 -1 0 1  0 0 0 1 0" color-interpolation-filters="sRGB" result="source"/>
		</filter>
	</defs>
	<mask maskUnits="userSpaceOnUse" x="152.695" y="-172.731" width="597.483" height="568.956" id="SVGID_1_" display="inline">
		<g filter="url(#Adobe_OpacityMaskFilter)">
			<g>
				<linearGradient id="SVGID_2_" gradientUnits="userSpaceOnUse" x1="451.436" y1="-165.23" x2="451.436" y2="388.7227">
					<stop  offset="0.0675" style="stop-color:#FFFFFF"/>
					<stop  offset="0.5092" style="stop-color:#000000"/>
				</linearGradient>
				<rect x="91.437" y="-165.23" fill="url(#SVGID_2_)" width="720" height="553.952"/>
			</g>
		</g>
	</mask>
	<g display="inline" mask="url(#SVGID_1_)">
		<rect x="160.197" y="-165.23" fill="#D9534F" width="582.479" height="553.952"/>
		<g>
			<path fill="#1A1A1A" d="M742.73,381.22c-25.848,0-51.696,0-77.544,0c-58.932,0-117.864,0-176.796,0
				c-64.097,0-128.193,0-192.291,0c-41.343,0-82.686,0-124.029,0c-3.94,0-7.88,0-11.82,0c2.482,2.519,4.965,5.037,7.448,7.556
				c0-26.938,0-53.877,0-80.816c0-60.223,0-120.445,0-180.668c0-62.617,0-125.233,0-187.85c0-34.121,0-68.242,0-102.362
				c0-0.751,0-1.503,0-2.255c-2.519,2.482-5.038,4.965-7.556,7.447c25.848,0,51.696,0,77.544,0c58.932,0,117.864,0,176.796,0
				c64.097,0,128.193,0,192.29,0c41.344,0,82.687,0,124.029,0c3.94,0,7.88,0,11.82,0c-2.483-2.519-4.966-5.037-7.448-7.556
				c0,26.939,0,53.877,0,80.816c0,60.223,0,120.445,0,180.668c0,62.617,0,125.233,0,187.85c0,34.121,0,68.242,0,102.362
				c0,0.752,0,1.504,0,2.256c0,9.686,15.004,9.771,15.004,0.107c0-26.938,0-53.877,0-80.816c0-60.223,0-120.445,0-180.668
				c0-62.617,0-125.233,0-187.85c0-34.121,0-68.242,0-102.362c0-0.751,0-1.503,0-2.255c0-4.065-3.342-7.556-7.448-7.556
				c-25.848,0-51.696,0-77.544,0c-58.932,0-117.864,0-176.796,0c-64.097,0-128.193,0-192.291,0c-41.343,0-82.686,0-124.029,0
				c-3.94,0-7.88,0-11.82,0c-4.065,0-7.556,3.341-7.556,7.447c0,26.939,0,53.877,0,80.816c0,60.223,0,120.445,0,180.668
				c0,62.617,0,125.233,0,187.85c0,34.121,0,68.242,0,102.362c0,0.752,0,1.504,0,2.256c0,4.064,3.342,7.556,7.448,7.556
				c25.848,0,51.696,0,77.544,0c58.932,0,117.864,0,176.796,0c64.097,0,128.193,0,192.29,0c41.344,0,82.687,0,124.029,0
				c3.94,0,7.88,0,11.82,0C752.308,396.224,752.394,381.22,742.73,381.22z"/>
		</g>
	</g>
	<g id="Layer_11" display="inline">
		<g>
			<circle fill="#C7B299" cx="655.713" cy="-9.23" r="36"/>
			<g>
				<path fill="#1A1A1A" d="M612.211-9.284c0.451,23.978,19.429,43.104,43.448,43.556c23.978,0.452,43.116-20.107,43.556-43.447
					c0.451-23.979-20.107-43.117-43.448-43.556C631.79-53.183,612.651-32.625,612.211-9.284c-0.183,9.693,14.822,9.761,15.004,0.108
					c0.297-15.763,12.64-28.255,28.444-28.553c15.765-0.296,28.263,13.087,28.552,28.444c0.297,15.765-13.087,28.263-28.444,28.553
					c-15.765,0.296-28.263-13.087-28.552-28.444C627.033-18.849,612.03-18.952,612.211-9.284z"/>
			</g>
		</g>
	</g>
</g>
<g id="Layer_1">
	<g>
		<g>
			<linearGradient id="SVGID_3_" gradientUnits="userSpaceOnUse" x1="451.436" y1="568.7222" x2="451.436" y2="208.7227">
				<stop  offset="0" style="stop-color:#C68945"/>
				<stop  offset="1" style="stop-color:#C69C6D"/>
			</linearGradient>
			<rect x="160.197" y="208.722" fill="url(#SVGID_3_)" width="582.479" height="360"/>
			<g>
				<path fill="#1A1A1A" d="M742.73,561.22c-25.848,0-51.696,0-77.544,0c-58.932,0-117.864,0-176.796,0
					c-64.097,0-128.193,0-192.291,0c-41.343,0-82.686,0-124.029,0c-3.94,0-7.88,0-11.82,0c2.482,2.519,4.965,5.037,7.448,7.556
					c0-37.189,0-74.379,0-111.568c0-62.795,0-125.59,0-188.386c0-20.015,0-40.03,0-60.045c-2.519,2.482-5.038,4.965-7.556,7.448
					c25.848,0,51.696,0,77.544,0c58.932,0,117.864,0,176.796,0c64.097,0,128.193,0,192.29,0c41.344,0,82.687,0,124.029,0
					c3.94,0,7.88,0,11.82,0c-2.483-2.519-4.966-5.038-7.448-7.556c0,37.189,0,74.379,0,111.569c0,62.795,0,125.59,0,188.386
					c0,20.015,0,40.03,0,60.046c0,9.686,15.004,9.771,15.004,0.107c0-37.189,0-74.379,0-111.568c0-62.795,0-125.59,0-188.386
					c0-20.015,0-40.03,0-60.045c0-4.065-3.342-7.556-7.448-7.556c-25.848,0-51.696,0-77.544,0c-58.932,0-117.864,0-176.796,0
					c-64.097,0-128.193,0-192.291,0c-41.343,0-82.686,0-124.029,0c-3.94,0-7.88,0-11.82,0c-4.065,0-7.556,3.342-7.556,7.448
					c0,37.189,0,74.379,0,111.569c0,62.795,0,125.59,0,188.386c0,20.015,0,40.03,0,60.046c0,4.064,3.342,7.556,7.448,7.556
					c25.848,0,51.696,0,77.544,0c58.932,0,117.864,0,176.796,0c64.097,0,128.193,0,192.29,0c41.344,0,82.687,0,124.029,0
					c3.94,0,7.88,0,11.82,0C752.308,576.224,752.394,561.22,742.73,561.22z"/>
			</g>
		</g>
		<g>
			<polygon fill="#C69C6D" points="640.853,106.899 742.676,208.722 160.197,208.722 262.021,106.899 			"/>
			<g>
				<path fill="#1A1A1A" d="M635.578,112.231c33.41,33.41,66.819,66.82,100.229,100.23c0.531,0.531,1.062,1.062,1.594,1.593
					c1.776-4.278,3.553-8.556,5.329-12.834c-25.848,0-51.696,0-77.544,0c-58.932,0-117.864,0-176.796,0
					c-64.097,0-128.193,0-192.291,0c-41.343,0-82.686,0-124.029,0c-3.94,0-7.88,0-11.82,0c1.759,4.259,3.519,8.519,5.278,12.777
					c33.349-33.349,66.698-66.697,100.047-100.046c0.592-0.593,1.185-1.185,1.777-1.777c-1.795,0.742-3.591,1.484-5.387,2.226
					c35.836,0,71.673,0,107.509,0c63.639,0,127.279,0,190.917,0c26.802,0,53.604,0,80.406,0c9.686,0,9.771-15.003,0.107-15.003
					c-35.836,0-71.673,0-107.509,0c-63.64,0-127.278,0-190.917,0c-21.682,0-43.363,0-65.044,0c-4.708,0-9.415,0-14.123,0
					c-5.177,0-7.91,3.511-11.274,6.874c-32.392,32.392-64.784,64.783-97.175,97.175c-4.58,4.579-1.211,12.777,5.278,12.777
					c25.848,0,51.696,0,77.544,0c58.932,0,117.864,0,176.796,0c64.097,0,128.193,0,192.29,0c41.344,0,82.687,0,124.029,0
					c3.94,0,7.88,0,11.82,0c6.596,0,10.003-8.161,5.329-12.834c-33.41-33.41-66.819-66.82-100.229-100.23
					c-0.531-0.531-1.062-1.062-1.594-1.593C639.293,94.731,628.725,105.379,635.578,112.231z"/>
			</g>
		</g>
	</g>
	<line display="none" fill="none" stroke="#000000" stroke-miterlimit="10" x1="742.676" y1="208.722" x2="509.684" y2="208.722"/>
	<line display="none" fill="none" stroke="#000000" stroke-miterlimit="10" x1="393.189" y1="208.722" x2="160.197" y2="208.722"/>
	<line display="none" fill="none" stroke="#000000" stroke-miterlimit="10" x1="423.876" y1="106.899" x2="262.021" y2="106.899"/>
	<line display="none" fill="none" stroke="#000000" stroke-miterlimit="10" x1="640.853" y1="106.899" x2="478.999" y2="106.899"/>
	<g display="none">
		<rect x="393.189" y="208.722" display="inline" fill="#C7B299" width="116.495" height="72"/>
		<g display="inline">
			<path fill="#1A1A1A" d="M509.738,273.221c-38.831,0-77.663,0-116.495,0c2.482,2.519,4.965,5.037,7.448,7.556c0-24,0-48,0-72
				c-2.519,2.482-5.038,4.965-7.556,7.448c38.832,0,77.664,0,116.496,0c-2.483-2.519-4.966-5.038-7.448-7.556c0,24,0,48,0,72
				c0,9.687,15.004,9.772,15.004,0.108c0-24,0-48,0-72c0-4.065-3.342-7.556-7.448-7.556c-38.831,0-77.663,0-116.495,0
				c-4.065,0-7.556,3.342-7.556,7.448c0,24,0,48,0,72c0,4.065,3.342,7.556,7.448,7.556c38.832,0,77.664,0,116.496,0
				C519.316,288.224,519.402,273.221,509.738,273.221z"/>
		</g>
	</g>
	<g>
		<polygon fill="#C7B299" points="478.999,106.899 509.684,208.722 393.189,208.722 423.876,106.899 		"/>
		<g>
			<path fill="#1A1A1A" d="M471.754,108.84c10.229,33.941,20.457,67.882,30.686,101.823c2.433-3.147,4.865-6.295,7.298-9.443
				c-38.831,0-77.663,0-116.495,0c2.394,3.161,4.787,6.322,7.181,9.482c10.229-33.941,20.458-67.882,30.687-101.823
				c-2.43,1.84-4.859,3.681-7.289,5.521c18.374,0,36.749,0,55.123,0c9.686,0,9.771-15.003,0.107-15.003c-18.374,0-36.748,0-55.122,0
				c-3.433,0-6.311,2.275-7.289,5.521c-10.229,33.941-20.458,67.882-30.688,101.823c-1.397,4.638,2.422,9.482,7.181,9.482
				c38.832,0,77.664,0,116.496,0c4.758,0,8.72-4.727,7.298-9.443c-10.229-33.941-20.457-67.882-30.686-101.823
				C483.458,95.714,468.96,99.569,471.754,108.84z"/>
		</g>
	</g>
</g>
<g id="Layer_5" display="none">
	<g display="inline">
		<rect x="306.537" y="309.77" fill="#3FA9F5" width="289.8" height="180"/>
		<g>
			<path fill="#1A1A1A" d="M596.39,482.268c-42.483,0-84.966,0-127.449,0c-52.341,0-104.683,0-157.024,0c-1.775,0-3.551,0-5.326,0
				c2.482,2.519,4.965,5.037,7.448,7.556c0-49.992,0-99.984,0-149.977c0-10.008,0-20.016,0-30.023
				c-2.519,2.482-5.038,4.965-7.556,7.448c42.483,0,84.967,0,127.45,0c52.342,0,104.683,0,157.023,0c1.775,0,3.552,0,5.327,0
				c-2.483-2.519-4.966-5.037-7.448-7.556c0,49.993,0,99.985,0,149.977c0,10.008,0,20.016,0,30.023
				c0,9.686,15.004,9.771,15.004,0.107c0-49.992,0-99.984,0-149.977c0-10.008,0-20.016,0-30.023c0-4.065-3.342-7.556-7.448-7.556
				c-42.483,0-84.966,0-127.449,0c-52.341,0-104.683,0-157.024,0c-1.775,0-3.551,0-5.326,0c-4.065,0-7.556,3.342-7.556,7.448
				c0,49.993,0,99.985,0,149.977c0,10.008,0,20.016,0,30.023c0,4.064,3.342,7.556,7.448,7.556c42.483,0,84.967,0,127.45,0
				c52.342,0,104.683,0,157.023,0c1.775,0,3.552,0,5.327,0C605.968,497.272,606.054,482.268,596.39,482.268z"/>
		</g>
	</g>
	<g display="inline">
		<path stroke="#1A1A1A" d="M347.218,382.43c0-3.096,2.448-5.544,5.544-5.544c3.097,0,5.545,2.448,5.545,5.544v35.211h20.521
			c2.808,0,5.041,2.232,5.041,5.041c0,2.808-2.232,5.04-5.041,5.04h-26.066c-3.096,0-5.544-2.448-5.544-5.545V382.43z"/>
		<path stroke="#1A1A1A" d="M386.674,402.664v-0.144c0-14.329,11.305-26.066,26.858-26.066c15.553,0,26.714,11.593,26.714,25.922
			v0.145c0,14.329-11.305,26.066-26.858,26.066C397.834,428.586,386.674,416.994,386.674,402.664z M428.653,402.664v-0.144
			c0-8.641-6.336-15.842-15.265-15.842s-15.122,7.057-15.122,15.697v0.145c0,8.641,6.337,15.842,15.266,15.842
			S428.653,411.305,428.653,402.664z"/>
		<path stroke="#1A1A1A" d="M447.874,402.664v-0.144c0-14.329,11.161-26.066,26.426-26.066c7.633,0,12.674,1.729,17.21,4.896
			c1.08,0.792,2.304,2.305,2.304,4.465c0,3.023-2.448,5.472-5.472,5.472c-1.585,0-2.593-0.575-3.385-1.151
			c-3.024-2.16-6.265-3.457-11.017-3.457c-8.064,0-14.474,7.129-14.474,15.697v0.145c0,9.217,6.337,15.985,15.266,15.985
			c4.032,0,7.633-1.008,10.44-3.024v-7.2h-7.488c-2.664,0-4.824-2.089-4.824-4.753s2.16-4.824,4.824-4.824h12.673
			c3.097,0,5.545,2.448,5.545,5.545v12.24c0,3.24-1.225,5.473-3.889,7.057c-4.104,2.521-10.081,5.041-17.642,5.041
			C458.674,428.586,447.874,417.569,447.874,402.664z"/>
		<path stroke="#1A1A1A" d="M504.321,402.664v-0.144c0-14.329,11.305-26.066,26.858-26.066c15.553,0,26.714,11.593,26.714,25.922
			v0.145c0,14.329-11.305,26.066-26.858,26.066C515.482,428.586,504.321,416.994,504.321,402.664z M546.3,402.664v-0.144
			c0-8.641-6.337-15.842-15.266-15.842s-15.121,7.057-15.121,15.697v0.145c0,8.641,6.337,15.842,15.266,15.842
			S546.3,411.305,546.3,402.664z"/>
	</g>
</g>
<g id="Layer_12" display="none">
	<g display="inline">
		<path fill="#1A1A1A" stroke="#1A1A1A" d="M353.036,431.206h-43.198c-6.15,0-11.25-4.5-11.25-10.65c0-4.8,1.95-8.549,5.399-12.6
			l45.598-52.947c4.35-5.1,7.65-7.8,14.399-7.8c6.15,0,11.1,4.8,11.1,10.949v54.298h5.55c5.25,0,9.45,4.2,9.45,9.449
			c0,5.25-4.2,9.301-9.45,9.301h-5.55v12.599c0,6.149-4.95,10.95-11.1,10.95c-6.149,0-10.949-4.801-10.949-10.95V431.206z
			 M353.036,412.456v-32.699l-27.899,32.699H353.036z"/>
		<path fill="#1A1A1A" stroke="#1A1A1A" d="M404.787,401.657v-0.301c0-30.449,18.899-54.298,46.798-54.298
			c27.749,0,46.498,23.55,46.498,53.998v0.3c0,30.449-18.749,54.298-46.798,54.298S404.787,432.105,404.787,401.657z
			 M474.383,401.657v-0.301c0-19.049-9.299-33.448-23.099-33.448s-22.799,13.949-22.799,33.148v0.3
			c0,19.199,9.149,33.449,23.099,33.449S474.383,420.706,474.383,401.657z"/>
		<path fill="#1A1A1A" stroke="#1A1A1A" d="M565.883,431.206h-43.197c-6.15,0-11.25-4.5-11.25-10.65c0-4.8,1.951-8.549,5.4-12.6
			l45.598-52.947c4.35-5.1,7.65-7.8,14.4-7.8c6.148,0,11.1,4.8,11.1,10.949v54.298h5.549c5.25,0,9.449,4.2,9.449,9.449
			c0,5.25-4.199,9.301-9.449,9.301h-5.549v12.599c0,6.149-4.951,10.95-11.1,10.95c-6.15,0-10.951-4.801-10.951-10.95V431.206z
			 M565.883,412.456v-32.699l-27.898,32.699H565.883z"/>
	</g>
</g>
<g id="Layer_4" display="none">
	<path display="inline" fill="#1A1A1A" stroke="#1A1A1A" stroke-miterlimit="10" d="M516.806,456.742
		c-2.449,5.66-5.35,10.87-8.709,15.66c-4.58,6.53-8.33,11.05-11.221,13.56c-4.48,4.12-9.279,6.23-14.42,6.351
		c-3.689,0-8.141-1.051-13.32-3.181c-5.197-2.12-9.973-3.17-14.34-3.17c-4.58,0-9.492,1.05-14.746,3.17
		c-5.262,2.13-9.501,3.24-12.742,3.351c-4.929,0.21-9.842-1.96-14.746-6.521c-3.129-2.729-7.045-7.41-11.734-14.04
		c-5.032-7.08-9.169-15.29-12.41-24.649c-3.471-10.11-5.211-19.9-5.211-29.378c0-10.857,2.346-20.222,7.045-28.068
		c3.693-6.303,8.605-11.275,14.755-14.925c6.149-3.65,12.793-5.51,19.948-5.629c3.915,0,9.049,1.211,15.429,3.591
		c6.362,2.388,10.447,3.599,12.238,3.599c1.339,0,5.877-1.416,13.569-4.238c7.275-2.618,13.416-3.702,18.445-3.275
		c13.631,1.1,23.87,6.473,30.68,16.153c-12.189,7.386-18.219,17.73-18.1,31.002c0.11,10.337,3.86,18.938,11.23,25.769
		c3.34,3.17,7.07,5.62,11.22,7.36C518.767,451.841,517.816,454.341,516.806,456.742L516.806,456.742z M485.546,333.732
		c0,8.102-2.96,15.667-8.859,22.669c-7.121,8.324-15.732,13.134-25.071,12.375c-0.119-0.973-0.188-1.995-0.188-3.07
		c0-7.778,3.387-16.102,9.399-22.908c3.002-3.445,6.819-6.311,11.45-8.597c4.619-2.252,8.99-3.497,13.1-3.71
		C485.497,331.574,485.546,332.657,485.546,333.732L485.546,333.732z"/>
</g>
<g id="Layer_8" display="none">
	<g display="inline">
		<path fill="#FFFFFF" stroke="#1A1A1A" stroke-miterlimit="10" d="M799.968,418.221c2.524-12.702,6.418-25.149,11.071-37.239
			c4.929-11.105,10.036-22.22,12.942-33.997c3.582-14.514,5.46-30.932,3.671-46.012c-2.335-19.694-3.534-26.369-12.068-44.6
			c-6.049-12.923-20.641-25.715-32.921-32.362c-23.41-12.671-49.119-12.399-72.602-0.18c-1.792,0.933-3.444,1.979-5.012,3.096
			c-2.896-0.41-5.847-0.652-8.851-0.672c-36.477-0.242-68.147,30.252-68.002,67.029c0.088,22.175,3.209,44.269,6.688,66.129
			c2.553,16.038,10.236,30.427,17.203,44.972c0.079,0.264,0.155,0.528,0.231,0.794c0.145,3.322,0.236,6.647,0.385,9.96
			c0.65,14.567,2.273,29.024,4.581,43.436c1.964,12.267,6.369,25.729,13.489,35.707c7.696,10.789,17.014,23.145,29.765,28.556
			c17.69,7.506,16.3,7.814,35.634,9.655c7.343,0.699,14.796-1.202,22.01-2.521c16.874-3.087,32.668-17.042,40.986-31.45
			c5.9-10.301,8.92-21.389,9.059-33.264c0.008-11.082-2.479-21.498-7.441-31.248c-0.385-1.334-0.739-2.676-1.061-4.026
			C799.608,426.06,799.694,422.14,799.968,418.221z"/>
		<path fill="#1A1A1A" stroke="#1A1A1A" stroke-miterlimit="10" d="M528.98,576.234h402.588c8.187-0.097,14.772-6.762,14.772-14.948
			c0-75.844-95.644-106.093-136.694-115.618c-0.495-0.139-0.839-0.588-0.839-1.102v-16.314
			c9.489-12.361,16.579-26.391,20.901-41.361c10.802-10.628,15.564-27.251,18.122-36.511c4.19-14.728,8.379-36.069-3.174-51.327
			l-0.485-0.661c5.555-26.942,12.479-90.043-35.585-122.1c5.632-5.741,8.686-13.524,8.466-21.562
			c-0.057-0.771-0.422-1.486-1.013-1.984c-0.556-0.468-1.261-0.718-1.985-0.706c-0.616,0-60.719,6.834-89.688,0.837
			c-29.811-6.129-62.484,16.448-69.055,39.554c-11.224,1.465-21.439,7.236-28.485,16.095c-13.229,16.183-17.153,41.935-11.95,76.505
			c0.354,4.41,0.883,8.819,1.676,13.228l-0.528,0.662c-11.51,15.257-7.32,36.599-3.131,51.327
			c2.557,9.084,7.319,25.885,18.078,36.511c4.3,15.075,11.39,29.21,20.9,41.67v16.05c0.017,0.521-0.333,0.979-0.837,1.103
			c-41.141,9.481-136.694,39.687-136.694,115.618C514.29,569.369,520.809,576.066,528.98,576.234z M730.275,503.742
			c-25.477,0.359-49.557-11.614-64.646-32.146c6.569-3.67,11.572-9.612,14.067-16.712c6.736,4.381,13.976,7.933,21.562,10.583
			c18.773,6.642,39.256,6.642,58.028,0c7.575-2.755,14.799-6.396,21.519-10.848c2.461,7.189,7.483,13.218,14.111,16.933
			C779.833,492.093,755.756,504.083,730.275,503.742z M673.92,255.133c11.95-7.275,27.25-6.967,45.505,0.794
			c37.306,16.007,65.307,14.991,82.237,11.112c11.014,8.294,16.336,22.139,13.714,35.672
			c-54.15-19.182-113.191-19.524-167.561-0.969C650.33,289.086,656.811,265.584,673.92,255.133z M783.187,324.054
			c0,7.671-6.218,13.89-13.889,13.89s-13.892-6.219-13.892-13.89s6.221-13.891,13.892-13.891S783.187,316.383,783.187,324.054
			L783.187,324.054z M704.832,324.054c0,7.671-6.219,13.89-13.891,13.89c-7.671,0-13.891-6.219-13.891-13.89
			s6.22-13.891,13.891-13.891c7.67-0.097,13.968,6.042,14.066,13.714c0,0.059,0,0.117,0,0.177H704.832z M638.512,343.059
			c-0.529-1.94-1.015-3.748-1.411-5.424c59.893,23.5,126.452,23.5,186.345,0c-0.396,1.676-0.837,3.483-1.411,5.424
			c-6.79,23.944-12.302,26.193-13.845,26.458c-1.316,0.087-2.397,1.075-2.602,2.38c-3.97,25.531-24.253,57.324-55.427,68.524
			c-12.949,4.604-27.092,4.604-40.038,0c-32.455-11.42-51.416-43.567-55.296-68.567c-0.204-1.306-1.285-2.295-2.602-2.382
			C650.903,369.295,645.257,367.003,638.512,343.059z"/>
	</g>
</g>
<g id="Layer_2" display="none">
	<g display="inline">
		<rect x="555.213" y="244.722" fill="#FFFFFF" width="144" height="232.992"/>
		<g>
			<path fill="#1A1A1A" d="M699.267,470.212c-47.249,0-94.497,0-141.746,0c-0.751,0-1.503,0-2.254,0
				c2.483,2.519,4.966,5.037,7.448,7.556c0-47.097,0-94.192,0-141.289c0-30.568,0-61.135,0-91.703
				c-2.519,2.482-5.037,4.965-7.556,7.448c47.249,0,94.497,0,141.746,0c0.751,0,1.503,0,2.254,0
				c-2.483-2.519-4.966-5.038-7.448-7.556c0,47.097,0,94.193,0,141.29c0,30.567,0,61.136,0,91.703
				c0,9.686,15.004,9.771,15.004,0.107c0-47.097,0-94.192,0-141.289c0-30.568,0-61.135,0-91.703c0-4.065-3.342-7.556-7.448-7.556
				c-47.249,0-94.497,0-141.746,0c-0.751,0-1.503,0-2.254,0c-4.064,0-7.556,3.342-7.556,7.448c0,47.097,0,94.193,0,141.29
				c0,30.567,0,61.136,0,91.703c0,4.064,3.342,7.556,7.448,7.556c47.249,0,94.497,0,141.746,0c0.751,0,1.503,0,2.254,0
				C708.845,485.216,708.931,470.212,699.267,470.212z"/>
		</g>
	</g>
	<polyline display="inline" fill="none" stroke="#1A1A1A" stroke-miterlimit="10" points="699.213,477.714 681.213,477.714 
		663.213,477.714 645.213,477.714 627.213,477.714 609.213,477.714 591.213,477.714 573.213,477.714 555.213,477.714 	"/>
	<g display="inline">
		<g>
			<g>
				<path fill="#1A1A1A" d="M576.713,457.493c0-18,0-36,0-54c0-4.514-7-4.514-7,0c0,18,0,36,0,54
					C569.713,462.006,576.713,462.006,576.713,457.493L576.713,457.493z"/>
			</g>
		</g>
		<g>
			<g>
				<path fill="#1A1A1A" d="M594.713,457.214c0-17.907,0-35.814,0-53.722c0-4.514-7-4.514-7,0c0,17.907,0,35.814,0,53.722
					C587.713,461.728,594.713,461.728,594.713,457.214L594.713,457.214z"/>
			</g>
		</g>
		<g>
			<g>
				<path fill="#1A1A1A" d="M612.713,457.214c0-17.907,0-35.814,0-53.722c0-4.514-7-4.514-7,0c0,17.907,0,35.814,0,53.722
					C605.713,461.728,612.713,461.728,612.713,457.214L612.713,457.214z"/>
			</g>
		</g>
		<g>
			<g>
				<path fill="#1A1A1A" d="M630.713,457.214c0-17.907,0-35.814,0-53.722c0-4.514-7-4.514-7,0c0,17.907,0,35.814,0,53.722
					C623.713,461.728,630.713,461.728,630.713,457.214L630.713,457.214z"/>
			</g>
		</g>
		<g>
			<g>
				<path fill="#1A1A1A" d="M648.713,457.214c0-17.907,0-35.814,0-53.722c0-4.514-7-4.514-7,0c0,17.907,0,35.814,0,53.722
					C641.713,461.728,648.713,461.728,648.713,457.214L648.713,457.214z"/>
			</g>
		</g>
		<g>
			<g>
				<path fill="#1A1A1A" d="M666.713,457.214c0-17.907,0-35.814,0-53.722c0-4.514-7-4.514-7,0c0,17.907,0,35.814,0,53.722
					C659.713,461.728,666.713,461.728,666.713,457.214L666.713,457.214z"/>
			</g>
		</g>
		<g>
			<g>
				<path fill="#1A1A1A" d="M684.713,457.214c0-17.907,0-35.814,0-53.722c0-4.514-7-4.514-7,0c0,17.907,0,35.814,0,53.722
					C677.713,461.728,684.713,461.728,684.713,457.214L684.713,457.214z"/>
			</g>
		</g>
	</g>
	<g display="inline">
		<g display="none">
			<g display="inline">
				<path fill="#1A1A1A" d="M654.075,426.993c-18,0-36,0-54,0c-4.514,0-4.514,7,0,7c18,0,36,0,54,0
					C658.588,433.993,658.588,426.993,654.075,426.993L654.075,426.993z"/>
			</g>
		</g>
		<g display="none">
			<g display="inline">
				<path fill="#1A1A1A" d="M653.796,408.993c-17.907,0-35.814,0-53.722,0c-4.514,0-4.514,7,0,7c17.907,0,35.814,0,53.722,0
					C658.31,415.993,658.31,408.993,653.796,408.993L653.796,408.993z"/>
			</g>
		</g>
		<g display="none">
			<g display="inline">
				<path fill="#1A1A1A" d="M653.796,390.993c-17.907,0-35.814,0-53.722,0c-4.514,0-4.514,7,0,7c17.907,0,35.814,0,53.722,0
					C658.31,397.993,658.31,390.993,653.796,390.993L653.796,390.993z"/>
			</g>
		</g>
		<g>
			<g>
				<path fill="#1A1A1A" d="M653.796,372.993c-17.907,0-35.814,0-53.722,0c-4.514,0-4.514,7,0,7c17.907,0,35.814,0,53.722,0
					C658.31,379.993,658.31,372.993,653.796,372.993L653.796,372.993z"/>
			</g>
		</g>
		<g>
			<g>
				<path fill="#1A1A1A" d="M653.796,354.993c-17.907,0-35.814,0-53.722,0c-4.514,0-4.514,7,0,7c17.907,0,35.814,0,53.722,0
					C658.31,361.993,658.31,354.993,653.796,354.993L653.796,354.993z"/>
			</g>
		</g>
		<g>
			<g>
				<path fill="#1A1A1A" d="M653.796,336.993c-17.907,0-35.814,0-53.722,0c-4.514,0-4.514,7,0,7c17.907,0,35.814,0,53.722,0
					C658.31,343.993,658.31,336.993,653.796,336.993L653.796,336.993z"/>
			</g>
		</g>
		<g>
			<g>
				<path fill="#1A1A1A" d="M653.796,318.993c-17.907,0-35.814,0-53.722,0c-4.514,0-4.514,7,0,7c17.907,0,35.814,0,53.722,0
					C658.31,325.993,658.31,318.993,653.796,318.993L653.796,318.993z"/>
			</g>
		</g>
	</g>
	<g display="inline">
		<path fill="#1A1A1A" stroke="#1A1A1A" d="M578.253,269.058c0-2.58,2.04-4.62,4.619-4.62h12.54c10.02,0,16.079,5.939,16.079,14.519
			v0.12c0,9.72-7.56,14.759-16.979,14.759h-7.02v8.34c0,2.58-2.04,4.62-4.62,4.62c-2.579,0-4.619-2.04-4.619-4.62V269.058z
			 M594.813,285.617c4.619,0,7.319-2.76,7.319-6.359v-0.12c0-4.14-2.88-6.36-7.5-6.36h-7.14v12.839H594.813z"/>
	</g>
	<g display="inline">
		<g display="none">
			<g display="inline">
				<path fill="#1A1A1A" d="M671.075,364.326c-18,0-36,0-54,0c-4.514,0-4.514,7,0,7c18,0,36,0,54,0
					C675.588,371.326,675.588,364.326,671.075,364.326L671.075,364.326z"/>
			</g>
		</g>
		<g display="none">
			<g display="inline">
				<path fill="#1A1A1A" d="M670.796,346.326c-17.907,0-35.814,0-53.722,0c-4.514,0-4.514,7,0,7c17.907,0,35.814,0,53.722,0
					C675.31,353.326,675.31,346.326,670.796,346.326L670.796,346.326z"/>
			</g>
		</g>
		<g display="none">
			<g display="inline">
				<path fill="#1A1A1A" d="M670.796,328.326c-17.907,0-35.814,0-53.722,0c-4.514,0-4.514,7,0,7c17.907,0,35.814,0,53.722,0
					C675.31,335.326,675.31,328.326,670.796,328.326L670.796,328.326z"/>
			</g>
		</g>
		<g display="none">
			<g display="inline">
				<path fill="#1A1A1A" d="M670.796,310.326c-17.907,0-35.814,0-53.722,0c-4.514,0-4.514,7,0,7c17.907,0,35.814,0,53.722,0
					C675.31,317.326,675.31,310.326,670.796,310.326L670.796,310.326z"/>
			</g>
		</g>
		<g display="none">
			<g display="inline">
				<path fill="#1A1A1A" d="M670.796,292.326c-17.907,0-35.814,0-53.722,0c-4.514,0-4.514,7,0,7c17.907,0,35.814,0,53.722,0
					C675.31,299.326,675.31,292.326,670.796,292.326L670.796,292.326z"/>
			</g>
		</g>
		<g>
			<g>
				<path fill="#1A1A1A" d="M680.658,288.555c-17.907,0-35.814,0-53.722,0c-4.514,0-4.514,7,0,7c17.907,0,35.814,0,53.722,0
					C685.171,295.555,685.171,288.555,680.658,288.555L680.658,288.555z"/>
			</g>
		</g>
		<g>
			<g>
				<path fill="#1A1A1A" d="M680.658,270.555c-17.907,0-35.814,0-53.722,0c-4.514,0-4.514,7,0,7c17.907,0,35.814,0,53.722,0
					C685.171,277.555,685.171,270.555,680.658,270.555L680.658,270.555z"/>
			</g>
		</g>
	</g>
</g>
<g id="Layer_3" display="none">
	<g display="inline">
		<g>
			<rect x="216.218" y="250.327" fill="#FF7BAC" width="116.495" height="72.001"/>
			<g>
				<path fill="#1A1A1A" d="M332.768,314.827c-38.832,0-77.664,0-116.495,0c2.482,2.519,4.965,5.037,7.448,7.556c0-24,0-48,0-72.001
					c-2.519,2.482-5.038,4.965-7.556,7.447c38.832,0,77.664,0,116.495,0c-2.482-2.519-4.965-5.037-7.448-7.556
					c0,24,0,48.001,0,72.002c0,9.686,15.004,9.771,15.004,0.107c0-24,0-48,0-72.001c0-4.065-3.342-7.556-7.448-7.556
					c-38.832,0-77.664,0-116.495,0c-4.065,0-7.556,3.341-7.556,7.447c0,24,0,48.001,0,72.002c0,4.064,3.342,7.556,7.448,7.556
					c38.832,0,77.664,0,116.495,0C342.346,329.831,342.431,314.827,332.768,314.827z"/>
			</g>
		</g>
		<g>
			<g display="none">
				<g display="inline">
					<path fill="#1A1A1A" d="M290.674,365.713c-18,0-36,0-54,0c-4.514,0-4.514,7,0,7c18,0,36,0,54,0
						C295.188,372.713,295.188,365.713,290.674,365.713L290.674,365.713z"/>
				</g>
			</g>
			<g display="none">
				<g display="inline">
					<path fill="#1A1A1A" d="M290.396,347.713c-17.907,0-35.814,0-53.722,0c-4.514,0-4.514,7,0,7c17.907,0,35.814,0,53.722,0
						C294.91,354.713,294.91,347.713,290.396,347.713L290.396,347.713z"/>
				</g>
			</g>
			<g display="none">
				<g display="inline">
					<path fill="#1A1A1A" d="M290.396,329.713c-17.907,0-35.814,0-53.722,0c-4.514,0-4.514,7,0,7c17.907,0,35.814,0,53.722,0
						C294.91,336.713,294.91,329.713,290.396,329.713L290.396,329.713z"/>
				</g>
			</g>
			<g display="none">
				<g display="inline">
					<path fill="#1A1A1A" d="M290.396,311.713c-17.907,0-35.814,0-53.722,0c-4.514,0-4.514,7,0,7c17.907,0,35.814,0,53.722,0
						C294.91,318.713,294.91,311.713,290.396,311.713L290.396,311.713z"/>
				</g>
			</g>
			<g display="none">
				<g display="inline">
					<path fill="#1A1A1A" d="M290.396,293.713c-17.907,0-35.814,0-53.722,0c-4.514,0-4.514,7,0,7c17.907,0,35.814,0,53.722,0
						C294.91,300.713,294.91,293.713,290.396,293.713L290.396,293.713z"/>
				</g>
			</g>
			<g>
				<g>
					<path fill="#1A1A1A" d="M300.257,289.942c-17.907,0-35.814,0-53.722,0c-4.514,0-4.514,7,0,7c17.907,0,35.814,0,53.722,0
						C304.771,296.942,304.771,289.942,300.257,289.942L300.257,289.942z"/>
				</g>
			</g>
			<g>
				<g>
					<path fill="#1A1A1A" d="M300.257,271.942c-17.907,0-35.814,0-53.722,0c-4.514,0-4.514,7,0,7c17.907,0,35.814,0,53.722,0
						C304.771,278.942,304.771,271.942,300.257,271.942L300.257,271.942z"/>
				</g>
			</g>
		</g>
	</g>
	<g display="inline">
		<g>
			<rect x="531.896" y="463.77" fill="#FCEE21" width="116.495" height="72.001"/>
			<g>
				<path fill="#1A1A1A" d="M648.445,528.269c-38.831,0-77.663,0-116.495,0c2.482,2.519,4.966,5.037,7.448,7.556c0-24,0-48,0-72.001
					c-2.519,2.483-5.037,4.966-7.556,7.448c38.831,0,77.663,0,116.495,0c-2.483-2.519-4.966-5.037-7.448-7.556c0,24,0,48,0,72.001
					c0,9.686,15.004,9.771,15.004,0.107c0-24,0-48,0-72.001c0-4.064-3.342-7.556-7.448-7.556c-38.831,0-77.663,0-116.495,0
					c-4.064,0-7.556,3.342-7.556,7.448c0,24,0,48,0,72.001c0,4.064,3.342,7.556,7.448,7.556c38.831,0,77.663,0,116.495,0
					C658.023,543.273,658.109,528.269,648.445,528.269z"/>
			</g>
		</g>
		<g>
			<g display="none">
				<line display="inline" fill="#FCEE21" x1="606.352" y1="582.656" x2="552.352" y2="582.656"/>
				<g display="inline">
					<path fill="#1A1A1A" d="M606.352,579.156c-18,0-36,0-54,0c-4.514,0-4.514,7,0,7c18,0,36,0,54,0
						C610.866,586.156,610.866,579.156,606.352,579.156L606.352,579.156z"/>
				</g>
			</g>
			<g display="none">
				<line display="inline" fill="#FCEE21" x1="606.074" y1="564.656" x2="552.352" y2="564.656"/>
				<g display="inline">
					<path fill="#1A1A1A" d="M606.074,561.156c-17.907,0-35.814,0-53.722,0c-4.514,0-4.514,7,0,7c17.907,0,35.814,0,53.722,0
						C610.587,568.156,610.587,561.156,606.074,561.156L606.074,561.156z"/>
				</g>
			</g>
			<g display="none">
				<line display="inline" fill="#FCEE21" x1="606.074" y1="546.656" x2="552.352" y2="546.656"/>
				<g display="inline">
					<path fill="#1A1A1A" d="M606.074,543.156c-17.907,0-35.814,0-53.722,0c-4.514,0-4.514,7,0,7c17.907,0,35.814,0,53.722,0
						C610.587,550.156,610.587,543.156,606.074,543.156L606.074,543.156z"/>
				</g>
			</g>
			<g display="none">
				<line display="inline" fill="#FCEE21" x1="606.074" y1="528.656" x2="552.352" y2="528.656"/>
				<g display="inline">
					<path fill="#1A1A1A" d="M606.074,525.156c-17.907,0-35.814,0-53.722,0c-4.514,0-4.514,7,0,7c17.907,0,35.814,0,53.722,0
						C610.587,532.156,610.587,525.156,606.074,525.156L606.074,525.156z"/>
				</g>
			</g>
			<g display="none">
				<line display="inline" fill="#FCEE21" x1="606.074" y1="510.655" x2="552.352" y2="510.655"/>
				<g display="inline">
					<path fill="#1A1A1A" d="M606.074,507.155c-17.907,0-35.814,0-53.722,0c-4.514,0-4.514,7,0,7c17.907,0,35.814,0,53.722,0
						C610.587,514.155,610.587,507.155,606.074,507.155L606.074,507.155z"/>
				</g>
			</g>
			<g>
				<line fill="#FCEE21" x1="615.935" y1="506.885" x2="562.213" y2="506.885"/>
				<g>
					<path fill="#1A1A1A" d="M615.935,503.385c-17.907,0-35.814,0-53.722,0c-4.514,0-4.514,7,0,7c17.907,0,35.814,0,53.722,0
						C620.449,510.385,620.449,503.385,615.935,503.385L615.935,503.385z"/>
				</g>
			</g>
			<g>
				<line fill="#FCEE21" x1="615.935" y1="488.885" x2="562.213" y2="488.885"/>
				<g>
					<path fill="#1A1A1A" d="M615.935,485.385c-17.907,0-35.814,0-53.722,0c-4.514,0-4.514,7,0,7c17.907,0,35.814,0,53.722,0
						C620.449,492.385,620.449,485.385,615.935,485.385L615.935,485.385z"/>
				</g>
			</g>
		</g>
	</g>
</g>
<g id="Layer_6" display="none">
	<g display="inline">
		<polyline fill="#8C6239" points="232.197,496.722 160.197,568.722 304.197,568.722 160.197,424.722 160.197,568.722 		"/>
		<g>
			<path fill="#1A1A1A" d="M226.864,491.447c-24,24-48,48-72,72c-4.58,4.579-1.211,12.777,5.278,12.777c47.249,0,94.498,0,141.747,0
				c0.751,0,1.502,0,2.253,0c6.596,0,10.004-8.16,5.33-12.835c-34.711-34.711-69.422-69.422-104.133-104.133
				c-13.289-13.289-26.578-26.578-39.867-39.867c-4.579-4.579-12.777-1.21-12.777,5.279c0,47.248,0,94.497,0,141.746
				c0,0.751,0,1.502,0,2.254c0,9.686,15.004,9.771,15.004,0.107c0-47.248,0-94.497,0-141.746c0-0.751,0-1.502,0-2.254
				c-4.259,1.76-8.519,3.52-12.777,5.279c34.711,34.711,69.422,69.422,104.133,104.133c13.289,13.289,26.578,26.578,39.867,39.867
				c1.776-4.278,3.553-8.557,5.33-12.835c-47.249,0-94.498,0-141.747,0c-0.751,0-1.502,0-2.253,0
				c1.759,4.26,3.519,8.519,5.278,12.777c24-24,48-48,72-72C244.365,495.163,233.717,484.594,226.864,491.447L226.864,491.447z"/>
		</g>
	</g>
	<g display="inline">
		<polygon fill="#FFFFFF" points="196.197,532.722 268.197,532.722 196.197,460.722 		"/>
		<g>
			<path fill="#1A1A1A" d="M196.143,540.224c24,0,48,0,72,0c6.596,0,10.004-8.16,5.33-12.835c-24-24-48-48-72-72
				c-4.579-4.579-12.777-1.21-12.777,5.279c0,24,0,48,0,72c0,9.686,15.004,9.771,15.004,0.107c0-24,0-48,0-72
				c-4.259,1.76-8.519,3.52-12.777,5.279c24,24,48,48,72,72c1.776-4.278,3.553-8.557,5.33-12.835c-24,0-48,0-72,0
				C186.564,525.22,186.479,540.224,196.143,540.224z"/>
		</g>
	</g>
	<g display="inline">
		<g>
			<path fill="#1A1A1A" d="M458.938,208.776c0-33.941,0-67.882,0-101.823c0-9.687-15.004-9.772-15.004-0.108
				c0,33.941,0,67.882,0,101.823C443.934,218.354,458.938,218.44,458.938,208.776L458.938,208.776z"/>
		</g>
	</g>
</g>
<g id="Layer_7">
	<g display="none">
		<polygon display="inline" fill="#C69C6D" points="640.853,106.899 742.676,208.722 844.5,106.899 707.038,40.714 		"/>
		<g display="inline">
			<path d="M635.578,112.231c33.41,33.41,66.819,66.82,100.229,100.23c0.531,0.531,1.062,1.062,1.594,1.593
				c2.899,2.9,7.729,2.821,10.607-0.057c33.41-33.41,66.82-66.82,100.23-100.229c0.531-0.531,1.062-1.062,1.594-1.594
				c3.231-3.231,2.811-9.655-1.583-11.771c-43.802-21.09-87.604-42.18-131.407-63.27c-2.018-0.972-4.036-1.944-6.055-2.916
				c-3.08-1.483-6.561-1.303-9.082,1.219c-22.062,22.062-44.123,44.124-66.186,66.186c-6.835,6.835,3.813,17.404,10.666,10.551
				c22.061-22.062,44.123-44.123,66.184-66.185c-3.027,0.406-6.055,0.813-9.082,1.219c43.803,21.09,87.604,42.18,131.407,63.27
				c2.018,0.972,4.036,1.944,6.055,2.916c-0.527-3.923-1.055-7.847-1.583-11.771c-33.409,33.41-66.819,66.82-100.229,100.229
				c-0.531,0.531-1.062,1.062-1.593,1.594c3.535-0.019,7.071-0.038,10.607-0.057c-33.41-33.41-66.819-66.82-100.229-100.23
				c-0.531-0.531-1.062-1.062-1.594-1.593C639.293,94.731,628.725,105.379,635.578,112.231z"/>
		</g>
	</g>
	<g display="none">
		<polygon display="inline" fill="#C69C6D" points="262.021,106.899 160.197,208.722 58.374,106.899 195.836,40.714 		"/>
		<g display="inline">
			<path d="M256.688,101.624c-33.409,33.41-66.819,66.82-100.229,100.229c-0.531,0.531-1.062,1.062-1.593,1.594
				c3.535-0.019,7.071-0.038,10.607-0.057c-33.41-33.41-66.819-66.82-100.229-100.23c-0.531-0.531-1.062-1.062-1.594-1.593
				c-0.492,3.934-0.985,7.868-1.478,11.802c43.802-21.09,87.604-42.18,131.406-63.27c2.019-0.972,4.037-1.944,6.056-2.916
				c-3.024-0.379-6.049-0.758-9.073-1.137c22.062,22.062,44.123,44.124,66.185,66.185c6.835,6.835,17.403-3.812,10.551-10.665
				c-22.062-22.062-44.123-44.124-66.185-66.185c-2.52-2.52-6.021-2.606-9.073-1.137c-43.802,21.09-87.604,42.18-131.406,63.27
				c-2.019,0.972-4.037,1.944-6.056,2.916c-4.441,2.139-4.688,8.593-1.478,11.802c33.41,33.41,66.819,66.82,100.229,100.23
				c0.531,0.531,1.062,1.062,1.594,1.593c2.899,2.9,7.729,2.821,10.607-0.057c33.41-33.41,66.82-66.82,100.23-100.229
				c0.531-0.531,1.062-1.062,1.594-1.594C274.188,105.339,263.541,94.771,256.688,101.624z"/>
		</g>
	</g>
	<g>
		<polygon fill="#8C6239" points="742.676,208.722 160.197,208.722 262.021,106.899 640.853,106.899 		"/>
		<g>
			<path fill="#1A1A1A" d="M742.73,201.22c-25.848,0-51.696,0-77.544,0c-58.932,0-117.863,0-176.796,0c-64.097,0-128.193,0-192.29,0
				c-41.343,0-82.686,0-124.029,0c-3.94,0-7.88,0-11.82,0c1.759,4.259,3.519,8.519,5.278,12.777
				c33.41-33.41,66.82-66.82,100.23-100.229c0.531-0.531,1.062-1.062,1.593-1.594c-1.795,0.742-3.591,1.484-5.387,2.226
				c35.836,0,71.673,0,107.509,0c63.639,0,127.279,0,190.917,0c26.802,0,53.604,0,80.406,0c-1.741-0.723-3.481-1.446-5.222-2.169
				c33.41,33.41,66.819,66.82,100.229,100.23c0.531,0.531,1.062,1.062,1.594,1.593c6.836,6.835,17.403-3.812,10.551-10.665
				c-33.41-33.41-66.819-66.82-100.229-100.23c-2.983-2.983-6.055-3.762-10.066-3.762c-5.864,0-11.729,0-17.594,0
				c-23.256,0-46.512,0-69.768,0c-63.827,0-127.654,0-191.48,0c-24.119,0-48.239,0-72.358,0c-6.513,0-13.025,0-19.538,0
				c-3.991,0-7.584-0.42-10.746,2.741c-33.665,33.665-67.329,67.33-100.994,100.994c-0.104,0.104-0.209,0.209-0.314,0.314
				c-4.58,4.579-1.211,12.777,5.278,12.777c25.848,0,51.696,0,77.544,0c58.932,0,117.864,0,176.795,0c64.097,0,128.193,0,192.29,0
				c41.344,0,82.687,0,124.029,0c3.94,0,7.88,0,11.82,0C752.308,216.224,752.394,201.22,742.73,201.22z"/>
		</g>
	</g>
	<g>
		<g>
			<path fill="#1A1A1A" d="M254.519,106.845c0,33.941,0,67.882,0,101.823c0,9.687,15.003,9.772,15.003,0.108
				c0-33.941,0-67.882,0-101.823C269.522,97.267,254.519,97.181,254.519,106.845L254.519,106.845z"/>
		</g>
	</g>
	<g>
		<g>
			<path fill="#1A1A1A" d="M633.351,106.845c0,33.941,0,67.882,0,101.823c0,9.687,15.004,9.772,15.004,0.108
				c0-33.941,0-67.882,0-101.823C648.355,97.267,633.351,97.181,633.351,106.845L633.351,106.845z"/>
		</g>
	</g>
	<g>
		<polygon fill="#C69C6D" points="740.131,7.621 640.853,106.899 742.676,208.722 895.411,55.987 		"/>
		<g>
			<path fill="#1A1A1A" d="M734.799,2.345c-32.833,32.833-65.665,65.665-98.497,98.497c-0.261,0.261-0.521,0.521-0.782,0.782
				c-2.899,2.899-2.82,7.73,0.058,10.608c33.41,33.41,66.819,66.82,100.229,100.23c0.531,0.531,1.062,1.062,1.594,1.593
				c2.899,2.9,7.729,2.821,10.607-0.057c34.249-34.248,68.497-68.496,102.745-102.745c16.663-16.663,33.326-33.327,49.989-49.99
				c4.094-4.094,1.949-10.86-3.352-12.511c-47.317-14.739-94.635-29.477-141.952-44.215c-4.442-1.384-8.885-2.768-13.327-4.151
				c-9.265-2.886-13.167,11.603-3.961,14.47c47.317,14.739,94.635,29.477,141.952,44.215c4.442,1.384,8.885,2.768,13.327,4.151
				c-1.117-4.17-2.234-8.34-3.352-12.511c-34.249,34.249-68.497,68.497-102.745,102.745c-16.663,16.663-33.326,33.327-49.989,49.99
				c3.535-0.019,7.071-0.038,10.607-0.057c-33.41-33.41-66.819-66.82-100.229-100.23c-0.531-0.531-1.062-1.062-1.594-1.593
				c0.02,3.536,0.038,7.072,0.058,10.608c32.832-32.832,65.664-65.664,98.496-98.496c0.261-0.261,0.521-0.521,0.781-0.781
				C752.299,6.061,741.651-4.507,734.799,2.345z"/>
		</g>
	</g>
	<g>
		<polygon fill="#C69C6D" points="162.742,7.621 262.021,106.899 160.197,208.722 7.463,55.987 		"/>
		<g>
			<path fill="#1A1A1A" d="M157.466,12.954c32.833,32.832,65.665,65.665,98.497,98.497c0.261,0.26,0.521,0.521,0.781,0.781
				c-0.019-3.536-0.038-7.072-0.057-10.608c-33.41,33.41-66.82,66.82-100.23,100.229c-0.531,0.531-1.062,1.062-1.593,1.594
				c3.536-0.019,7.072-0.038,10.608-0.057c-34.249-34.248-68.497-68.497-102.745-102.745c-16.663-16.664-33.327-33.327-49.99-49.99
				c-1.112,4.192-2.223,8.385-3.335,12.577c47.317-14.739,94.635-29.477,141.953-44.215c4.442-1.384,8.884-2.768,13.327-4.151
				c9.21-2.869,5.364-17.369-3.882-14.489C113.484,15.115,66.166,29.854,18.849,44.592c-4.442,1.384-8.884,2.768-13.327,4.151
				C0.138,50.42-1.956,57.177,2.187,61.32c34.249,34.248,68.497,68.497,102.745,102.745c16.663,16.664,33.327,33.327,49.99,49.99
				c2.9,2.9,7.73,2.821,10.608-0.057c33.41-33.41,66.82-66.82,100.23-100.229c0.531-0.531,1.062-1.062,1.593-1.594
				c2.9-2.899,2.821-7.73-0.057-10.608c-32.833-32.832-65.665-65.665-98.497-98.497c-0.261-0.26-0.521-0.521-0.781-0.781
				C161.182-4.547,150.614,6.101,157.466,12.954z"/>
		</g>
	</g>
</g>
<g id="Layer_9">
	<g>
		<polygon fill="#004C82" points="321.919,289.2 323.542,289.2 326.249,289.728 329.482,290.27 338.125,292.436 350,294.587 
			356.489,296.216 363.506,297.838 371.064,298.917 378.625,301.075 386.728,302.15 394.824,304.313 420.747,309.168 
			428.85,311.334 437.491,312.952 445.045,314.574 453.149,316.193 460.7,317.81 468.263,318.895 474.743,320.517 481.231,321.592 
			486.631,323.209 491.487,324.294 495.803,324.832 499.585,325.373 502.293,325.917 503.913,326.454 504.984,326.454 
			512.006,328.073 518.492,329.156 523.894,330.775 528.206,331.855 532.532,333.472 535.775,334.555 540.086,336.716 
			541.704,337.801 544.413,340.492 544.413,341.033 544.958,341.58 544.958,342.106 568.167,342.106 570.333,342.652 
			572.495,342.652 574.112,343.194 575.729,343.194 577.348,343.738 581.674,345.886 582.209,346.976 585.99,352.915 
			587.074,359.929 585.99,368.572 583.292,376.676 580.052,384.774 576.803,391.258 574.112,395.578 573.035,397.2 571.95,397.739 
			569.252,398.814 565.471,400.433 560.073,402.594 554.125,404.748 546.575,408 538.465,411.233 529.286,414.469 519.024,418.798 
			508.227,422.579 497.432,426.89 473.67,436.626 461.246,441.485 448.823,445.799 436.406,451.191 423.452,456.062 
			411.029,460.375 399.144,465.783 386.728,470.097 375.383,474.412 353.781,483.067 344.063,486.833 334.881,490.082 
			326.785,493.315 319.769,496.02 313.823,498.722 308.969,500.349 305.184,501.971 303.023,502.49 302.478,503.037 
			581.674,503.037 627.031,288.112 321.919,288.112 		"/>
		<polygon fill="#004C82" points="530.915,358.856 529.286,359.4 518.492,361.548 515.788,361.548 513.625,362.095 511.475,362.095 
			508.227,362.636 506.61,363.177 505.53,363.709 504.984,364.802 504.984,365.877 506.073,366.953 508.227,366.953 
			510.389,367.495 515.788,367.495 519.024,366.953 522.262,366.953 529.828,365.877 533.612,365.877 537.929,365.329 
			541.704,364.802 544.958,364.258 548.727,363.709 563.312,363.709 564.925,364.258 566.016,364.802 567.088,366.417 
			567.088,368.572 566.548,370.731 566.016,373.438 564.925,376.676 563.312,380.462 562.231,384.242 561.688,386.396 
			562.768,387.478 563.854,386.932 566.016,384.774 567.088,383.154 568.713,380.462 570.333,377.22 571.95,373.438 
			573.565,370.199 574.65,366.953 575.186,364.258 575.186,361.019 574.112,358.312 572.495,356.693 570.333,355.079 
			567.629,353.998 564.389,353.458 560.615,352.915 537.929,352.915 537.389,353.458 536.848,353.458 535.775,353.998 
			534.684,356.162 533.612,356.693 532.532,357.778 		"/>
		<polygon fill="#004C82" points="311.662,337.801 276.02,503.037 277.647,502.49 280.883,500.349 286.286,498.173 293.31,494.393 
			301.4,490.613 310.586,485.77 321.388,480.907 331.646,475.501 342.445,470.626 352.706,465.237 362.964,460.375 372.681,455.518 
			380.788,451.191 387.804,447.955 393.205,445.25 396.986,443.643 402.389,440.938 407.25,438.234 413.187,435.531 
			419.126,432.297 424.525,429.595 431.007,426.89 436.948,423.657 443.424,420.966 449.911,417.703 482.306,404.219 
			496.892,399.358 499.05,398.814 501.203,397.739 503.913,397.2 513.625,393.958 524.967,390.712 528.75,390.17 540.086,386.932 
			546.575,385.859 548.727,385.318 550.346,384.774 551.973,384.774 553.59,384.242 554.672,383.154 555.216,383.154 
			555.216,382.61 554.125,380.462 552.508,379.917 550.346,379.372 548.192,379.372 544.958,378.84 541.704,378.84 537.929,379.372 
			531.446,379.917 524.425,380.991 516.87,382.61 508.764,384.242 500.673,386.396 492.03,389.1 483.924,391.795 475.288,394.498 
			467.192,397.739 459.083,400.433 451.527,403.138 444.511,405.84 438.022,409.08 432.624,411.233 427.764,413.406 
			423.983,415.559 403.465,351.832 534.153,351.832 534.684,349.139 532.532,346.432 529.286,344.813 524.425,343.194 
			519.024,341.58 504.984,339.414 482.306,337.801 		"/>
		<polygon display="none" fill="#EA4156" points="1568.448,400.589 653.495,400.589 654.806,386.841 1569.764,386.841 		"/>
		<path display="none" d="M695.074,370.199l-7.017-0.541l-7.02-1.619l-5.402-1.622l-4.862-3.239l-3.236-3.777l-2.162-4.868
			l-0.54-5.393l0.54-6.487l2.704-11.877l2.154-10.799l2.164-9.188l1.613-7.554l1.094-6.482l1.074-4.86l0.543-2.695l0.528-1.085
			h17.824l-0.542,2.158l-1.076,5.402l-2.167,8.097l-1.616,9.18l-2.164,9.188l-2.693,13.497l-0.547,1.616l-0.536,4.324v7.563
			l1.083,2.694l2.156,2.164l2.701,1.616l3.779,1.076l4.324,0.544l4.858-0.544l3.78-0.529l3.781-1.632l2.696-2.697l2.165-2.695
			l2.163-3.254l3.239-8.631l0.532-4.316l1.618-6.485l1.633-8.097l1.614-8.641l2.156-8.104l1.092-7.021l1.073-4.86l0.539-1.612
			h17.824l-3.246,15.66l-1.617,8.106l-1.082,2.695v1.075l-0.544,3.246l-1.618,8.095l-3.772,15.662l-0.543,3.234l-1.616,3.253
			l-1.091,2.692l-1.616,2.7l-2.158,2.702l-4.321,4.314l-2.706,1.629l-3.236,1.625l-2.699,1.616l-3.234,1.078l-3.241,0.544
			l-3.247,1.07l-7.554,1.091h-4.324V370.199z M1525.617,301.075h-25.386l-4.31,1.075l-3.243,2.163l-0.547,1.073l-0.536,1.627v2.155
			l0.536,2.166l1.619,2.164l1.625,2.697l4.857,4.857l3.236,2.161l2.702,2.163l3.241,2.7l5.397,5.397l2.166,2.699l3.233,6.48
			l0.547,3.233l-0.547,3.785l-1.07,3.785l-1.634,3.775l-2.692,3.241l-3.783,2.702l-4.312,2.153l-5.407,1.625l-7.014,1.085
			l-7.565,0.534h-27.542l3.243-12.96h29.162l2.702-0.534l2.155-0.546l1.625-1.073l1.624-2.161l1.07-2.161l-0.539-4.326l-3.238-4.321
			l-5.399-4.319l-5.397-4.858l-5.938-5.397l-4.866-5.94l-3.233-5.946l-0.541-7.015l1.08-3.777l2.166-4.321l2.16-3.241l3.773-2.703
			l4.865-2.152l4.858-1.618l6.48-1.09h31.322L1525.617,301.075L1525.617,301.075z M1462.967,301.075h-40.487l-4.873,21.062h35.649
			l-2.697,11.336h-35.642l-4.327,22.14h40.502l-2.704,12.958h-58.313l17.279-80.458h58.323L1462.967,301.075L1462.967,301.075z
			 M1392.767,301.075h-24.827l-14.59,67.495h-17.818l14.58-67.495h-25.384l3.241-12.963h67.5L1392.767,301.075L1392.767,301.075z
			 M1268.568,368.572l7.024-12.96h25.381l-7.023-51.299l-35.64,64.257h-17.82l46.445-80.458h21.058l12.429,80.46H1268.568
			L1268.568,368.572z M1265.332,301.075h-24.842l-14.587,67.495h-17.823l14.59-67.495h-25.382l3.236-12.963h67.503L1265.332,301.075
			L1265.332,301.075z M1188.111,301.075h-24.843l-2.705,0.531l-2.158,0.544l-1.617,1.085l-2.165,2.151v3.78l0.546,2.166l1.073,2.163
			l2.163,2.697l4.863,4.858l2.692,2.161l3.249,2.163l8.097,8.097l2.163,2.7l2.151,3.241l1.093,3.238l0.539,3.234v3.785l-1.088,3.785
			l-1.614,3.775l-3.241,3.241l-3.234,2.702l-4.863,2.153l-5.404,1.624l-6.478,1.086l-8.102,0.533h-27.004l2.702-12.96h29.696
			l2.704-0.533l2.156-0.547l1.619-1.073l1.622-2.16l0.539-2.159l-0.539-4.329l-3.241-4.321l-4.86-4.319l-5.397-4.858l-5.943-5.396
			l-4.861-5.941l-3.236-5.943l-0.546-7.017l1.096-3.778l1.606-4.318l2.707-3.244l3.78-2.702l4.322-2.153l5.399-1.617l6.48-1.088
			h31.314L1188.111,301.075L1188.111,301.075z M1025.024,328.073l-8.103,40.497h36.184l4.319-0.534h4.318l7.561-2.163l4.317-1.617
			l3.79-2.166l6.478-4.313l6.47-6.483l5.405-7.558l2.158-4.324l1.616-4.316l1.096-4.866l0.537-2.158l0.531-3.241l1.078-7.556
			l-0.532-7.017l-1.616-5.943l-2.713-5.396l-4.312-4.861l-5.399-3.238l-7.015-2.164l-8.111-0.542h-39.417L1025.024,328.073
			L1025.024,328.073z M1083.885,328.073l-0.546,2.702l-1.614,3.238l-1.081,2.703l-1.072,3.243l-1.632,2.144l-2.148,2.707
			l-4.329,4.329l-5.397,3.239l-2.695,1.078l-3.241,1.072l-6.484,1.083h-16.204l5.407-27.542l5.936-26.998h23.221l4.312,1.622
			l3.254,2.161l2.689,3.238l1.625,3.239l1.072,4.313v8.646l-1.072,3.241v0.539H1083.885z M1018.007,301.075h-39.971l-4.854,21.062
			h35.098l-2.166,11.336h-35.634l-4.321,22.14h39.955l-2.148,12.958h-58.322l17.276-80.458h57.786L1018.007,301.075
			L1018.007,301.075z M948.341,301.075h-25.377l-14.587,67.495h-17.273l14.574-67.495h-25.374l2.69-12.963h67.502L948.341,301.075
			L948.341,301.075z M853.84,368.572h-17.285l16.74-80.46h17.818L853.84,368.572L853.84,368.572z M819.279,368.572h-22.142
			l-19.984-59.935h-0.533l-12.418,59.935h-15.66l17.273-80.46h22.678l19.441,60.486l12.424-60.486h16.197L819.279,368.572
			L819.279,368.572z"/>
		<path display="none" d="M671.319,472.253h-2.164l-1.076-0.532h-3.248l-1.078-0.546h-1.072l-1.088-11.328h4.321l0.535,0.531h3.243
			l4.313-0.531l6.481-2.171l2.164-2.156l3.238-4.329l1.082-2.158v-2.156l0.536-2.702v-2.689l-0.536-2.169l-1.082-1.611l-3.238-2.168
			h-2.164l-2.149-0.532h-14.585l-14.584,67.488h-17.82l17.283-80.456h38.34l5.934,0.544l4.328,2.174l3.777,2.685l2.164,3.785
			l1.078,3.78l0.541,4.314v4.327l-0.541,3.779l-1.621,5.396l-2.705,4.857l-3.24,4.314l-4.309,3.795l-4.324,2.703l-10.804,3.233
			L671.319,472.253L671.319,472.253z M1560.175,435h-41.033l-4.329,21.062h35.648l-2.71,11.879h-35.634l-4.319,22.141h40.503
			l-2.703,12.406h-58.322l17.281-80.458h58.323L1560.175,435L1560.175,435z M1488.359,436.078l-2.164-0.547h-1.624l-4.314-1.077
			l-2.702-0.532h-2.694l-2.166-0.546h-3.234l-5.945,0.546l-5.407,1.607l-5.397,2.171l-4.854,3.782l-3.782,3.768l-3.783,4.874
			l-2.155,5.936l-2.164,6.47l-1.088,6.485l0.547,5.937l1.612,4.863l2.163,3.779l3.241,3.236l4.319,2.703l4.86,1.621l5.407,0.532
			h3.233l3.241-0.532h2.703l5.396-1.077h2.161l2.702-0.544l2.163-0.534l-4.326,13.486l-2.156,0.547h-2.697l-2.163,0.544h-2.7
			l-2.16,0.533h-12.424l-8.639-1.08l-3.782-1.062l-3.783-1.625l-3.231-1.624l-3.243-2.158l-2.705-2.169l-2.695-2.704l-1.616-3.234
			l-1.617-3.78l-1.624-3.236l-0.539-4.312v-4.326l0.539-4.861l0.531-5.407l1.624-4.86l1.617-5.392l4.319-8.642l2.694-3.78
			l6.498-6.479l3.782-2.702l7.556-4.314l8.634-3.249l4.326-1.08l4.314-0.544l4.865-0.52h11.336l2.158,0.52h2.169l2.158,0.544h2.156
			l2.165,0.546L1488.359,436.078L1488.359,436.078z M1399.252,502.49h-17.821l17.282-80.458h17.82L1399.252,502.49L1399.252,502.49z
			 M1342.009,502.49h-21.06l-11.884-80.458h17.823l8.102,64.804l35.642-64.804h17.276L1342.009,502.49L1342.009,502.49z
			 M1276.661,467.941l12.967,34.549h-19.442l-14.582-43.738h10.268l3.239-0.531l3.233-1.078l2.695-1.624l2.166-1.609l2.165-2.174
			l1.071-2.702l1.093-3.231l0.526-2.155v-2.161l-1.07-3.249l-1.078-1.078l-2.161-1.078l-5.404-1.08h-16.204l-14.584,67.49h-17.809
			l17.281-80.458h37.262l5.384,0.547l4.874,1.078l3.78,1.624l2.697,2.156l2.155,2.689l1.625,3.798l0.536,4.312v4.314l-0.536,5.404
			l-1.625,4.863l-2.155,4.327l-2.697,3.233l-3.249,3.233l-4.314,2.171l-3.78,1.609L1276.661,467.941L1276.661,467.941z
			 M1225.369,435h-40.502l-4.319,21.062h35.095l-2.158,11.879h-35.634l-4.327,22.141h40.5l-2.694,12.406h-58.862l17.276-80.458
			h58.323L1225.369,435L1225.369,435z M1151.919,435h-22.679l-5.399,1.08l-2.158,0.547l-1.078,1.078l-1.624,1.078l-1.073,2.155
			v2.708l0.531,2.155l1.091,2.156l2.155,2.171l2.156,2.689l2.705,2.156l2.694,2.702l3.234,2.171l2.709,2.689l3.236,2.168
			l2.164,3.236l2.166,2.686l2.155,3.248l1.086,2.705l0.533,3.78v3.233l-1.077,4.33l-1.62,3.233l-6.484,6.485l-4.319,2.158
			l-5.946,1.622l-6.47,1.065h-35.103l2.702-12.406h29.705l2.695-0.547l2.163-1.08l1.619-1.078l1.617-1.606l1.07-2.174l-1.07-4.327
			l-3.236-4.312l-4.858-4.86l-5.407-4.86l-5.943-4.861l-4.86-5.936l-3.236-6.485l-0.547-6.47l1.088-4.329l1.622-3.78l2.694-3.249
			l3.783-2.689l4.314-2.158l5.404-1.622l6.485-1.081l7.548-0.546h23.765L1151.919,435L1151.919,435z M1055.799,502.49h-54.543
			l16.751-80.458h18.354l-14.582,68.05h36.722L1055.799,502.49L1055.799,502.49z M940.247,502.49l7.014-12.408h25.379l-7.558-51.846
			l-35.101,64.254h-17.825l45.909-80.458h21.591l12.421,80.458H940.247L940.247,502.49z M937.002,435h-25.384l-14.587,67.49h-17.82
			L893.798,435h-24.845l2.707-12.968h67.493L937.002,435L937.002,435z M859.782,435h-22.688l-5.399,1.08l-1.622,0.547l-1.621,1.078
			l-2.148,2.155l-0.541,1.078v2.708l0.541,2.155l3.238,4.327l2.153,2.689l2.705,2.156l2.694,2.702l3.246,2.171l3.239,2.689
			l2.694,2.168l2.164,3.236l2.699,2.686l1.617,3.248l1.086,2.705l1.075,3.78l-0.536,3.233l-1.084,4.33l-1.623,3.233l-2.693,3.236
			l-3.246,3.249l-4.86,2.155l-5.934,1.625l-6.49,1.062h-34.558l2.168-12.406H826.3l2.148-0.544l4.327-2.158l1.078-1.609l1.085-2.174
			l-0.542-4.326l-3.24-4.312l-4.856-4.86l-5.943-4.858l-5.402-4.863l-4.855-5.937l-3.24-6.484l-1.089-6.471l1.089-4.329l2.155-3.777
			l2.701-3.249l3.24-2.689l4.326-2.158l5.934-1.622l6.479-1.081l7.017-0.546h23.765L859.782,435L859.782,435z M709.659,462.532
			l-1.09,8.641l1.627,11.346l3.242,6.482l2.152,3.236l4.869,4.858l3.232,2.158l3.242,1.625l3.78,1.609l4.317,1.093l4.32,0.531h9.187
			l8.635-1.078l4.316-1.065l4.323-1.622l3.783-1.626l3.236-2.156l3.781-2.171l3.242-2.702l2.693-3.236l3.245-3.231l2.152-3.782
			l4.327-8.642l1.617-4.858l1.078-5.409l1.084-4.312v-8.095l-0.543-4.326l-0.541-3.783l-3.244-6.485l-4.309-5.404l-2.707-2.144
			l-3.235-2.168l-3.243-1.612l-4.322-1.624l-3.784-1.093l-4.313-0.52h-9.182l-8.639,1.063l-4.316,1.08l-4.326,1.64l-3.779,1.609
			l-3.238,2.158l-3.782,2.702l-3.233,2.156l-3.238,3.249l-2.703,3.779l-2.699,3.234l-2.163,4.314l-1.622,4.326l-1.616,5.393
			L709.659,462.532L709.659,462.532z M777.153,462.532l-1.623,6.487l-2.694,5.937l-2.707,4.86l-3.767,3.78l-4.329,3.236
			l-4.859,2.702l-4.858,1.622l-5.942,0.534l-5.944-0.534L736.112,489l-3.781-2.702l-2.699-3.78l-1.626-3.782l-1.073-5.39v-5.407
			l1.073-5.407l1.626-6.47l2.699-5.938l2.699-4.874l3.779-3.765l4.318-3.783l4.863-2.171l4.851-1.606l5.954-0.549l5.406,1.078
			l4.855,1.077l3.779,3.249l2.696,3.236l1.622,4.327l1.08,4.846v5.404L777.153,462.532L777.153,462.532z"/>
	</g>
</g>
<g id="Layer_13" display="none">
	<g display="inline">
		<path fill="#FFB500" d="M451.437,314.696c-35.005,0-65.535,6.777-90.75,20.141v106.828c0,22.478,8.442,41.279,24.417,54.374
			c14.837,12.161,60.711,32.214,66.334,34.652l-0.001,0.001c5.328-2.318,51.743-22.685,66.346-34.652
			c15.967-13.094,24.404-31.895,24.404-54.375V334.836C516.973,321.473,486.446,314.696,451.437,314.696z"/>
		<path fill="#351C15" d="M486.581,404.667c-0.064-12.758,10.797-20.273,21.184-20.574c8.672-0.265,14.552,2.991,17.326,5.129
			v13.729c-3.288-3.377-8.63-6.437-14.149-6.489c-4.468-0.04-9.128,1.93-9.28,7.54c-0.152,5.748,4.492,8.021,10.388,11.475
			c13.187,7.753,15.737,14.72,15.441,23.928c-0.305,10.099-7.268,21.12-22.869,21.12c-6.24,0-12.409-1.949-17.358-4.897v-14.538
			c4.035,3.59,10.059,6.389,15.097,6.425c5.792,0.024,9.602-3.293,9.465-8.799c-0.111-4.957-2.92-7.648-9.858-11.728
			C488.947,419.346,486.604,413.066,486.581,404.667L486.581,404.667z M448.311,397.945c1.283-0.638,3.457-1.139,5.591-1.139
			c9.168,0,12.963,7.315,12.963,25.002c0,17.258-4.34,25.597-13.428,25.597c-2.135,0-3.995-0.525-5.126-0.951V397.945
			L448.311,397.945z M448.311,492.6h-15.794V389.708c5.728-3.694,12.674-5.614,21.281-5.614c18.842,0,29.205,14.298,29.205,37.314
			c0,23.062-10.06,38.848-27.585,38.848c-3.241,0-5.527-0.43-7.107-0.898v33.244V492.6z M377.08,435.317v-49.624h15.782v50.331
			c0,4.477,1.083,11.106,8.32,11.106c3.208,0,5.751-0.75,7.467-1.93v-59.504h15.762v68.492c-6.023,4.103-14.125,6.341-23.791,6.341
			c-15.62,0-23.541-8.476-23.541-25.208V435.317z M369.023,441.678c0,19.905,7.359,36.525,21.345,47.92
			c12.347,10.067,50.343,27.261,61.065,31.989c10.572-4.66,48.481-21.642,61.042-31.989c14.077-11.59,21.361-27.825,21.361-47.92
			V337.091c-52.829-4.915-115.346-1.898-164.815,43.474l-0.002,61.109h0.002L369.023,441.678z"/>
	</g>
</g>
<g id="Layer_15" display="none">
	<g id="g6_1_" transform="translate(-0.81,-0.35400034)" display="inline">
		<polygon id="polygon10_1_" fill="#FF5900" points="604.74,391.625 623.699,412.523 641.954,391.625 680.934,391.625 
			642.837,434.466 681.456,477.648 640.903,477.648 622.119,456.589 603.51,477.648 564.355,477.648 602.633,434.64 
			564.355,391.625 		"/>
		<polygon id="polygon12_1_" fill="#FF5900" points="564.355,391.625 564.355,420.693 520.999,420.693 520.999,447.361 
			564.355,447.361 564.355,477.648 489.14,477.648 489.14,342.145 564.355,342.145 564.355,372.344 520.999,372.344 
			520.999,391.625 		"/>
		<path id="path14_1_" fill="#2A007C" d="M457.41,342.145v55.456h-0.349c-7.026-8.077-15.806-10.882-25.978-10.882
			c-20.867,0-36.573,14.184-42.095,32.93c-6.292-20.655-22.521-33.32-46.571-33.32c-19.536,0-34.956,8.767-43.009,23.055v-17.758
			h-40.384v-19.281h44.072v-30.199h-80.061v135.504h35.989v-56.955h35.883c-1.07,4.179-1.642,8.661-1.642,13.394
			c0,28.266,21.594,48.101,49.151,48.101c23.18,0,38.451-10.881,46.521-30.71h-30.847c-4.172,5.963-7.331,7.729-15.675,7.729
			c-9.675,0-18.013-8.438-18.013-18.441h62.812c2.724,22.452,20.215,41.814,44.215,41.814c10.347,0,19.835-5.093,25.624-13.691
			h0.354v8.773h31.723V342.145H457.41z M325.412,421.092c1.996-8.605,8.674-14.233,17.012-14.233c9.171,0,15.513,5.453,17.18,14.233
			C360.3,421.092,325.412,421.092,325.412,421.092z M438.153,457.024c-11.695,0-18.971-10.906-18.971-22.278
			c0-12.162,6.33-23.858,18.971-23.858c13.113,0,18.33,11.696,18.33,23.858C456.483,446.273,450.949,457.024,438.153,457.024z"/>
	</g>
</g>
</svg>
