<?xml version="1.0" encoding="utf-8"?>
<!-- Generator: Adobe Illustrator 15.0.0, SVG Export Plug-In . SVG Version: 6.00 Build 0)  -->
<!DOCTYPE svg PUBLIC "-//W3C//DTD SVG 1.1//EN" "http://www.w3.org/Graphics/SVG/1.1/DTD/svg11.dtd">
<svg version="1.1" xmlns="http://www.w3.org/2000/svg" xmlns:xlink="http://www.w3.org/1999/xlink" x="0px" y="0px"
	 width="957.483px" height="820.956px" viewBox="0 0 957.483 820.956" enable-background="new 0 0 957.483 820.956"
	 xml:space="preserve">
<g id="Layer_10">
	<g>
		<g>
			<path fill="#1A1A1A" d="M7.447,640.956c17.078,0,34.155,0,51.232,0c44.12,0,88.24,0,132.36,0c60.495,0,120.99,0,181.486,0
				c66.202,0,132.405,0,198.607,0c61.242,0,122.483,0,183.726,0c45.613,0,91.228,0,136.841,0c19.317,0,38.636,0,57.953,0
				c0.092,0,0.184,0,0.275,0c9.686,0,9.771-15.004,0.107-15.004c-17.077,0-34.154,0-51.231,0c-44.12,0-88.24,0-132.36,0
				c-60.495,0-120.99,0-181.485,0c-66.203,0-132.405,0-198.607,0c-61.242,0-122.484,0-183.726,0c-45.614,0-91.228,0-136.841,0
				c-19.318,0-38.635,0-57.953,0c-0.092,0-0.184,0-0.275,0C-2.131,625.952-2.216,640.956,7.447,640.956L7.447,640.956z"/>
		</g>
	</g>
	<g>
		<polygon fill="#CCCCCC" points="769.981,561.454 949.981,741.454 7.501,741.454 187.501,561.454 		"/>
		<g>
			<path fill="#1A1A1A" d="M764.706,566.787c32.118,32.118,64.237,64.237,96.356,96.356c27.881,27.881,55.762,55.762,83.644,83.644
				c1.776-4.278,3.553-8.557,5.329-12.835c-17.077,0-34.154,0-51.231,0c-44.12,0-88.24,0-132.36,0c-60.495,0-120.99,0-181.485,0
				c-66.203,0-132.405,0-198.607,0c-61.242,0-122.484,0-183.726,0c-45.614,0-91.228,0-136.841,0c-19.318,0-38.635,0-57.953,0
				c-0.092,0-0.184,0-0.275,0c1.759,4.26,3.519,8.519,5.278,12.777c32.119-32.118,64.238-64.237,96.356-96.356
				c27.881-27.881,55.762-55.762,83.644-83.644c-1.795,0.742-3.591,1.484-5.387,2.227c25.848,0,51.696,0,77.544,0
				c58.932,0,117.864,0,176.796,0c64.097,0,128.193,0,192.29,0c41.344,0,82.687,0,124.029,0c3.94,0,7.88,0,11.82,0
				c9.686,0,9.771-15.004,0.107-15.004c-25.848,0-51.696,0-77.544,0c-58.932,0-117.864,0-176.796,0c-64.097,0-128.193,0-192.291,0
				c-41.343,0-82.686,0-124.029,0c-3.509,0-7.018,0-10.526,0c-3.574,0-6.133,1.68-8.559,4.105
				c-14.03,14.029-28.06,28.06-42.089,42.089C96.709,641.638,55.216,683.13,13.724,724.623c-3.852,3.852-7.704,7.704-11.555,11.556
				c-4.58,4.579-1.211,12.777,5.278,12.777c17.078,0,34.155,0,51.232,0c44.12,0,88.24,0,132.36,0c60.495,0,120.99,0,181.486,0
				c66.202,0,132.405,0,198.607,0c61.242,0,122.483,0,183.726,0c45.613,0,91.228,0,136.841,0c19.317,0,38.636,0,57.953,0
				c0.092,0,0.184,0,0.275,0c6.596,0,10.003-8.16,5.329-12.835c-32.118-32.118-64.237-64.237-96.356-96.356
				c-27.881-27.881-55.762-55.762-83.644-83.644C768.42,549.286,757.853,559.933,764.706,566.787z"/>
		</g>
	</g>
	<g>
		<rect x="7.501" y="741.454" fill="#CCCCCC" width="942.479" height="72"/>
		<g>
			<path fill="#1A1A1A" d="M950.035,805.952c-17.077,0-34.154,0-51.231,0c-44.12,0-88.24,0-132.36,0c-60.495,0-120.99,0-181.485,0
				c-66.203,0-132.405,0-198.607,0c-61.242,0-122.484,0-183.726,0c-45.614,0-91.228,0-136.841,0c-19.318,0-38.635,0-57.953,0
				c-0.092,0-0.184,0-0.275,0c2.482,2.519,4.965,5.037,7.447,7.556c0-24,0-48,0-72c-2.519,2.482-5.037,4.966-7.556,7.448
				c17.078,0,34.155,0,51.232,0c44.12,0,88.24,0,132.36,0c60.495,0,120.99,0,181.486,0c66.202,0,132.405,0,198.607,0
				c61.242,0,122.483,0,183.726,0c45.613,0,91.228,0,136.841,0c19.317,0,38.636,0,57.953,0c0.092,0,0.184,0,0.275,0
				c-2.483-2.519-4.966-5.037-7.448-7.556c0,24,0,48,0,72c0,9.686,15.004,9.771,15.004,0.107c0-24,0-48,0-72
				c0-4.064-3.342-7.556-7.448-7.556c-17.077,0-34.154,0-51.231,0c-44.12,0-88.24,0-132.36,0c-60.495,0-120.99,0-181.485,0
				c-66.203,0-132.405,0-198.607,0c-61.242,0-122.484,0-183.726,0c-45.614,0-91.228,0-136.841,0c-19.318,0-38.635,0-57.953,0
				c-0.092,0-0.184,0-0.275,0C3.491,733.952,0,737.293,0,741.4c0,24,0,48,0,72c0,4.064,3.341,7.556,7.447,7.556
				c17.078,0,34.155,0,51.232,0c44.12,0,88.24,0,132.36,0c60.495,0,120.99,0,181.486,0c66.202,0,132.405,0,198.607,0
				c61.242,0,122.483,0,183.726,0c45.613,0,91.228,0,136.841,0c19.317,0,38.636,0,57.953,0c0.092,0,0.184,0,0.275,0
				C959.613,820.956,959.699,805.952,950.035,805.952z"/>
		</g>
	</g>
	<defs>
		<filter id="Adobe_OpacityMaskFilter" filterUnits="userSpaceOnUse" x="180" y="0" width="597.483" height="568.956">
			
				<feColorMatrix  type="matrix" values="-1 0 0 0 1  0 -1 0 0 1  0 0 -1 0 1  0 0 0 1 0" color-interpolation-filters="sRGB" result="source"/>
		</filter>
	</defs>
	<mask maskUnits="userSpaceOnUse" x="180" y="0" width="597.483" height="568.956" id="SVGID_1_">
		<g filter="url(#Adobe_OpacityMaskFilter)">
			<g>
				<linearGradient id="SVGID_2_" gradientUnits="userSpaceOnUse" x1="478.7407" y1="7.5015" x2="478.7407" y2="561.4541">
					<stop  offset="0.0675" style="stop-color:#FFFFFF"/>
					<stop  offset="0.5092" style="stop-color:#000000"/>
				</linearGradient>
				<rect x="118.741" y="7.501" fill="url(#SVGID_2_)" width="720" height="553.952"/>
			</g>
		</g>
	</mask>
	<g mask="url(#SVGID_1_)">
		<rect x="187.501" y="7.501" fill="#D9534F" width="582.479" height="553.952"/>
		<g>
			<path fill="#1A1A1A" d="M770.035,553.952c-25.848,0-51.696,0-77.544,0c-58.932,0-117.864,0-176.796,0
				c-64.097,0-128.193,0-192.291,0c-41.343,0-82.686,0-124.029,0c-3.94,0-7.88,0-11.82,0c2.482,2.519,4.965,5.037,7.448,7.556
				c0-26.938,0-53.877,0-80.816c0-60.223,0-120.445,0-180.668c0-62.617,0-125.233,0-187.85c0-34.121,0-68.242,0-102.362
				c0-0.751,0-1.503,0-2.255c-2.519,2.482-5.038,4.965-7.556,7.447c25.848,0,51.696,0,77.544,0c58.932,0,117.864,0,176.796,0
				c64.097,0,128.193,0,192.29,0c41.344,0,82.687,0,124.029,0c3.94,0,7.88,0,11.82,0c-2.483-2.519-4.966-5.037-7.448-7.556
				c0,26.939,0,53.877,0,80.816c0,60.223,0,120.445,0,180.668c0,62.617,0,125.233,0,187.85c0,34.121,0,68.242,0,102.362
				c0,0.752,0,1.504,0,2.256c0,9.686,15.004,9.771,15.004,0.107c0-26.938,0-53.877,0-80.816c0-60.223,0-120.445,0-180.668
				c0-62.617,0-125.233,0-187.85c0-34.121,0-68.242,0-102.362c0-0.751,0-1.503,0-2.255c0-4.065-3.342-7.556-7.448-7.556
				c-25.848,0-51.696,0-77.544,0c-58.932,0-117.864,0-176.796,0c-64.097,0-128.193,0-192.291,0c-41.343,0-82.686,0-124.029,0
				c-3.94,0-7.88,0-11.82,0C183.491,0,180,3.341,180,7.447c0,26.939,0,53.877,0,80.816c0,60.223,0,120.445,0,180.668
				c0,62.617,0,125.233,0,187.85c0,34.121,0,68.242,0,102.362c0,0.752,0,1.504,0,2.256c0,4.064,3.342,7.556,7.448,7.556
				c25.848,0,51.696,0,77.544,0c58.932,0,117.864,0,176.796,0c64.097,0,128.193,0,192.29,0c41.344,0,82.687,0,124.029,0
				c3.94,0,7.88,0,11.82,0C779.613,568.956,779.699,553.952,770.035,553.952z"/>
		</g>
	</g>
	<g id="Layer_11">
		<g>
			<circle fill="#C7B299" cx="683.018" cy="163.501" r="36"/>
			<g>
				<path fill="#1A1A1A" d="M639.516,163.447c0.451,23.978,19.429,43.104,43.448,43.556c23.978,0.452,43.116-20.107,43.556-43.447
					c0.451-23.979-20.107-43.117-43.448-43.556C659.094,119.548,639.956,140.107,639.516,163.447
					c-0.183,9.693,14.822,9.761,15.004,0.108c0.297-15.763,12.64-28.255,28.444-28.553c15.765-0.296,28.263,13.087,28.552,28.444
					c0.297,15.765-13.087,28.263-28.444,28.553c-15.765,0.296-28.263-13.087-28.552-28.444
					C654.337,153.883,639.334,153.78,639.516,163.447z"/>
			</g>
		</g>
	</g>
</g>
<g id="Layer_1">
	<g>
		<g>
			<linearGradient id="SVGID_3_" gradientUnits="userSpaceOnUse" x1="478.7407" y1="741.4536" x2="478.7407" y2="381.4541">
				<stop  offset="0" style="stop-color:#C68945"/>
				<stop  offset="1" style="stop-color:#C69C6D"/>
			</linearGradient>
			<rect x="187.501" y="381.454" fill="url(#SVGID_3_)" width="582.479" height="360"/>
			<g>
				<path fill="#1A1A1A" d="M770.035,733.952c-25.848,0-51.696,0-77.544,0c-58.932,0-117.864,0-176.796,0
					c-64.097,0-128.193,0-192.291,0c-41.343,0-82.686,0-124.029,0c-3.94,0-7.88,0-11.82,0c2.482,2.519,4.965,5.037,7.448,7.556
					c0-37.189,0-74.379,0-111.568c0-62.795,0-125.59,0-188.386c0-20.015,0-40.03,0-60.045c-2.519,2.482-5.038,4.965-7.556,7.448
					c25.848,0,51.696,0,77.544,0c58.932,0,117.864,0,176.796,0c64.097,0,128.193,0,192.29,0c41.344,0,82.687,0,124.029,0
					c3.94,0,7.88,0,11.82,0c-2.483-2.519-4.966-5.038-7.448-7.556c0,37.189,0,74.379,0,111.569c0,62.795,0,125.59,0,188.386
					c0,20.015,0,40.03,0,60.046c0,9.686,15.004,9.771,15.004,0.107c0-37.189,0-74.379,0-111.568c0-62.795,0-125.59,0-188.386
					c0-20.015,0-40.03,0-60.045c0-4.065-3.342-7.556-7.448-7.556c-25.848,0-51.696,0-77.544,0c-58.932,0-117.864,0-176.796,0
					c-64.097,0-128.193,0-192.291,0c-41.343,0-82.686,0-124.029,0c-3.94,0-7.88,0-11.82,0c-4.065,0-7.556,3.342-7.556,7.448
					c0,37.189,0,74.379,0,111.569c0,62.795,0,125.59,0,188.386c0,20.015,0,40.03,0,60.046c0,4.064,3.342,7.556,7.448,7.556
					c25.848,0,51.696,0,77.544,0c58.932,0,117.864,0,176.796,0c64.097,0,128.193,0,192.29,0c41.344,0,82.687,0,124.029,0
					c3.94,0,7.88,0,11.82,0C779.613,748.956,779.699,733.952,770.035,733.952z"/>
			</g>
		</g>
		<g>
			<polygon fill="#C69C6D" points="668.158,279.63 769.981,381.454 187.501,381.454 289.325,279.63 			"/>
			<g>
				<path fill="#1A1A1A" d="M662.882,284.963c33.41,33.41,66.819,66.82,100.229,100.23c0.531,0.531,1.062,1.062,1.594,1.593
					c1.776-4.278,3.553-8.556,5.329-12.834c-25.848,0-51.696,0-77.544,0c-58.932,0-117.864,0-176.796,0
					c-64.097,0-128.193,0-192.291,0c-41.343,0-82.686,0-124.029,0c-3.94,0-7.88,0-11.82,0c1.759,4.259,3.519,8.519,5.278,12.777
					c33.349-33.349,66.698-66.697,100.047-100.046c0.592-0.593,1.185-1.185,1.777-1.777c-1.795,0.742-3.591,1.484-5.387,2.226
					c35.836,0,71.673,0,107.509,0c63.639,0,127.279,0,190.917,0c26.802,0,53.604,0,80.406,0c9.686,0,9.771-15.003,0.107-15.003
					c-35.836,0-71.673,0-107.509,0c-63.64,0-127.278,0-190.917,0c-21.682,0-43.363,0-65.044,0c-4.708,0-9.415,0-14.123,0
					c-5.177,0-7.91,3.511-11.274,6.874c-32.392,32.392-64.784,64.783-97.175,97.175c-4.58,4.579-1.211,12.777,5.278,12.777
					c25.848,0,51.696,0,77.544,0c58.932,0,117.864,0,176.796,0c64.097,0,128.193,0,192.29,0c41.344,0,82.687,0,124.029,0
					c3.94,0,7.88,0,11.82,0c6.596,0,10.003-8.161,5.329-12.834c-33.41-33.41-66.819-66.82-100.229-100.23
					c-0.531-0.531-1.062-1.062-1.594-1.593C666.598,267.462,656.03,278.11,662.882,284.963z"/>
			</g>
		</g>
	</g>
	<line display="none" fill="none" stroke="#000000" stroke-miterlimit="10" x1="769.981" y1="381.454" x2="536.989" y2="381.454"/>
	<line display="none" fill="none" stroke="#000000" stroke-miterlimit="10" x1="420.494" y1="381.454" x2="187.501" y2="381.454"/>
	<line display="none" fill="none" stroke="#000000" stroke-miterlimit="10" x1="451.181" y1="279.63" x2="289.325" y2="279.63"/>
	<line display="none" fill="none" stroke="#000000" stroke-miterlimit="10" x1="668.158" y1="279.63" x2="506.303" y2="279.63"/>
	<g>
		<rect x="420.494" y="381.454" fill="#C7B299" width="116.495" height="72"/>
		<g>
			<path fill="#1A1A1A" d="M537.042,445.953c-38.831,0-77.663,0-116.495,0c2.482,2.519,4.965,5.037,7.448,7.556c0-24,0-48,0-72
				c-2.519,2.482-5.038,4.965-7.556,7.448c38.832,0,77.664,0,116.496,0c-2.483-2.519-4.966-5.038-7.448-7.556c0,24,0,48,0,72
				c0,9.687,15.004,9.772,15.004,0.108c0-24,0-48,0-72c0-4.065-3.342-7.556-7.448-7.556c-38.831,0-77.663,0-116.495,0
				c-4.065,0-7.556,3.342-7.556,7.448c0,24,0,48,0,72c0,4.065,3.342,7.556,7.448,7.556c38.832,0,77.664,0,116.496,0
				C546.621,460.956,546.707,445.953,537.042,445.953z"/>
		</g>
	</g>
	<g>
		<polygon fill="#C7B299" points="506.303,279.63 536.989,381.454 420.494,381.454 451.181,279.63 		"/>
		<g>
			<path fill="#1A1A1A" d="M499.059,281.571c10.229,33.941,20.457,67.882,30.686,101.823c2.433-3.147,4.865-6.295,7.298-9.443
				c-38.831,0-77.663,0-116.495,0c2.394,3.161,4.787,6.322,7.181,9.482c10.229-33.941,20.458-67.882,30.687-101.823
				c-2.43,1.84-4.859,3.681-7.289,5.521c18.374,0,36.749,0,55.123,0c9.686,0,9.771-15.003,0.107-15.003c-18.374,0-36.748,0-55.122,0
				c-3.433,0-6.311,2.275-7.289,5.521c-10.229,33.941-20.458,67.882-30.688,101.823c-1.397,4.638,2.422,9.482,7.181,9.482
				c38.832,0,77.664,0,116.496,0c4.758,0,8.72-4.727,7.298-9.443c-10.229-33.941-20.457-67.882-30.686-101.823
				C510.762,268.446,496.265,272.3,499.059,281.571z"/>
		</g>
	</g>
</g>
<g id="Layer_5" display="none">
	<g display="inline">
		<rect x="333.841" y="482.501" fill="#3FA9F5" width="289.8" height="180"/>
		<g>
			<path fill="#1A1A1A" d="M623.695,655c-42.483,0-84.966,0-127.449,0c-52.341,0-104.683,0-157.024,0c-1.775,0-3.551,0-5.326,0
				c2.482,2.519,4.965,5.037,7.448,7.556c0-49.992,0-99.984,0-149.977c0-10.008,0-20.016,0-30.023
				c-2.519,2.482-5.038,4.965-7.556,7.448c42.483,0,84.967,0,127.45,0c52.342,0,104.683,0,157.023,0c1.775,0,3.552,0,5.327,0
				c-2.483-2.519-4.966-5.037-7.448-7.556c0,49.993,0,99.985,0,149.977c0,10.008,0,20.016,0,30.023
				c0,9.686,15.004,9.771,15.004,0.107c0-49.992,0-99.984,0-149.977c0-10.008,0-20.016,0-30.023c0-4.065-3.342-7.556-7.448-7.556
				c-42.483,0-84.966,0-127.449,0c-52.341,0-104.683,0-157.024,0c-1.775,0-3.551,0-5.326,0c-4.065,0-7.556,3.342-7.556,7.448
				c0,49.993,0,99.985,0,149.977c0,10.008,0,20.016,0,30.023c0,4.064,3.342,7.556,7.448,7.556c42.483,0,84.967,0,127.45,0
				c52.342,0,104.683,0,157.023,0c1.775,0,3.552,0,5.327,0C633.273,670.003,633.359,655,623.695,655z"/>
		</g>
	</g>
	<g display="inline">
		<path stroke="#1A1A1A" d="M374.523,555.162c0-3.096,2.448-5.544,5.544-5.544c3.097,0,5.545,2.448,5.545,5.544v35.211h20.521
			c2.808,0,5.041,2.232,5.041,5.041c0,2.808-2.232,5.04-5.041,5.04h-26.066c-3.096,0-5.544-2.448-5.544-5.545V555.162z"/>
		<path stroke="#1A1A1A" d="M413.979,575.395v-0.144c0-14.329,11.305-26.066,26.858-26.066c15.553,0,26.714,11.593,26.714,25.922
			v0.145c0,14.329-11.305,26.066-26.858,26.066C425.139,601.318,413.979,589.725,413.979,575.395z M455.958,575.395v-0.144
			c0-8.641-6.336-15.842-15.265-15.842s-15.122,7.057-15.122,15.697v0.145c0,8.641,6.337,15.842,15.266,15.842
			S455.958,584.037,455.958,575.395z"/>
		<path stroke="#1A1A1A" d="M475.178,575.395v-0.144c0-14.329,11.161-26.066,26.426-26.066c7.633,0,12.674,1.729,17.21,4.896
			c1.08,0.792,2.304,2.305,2.304,4.465c0,3.023-2.448,5.472-5.472,5.472c-1.585,0-2.593-0.575-3.385-1.151
			c-3.024-2.16-6.265-3.457-11.017-3.457c-8.064,0-14.474,7.129-14.474,15.697v0.145c0,9.217,6.337,15.985,15.266,15.985
			c4.032,0,7.633-1.008,10.44-3.024v-7.2h-7.488c-2.664,0-4.824-2.089-4.824-4.753s2.16-4.824,4.824-4.824h12.673
			c3.097,0,5.545,2.448,5.545,5.545v12.24c0,3.24-1.225,5.473-3.889,7.057c-4.104,2.521-10.081,5.041-17.642,5.041
			C485.979,601.318,475.178,590.3,475.178,575.395z"/>
		<path stroke="#1A1A1A" d="M531.625,575.395v-0.144c0-14.329,11.305-26.066,26.858-26.066c15.553,0,26.714,11.593,26.714,25.922
			v0.145c0,14.329-11.305,26.066-26.858,26.066C542.787,601.318,531.625,589.725,531.625,575.395z M573.605,575.395v-0.144
			c0-8.641-6.337-15.842-15.266-15.842s-15.121,7.057-15.121,15.697v0.145c0,8.641,6.337,15.842,15.266,15.842
			S573.605,584.037,573.605,575.395z"/>
	</g>
</g>
<g id="Layer_12" display="none">
	<g display="inline">
		<path fill="#1A1A1A" stroke="#1A1A1A" d="M380.34,603.937h-43.198c-6.15,0-11.25-4.5-11.25-10.65c0-4.8,1.95-8.549,5.399-12.6
			l45.598-52.947c4.35-5.1,7.65-7.8,14.399-7.8c6.15,0,11.1,4.8,11.1,10.949v54.298h5.55c5.25,0,9.45,4.2,9.45,9.449
			c0,5.25-4.2,9.301-9.45,9.301h-5.55v12.599c0,6.149-4.95,10.95-11.1,10.95c-6.149,0-10.949-4.801-10.949-10.95V603.937z
			 M380.34,585.187v-32.699l-27.899,32.699H380.34z"/>
		<path fill="#1A1A1A" stroke="#1A1A1A" d="M432.091,574.388v-0.301c0-30.449,18.899-54.298,46.798-54.298
			c27.749,0,46.498,23.55,46.498,53.998v0.3c0,30.449-18.749,54.298-46.798,54.298S432.091,604.836,432.091,574.388z
			 M501.688,574.388v-0.301c0-19.049-9.299-33.448-23.099-33.448s-22.799,13.949-22.799,33.148v0.3
			c0,19.199,9.149,33.449,23.099,33.449S501.688,593.437,501.688,574.388z"/>
		<path fill="#1A1A1A" stroke="#1A1A1A" d="M593.188,603.937h-43.197c-6.15,0-11.25-4.5-11.25-10.65c0-4.8,1.951-8.549,5.4-12.6
			l45.598-52.947c4.35-5.1,7.65-7.8,14.4-7.8c6.148,0,11.1,4.8,11.1,10.949v54.298h5.549c5.25,0,9.449,4.2,9.449,9.449
			c0,5.25-4.199,9.301-9.449,9.301h-5.549v12.599c0,6.149-4.951,10.95-11.1,10.95c-6.15,0-10.951-4.801-10.951-10.95V603.937z
			 M593.188,585.187v-32.699l-27.898,32.699H593.188z"/>
	</g>
</g>
<g id="Layer_4" display="none">
	<path display="inline" fill="#1A1A1A" d="M544.111,629.473c-2.449,5.66-5.35,10.87-8.709,15.66c-4.58,6.53-8.33,11.05-11.221,13.56
		c-4.48,4.12-9.279,6.23-14.42,6.351c-3.689,0-8.141-1.051-13.32-3.181c-5.197-2.12-9.973-3.17-14.34-3.17
		c-4.58,0-9.492,1.05-14.746,3.17c-5.262,2.13-9.501,3.24-12.742,3.351c-4.929,0.21-9.842-1.96-14.746-6.521
		c-3.129-2.729-7.045-7.41-11.734-14.04c-5.032-7.08-9.169-15.29-12.41-24.649c-3.471-10.11-5.211-19.9-5.211-29.378
		c0-10.857,2.346-20.222,7.045-28.068c3.693-6.303,8.605-11.275,14.755-14.925c6.149-3.65,12.793-5.51,19.948-5.629
		c3.915,0,9.049,1.211,15.429,3.591c6.362,2.388,10.447,3.599,12.238,3.599c1.339,0,5.877-1.416,13.569-4.238
		c7.275-2.618,13.416-3.702,18.445-3.275c13.631,1.1,23.87,6.473,30.68,16.153c-12.189,7.386-18.219,17.73-18.1,31.002
		c0.11,10.337,3.86,18.938,11.23,25.769c3.34,3.17,7.07,5.62,11.22,7.36C546.072,624.573,545.121,627.073,544.111,629.473
		L544.111,629.473z M512.851,506.463c0,8.102-2.96,15.667-8.859,22.669c-7.121,8.324-15.732,13.134-25.071,12.375
		c-0.119-0.973-0.188-1.995-0.188-3.07c0-7.778,3.387-16.102,9.399-22.908c3.002-3.445,6.819-6.311,11.45-8.597
		c4.619-2.252,8.99-3.497,13.1-3.71C512.801,504.305,512.851,505.388,512.851,506.463L512.851,506.463z"/>
</g>
<g id="Layer_8" display="none">
	<g display="inline">
		<path fill="#FFFFFF" d="M827.273,590.953c2.524-12.702,6.418-25.149,11.071-37.239c4.929-11.105,10.036-22.22,12.942-33.997
			c3.582-14.514,5.46-30.932,3.671-46.012c-2.335-19.694-3.534-26.369-12.068-44.6c-6.049-12.923-20.641-25.715-32.921-32.362
			c-23.41-12.671-49.119-12.399-72.602-0.18c-1.792,0.933-3.444,1.979-5.012,3.096c-2.896-0.41-5.847-0.652-8.851-0.672
			c-36.477-0.242-68.147,30.252-68.002,67.029c0.088,22.175,3.209,44.269,6.688,66.129c2.553,16.038,10.236,30.427,17.203,44.972
			c0.079,0.264,0.155,0.528,0.231,0.794c0.145,3.322,0.236,6.647,0.385,9.96c0.65,14.567,2.273,29.024,4.581,43.436
			c1.964,12.267,6.369,25.729,13.489,35.707c7.696,10.789,17.014,23.145,29.765,28.556c17.69,7.506,16.3,7.814,35.634,9.655
			c7.343,0.699,14.796-1.202,22.01-2.521c16.874-3.087,32.668-17.042,40.986-31.45c5.9-10.301,8.92-21.389,9.059-33.264
			c0.008-11.082-2.479-21.498-7.441-31.248c-0.385-1.334-0.739-2.676-1.061-4.026C826.913,598.792,826.999,594.872,827.273,590.953z
			"/>
		<path fill="#1A1A1A" d="M556.285,748.965h402.588c8.187-0.097,14.772-6.762,14.772-14.948
			c0-75.844-95.644-106.093-136.694-115.618c-0.495-0.139-0.839-0.588-0.839-1.102v-16.314
			c9.489-12.361,16.579-26.391,20.901-41.361c10.802-10.628,15.564-27.251,18.122-36.511c4.19-14.728,8.379-36.069-3.174-51.327
			l-0.485-0.661c5.555-26.942,12.479-90.043-35.585-122.1c5.632-5.741,8.686-13.524,8.466-21.562
			c-0.057-0.771-0.422-1.486-1.013-1.984c-0.556-0.468-1.261-0.718-1.985-0.706c-0.616,0-60.719,6.834-89.688,0.837
			c-29.811-6.129-62.484,16.448-69.055,39.554c-11.224,1.465-21.439,7.236-28.485,16.095c-13.229,16.183-17.153,41.935-11.95,76.505
			c0.354,4.41,0.883,8.819,1.676,13.228l-0.528,0.662c-11.51,15.257-7.32,36.599-3.131,51.327
			c2.557,9.084,7.319,25.885,18.078,36.511c4.3,15.075,11.39,29.21,20.9,41.67v16.05c0.017,0.521-0.333,0.979-0.837,1.103
			c-41.141,9.481-136.694,39.687-136.694,115.618C541.594,742.1,548.114,748.797,556.285,748.965z M757.58,676.473
			c-25.477,0.359-49.557-11.614-64.646-32.146c6.569-3.67,11.572-9.612,14.067-16.712c6.736,4.381,13.976,7.933,21.562,10.583
			c18.773,6.642,39.256,6.642,58.028,0c7.575-2.755,14.799-6.396,21.519-10.848c2.461,7.189,7.483,13.218,14.111,16.933
			C807.138,664.825,783.061,676.815,757.58,676.473z M701.225,427.865c11.95-7.275,27.25-6.967,45.505,0.794
			c37.306,16.007,65.307,14.991,82.237,11.112c11.014,8.294,16.336,22.139,13.714,35.672
			c-54.15-19.182-113.191-19.524-167.561-0.969C677.634,461.818,684.116,438.316,701.225,427.865z M810.492,496.786
			c0,7.671-6.218,13.89-13.889,13.89s-13.892-6.219-13.892-13.89s6.221-13.891,13.892-13.891S810.492,489.115,810.492,496.786
			L810.492,496.786z M732.136,496.786c0,7.671-6.219,13.89-13.891,13.89c-7.671,0-13.891-6.219-13.891-13.89
			s6.22-13.891,13.891-13.891c7.67-0.097,13.968,6.042,14.066,13.714c0,0.059,0,0.117,0,0.177H732.136z M665.817,515.791
			c-0.529-1.94-1.015-3.748-1.411-5.424c59.893,23.5,126.452,23.5,186.345,0c-0.396,1.676-0.837,3.483-1.411,5.424
			c-6.79,23.944-12.302,26.193-13.845,26.458c-1.316,0.087-2.397,1.075-2.602,2.38c-3.97,25.531-24.253,57.324-55.427,68.524
			c-12.949,4.604-27.092,4.604-40.038,0c-32.455-11.42-51.416-43.567-55.296-68.567c-0.204-1.306-1.285-2.295-2.602-2.382
			C678.208,542.027,672.562,539.735,665.817,515.791z"/>
	</g>
</g>
<g id="Layer_2" display="none">
	<g display="inline">
		<rect x="582.518" y="417.454" fill="#FFFFFF" width="144" height="232.992"/>
		<g>
			<path fill="#1A1A1A" d="M726.572,642.944c-47.249,0-94.497,0-141.746,0c-0.751,0-1.503,0-2.254,0
				c2.483,2.519,4.966,5.037,7.448,7.556c0-47.097,0-94.192,0-141.289c0-30.568,0-61.135,0-91.703
				c-2.519,2.482-5.037,4.965-7.556,7.448c47.249,0,94.497,0,141.746,0c0.751,0,1.503,0,2.254,0
				c-2.483-2.519-4.966-5.038-7.448-7.556c0,47.097,0,94.193,0,141.29c0,30.567,0,61.136,0,91.703
				c0,9.686,15.004,9.771,15.004,0.107c0-47.097,0-94.192,0-141.289c0-30.568,0-61.135,0-91.703c0-4.065-3.342-7.556-7.448-7.556
				c-47.249,0-94.497,0-141.746,0c-0.751,0-1.503,0-2.254,0c-4.064,0-7.556,3.342-7.556,7.448c0,47.097,0,94.193,0,141.29
				c0,30.567,0,61.136,0,91.703c0,4.064,3.342,7.556,7.448,7.556c47.249,0,94.497,0,141.746,0c0.751,0,1.503,0,2.254,0
				C736.15,657.948,736.236,642.944,726.572,642.944z"/>
		</g>
	</g>
	<polyline display="inline" fill="none" stroke="#1A1A1A" stroke-miterlimit="10" points="726.518,650.446 708.518,650.446 
		690.518,650.446 672.518,650.446 654.518,650.446 636.518,650.446 618.518,650.446 600.518,650.446 582.518,650.446 	"/>
	<g display="inline">
		<g>
			<g>
				<path fill="#1A1A1A" d="M604.018,630.224c0-18,0-36,0-54c0-4.514-7-4.514-7,0c0,18,0,36,0,54
					C597.018,634.738,604.018,634.738,604.018,630.224L604.018,630.224z"/>
			</g>
		</g>
		<g>
			<g>
				<path fill="#1A1A1A" d="M622.018,629.946c0-17.907,0-35.814,0-53.722c0-4.514-7-4.514-7,0c0,17.907,0,35.814,0,53.722
					C615.018,634.459,622.018,634.459,622.018,629.946L622.018,629.946z"/>
			</g>
		</g>
		<g>
			<g>
				<path fill="#1A1A1A" d="M640.018,629.946c0-17.907,0-35.814,0-53.722c0-4.514-7-4.514-7,0c0,17.907,0,35.814,0,53.722
					C633.018,634.459,640.018,634.459,640.018,629.946L640.018,629.946z"/>
			</g>
		</g>
		<g>
			<g>
				<path fill="#1A1A1A" d="M658.018,629.946c0-17.907,0-35.814,0-53.722c0-4.514-7-4.514-7,0c0,17.907,0,35.814,0,53.722
					C651.018,634.459,658.018,634.459,658.018,629.946L658.018,629.946z"/>
			</g>
		</g>
		<g>
			<g>
				<path fill="#1A1A1A" d="M676.018,629.946c0-17.907,0-35.814,0-53.722c0-4.514-7-4.514-7,0c0,17.907,0,35.814,0,53.722
					C669.018,634.459,676.018,634.459,676.018,629.946L676.018,629.946z"/>
			</g>
		</g>
		<g>
			<g>
				<path fill="#1A1A1A" d="M694.018,629.946c0-17.907,0-35.814,0-53.722c0-4.514-7-4.514-7,0c0,17.907,0,35.814,0,53.722
					C687.018,634.459,694.018,634.459,694.018,629.946L694.018,629.946z"/>
			</g>
		</g>
		<g>
			<g>
				<path fill="#1A1A1A" d="M712.018,629.946c0-17.907,0-35.814,0-53.722c0-4.514-7-4.514-7,0c0,17.907,0,35.814,0,53.722
					C705.018,634.459,712.018,634.459,712.018,629.946L712.018,629.946z"/>
			</g>
		</g>
	</g>
	<g display="inline">
		<g display="none">
			<g display="inline">
				<path fill="#1A1A1A" d="M681.379,599.724c-18,0-36,0-54,0c-4.514,0-4.514,7,0,7c18,0,36,0,54,0
					C685.893,606.724,685.893,599.724,681.379,599.724L681.379,599.724z"/>
			</g>
		</g>
		<g display="none">
			<g display="inline">
				<path fill="#1A1A1A" d="M681.101,581.724c-17.907,0-35.814,0-53.722,0c-4.514,0-4.514,7,0,7c17.907,0,35.814,0,53.722,0
					C685.615,588.724,685.615,581.724,681.101,581.724L681.101,581.724z"/>
			</g>
		</g>
		<g display="none">
			<g display="inline">
				<path fill="#1A1A1A" d="M681.101,563.724c-17.907,0-35.814,0-53.722,0c-4.514,0-4.514,7,0,7c17.907,0,35.814,0,53.722,0
					C685.615,570.724,685.615,563.724,681.101,563.724L681.101,563.724z"/>
			</g>
		</g>
		<g>
			<g>
				<path fill="#1A1A1A" d="M681.101,545.724c-17.907,0-35.814,0-53.722,0c-4.514,0-4.514,7,0,7c17.907,0,35.814,0,53.722,0
					C685.615,552.724,685.615,545.724,681.101,545.724L681.101,545.724z"/>
			</g>
		</g>
		<g>
			<g>
				<path fill="#1A1A1A" d="M681.101,527.724c-17.907,0-35.814,0-53.722,0c-4.514,0-4.514,7,0,7c17.907,0,35.814,0,53.722,0
					C685.615,534.724,685.615,527.724,681.101,527.724L681.101,527.724z"/>
			</g>
		</g>
		<g>
			<g>
				<path fill="#1A1A1A" d="M681.101,509.724c-17.907,0-35.814,0-53.722,0c-4.514,0-4.514,7,0,7c17.907,0,35.814,0,53.722,0
					C685.615,516.724,685.615,509.724,681.101,509.724L681.101,509.724z"/>
			</g>
		</g>
		<g>
			<g>
				<path fill="#1A1A1A" d="M681.101,491.724c-17.907,0-35.814,0-53.722,0c-4.514,0-4.514,7,0,7c17.907,0,35.814,0,53.722,0
					C685.615,498.724,685.615,491.724,681.101,491.724L681.101,491.724z"/>
			</g>
		</g>
	</g>
	<g display="inline">
		<path fill="#1A1A1A" stroke="#1A1A1A" d="M605.558,441.79c0-2.58,2.04-4.62,4.619-4.62h12.54c10.02,0,16.079,5.939,16.079,14.519
			v0.12c0,9.72-7.56,14.759-16.979,14.759h-7.02v8.34c0,2.58-2.04,4.62-4.62,4.62c-2.579,0-4.619-2.04-4.619-4.62V441.79z
			 M622.118,458.349c4.619,0,7.319-2.76,7.319-6.359v-0.12c0-4.14-2.88-6.36-7.5-6.36h-7.14v12.839H622.118z"/>
	</g>
	<g display="inline">
		<g display="none">
			<g display="inline">
				<path fill="#1A1A1A" d="M698.379,537.057c-18,0-36,0-54,0c-4.514,0-4.514,7,0,7c18,0,36,0,54,0
					C702.893,544.057,702.893,537.057,698.379,537.057L698.379,537.057z"/>
			</g>
		</g>
		<g display="none">
			<g display="inline">
				<path fill="#1A1A1A" d="M698.101,519.057c-17.907,0-35.814,0-53.722,0c-4.514,0-4.514,7,0,7c17.907,0,35.814,0,53.722,0
					C702.615,526.057,702.615,519.057,698.101,519.057L698.101,519.057z"/>
			</g>
		</g>
		<g display="none">
			<g display="inline">
				<path fill="#1A1A1A" d="M698.101,501.057c-17.907,0-35.814,0-53.722,0c-4.514,0-4.514,7,0,7c17.907,0,35.814,0,53.722,0
					C702.615,508.057,702.615,501.057,698.101,501.057L698.101,501.057z"/>
			</g>
		</g>
		<g display="none">
			<g display="inline">
				<path fill="#1A1A1A" d="M698.101,483.057c-17.907,0-35.814,0-53.722,0c-4.514,0-4.514,7,0,7c17.907,0,35.814,0,53.722,0
					C702.615,490.057,702.615,483.057,698.101,483.057L698.101,483.057z"/>
			</g>
		</g>
		<g display="none">
			<g display="inline">
				<path fill="#1A1A1A" d="M698.101,465.057c-17.907,0-35.814,0-53.722,0c-4.514,0-4.514,7,0,7c17.907,0,35.814,0,53.722,0
					C702.615,472.057,702.615,465.057,698.101,465.057L698.101,465.057z"/>
			</g>
		</g>
		<g>
			<g>
				<path fill="#1A1A1A" d="M707.962,461.287c-17.907,0-35.814,0-53.722,0c-4.514,0-4.514,7,0,7c17.907,0,35.814,0,53.722,0
					C712.476,468.287,712.476,461.287,707.962,461.287L707.962,461.287z"/>
			</g>
		</g>
		<g>
			<g>
				<path fill="#1A1A1A" d="M707.962,443.287c-17.907,0-35.814,0-53.722,0c-4.514,0-4.514,7,0,7c17.907,0,35.814,0,53.722,0
					C712.476,450.287,712.476,443.287,707.962,443.287L707.962,443.287z"/>
			</g>
		</g>
	</g>
</g>
<g id="Layer_3" display="none">
	<g display="inline">
		<g>
			<rect x="243.523" y="423.059" fill="#FF7BAC" width="116.495" height="72.001"/>
			<g>
				<path fill="#1A1A1A" d="M360.072,487.558c-38.832,0-77.664,0-116.495,0c2.482,2.519,4.965,5.037,7.448,7.556c0-24,0-48,0-72.001
					c-2.519,2.482-5.038,4.965-7.556,7.447c38.832,0,77.664,0,116.495,0c-2.482-2.519-4.965-5.037-7.448-7.556
					c0,24,0,48.001,0,72.002c0,9.686,15.004,9.771,15.004,0.107c0-24,0-48,0-72.001c0-4.065-3.342-7.556-7.448-7.556
					c-38.832,0-77.664,0-116.495,0c-4.065,0-7.556,3.341-7.556,7.447c0,24,0,48.001,0,72.002c0,4.064,3.342,7.556,7.448,7.556
					c38.832,0,77.664,0,116.495,0C369.65,502.562,369.736,487.558,360.072,487.558z"/>
			</g>
		</g>
		<g>
			<g display="none">
				<g display="inline">
					<path fill="#1A1A1A" d="M317.979,538.445c-18,0-36,0-54,0c-4.514,0-4.514,7,0,7c18,0,36,0,54,0
						C322.493,545.445,322.493,538.445,317.979,538.445L317.979,538.445z"/>
				</g>
			</g>
			<g display="none">
				<g display="inline">
					<path fill="#1A1A1A" d="M317.701,520.445c-17.907,0-35.814,0-53.722,0c-4.514,0-4.514,7,0,7c17.907,0,35.814,0,53.722,0
						C322.215,527.445,322.215,520.445,317.701,520.445L317.701,520.445z"/>
				</g>
			</g>
			<g display="none">
				<g display="inline">
					<path fill="#1A1A1A" d="M317.701,502.445c-17.907,0-35.814,0-53.722,0c-4.514,0-4.514,7,0,7c17.907,0,35.814,0,53.722,0
						C322.215,509.445,322.215,502.445,317.701,502.445L317.701,502.445z"/>
				</g>
			</g>
			<g display="none">
				<g display="inline">
					<path fill="#1A1A1A" d="M317.701,484.445c-17.907,0-35.814,0-53.722,0c-4.514,0-4.514,7,0,7c17.907,0,35.814,0,53.722,0
						C322.215,491.445,322.215,484.445,317.701,484.445L317.701,484.445z"/>
				</g>
			</g>
			<g display="none">
				<g display="inline">
					<path fill="#1A1A1A" d="M317.701,466.444c-17.907,0-35.814,0-53.722,0c-4.514,0-4.514,7,0,7c17.907,0,35.814,0,53.722,0
						C322.215,473.444,322.215,466.444,317.701,466.444L317.701,466.444z"/>
				</g>
			</g>
			<g>
				<g>
					<path fill="#1A1A1A" d="M327.562,462.674c-17.907,0-35.814,0-53.722,0c-4.514,0-4.514,7,0,7c17.907,0,35.814,0,53.722,0
						C332.076,469.674,332.076,462.674,327.562,462.674L327.562,462.674z"/>
				</g>
			</g>
			<g>
				<g>
					<path fill="#1A1A1A" d="M327.562,444.674c-17.907,0-35.814,0-53.722,0c-4.514,0-4.514,7,0,7c17.907,0,35.814,0,53.722,0
						C332.076,451.674,332.076,444.674,327.562,444.674L327.562,444.674z"/>
				</g>
			</g>
		</g>
	</g>
	<g display="inline">
		<g>
			<rect x="559.201" y="636.501" fill="#FCEE21" width="116.495" height="72.001"/>
			<g>
				<path fill="#1A1A1A" d="M675.75,701c-38.831,0-77.663,0-116.495,0c2.482,2.519,4.966,5.037,7.448,7.556c0-24,0-48,0-72.001
					c-2.519,2.483-5.037,4.966-7.556,7.448c38.831,0,77.663,0,116.495,0c-2.483-2.519-4.966-5.037-7.448-7.556c0,24,0,48,0,72.001
					c0,9.686,15.004,9.771,15.004,0.107c0-24,0-48,0-72.001c0-4.064-3.342-7.556-7.448-7.556c-38.831,0-77.663,0-116.495,0
					c-4.064,0-7.556,3.342-7.556,7.448c0,24,0,48,0,72.001c0,4.064,3.342,7.556,7.448,7.556c38.831,0,77.663,0,116.495,0
					C685.328,716.004,685.414,701,675.75,701z"/>
			</g>
		</g>
		<g>
			<g display="none">
				<line display="inline" fill="#FCEE21" x1="633.657" y1="755.387" x2="579.657" y2="755.387"/>
				<g display="inline">
					<path fill="#1A1A1A" d="M633.657,751.887c-18,0-36,0-54,0c-4.514,0-4.514,7,0,7c18,0,36,0,54,0
						C638.17,758.887,638.17,751.887,633.657,751.887L633.657,751.887z"/>
				</g>
			</g>
			<g display="none">
				<line display="inline" fill="#FCEE21" x1="633.378" y1="737.387" x2="579.657" y2="737.387"/>
				<g display="inline">
					<path fill="#1A1A1A" d="M633.378,733.887c-17.907,0-35.814,0-53.722,0c-4.514,0-4.514,7,0,7c17.907,0,35.814,0,53.722,0
						C637.892,740.887,637.892,733.887,633.378,733.887L633.378,733.887z"/>
				</g>
			</g>
			<g display="none">
				<line display="inline" fill="#FCEE21" x1="633.378" y1="719.387" x2="579.657" y2="719.387"/>
				<g display="inline">
					<path fill="#1A1A1A" d="M633.378,715.887c-17.907,0-35.814,0-53.722,0c-4.514,0-4.514,7,0,7c17.907,0,35.814,0,53.722,0
						C637.892,722.887,637.892,715.887,633.378,715.887L633.378,715.887z"/>
				</g>
			</g>
			<g display="none">
				<line display="inline" fill="#FCEE21" x1="633.378" y1="701.387" x2="579.657" y2="701.387"/>
				<g display="inline">
					<path fill="#1A1A1A" d="M633.378,697.887c-17.907,0-35.814,0-53.722,0c-4.514,0-4.514,7,0,7c17.907,0,35.814,0,53.722,0
						C637.892,704.887,637.892,697.887,633.378,697.887L633.378,697.887z"/>
				</g>
			</g>
			<g display="none">
				<line display="inline" fill="#FCEE21" x1="633.378" y1="683.386" x2="579.657" y2="683.386"/>
				<g display="inline">
					<path fill="#1A1A1A" d="M633.378,679.886c-17.907,0-35.814,0-53.722,0c-4.514,0-4.514,7,0,7c17.907,0,35.814,0,53.722,0
						C637.892,686.886,637.892,679.886,633.378,679.886L633.378,679.886z"/>
				</g>
			</g>
			<g>
				<line fill="#FCEE21" x1="643.24" y1="679.617" x2="589.518" y2="679.617"/>
				<g>
					<path fill="#1A1A1A" d="M643.24,676.117c-17.907,0-35.814,0-53.722,0c-4.514,0-4.514,7,0,7c17.907,0,35.814,0,53.722,0
						C647.753,683.117,647.753,676.117,643.24,676.117L643.24,676.117z"/>
				</g>
			</g>
			<g>
				<line fill="#FCEE21" x1="643.24" y1="661.617" x2="589.518" y2="661.617"/>
				<g>
					<path fill="#1A1A1A" d="M643.24,658.117c-17.907,0-35.814,0-53.722,0c-4.514,0-4.514,7,0,7c17.907,0,35.814,0,53.722,0
						C647.753,665.117,647.753,658.117,643.24,658.117L643.24,658.117z"/>
				</g>
			</g>
		</g>
	</g>
</g>
<g id="Layer_6" display="none">
	<g display="inline">
		<polyline fill="#8C6239" points="259.501,669.454 187.501,741.454 331.501,741.454 187.501,597.454 187.501,741.454 		"/>
		<g>
			<path fill="#1A1A1A" d="M254.169,664.178c-24,24-48,48-72,72c-4.58,4.579-1.211,12.777,5.278,12.777c47.249,0,94.498,0,141.747,0
				c0.751,0,1.502,0,2.253,0c6.596,0,10.004-8.16,5.33-12.835c-34.711-34.711-69.422-69.422-104.133-104.133
				c-13.289-13.289-26.578-26.578-39.867-39.867c-4.579-4.579-12.777-1.21-12.777,5.279c0,47.248,0,94.497,0,141.746
				c0,0.751,0,1.502,0,2.254c0,9.686,15.004,9.771,15.004,0.107c0-47.248,0-94.497,0-141.746c0-0.751,0-1.502,0-2.254
				c-4.259,1.76-8.519,3.52-12.777,5.279c34.711,34.711,69.422,69.422,104.133,104.133c13.289,13.289,26.578,26.578,39.867,39.867
				c1.776-4.278,3.553-8.557,5.33-12.835c-47.249,0-94.498,0-141.747,0c-0.751,0-1.502,0-2.253,0
				c1.759,4.26,3.519,8.519,5.278,12.777c24-24,48-48,72-72C271.669,667.894,261.021,657.326,254.169,664.178L254.169,664.178z"/>
		</g>
	</g>
	<g display="inline">
		<polygon fill="#FFFFFF" points="223.501,705.454 295.501,705.454 223.501,633.454 		"/>
		<g>
			<path fill="#1A1A1A" d="M223.447,712.956c24,0,48,0,72,0c6.596,0,10.004-8.16,5.33-12.835c-24-24-48-48-72-72
				c-4.579-4.579-12.777-1.21-12.777,5.279c0,24,0,48,0,72c0,9.686,15.004,9.771,15.004,0.107c0-24,0-48,0-72
				c-4.259,1.76-8.519,3.52-12.777,5.279c24,24,48,48,72,72c1.776-4.278,3.553-8.557,5.33-12.835c-24,0-48,0-72,0
				C213.869,697.952,213.784,712.956,223.447,712.956z"/>
		</g>
	</g>
	<g display="inline">
		<g>
			<path fill="#1A1A1A" d="M486.243,381.508c0-33.941,0-67.882,0-101.823c0-9.687-15.004-9.772-15.004-0.108
				c0,33.941,0,67.882,0,101.823C471.239,391.086,486.243,391.171,486.243,381.508L486.243,381.508z"/>
		</g>
	</g>
</g>
<g id="Layer_7" display="none">
	<g>
		<polygon display="inline" fill="#C69C6D" points="668.158,279.63 769.981,381.454 871.804,279.63 734.342,213.445 		"/>
		<g display="inline">
			<path d="M662.882,284.963c33.41,33.41,66.819,66.82,100.229,100.23c0.531,0.531,1.062,1.062,1.594,1.593
				c2.899,2.9,7.729,2.821,10.607-0.057c33.41-33.41,66.82-66.82,100.23-100.229c0.531-0.531,1.062-1.062,1.594-1.594
				c3.231-3.231,2.811-9.655-1.583-11.771c-43.802-21.09-87.604-42.18-131.407-63.27c-2.018-0.972-4.036-1.944-6.055-2.916
				c-3.08-1.483-6.561-1.303-9.082,1.219c-22.062,22.062-44.123,44.124-66.186,66.186c-6.835,6.835,3.813,17.404,10.666,10.551
				c22.061-22.062,44.123-44.123,66.184-66.185c-3.027,0.406-6.055,0.813-9.082,1.219c43.803,21.09,87.604,42.18,131.407,63.27
				c2.018,0.972,4.036,1.944,6.055,2.916c-0.527-3.923-1.055-7.847-1.583-11.771c-33.409,33.41-66.819,66.82-100.229,100.229
				c-0.531,0.531-1.062,1.062-1.593,1.594c3.535-0.019,7.071-0.038,10.607-0.057c-33.41-33.41-66.819-66.82-100.229-100.23
				c-0.531-0.531-1.062-1.062-1.594-1.593C666.598,267.462,656.03,278.11,662.882,284.963z"/>
		</g>
	</g>
	<g>
		<polygon display="inline" fill="#C69C6D" points="289.325,279.63 187.502,381.454 85.679,279.63 223.141,213.445 		"/>
		<g display="inline">
			<path d="M283.992,274.355c-33.409,33.41-66.819,66.82-100.229,100.229c-0.531,0.531-1.062,1.062-1.593,1.594
				c3.535-0.019,7.071-0.038,10.607-0.057c-33.41-33.41-66.819-66.82-100.229-100.23c-0.531-0.531-1.062-1.062-1.594-1.593
				c-0.492,3.934-0.985,7.868-1.478,11.802c43.802-21.09,87.604-42.18,131.406-63.27c2.019-0.972,4.037-1.944,6.056-2.916
				c-3.024-0.379-6.049-0.758-9.073-1.137c22.062,22.062,44.123,44.124,66.185,66.185c6.835,6.835,17.403-3.812,10.551-10.665
				c-22.062-22.062-44.123-44.124-66.185-66.185c-2.52-2.52-6.021-2.606-9.073-1.137c-43.802,21.09-87.604,42.18-131.406,63.27
				c-2.019,0.972-4.037,1.944-6.056,2.916c-4.441,2.139-4.688,8.593-1.478,11.802c33.41,33.41,66.819,66.82,100.229,100.23
				c0.531,0.531,1.062,1.062,1.594,1.593c2.899,2.9,7.729,2.821,10.607-0.057c33.41-33.41,66.82-66.82,100.23-100.229
				c0.531-0.531,1.062-1.062,1.594-1.594C301.493,278.07,290.846,267.502,283.992,274.355z"/>
		</g>
	</g>
	<g display="inline">
		<polygon fill="#8C6239" points="769.981,381.454 187.502,381.454 289.325,279.63 668.158,279.63 		"/>
		<g>
			<path fill="#1A1A1A" d="M770.035,373.952c-25.848,0-51.696,0-77.544,0c-58.932,0-117.863,0-176.796,0
				c-64.097,0-128.193,0-192.29,0c-41.343,0-82.686,0-124.029,0c-3.94,0-7.88,0-11.82,0c1.759,4.259,3.519,8.519,5.278,12.777
				c33.41-33.41,66.82-66.82,100.23-100.229c0.531-0.531,1.062-1.062,1.593-1.594c-1.795,0.742-3.591,1.484-5.387,2.226
				c35.836,0,71.673,0,107.509,0c63.639,0,127.279,0,190.917,0c26.802,0,53.604,0,80.406,0c-1.741-0.723-3.481-1.446-5.222-2.169
				c33.41,33.41,66.819,66.82,100.229,100.23c0.531,0.531,1.062,1.062,1.594,1.593c6.836,6.835,17.403-3.812,10.551-10.665
				c-33.41-33.41-66.819-66.82-100.229-100.23c-2.983-2.983-6.055-3.762-10.066-3.762c-5.864,0-11.729,0-17.594,0
				c-23.256,0-46.512,0-69.768,0c-63.827,0-127.654,0-191.48,0c-24.119,0-48.239,0-72.358,0c-6.513,0-13.025,0-19.538,0
				c-3.991,0-7.584-0.42-10.746,2.741c-33.665,33.665-67.329,67.33-100.994,100.994c-0.104,0.104-0.209,0.209-0.314,0.314
				c-4.58,4.579-1.211,12.777,5.278,12.777c25.848,0,51.696,0,77.544,0c58.932,0,117.864,0,176.795,0c64.097,0,128.193,0,192.29,0
				c41.344,0,82.687,0,124.029,0c3.94,0,7.88,0,11.82,0C779.613,388.956,779.699,373.952,770.035,373.952z"/>
		</g>
	</g>
	<g display="inline">
		<g>
			<path fill="#1A1A1A" d="M281.824,279.576c0,33.941,0,67.882,0,101.823c0,9.687,15.003,9.772,15.003,0.108
				c0-33.941,0-67.882,0-101.823C296.827,269.998,281.824,269.913,281.824,279.576L281.824,279.576z"/>
		</g>
	</g>
	<g display="inline">
		<g>
			<path fill="#1A1A1A" d="M660.656,279.576c0,33.941,0,67.882,0,101.823c0,9.687,15.004,9.772,15.004,0.108
				c0-33.941,0-67.882,0-101.823C675.66,269.998,660.656,269.913,660.656,279.576L660.656,279.576z"/>
		</g>
	</g>
	<g display="inline">
		<polygon fill="#C69C6D" points="767.436,180.353 668.158,279.63 769.981,381.454 922.715,228.719 		"/>
		<g>
			<path fill="#1A1A1A" d="M762.104,175.077c-32.833,32.833-65.665,65.665-98.497,98.497c-0.261,0.261-0.521,0.521-0.782,0.782
				c-2.899,2.899-2.82,7.73,0.058,10.608c33.41,33.41,66.819,66.82,100.229,100.23c0.531,0.531,1.062,1.062,1.594,1.593
				c2.899,2.9,7.729,2.821,10.607-0.057c34.249-34.248,68.497-68.496,102.745-102.745c16.663-16.663,33.326-33.327,49.989-49.99
				c4.094-4.094,1.949-10.86-3.352-12.511c-47.317-14.739-94.635-29.477-141.952-44.215c-4.442-1.384-8.885-2.768-13.327-4.151
				c-9.265-2.886-13.167,11.603-3.961,14.47c47.317,14.739,94.635,29.477,141.952,44.215c4.442,1.384,8.885,2.768,13.327,4.151
				c-1.117-4.17-2.234-8.34-3.352-12.511c-34.249,34.249-68.497,68.497-102.745,102.745c-16.663,16.663-33.326,33.327-49.989,49.99
				c3.535-0.019,7.071-0.038,10.607-0.057c-33.41-33.41-66.819-66.82-100.229-100.23c-0.531-0.531-1.062-1.062-1.594-1.593
				c0.02,3.536,0.038,7.072,0.058,10.608c32.832-32.832,65.664-65.664,98.496-98.496c0.261-0.261,0.521-0.521,0.781-0.781
				C779.604,178.792,768.956,168.225,762.104,175.077z"/>
		</g>
	</g>
	<g display="inline">
		<polygon fill="#C69C6D" points="190.047,180.353 289.325,279.63 187.502,381.454 34.768,228.719 		"/>
		<g>
			<path fill="#1A1A1A" d="M184.771,185.685c32.833,32.832,65.665,65.665,98.497,98.497c0.261,0.26,0.521,0.521,0.781,0.781
				c-0.019-3.536-0.038-7.072-0.057-10.608c-33.41,33.41-66.82,66.82-100.23,100.229c-0.531,0.531-1.062,1.062-1.593,1.594
				c3.536-0.019,7.072-0.038,10.608-0.057c-34.249-34.248-68.497-68.497-102.745-102.745c-16.663-16.664-33.327-33.327-49.99-49.99
				c-1.112,4.192-2.223,8.385-3.335,12.577c47.317-14.739,94.635-29.477,141.953-44.215c4.442-1.384,8.884-2.768,13.327-4.151
				c9.21-2.869,5.364-17.369-3.882-14.489c-47.317,14.739-94.635,29.477-141.953,44.215c-4.442,1.384-8.884,2.768-13.327,4.151
				c-5.384,1.677-7.478,8.435-3.335,12.577c34.249,34.248,68.497,68.497,102.745,102.745c16.663,16.664,33.327,33.327,49.99,49.99
				c2.9,2.9,7.73,2.821,10.608-0.057c33.41-33.41,66.82-66.82,100.23-100.229c0.531-0.531,1.062-1.062,1.593-1.594
				c2.9-2.899,2.821-7.73-0.057-10.608c-32.833-32.832-65.665-65.665-98.497-98.497c-0.261-0.26-0.521-0.521-0.781-0.781
				C188.487,168.185,177.918,178.833,184.771,185.685z"/>
		</g>
	</g>
</g>
<g id="Layer_9" display="none">
	<g display="inline">
		<polygon fill="#004C82" points="349.224,461.931 350.846,461.931 353.553,462.459 356.787,463.001 365.429,465.167 
			377.305,467.319 383.794,468.948 390.811,470.57 398.369,471.648 405.93,473.806 414.032,474.881 422.129,477.044 448.052,481.9 
			456.155,484.066 464.795,485.683 472.35,487.305 480.454,488.924 488.004,490.542 495.568,491.626 502.047,493.249 
			508.536,494.324 513.936,495.941 518.792,497.026 523.108,497.563 526.89,498.104 529.598,498.648 531.217,499.185 
			532.289,499.185 539.311,500.804 545.796,501.887 551.199,503.506 555.51,504.586 559.836,506.204 563.08,507.287 
			567.391,509.448 569.008,510.533 571.717,513.223 571.717,513.764 572.262,514.311 572.262,514.837 595.471,514.837 
			597.637,515.383 599.799,515.383 601.417,515.925 603.034,515.925 604.653,516.469 608.979,518.618 609.514,519.708 
			613.294,525.646 614.378,532.661 613.294,541.303 610.596,549.408 607.357,557.505 604.108,563.99 601.417,568.309 
			600.339,569.931 599.254,570.47 596.557,571.545 592.776,573.165 587.377,575.326 581.43,577.479 573.879,580.731 565.77,583.964 
			556.59,587.201 546.329,591.53 535.532,595.31 524.737,599.622 500.975,609.358 488.55,614.216 476.127,618.531 463.71,623.922 
			450.756,628.793 438.334,633.107 426.448,638.514 414.032,642.829 402.688,647.143 381.085,655.798 371.368,659.564 
			362.186,662.813 354.09,666.046 347.073,668.751 341.127,671.454 336.274,673.081 332.489,674.703 330.328,675.221 
			329.783,675.768 608.979,675.768 654.335,460.843 349.224,460.843 		"/>
		<polygon fill="#004C82" points="558.219,531.587 556.59,532.131 545.796,534.28 543.092,534.28 540.93,534.827 538.78,534.827 
			535.532,535.368 533.915,535.909 532.834,536.441 532.289,537.534 532.289,538.609 533.377,539.684 535.532,539.684 
			537.694,540.226 543.092,540.226 546.329,539.684 549.567,539.684 557.132,538.609 560.917,538.609 565.234,538.06 
			569.008,537.534 572.262,536.99 576.032,536.441 590.617,536.441 592.23,536.99 593.321,537.534 594.393,539.148 594.393,541.303 
			593.853,543.462 593.321,546.169 592.23,549.408 590.617,553.194 589.536,556.973 588.993,559.127 590.073,560.209 
			591.159,559.664 593.321,557.505 594.393,555.885 596.018,553.194 597.637,549.952 599.254,546.169 600.87,542.93 
			601.955,539.684 602.491,536.99 602.491,533.75 601.417,531.043 599.799,529.424 597.637,527.81 594.934,526.729 591.694,526.19 
			587.919,525.646 565.234,525.646 564.694,526.19 564.153,526.19 563.08,526.729 561.989,528.893 560.917,529.424 559.836,530.509 
					"/>
		<polygon fill="#004C82" points="338.966,510.533 303.325,675.768 304.952,675.221 308.188,673.081 313.59,670.905 
			320.614,667.125 328.705,663.344 337.891,658.501 348.693,653.638 358.951,648.233 369.75,643.358 380.01,637.968 
			390.269,633.107 399.985,628.25 408.092,623.922 415.109,620.686 420.51,617.981 424.291,616.375 429.693,613.669 
			434.554,610.965 440.491,608.262 446.431,605.029 451.83,602.327 458.312,599.622 464.252,596.388 470.729,593.698 
			477.215,590.434 509.611,576.951 524.197,572.089 526.355,571.545 528.507,570.47 531.217,569.931 540.93,566.69 552.272,563.444 
			556.055,562.902 567.391,559.664 573.879,558.59 576.032,558.049 577.651,557.505 579.278,557.505 580.895,556.973 
			581.977,555.885 582.521,555.885 582.521,555.341 581.43,553.194 579.813,552.649 577.651,552.103 575.497,552.103 
			572.262,551.572 569.008,551.572 565.234,552.103 558.75,552.649 551.73,553.722 544.174,555.341 536.069,556.973 
			527.978,559.127 519.334,561.832 511.229,564.527 502.592,567.229 494.497,570.47 486.387,573.165 478.832,575.87 
			471.816,578.572 465.327,581.811 459.929,583.964 455.068,586.137 451.288,588.291 430.77,524.563 561.458,524.563 
			561.989,521.871 559.836,519.164 556.59,517.544 551.73,515.925 546.329,514.311 532.289,512.145 509.611,510.533 		"/>
		<polygon display="none" fill="#EA4156" points="1595.752,573.321 680.799,573.321 682.111,559.573 1597.069,559.573 		"/>
		<path display="none" d="M722.378,542.93l-7.017-0.541l-7.02-1.619l-5.402-1.622l-4.862-3.239l-3.236-3.777l-2.162-4.868
			l-0.54-5.393l0.54-6.487l2.704-11.877l2.154-10.799l2.164-9.188l1.613-7.554l1.094-6.482l1.074-4.86l0.543-2.695l0.528-1.085
			h17.824l-0.542,2.158l-1.076,5.402l-2.167,8.097l-1.616,9.18l-2.164,9.188l-2.693,13.497l-0.547,1.616l-0.536,4.324v7.563
			l1.083,2.694l2.156,2.164l2.701,1.616l3.779,1.076l4.324,0.544l4.858-0.544l3.78-0.529l3.781-1.632l2.696-2.697l2.165-2.695
			l2.163-3.254l3.239-8.631l0.532-4.316l1.618-6.485l1.633-8.097l1.614-8.641l2.156-8.104l1.092-7.021l1.073-4.86l0.539-1.612
			h17.824l-3.246,15.66l-1.617,8.106l-1.082,2.695v1.075l-0.544,3.246l-1.618,8.095l-3.772,15.662l-0.543,3.234l-1.616,3.253
			l-1.091,2.692l-1.616,2.7l-2.158,2.702l-4.321,4.314l-2.706,1.629l-3.236,1.625l-2.699,1.616l-3.234,1.078l-3.241,0.544
			l-3.247,1.07l-7.554,1.091h-4.324V542.93z M1552.921,473.806h-25.386l-4.31,1.075l-3.243,2.163l-0.547,1.073l-0.536,1.627v2.155
			l0.536,2.166l1.619,2.164l1.625,2.697l4.857,4.857l3.236,2.161l2.702,2.163l3.241,2.7l5.397,5.397l2.166,2.699l3.233,6.48
			l0.547,3.233l-0.547,3.785l-1.07,3.785l-1.634,3.775l-2.692,3.241l-3.783,2.702l-4.312,2.153l-5.407,1.625l-7.014,1.085
			l-7.565,0.534h-27.542l3.243-12.96h29.162l2.702-0.534l2.155-0.546l1.625-1.073l1.624-2.161l1.07-2.161l-0.539-4.326l-3.238-4.321
			l-5.399-4.319l-5.397-4.858l-5.938-5.397l-4.866-5.94l-3.233-5.946l-0.541-7.015l1.08-3.777l2.166-4.321l2.16-3.241l3.773-2.703
			l4.865-2.152l4.858-1.618l6.48-1.09h31.322L1552.921,473.806L1552.921,473.806z M1490.272,473.806h-40.487l-4.873,21.062h35.649
			l-2.697,11.336h-35.642l-4.327,22.14h40.502l-2.704,12.958h-58.313l17.279-80.458h58.323L1490.272,473.806L1490.272,473.806z
			 M1420.072,473.806h-24.827l-14.59,67.495h-17.818l14.58-67.495h-25.384l3.241-12.963h67.5L1420.072,473.806L1420.072,473.806z
			 M1295.873,541.303l7.024-12.96h25.381l-7.023-51.299l-35.64,64.257h-17.82l46.445-80.458h21.058l12.429,80.46H1295.873
			L1295.873,541.303z M1292.636,473.806h-24.842l-14.587,67.495h-17.823l14.59-67.495h-25.382l3.236-12.963h67.503L1292.636,473.806
			L1292.636,473.806z M1215.416,473.806h-24.843l-2.705,0.531l-2.158,0.544l-1.617,1.085l-2.165,2.151v3.78l0.546,2.166l1.073,2.163
			l2.163,2.697l4.863,4.858l2.692,2.161l3.249,2.163l8.097,8.097l2.163,2.7l2.151,3.241l1.093,3.238l0.539,3.234v3.785l-1.088,3.785
			l-1.614,3.775l-3.241,3.241l-3.234,2.702l-4.863,2.153l-5.404,1.624l-6.478,1.086l-8.102,0.533h-27.004l2.702-12.96h29.696
			l2.704-0.533l2.156-0.547l1.619-1.073l1.622-2.16l0.539-2.159l-0.539-4.329l-3.241-4.321l-4.86-4.319l-5.397-4.858l-5.943-5.396
			l-4.861-5.941l-3.236-5.943l-0.546-7.017l1.096-3.778l1.606-4.318l2.707-3.244l3.78-2.702l4.322-2.153l5.399-1.617l6.48-1.088
			h31.314L1215.416,473.806L1215.416,473.806z M1052.329,500.804l-8.103,40.497h36.184l4.319-0.534h4.318l7.561-2.163l4.317-1.617
			l3.79-2.166l6.478-4.313l6.47-6.483l5.405-7.558l2.158-4.324l1.616-4.316l1.096-4.866l0.537-2.158l0.531-3.241l1.078-7.556
			l-0.532-7.017l-1.616-5.943l-2.713-5.396l-4.312-4.861l-5.399-3.238l-7.015-2.164l-8.111-0.542h-39.417L1052.329,500.804
			L1052.329,500.804z M1111.19,500.804l-0.546,2.702l-1.614,3.238l-1.081,2.703l-1.072,3.243l-1.632,2.144l-2.148,2.707
			l-4.329,4.329l-5.397,3.239l-2.695,1.078l-3.241,1.072l-6.484,1.083h-16.204l5.407-27.542l5.936-26.998h23.221l4.312,1.622
			l3.254,2.161l2.689,3.238l1.625,3.239l1.072,4.313v8.646l-1.072,3.241v0.539H1111.19z M1045.312,473.806h-39.971l-4.854,21.062
			h35.098l-2.166,11.336h-35.634l-4.321,22.14h39.955l-2.148,12.958h-58.322l17.276-80.458h57.786L1045.312,473.806
			L1045.312,473.806z M975.646,473.806h-25.377l-14.587,67.495h-17.273l14.574-67.495h-25.374l2.69-12.963h67.502L975.646,473.806
			L975.646,473.806z M881.145,541.303H863.86l16.74-80.46h17.818L881.145,541.303L881.145,541.303z M846.583,541.303h-22.142
			l-19.984-59.935h-0.533l-12.418,59.935h-15.66l17.273-80.46h22.678l19.441,60.486l12.424-60.486h16.197L846.583,541.303
			L846.583,541.303z"/>
		<path display="none" d="M698.624,644.985h-2.164l-1.076-0.532h-3.248l-1.078-0.546h-1.072l-1.088-11.328h4.321l0.535,0.531h3.243
			l4.313-0.531l6.481-2.171l2.164-2.156l3.238-4.329l1.082-2.158v-2.156l0.536-2.702v-2.689l-0.536-2.169l-1.082-1.611l-3.238-2.168
			h-2.164l-2.149-0.532h-14.585l-14.584,67.488h-17.82l17.283-80.456h38.34l5.934,0.544l4.328,2.174l3.777,2.685l2.164,3.785
			l1.078,3.78l0.541,4.314v4.327l-0.541,3.779l-1.621,5.396l-2.705,4.857l-3.24,4.314l-4.309,3.795l-4.324,2.703l-10.804,3.233
			L698.624,644.985L698.624,644.985z M1587.48,607.731h-41.033l-4.329,21.062h35.648l-2.71,11.879h-35.634l-4.319,22.141h40.503
			l-2.703,12.406h-58.322l17.281-80.458h58.323L1587.48,607.731L1587.48,607.731z M1515.664,608.809l-2.164-0.547h-1.624
			l-4.314-1.077l-2.702-0.532h-2.694l-2.166-0.546h-3.234l-5.945,0.546l-5.407,1.607l-5.397,2.171l-4.854,3.782l-3.782,3.768
			l-3.783,4.874l-2.155,5.936l-2.164,6.47l-1.088,6.485l0.547,5.937l1.612,4.863l2.163,3.779l3.241,3.236l4.319,2.703l4.86,1.621
			l5.407,0.532h3.233l3.241-0.532h2.703l5.396-1.077h2.161l2.702-0.544l2.163-0.534l-4.326,13.486l-2.156,0.547h-2.697l-2.163,0.544
			h-2.7l-2.16,0.533h-12.424l-8.639-1.08l-3.782-1.062l-3.783-1.625l-3.231-1.624l-3.243-2.158l-2.705-2.169l-2.695-2.704
			l-1.616-3.234l-1.617-3.78l-1.624-3.236l-0.539-4.312v-4.326l0.539-4.861l0.531-5.407l1.624-4.86l1.617-5.392l4.319-8.642
			l2.694-3.78l6.498-6.479l3.782-2.702l7.556-4.314l8.634-3.249l4.326-1.08l4.314-0.544l4.865-0.52h11.336l2.158,0.52h2.169
			l2.158,0.544h2.156l2.165,0.546L1515.664,608.809L1515.664,608.809z M1426.557,675.221h-17.821l17.282-80.458h17.82
			L1426.557,675.221L1426.557,675.221z M1369.314,675.221h-21.06l-11.884-80.458h17.823l8.102,64.804l35.642-64.804h17.276
			L1369.314,675.221L1369.314,675.221z M1303.965,640.672l12.967,34.549h-19.442l-14.582-43.738h10.268l3.239-0.531l3.233-1.078
			l2.695-1.624l2.166-1.609l2.165-2.174l1.071-2.702l1.093-3.231l0.526-2.155v-2.161l-1.07-3.249l-1.078-1.078l-2.161-1.078
			l-5.404-1.08h-16.204l-14.584,67.49h-17.809l17.281-80.458h37.262l5.384,0.547l4.874,1.078l3.78,1.624l2.697,2.156l2.155,2.689
			l1.625,3.798l0.536,4.312v4.314l-0.536,5.404l-1.625,4.863l-2.155,4.327l-2.697,3.233l-3.249,3.233l-4.314,2.171l-3.78,1.609
			L1303.965,640.672L1303.965,640.672z M1252.673,607.731h-40.502l-4.319,21.062h35.095l-2.158,11.879h-35.634l-4.327,22.141h40.5
			l-2.694,12.406h-58.862l17.276-80.458h58.323L1252.673,607.731L1252.673,607.731z M1179.224,607.731h-22.679l-5.399,1.08
			l-2.158,0.547l-1.078,1.078l-1.624,1.078l-1.073,2.155v2.708l0.531,2.155l1.091,2.156l2.155,2.171l2.156,2.689l2.705,2.156
			l2.694,2.702l3.234,2.171l2.709,2.689l3.236,2.168l2.164,3.236l2.166,2.686l2.155,3.248l1.086,2.705l0.533,3.78v3.233l-1.077,4.33
			l-1.62,3.233l-6.484,6.485l-4.319,2.158l-5.946,1.622l-6.47,1.065h-35.103l2.702-12.406h29.705l2.695-0.547l2.163-1.08
			l1.619-1.078l1.617-1.606l1.07-2.174l-1.07-4.327l-3.236-4.312l-4.858-4.86l-5.407-4.86l-5.943-4.861l-4.86-5.936l-3.236-6.485
			l-0.547-6.47l1.088-4.329l1.622-3.78l2.694-3.249l3.783-2.689l4.314-2.158l5.404-1.622l6.485-1.081l7.548-0.546h23.765
			L1179.224,607.731L1179.224,607.731z M1083.104,675.221h-54.543l16.751-80.458h18.354l-14.582,68.05h36.722L1083.104,675.221
			L1083.104,675.221z M967.551,675.221l7.014-12.408h25.379l-7.558-51.846l-35.101,64.254H939.46l45.909-80.458h21.591
			l12.421,80.458H967.551L967.551,675.221z M964.307,607.731h-25.384l-14.587,67.49h-17.82l14.587-67.49h-24.845l2.707-12.968
			h67.493L964.307,607.731L964.307,607.731z M887.086,607.731h-22.688l-5.399,1.08l-1.622,0.547l-1.621,1.078l-2.148,2.155
			l-0.541,1.078v2.708l0.541,2.155l3.238,4.327l2.153,2.689l2.705,2.156l2.694,2.702l3.246,2.171l3.239,2.689l2.694,2.168
			l2.164,3.236l2.699,2.686l1.617,3.248l1.086,2.705l1.075,3.78l-0.536,3.233l-1.084,4.33l-1.623,3.233l-2.693,3.236l-3.246,3.249
			l-4.86,2.155l-5.934,1.625l-6.49,1.062h-34.558l2.168-12.406h30.241l2.148-0.544l4.327-2.158l1.078-1.609l1.085-2.174
			l-0.542-4.326l-3.24-4.312l-4.856-4.86l-5.943-4.858l-5.402-4.863l-4.855-5.937l-3.24-6.484l-1.089-6.471l1.089-4.329l2.155-3.777
			l2.701-3.249l3.24-2.689l4.326-2.158l5.934-1.622l6.479-1.081l7.017-0.546h23.765L887.086,607.731L887.086,607.731z
			 M736.963,635.263l-1.09,8.641l1.627,11.346l3.242,6.482l2.152,3.236l4.869,4.858l3.232,2.158l3.242,1.625l3.78,1.609l4.317,1.093
			l4.32,0.531h9.187l8.635-1.078l4.316-1.065l4.323-1.622l3.783-1.626l3.236-2.156l3.781-2.171l3.242-2.702l2.693-3.236l3.245-3.231
			l2.152-3.782l4.327-8.642l1.617-4.858l1.078-5.409l1.084-4.312v-8.095l-0.543-4.326l-0.541-3.783l-3.244-6.485l-4.309-5.404
			l-2.707-2.144l-3.235-2.168l-3.243-1.612l-4.322-1.624l-3.784-1.093l-4.313-0.52h-9.182l-8.639,1.063l-4.316,1.08l-4.326,1.64
			l-3.779,1.609l-3.238,2.158l-3.782,2.702l-3.233,2.156l-3.238,3.249l-2.703,3.779l-2.699,3.234l-2.163,4.314l-1.622,4.326
			l-1.616,5.393L736.963,635.263L736.963,635.263z M804.458,635.263l-1.623,6.487l-2.694,5.937l-2.707,4.86l-3.767,3.78
			l-4.329,3.236l-4.859,2.702l-4.858,1.622l-5.942,0.534l-5.944-0.534l-4.316-2.156l-3.781-2.702l-2.699-3.78l-1.626-3.782
			l-1.073-5.39v-5.407l1.073-5.407l1.626-6.47l2.699-5.938l2.699-4.874l3.779-3.765l4.318-3.783l4.863-2.171l4.851-1.606
			l5.954-0.549l5.406,1.078l4.855,1.077l3.779,3.249l2.696,3.236l1.622,4.327l1.08,4.846v5.404L804.458,635.263L804.458,635.263z"/>
	</g>
</g>
<g id="Layer_13" display="none">
	<g display="inline">
		<path fill="#FFB500" d="M478.742,487.427c-35.005,0-65.535,6.777-90.75,20.141v106.828c0,22.478,8.442,41.279,24.417,54.374
			c14.837,12.161,60.711,32.214,66.334,34.652l-0.001,0.001c5.328-2.318,51.743-22.685,66.346-34.652
			c15.967-13.094,24.404-31.895,24.404-54.375V507.568C544.278,494.205,513.75,487.427,478.742,487.427z"/>
		<path fill="#351C15" d="M513.885,577.398c-0.064-12.758,10.797-20.273,21.184-20.574c8.672-0.265,14.552,2.991,17.326,5.129
			v13.729c-3.288-3.377-8.63-6.437-14.149-6.489c-4.468-0.04-9.128,1.93-9.28,7.54c-0.152,5.748,4.492,8.021,10.388,11.475
			c13.187,7.753,15.737,14.72,15.441,23.928c-0.305,10.099-7.268,21.12-22.869,21.12c-6.24,0-12.409-1.949-17.358-4.897v-14.538
			c4.035,3.59,10.059,6.389,15.097,6.425c5.792,0.024,9.602-3.293,9.465-8.799c-0.111-4.957-2.92-7.648-9.858-11.728
			C516.251,592.078,513.909,585.797,513.885,577.398L513.885,577.398z M475.616,570.676c1.283-0.638,3.457-1.139,5.591-1.139
			c9.168,0,12.963,7.315,12.963,25.002c0,17.258-4.34,25.597-13.428,25.597c-2.135,0-3.995-0.525-5.126-0.951V570.676
			L475.616,570.676z M475.616,665.332h-15.794V562.44c5.728-3.694,12.674-5.614,21.281-5.614c18.842,0,29.205,14.298,29.205,37.314
			c0,23.062-10.06,38.848-27.585,38.848c-3.241,0-5.527-0.43-7.107-0.898v33.244V665.332z M404.385,608.048v-49.624h15.782v50.331
			c0,4.477,1.083,11.106,8.32,11.106c3.208,0,5.751-0.75,7.467-1.93v-59.504h15.762v68.492c-6.023,4.103-14.125,6.341-23.791,6.341
			c-15.62,0-23.541-8.476-23.541-25.208V608.048z M396.328,614.41c0,19.905,7.359,36.525,21.345,47.92
			c12.347,10.067,50.343,27.261,61.065,31.989c10.572-4.66,48.481-21.642,61.042-31.989c14.077-11.59,21.361-27.825,21.361-47.92
			V509.823c-52.829-4.915-115.346-1.898-164.815,43.474l-0.002,61.109h0.002L396.328,614.41z"/>
	</g>
</g>
<g id="Layer_15" display="none">
	<g id="g6_1_" transform="translate(-0.81,-0.35400034)" display="inline">
		<polygon id="polygon10_1_" fill="#FF5900" points="632.045,564.356 651.004,585.255 669.259,564.356 708.238,564.356 
			670.142,607.197 708.761,650.38 668.208,650.38 649.424,629.32 630.814,650.38 591.66,650.38 629.937,607.371 591.66,564.356 		
			"/>
		<polygon id="polygon12_1_" fill="#FF5900" points="591.66,564.356 591.66,593.425 548.304,593.425 548.304,620.093 
			591.66,620.093 591.66,650.38 516.444,650.38 516.444,514.876 591.66,514.876 591.66,545.075 548.304,545.075 548.304,564.356 		
			"/>
		<path id="path14_1_" fill="#2A007C" d="M484.715,514.876v55.456h-0.349c-7.026-8.077-15.806-10.882-25.978-10.882
			c-20.867,0-36.573,14.184-42.095,32.93c-6.292-20.655-22.521-33.32-46.571-33.32c-19.536,0-34.956,8.767-43.009,23.055v-17.758
			H286.33v-19.281h44.072v-30.199h-80.061V650.38h35.989v-56.955h35.883c-1.07,4.179-1.642,8.661-1.642,13.394
			c0,28.266,21.594,48.101,49.151,48.101c23.18,0,38.451-10.881,46.521-30.71h-30.847c-4.172,5.963-7.331,7.729-15.675,7.729
			c-9.675,0-18.013-8.438-18.013-18.441h62.812c2.724,22.452,20.215,41.814,44.215,41.814c10.347,0,19.835-5.093,25.624-13.691
			h0.354v8.773h31.723V514.876H484.715z M352.717,593.823c1.996-8.605,8.674-14.233,17.012-14.233
			c9.171,0,15.513,5.453,17.18,14.233C387.605,593.823,352.717,593.823,352.717,593.823z M465.458,629.756
			c-11.695,0-18.971-10.906-18.971-22.278c0-12.162,6.33-23.858,18.971-23.858c13.113,0,18.33,11.696,18.33,23.858
			C483.788,619.005,478.254,629.756,465.458,629.756z"/>
	</g>
</g>
</svg>
