<svg xmlns="http://www.w3.org/2000/svg" width="793.646" height="476.869" viewBox="0 0 793.646 476.869"><linearGradient id="a" gradientUnits="userSpaceOnUse" x1="298.741" y1="469.357" x2="298.741" y2="109.357"><stop offset="0" stop-color="#C68945"/><stop offset="1" stop-color="#C69C6D"/></linearGradient><path fill="url(#a)" d="M7.502 109.357h582.479v360h-582.479z"/><path fill="#1A1A1A" d="M590.035 461.855h-582.48c2.482 2.519 4.965 5.037 7.448 7.556v-359.999c-2.519 2.482-5.038 4.965-7.556 7.448h582.479l-7.448-7.556v360.001c0 9.686 15.004 9.771 15.004.107v-359.999c0-4.065-3.342-7.556-7.448-7.556h-582.48c-4.065 0-7.556 3.342-7.556 7.448v360.001c0 4.064 3.342 7.556 7.448 7.556h582.479c9.688-.003 9.774-15.007.11-15.007z"/><path fill="#C69C6D" d="M488.158 7.534l101.823 101.823h-582.479l101.824-101.823z"/><path fill="#1A1A1A" d="M482.883 12.866l100.229 100.23 1.594 1.593 5.329-12.834h-582.48l5.278 12.777c33.351-33.348 66.699-66.697 100.048-100.046l1.777-1.777-5.387 2.226h378.832c9.686 0 9.771-15.003.107-15.003h-377.593c-5.177 0-7.91 3.511-11.274 6.874-32.39 32.392-64.782 64.783-97.174 97.176-4.58 4.579-1.211 12.777 5.278 12.777h582.479c6.596 0 10.003-8.161 5.329-12.834l-100.229-100.23-1.594-1.593c-6.833-6.836-17.402 3.812-10.549 10.664z"/><path fill="#C7B299" d="M240.494 109.357h116.495v72h-116.495z"/><path fill="#1A1A1A" d="M357.043 173.856h-116.495c2.482 2.519 4.965 5.037 7.448 7.556v-72c-2.519 2.482-5.038 4.965-7.556 7.448h116.496l-7.448-7.556v72c0 9.687 15.004 9.772 15.004.108v-72c0-4.065-3.342-7.556-7.448-7.556h-116.495c-4.065 0-7.556 3.342-7.556 7.448v72c0 4.065 3.342 7.556 7.448 7.556h116.496c9.684-.001 9.77-15.004.106-15.004z"/><path fill="#C7B299" d="M326.304 7.534l30.685 101.823h-116.495l30.687-101.823z"/><path fill="#1A1A1A" d="M319.06 9.475l30.686 101.823 7.298-9.443h-116.495l7.181 9.482 30.687-101.823-7.289 5.521h55.123c9.686 0 9.771-15.003.107-15.003h-55.122c-3.433 0-6.311 2.275-7.289 5.521-10.229 33.941-20.458 67.882-30.688 101.823-1.397 4.638 2.422 9.482 7.181 9.482h116.496c4.758 0 8.72-4.727 7.298-9.443l-30.686-101.823c-2.785-9.243-17.282-5.388-14.488 3.883zM364.111 357.376c-2.449 5.66-5.35 10.87-8.709 15.66-4.58 6.53-8.33 11.05-11.221 13.56-4.48 4.12-9.279 6.23-14.42 6.351-3.689 0-8.141-1.051-13.32-3.181-5.197-2.12-9.973-3.17-14.34-3.17-4.58 0-9.492 1.05-14.746 3.17-5.262 2.13-9.501 3.24-12.742 3.351-4.929.21-9.842-1.96-14.746-6.521-3.129-2.729-7.045-7.41-11.734-14.04-5.032-7.08-9.169-15.29-12.41-24.649-3.471-10.11-5.211-19.9-5.211-29.378 0-10.857 2.346-20.222 7.045-28.068 3.693-6.303 8.605-11.275 14.755-14.925 6.149-3.65 12.793-5.51 19.948-5.629 3.915 0 9.049 1.211 15.429 3.591 6.362 2.388 10.447 3.599 12.238 3.599 1.339 0 5.877-1.416 13.569-4.238 7.275-2.618 13.416-3.702 18.445-3.275 13.631 1.1 23.87 6.473 30.68 16.153-12.189 7.386-18.219 17.73-18.1 31.002.11 10.337 3.86 18.938 11.23 25.769 3.34 3.17 7.07 5.62 11.22 7.36-.899 2.608-1.85 5.108-2.86 7.508zm-31.259-123.009c0 8.102-2.96 15.667-8.859 22.669-7.121 8.324-15.732 13.134-25.071 12.375-.119-.973-.188-1.995-.188-3.07 0-7.778 3.387-16.102 9.399-22.908 3.002-3.445 6.819-6.311 11.45-8.597 4.619-2.252 8.99-3.497 13.1-3.71.119 1.082.169 2.166.169 3.241z"/><path fill="#fff" d="M647.273 318.856c2.524-12.702 6.418-25.149 11.071-37.239 4.929-11.105 10.036-22.22 12.942-33.997 3.582-14.514 5.46-30.932 3.671-46.012-2.335-19.694-3.534-26.369-12.068-44.6-6.049-12.923-20.641-25.715-32.921-32.362-23.41-12.671-49.119-12.399-72.602-.18-1.792.933-3.444 1.979-5.012 3.096-2.896-.41-5.847-.652-8.851-.672-36.477-.242-68.147 30.252-68.002 67.029.088 22.175 3.209 44.269 6.688 66.129 2.553 16.038 10.236 30.427 17.203 44.972l.231.794c.145 3.322.236 6.647.385 9.96.65 14.567 2.273 29.024 4.581 43.436 1.964 12.267 6.369 25.729 13.489 35.707 7.696 10.789 17.014 23.145 29.765 28.556 17.69 7.506 16.3 7.814 35.634 9.655 7.343.699 14.796-1.202 22.01-2.521 16.874-3.087 32.668-17.042 40.986-31.45 5.9-10.301 8.92-21.389 9.059-33.264.008-11.082-2.479-21.498-7.441-31.248-.385-1.334-.739-2.676-1.061-4.026-.117-3.924-.031-7.844.243-11.763z"/><path fill="#1A1A1A" d="M376.285 476.869h402.588c8.187-.097 14.772-6.762 14.772-14.948 0-75.844-95.644-106.093-136.694-115.618-.495-.139-.839-.588-.839-1.102v-16.314c9.489-12.361 16.579-26.391 20.901-41.361 10.802-10.628 15.564-27.251 18.122-36.511 4.19-14.728 8.379-36.069-3.174-51.327l-.485-.661c5.555-26.942 12.479-90.043-35.585-122.1 5.632-5.741 8.686-13.524 8.466-21.562-.057-.771-.422-1.486-1.013-1.984-.556-.468-1.261-.718-1.985-.706-.616 0-60.719 6.834-89.688.837-29.811-6.129-62.484 16.448-69.055 39.554-11.224 1.465-21.439 7.236-28.485 16.095-13.229 16.183-17.153 41.935-11.95 76.505.354 4.41.883 8.819 1.676 13.228l-.528.662c-11.51 15.257-7.32 36.599-3.131 51.327 2.557 9.084 7.319 25.885 18.078 36.511 4.3 15.075 11.39 29.21 20.9 41.67v16.05c.017.521-.333.979-.837 1.103-41.141 9.481-136.694 39.687-136.694 115.618-.05 8.168 6.469 14.866 14.64 15.034zm201.295-72.493c-25.477.359-49.557-11.614-64.646-32.146 6.569-3.67 11.572-9.612 14.067-16.712 6.736 4.381 13.976 7.933 21.562 10.583 18.773 6.642 39.256 6.642 58.028 0 7.575-2.755 14.799-6.396 21.519-10.848 2.461 7.189 7.483 13.218 14.111 16.933-15.082 20.542-39.159 32.532-64.641 32.19zm-56.354-248.608c11.95-7.275 27.25-6.967 45.505.794 37.306 16.007 65.307 14.991 82.237 11.112 11.014 8.294 16.336 22.139 13.714 35.672-54.15-19.182-113.191-19.524-167.561-.969 2.514-12.656 8.995-36.158 26.105-46.609zm109.266 68.921c0 7.671-6.218 13.89-13.889 13.89s-13.892-6.219-13.892-13.89 6.221-13.891 13.892-13.891 13.889 6.22 13.889 13.891zm-78.355 0c0 7.671-6.219 13.89-13.891 13.89-7.671 0-13.891-6.219-13.891-13.89s6.22-13.891 13.891-13.891c7.67-.097 13.968 6.042 14.066 13.714v.177h-.175zm-66.32 19.005c-.529-1.94-1.015-3.748-1.411-5.424 59.893 23.5 126.452 23.5 186.345 0-.396 1.676-.837 3.483-1.411 5.424-6.79 23.944-12.302 26.193-13.845 26.458-1.316.087-2.397 1.075-2.602 2.38-3.97 25.531-24.253 57.324-55.427 68.524-12.949 4.604-27.092 4.604-40.038 0-32.455-11.42-51.416-43.567-55.296-68.567-.204-1.306-1.285-2.295-2.602-2.382-1.322-.177-6.968-2.469-13.713-26.413z"/></svg>