<svg xmlns="http://www.w3.org/2000/svg" width="957.483" height="820.956" viewBox="0 0 957.483 820.956"><path fill="#1A1A1A" d="M7.447 640.956h942.48c9.686 0 9.771-15.004.107-15.004h-942.478c-9.687 0-9.772 15.004-.109 15.004z"/><path fill="#ccc" d="M769.981 561.454l180 180h-942.48l180-180z"/><path fill="#1A1A1A" d="M764.706 566.787l96.356 96.356 83.644 83.644 5.329-12.835h-942.478c1.759 4.26 3.519 8.519 5.278 12.777 32.119-32.118 64.238-64.237 96.356-96.356l83.644-83.644-5.387 2.227h582.479c9.686 0 9.771-15.004.107-15.004h-581.186c-3.574 0-6.133 1.68-8.559 4.105-14.03 14.029-28.06 28.06-42.089 42.089l-124.476 124.477c-3.852 3.852-7.704 7.704-11.555 11.556-4.58 4.579-1.211 12.777 5.278 12.777h942.48c6.596 0 10.003-8.16 5.329-12.835l-96.356-96.356-83.644-83.644c-6.836-6.835-17.403 3.812-10.55 10.666z"/><path fill="#ccc" d="M7.501 741.454h942.479v72h-942.479z"/><path fill="#1A1A1A" d="M950.035 805.952h-942.478l7.447 7.556v-72l-7.556 7.448h942.48c-2.483-2.519-4.966-5.037-7.448-7.556v72c0 9.686 15.004 9.771 15.004.107v-72c0-4.064-3.342-7.556-7.448-7.556h-942.478c-4.067.001-7.558 3.342-7.558 7.449v72c0 4.064 3.341 7.556 7.447 7.556h942.48c9.686 0 9.772-15.004.108-15.004z"/><defs><filter id="a" filterUnits="userSpaceOnUse" x="180" y="0" width="597.483" height="568.956"><feColorMatrix values="-1 0 0 0 1 0 -1 0 0 1 0 0 -1 0 1 0 0 0 1 0" color-interpolation-filters="sRGB" result="source"/></filter></defs><mask maskUnits="userSpaceOnUse" x="180" y="0" width="597.483" height="568.956" id="c"><g filter="url(#a)"><linearGradient id="b" gradientUnits="userSpaceOnUse" x1="478.741" y1="7.502" x2="478.741" y2="561.454"><stop offset=".068" stop-color="#fff"/><stop offset=".509"/></linearGradient><path fill="url(#b)" d="M118.741 7.501h720v553.952h-720z"/></g></mask><g mask="url(#c)"><path fill="#D9534F" d="M187.501 7.501h582.479v553.952h-582.479z"/><path fill="#1A1A1A" d="M770.035 553.952h-582.48c2.482 2.519 4.965 5.037 7.448 7.556v-553.951l-7.556 7.447h582.479c-2.483-2.519-4.966-5.037-7.448-7.556v553.952c0 9.686 15.004 9.771 15.004.107v-553.951c0-4.065-3.342-7.556-7.448-7.556h-582.48c-4.063 0-7.554 3.341-7.554 7.447v553.952c0 4.064 3.342 7.556 7.448 7.556h582.479c9.686.001 9.772-15.003.108-15.003z"/></g><circle fill="#C7B299" cx="683.018" cy="163.501" r="36"/><path fill="#1A1A1A" d="M639.516 163.447c.451 23.978 19.429 43.104 43.448 43.556 23.978.452 43.116-20.107 43.556-43.447.451-23.979-20.107-43.117-43.448-43.556-23.978-.452-43.116 20.107-43.556 43.447-.183 9.693 14.822 9.761 15.004.108.297-15.763 12.64-28.255 28.444-28.553 15.765-.296 28.263 13.087 28.552 28.444.297 15.765-13.087 28.263-28.444 28.553-15.765.296-28.263-13.087-28.552-28.444-.183-9.672-15.186-9.775-15.004-.108z"/><linearGradient id="d" gradientUnits="userSpaceOnUse" x1="478.741" y1="741.454" x2="478.741" y2="381.454"><stop offset="0" stop-color="#C68945"/><stop offset="1" stop-color="#C69C6D"/></linearGradient><path fill="url(#d)" d="M187.501 381.454h582.479v360h-582.479z"/><path fill="#1A1A1A" d="M770.035 733.952h-582.48c2.482 2.519 4.965 5.037 7.448 7.556v-359.999c-2.519 2.482-5.038 4.965-7.556 7.448h582.479l-7.448-7.556v360.001c0 9.686 15.004 9.771 15.004.107v-359.999c0-4.065-3.342-7.556-7.448-7.556h-582.48c-4.065 0-7.556 3.342-7.556 7.448v360.001c0 4.064 3.342 7.556 7.448 7.556h582.479c9.688-.003 9.774-15.007.11-15.007z"/><path fill="#C69C6D" d="M668.158 279.63l101.823 101.824h-582.48l101.824-101.824z"/><path fill="#1A1A1A" d="M662.882 284.963l100.229 100.23 1.594 1.593 5.329-12.834h-582.48l5.278 12.777 100.047-100.046 1.777-1.777-5.387 2.226h378.832c9.686 0 9.771-15.003.107-15.003h-377.593c-5.177 0-7.91 3.511-11.274 6.874-32.392 32.392-64.784 64.783-97.175 97.175-4.58 4.579-1.211 12.777 5.278 12.777h582.479c6.596 0 10.003-8.161 5.329-12.834l-100.229-100.23-1.594-1.593c-6.831-6.836-17.399 3.812-10.547 10.665z"/><path fill="#C7B299" d="M420.494 381.454h116.495v72h-116.495z"/><path fill="#1A1A1A" d="M537.042 445.953h-116.495c2.482 2.519 4.965 5.037 7.448 7.556v-72c-2.519 2.482-5.038 4.965-7.556 7.448h116.496l-7.448-7.556v72c0 9.687 15.004 9.772 15.004.108v-72c0-4.065-3.342-7.556-7.448-7.556h-116.495c-4.065 0-7.556 3.342-7.556 7.448v72c0 4.065 3.342 7.556 7.448 7.556h116.496c9.685-.001 9.771-15.004.106-15.004z"/><path fill="#C7B299" d="M506.303 279.63l30.686 101.824h-116.495l30.687-101.824z"/><path fill="#1A1A1A" d="M499.059 281.571l30.686 101.823 7.298-9.443h-116.495l7.181 9.482 30.687-101.823-7.289 5.521h55.123c9.686 0 9.771-15.003.107-15.003h-55.122c-3.433 0-6.311 2.275-7.289 5.521-10.229 33.941-20.458 67.882-30.688 101.823-1.397 4.638 2.422 9.482 7.181 9.482h116.496c4.758 0 8.72-4.727 7.298-9.443l-30.686-101.823c-2.785-9.242-17.282-5.388-14.488 3.883z"/></svg>