<svg xmlns="http://www.w3.org/2000/svg" width="597.483" height="476.859" viewBox="0 0 597.483 476.859"><linearGradient id="a" gradientUnits="userSpaceOnUse" x1="298.741" y1="469.357" x2="298.741" y2="109.357"><stop offset="0" stop-color="#C68945"/><stop offset="1" stop-color="#C69C6D"/></linearGradient><path fill="url(#a)" d="M7.502 109.357h582.479v360h-582.479z"/><path fill="#1A1A1A" d="M590.035 461.855h-582.48c2.482 2.519 4.965 5.037 7.448 7.556v-359.999c-2.519 2.482-5.038 4.965-7.556 7.448h582.479l-7.448-7.556v360.001c0 9.686 15.004 9.771 15.004.107v-359.999c0-4.065-3.342-7.556-7.448-7.556h-582.48c-4.065 0-7.556 3.342-7.556 7.448v360.001c0 4.064 3.342 7.556 7.448 7.556h582.479c9.688-.003 9.774-15.007.11-15.007z"/><path fill="#C69C6D" d="M488.158 7.534l101.823 101.823h-582.479l101.824-101.823z"/><path fill="#1A1A1A" d="M482.883 12.866l100.229 100.23 1.594 1.593 5.329-12.834h-582.48l5.278 12.777c33.351-33.348 66.699-66.697 100.048-100.046l1.777-1.777-5.387 2.226h378.832c9.686 0 9.771-15.003.107-15.003h-377.593c-5.177 0-7.91 3.511-11.274 6.874-32.39 32.392-64.782 64.783-97.174 97.176-4.58 4.579-1.211 12.777 5.278 12.777h582.479c6.596 0 10.003-8.161 5.329-12.834l-100.229-100.23-1.594-1.593c-6.833-6.836-17.402 3.812-10.549 10.664z"/><path fill="#C7B299" d="M240.494 109.357h116.495v72h-116.495z"/><path fill="#1A1A1A" d="M357.043 173.856h-116.495c2.482 2.519 4.965 5.037 7.448 7.556v-72c-2.519 2.482-5.038 4.965-7.556 7.448h116.496l-7.448-7.556v72c0 9.687 15.004 9.772 15.004.108v-72c0-4.065-3.342-7.556-7.448-7.556h-116.495c-4.065 0-7.556 3.342-7.556 7.448v72c0 4.065 3.342 7.556 7.448 7.556h116.496c9.684-.001 9.77-15.004.106-15.004z"/><path fill="#C7B299" d="M326.304 7.534l30.685 101.823h-116.495l30.687-101.823z"/><path fill="#1A1A1A" d="M319.06 9.475l30.686 101.823 7.298-9.443h-116.495l7.181 9.482 30.687-101.823-7.289 5.521h55.123c9.686 0 9.771-15.003.107-15.003h-55.122c-3.433 0-6.311 2.275-7.289 5.521-10.229 33.941-20.458 67.882-30.688 101.823-1.397 4.638 2.422 9.482 7.181 9.482h116.496c4.758 0 8.72-4.727 7.298-9.443l-30.686-101.823c-2.785-9.243-17.282-5.388-14.488 3.883zM247.555 263.462v43.685c0 9.686 15.003 9.771 15.003.107v-43.685c0-9.685-15.003-9.771-15.003-.107zm87.37 0v43.685c0 9.686 15.004 9.771 15.004.107v-43.685c0-9.685-15.004-9.771-15.004-.107zm-72.367.108c.311-19.975 16.112-35.927 36.13-36.237 9.676-.15 9.775-15.154.107-15.004-28.172.438-50.802 22.921-51.24 51.134-.151 9.691 14.853 9.762 15.003.107zm87.371 0c-.438-28.172-22.92-50.802-51.134-51.241-9.692-.15-9.763 14.854-.107 15.004 19.976.311 35.927 16.111 36.237 36.13.15 9.675 15.154 9.775 15.004.107zm-138.558 43.631v108h174.741v-108h-174.741zm94.872 58.495v26.844c0 9.664-15.003 9.578-15.003-.107v-26.736c-6.471-2.884-10.999-9.365-10.999-16.895 0-10.201 8.298-18.501 18.5-18.501s18.5 8.3 18.5 18.501c0 7.528-4.527 14.009-10.998 16.894zm79.923 42.003h-174.741c2.482 2.519 4.965 5.037 7.448 7.556v-108l-7.556 7.448h174.741c-2.483-2.519-4.966-5.037-7.448-7.556v108c0 9.686 15.004 9.771 15.004.107v-108c0-4.064-3.342-7.556-7.448-7.556h-174.741c-4.065 0-7.556 3.342-7.556 7.448v108c0 4.064 3.342 7.556 7.448 7.556h174.741c9.686.001 9.772-15.003.108-15.003z"/></svg>