<svg xmlns="http://www.w3.org/2000/svg" width="902.882" height="576.224" viewBox="0 0 902.882 576.224"><linearGradient id="a" gradientUnits="userSpaceOnUse" x1="451.436" y1="568.722" x2="451.436" y2="208.723"><stop offset="0" stop-color="#C68945"/><stop offset="1" stop-color="#C69C6D"/></linearGradient><path fill="url(#a)" d="M160.197 208.722h582.479v360h-582.479z"/><path fill="#1A1A1A" d="M742.73 561.22h-582.48c2.482 2.519 4.965 5.037 7.448 7.556v-359.999c-2.519 2.482-5.038 4.965-7.556 7.448h582.479l-7.448-7.556v360.001c0 9.686 15.004 9.771 15.004.107v-359.999c0-4.065-3.342-7.556-7.448-7.556h-582.48c-4.065 0-7.556 3.342-7.556 7.448v360.001c0 4.064 3.342 7.556 7.448 7.556h582.479c9.688-.003 9.774-15.007.11-15.007z"/><path fill="#C69C6D" d="M640.853 106.899l101.823 101.823h-582.479l101.824-101.823z"/><path fill="#1A1A1A" d="M635.578 112.231l100.229 100.23 1.594 1.593 5.329-12.834h-582.48l5.278 12.777 100.047-100.046 1.777-1.777-5.387 2.226h378.832c9.686 0 9.771-15.003.107-15.003h-377.593c-5.177 0-7.91 3.511-11.274 6.874-32.392 32.392-64.784 64.783-97.175 97.175-4.58 4.579-1.211 12.777 5.278 12.777h582.479c6.596 0 10.003-8.161 5.329-12.834l-100.229-100.23-1.594-1.593c-6.832-6.835-17.4 3.813-10.547 10.665z"/><path fill="#C7B299" d="M478.999 106.899l30.685 101.823h-116.495l30.687-101.823z"/><path fill="#1A1A1A" d="M471.754 108.84l30.686 101.823 7.298-9.443h-116.495l7.181 9.482 30.687-101.823-7.289 5.521h55.123c9.686 0 9.771-15.003.107-15.003h-55.122c-3.433 0-6.311 2.275-7.289 5.521-10.229 33.941-20.458 67.882-30.688 101.823-1.397 4.638 2.422 9.482 7.181 9.482h116.496c4.758 0 8.72-4.727 7.298-9.443l-30.686-101.823c-2.784-9.243-17.282-5.388-14.488 3.883z"/><path fill="#8C6239" d="M742.676 208.722h-582.479l101.824-101.823h378.832z"/><path fill="#1A1A1A" d="M742.73 201.22h-582.479l5.278 12.777c33.41-33.41 66.82-66.82 100.23-100.229l1.593-1.594-5.387 2.226h378.832l-5.222-2.169 100.229 100.23 1.594 1.593c6.836 6.835 17.403-3.812 10.551-10.665l-100.229-100.23c-2.983-2.983-6.055-3.762-10.066-3.762h-370.738c-3.991 0-7.584-.42-10.746 2.741-33.665 33.665-67.329 67.33-100.994 100.994l-.314.314c-4.58 4.579-1.211 12.777 5.278 12.777h582.478c9.69.001 9.776-15.003.112-15.003zm-488.211-94.375v101.823c0 9.687 15.003 9.772 15.003.108v-101.823c0-9.686-15.003-9.772-15.003-.108zm378.832 0v101.823c0 9.687 15.004 9.772 15.004.108v-101.823c0-9.686-15.004-9.772-15.004-.108z"/><path fill="#C69C6D" d="M740.131 7.621l-99.278 99.278 101.823 101.823 152.735-152.735z"/><path fill="#1A1A1A" d="M734.799 2.345l-98.497 98.497-.782.782c-2.899 2.899-2.82 7.73.058 10.608l100.229 100.23 1.594 1.593c2.899 2.9 7.729 2.821 10.607-.057 34.249-34.248 68.497-68.496 102.745-102.745l49.989-49.99c4.094-4.094 1.949-10.86-3.352-12.511-47.317-14.739-94.635-29.477-141.952-44.215-4.442-1.384-8.885-2.768-13.327-4.151-9.265-2.886-13.167 11.603-3.961 14.47 47.317 14.739 94.635 29.477 141.952 44.215 4.442 1.384 8.885 2.768 13.327 4.151-1.117-4.17-2.234-8.34-3.352-12.511l-102.745 102.745-49.989 49.99 10.607-.057-100.229-100.23-1.594-1.593.058 10.608 98.496-98.496.781-.781c6.837-6.836-3.811-17.404-10.663-10.552z"/><path fill="#C69C6D" d="M162.742 7.621l99.279 99.278-101.824 101.823-152.734-152.735z"/><path fill="#1A1A1A" d="M157.466 12.954c32.833 32.832 65.665 65.665 98.497 98.497l.781.781-.057-10.608c-33.41 33.41-66.82 66.82-100.23 100.229l-1.593 1.594 10.608-.057c-34.249-34.248-68.497-68.497-102.745-102.745-16.663-16.664-33.327-33.327-49.99-49.99l-3.335 12.577c47.317-14.739 94.635-29.477 141.953-44.215 4.442-1.384 8.884-2.768 13.327-4.151 9.21-2.869 5.364-17.369-3.882-14.489-47.316 14.738-94.634 29.477-141.951 44.215-4.442 1.384-8.884 2.768-13.327 4.151-5.384 1.677-7.478 8.434-3.335 12.577 34.249 34.248 68.497 68.497 102.745 102.745 16.663 16.664 33.327 33.327 49.99 49.99 2.9 2.9 7.73 2.821 10.608-.057 33.41-33.41 66.82-66.82 100.23-100.229l1.593-1.594c2.9-2.899 2.821-7.73-.057-10.608-32.833-32.832-65.665-65.665-98.497-98.497l-.781-.781c-6.836-6.836-17.404 3.812-10.552 10.665z"/></svg>