<svg xmlns="http://www.w3.org/2000/svg" width="902.882" height="576.224" viewBox="0 0 902.882 576.224"><g><linearGradient id="a" gradientUnits="userSpaceOnUse" x1="451.436" y1="568.722" x2="451.436" y2="208.723"><stop offset="0" stop-color="#C68945"/><stop offset="1" stop-color="#C69C6D"/></linearGradient><path fill="url(#a)" d="M160.197 208.722h582.479v360h-582.479z"/><path fill="#1A1A1A" d="M742.73 561.22h-582.48c2.482 2.519 4.965 5.037 7.448 7.556v-359.999c-2.519 2.482-5.038 4.965-7.556 7.448h582.479l-7.448-7.556v360.001c0 9.686 15.004 9.771 15.004.107v-359.999c0-4.065-3.342-7.556-7.448-7.556h-582.48c-4.065 0-7.556 3.342-7.556 7.448v360.001c0 4.064 3.342 7.556 7.448 7.556h582.479c9.688-.003 9.774-15.007.11-15.007z"/><path fill="#C69C6D" d="M640.853 106.899l101.823 101.823h-582.479l101.824-101.823z"/><path fill="#1A1A1A" d="M635.578 112.231l100.229 100.23 1.594 1.593 5.329-12.834h-582.48l5.278 12.777 100.047-100.046 1.777-1.777-5.387 2.226h378.832c9.686 0 9.771-15.003.107-15.003h-377.59299999999996c-5.177 0-7.91 3.511-11.274 6.874-32.392 32.392-64.784 64.783-97.175 97.175-4.58 4.579-1.211 12.777 5.278 12.777h582.479c6.596 0 10.003-8.161 5.329-12.834l-100.229-100.23-1.594-1.593c-6.832-6.835-17.4 3.813-10.547 10.665z"/><path fill="#C7B299" d="M478.999 106.899l30.685 101.823h-116.495l30.687-101.823z"/><path fill="#1A1A1A" d="M471.754 108.84l30.686 101.823 7.298-9.443h-116.495l7.181 9.482 30.687-101.823-7.289 5.521h55.123c9.686 0 9.771-15.003.107-15.003h-55.122c-3.433 0-6.311 2.275-7.289 5.521-10.229 33.941-20.458 67.882-30.688 101.823-1.397 4.638 2.422 9.482 7.181 9.482h116.496c4.758 0 8.72-4.727 7.298-9.443l-30.686-101.823c-2.784-9.243-17.282-5.388-14.488 3.883z"/></g><g><path fill="#8C6239" d="M742.676 208.722h-582.479l101.824-101.823h378.832z"/><path fill="#1A1A1A" d="M742.73 201.22h-582.479l5.278 12.777c33.41-33.41 66.82-66.82 100.23-100.229l1.593-1.594-5.387 2.226h378.832l-5.222-2.169 100.229 100.23 1.594 1.593c6.836 6.835 17.403-3.812 10.551-10.665l-100.229-100.23c-2.983-2.983-6.055-3.762-10.066-3.762h-370.738c-3.991 0-7.584-.42-10.746 2.741-33.665 33.665-67.329 67.33-100.994 100.994l-.314.314c-4.58 4.579-1.211 12.777 5.278 12.777h582.4780000000001c9.69.001 9.776-15.003.112-15.003zM254.519 106.845v101.823c0 9.687 15.003 9.772 15.003.108v-101.823c0-9.686-15.003-9.772-15.003-.108zM633.351 106.845v101.823c0 9.687 15.004 9.772 15.004.108v-101.823c0-9.686-15.004-9.772-15.004-.108z"/><path fill="#C69C6D" d="M740.131 7.621l-99.278 99.278 101.823 101.823 152.735-152.735z"/><path fill="#1A1A1A" d="M734.799 2.345l-98.497 98.497-.782.782c-2.899 2.899-2.82 7.73.058 10.608l100.229 100.23 1.594 1.593c2.899 2.9 7.729 2.821 10.607-.057 34.249-34.248 68.497-68.496 102.745-102.745l49.989-49.99c4.094-4.094 1.949-10.86-3.352-12.511-47.317-14.739-94.635-29.477-141.952-44.215-4.442-1.384-8.885-2.768-13.327-4.151-9.265-2.886-13.167 11.603-3.961 14.47 47.317 14.739 94.635 29.477 141.952 44.215 4.442 1.384 8.885 2.768 13.327 4.151-1.117-4.17-2.234-8.34-3.352-12.511l-102.745 102.745-49.989 49.99 10.607-.057-100.229-100.23-1.594-1.593.058 10.608 98.496-98.496.781-.781c6.837-6.836-3.811-17.404-10.663-10.552z"/><path fill="#C69C6D" d="M162.742 7.621l99.279 99.278-101.824 101.823-152.734-152.735z"/><path fill="#1A1A1A" d="M157.466 12.954c32.833 32.832 65.665 65.665 98.497 98.497l.781.781-.057-10.608c-33.41 33.41-66.82 66.82-100.23 100.229l-1.593 1.594 10.608-.057c-34.249-34.248-68.497-68.497-102.745-102.745-16.663-16.664-33.327-33.327-49.99-49.99l-3.335 12.577c47.317-14.739 94.635-29.477 141.953-44.215 4.442-1.384 8.884-2.768 13.327-4.151 9.21-2.869 5.364-17.369-3.882-14.489-47.316 14.738-94.634 29.477-141.951 44.215-4.442 1.384-8.884 2.768-13.327 4.151-5.384 1.677-7.478 8.434-3.335 12.577 34.249 34.248 68.497 68.497 102.745 102.745 16.663 16.664 33.327 33.327 49.99 49.99 2.9 2.9 7.73 2.821 10.608-.057 33.41-33.41 66.82-66.82 100.23-100.229l1.593-1.594c2.9-2.899 2.821-7.73-.057-10.608-32.833-32.832-65.665-65.665-98.497-98.497l-.781-.781c-6.836-6.836-17.404 3.812-10.552 10.665z"/></g><g fill="#004C82"><path d="M321.919 289.2h1.623l2.707.528 3.233.542 8.643 2.166 11.875 2.151 6.489 1.629 7.017 1.622 7.558 1.079 7.561 2.158 8.103 1.075 8.096 2.163 25.923 4.855 8.103 2.166 8.641 1.618 7.554 1.622 8.104 1.619 7.551 1.617 7.563 1.085 6.48 1.622 6.488 1.075 5.4 1.617 4.856 1.085 4.316.538 3.782.541 2.708.544 1.62.537h1.071l7.022 1.619 6.486 1.083 5.402 1.619 4.312 1.08 4.326 1.617 3.243 1.083 4.311 2.161 1.618 1.085 2.709 2.691v.541l.545.547v.526h23.209l2.166.546h2.162l1.617.542h1.617l1.619.544 4.326 2.148.535 1.09 3.781 5.939 1.084 7.014-1.084 8.643-2.698 8.104-3.24 8.098-3.249 6.484-2.691 4.32-1.077 1.622-1.085.539-2.698 1.075-3.781 1.619-5.398 2.161-5.948 2.154-7.55 3.252-8.11 3.233-9.179 3.236-10.262 4.329-10.797 3.781-10.795 4.311-23.762 9.736-12.424 4.859-12.423 4.314-12.417 5.392-12.954 4.871-12.423 4.313-11.885 5.408-12.416 4.314-11.345 4.315-21.602 8.655-9.718 3.766-9.182 3.249-8.096 3.233-7.016 2.705-5.946 2.702-4.854 1.627-3.785 1.622-2.161.519-.545.547h279.196l45.357-214.925h-305.112zM530.915 358.856l-1.629.544-10.794 2.148h-2.704l-2.163.547h-2.15l-3.248.541-1.617.541-1.08.532-.546 1.093v1.075l1.089 1.076h2.154l2.162.542h5.399l3.236-.542h3.238l7.566-1.076h3.784l4.317-.548 3.775-.527 3.254-.544 3.769-.549h14.585l1.613.549 1.091.544 1.072 1.615v2.155l-.54 2.159-.532 2.707-1.091 3.238-1.613 3.786-1.081 3.78-.543 2.154 1.08 1.082 1.086-.546 2.162-2.158 1.072-1.62 1.625-2.692 1.62-3.242 1.617-3.782 1.615-3.239 1.085-3.246.536-2.695v-3.239l-1.074-2.707-1.617-1.619-2.162-1.614-2.704-1.081-3.24-.54-3.774-.543h-22.686l-.54.543h-.541l-1.073.54-1.091 2.164-1.072.531-1.08 1.085zM311.662 337.801l-35.642 165.236 1.627-.547 3.236-2.141 5.403-2.176 7.024-3.78 8.09-3.78 9.186-4.843 10.802-4.863 10.258-5.406 10.799-4.875 10.261-5.389 10.258-4.862 9.717-4.857 8.107-4.327 7.016-3.236 5.401-2.705 3.781-1.607 5.403-2.705 4.861-2.704 5.937-2.703 5.939-3.234 5.399-2.702 6.482-2.705 5.941-3.233 6.476-2.691 6.487-3.263 32.395-13.484 14.586-4.861 2.158-.544 2.153-1.075 2.71-.539 9.712-3.242 11.342-3.246 3.783-.542 11.336-3.238 6.489-1.073 2.152-.541 1.619-.544h1.627l1.617-.532 1.082-1.088h.544v-.544l-1.091-2.148-1.617-.545-2.162-.545h-2.154l-3.234-.532h-3.254l-3.775.532-6.483.545-7.021 1.074-7.555 1.619-8.106 1.632-8.091 2.154-8.643 2.704-8.106 2.695-8.636 2.703-8.096 3.241-8.109 2.694-7.556 2.705-7.016 2.702-6.489 3.24-5.398 2.153-4.86 2.173-3.781 2.153-20.518-63.727h130.688l.531-2.693-2.152-2.707-3.246-1.619-4.861-1.619-5.401-1.614-14.04-2.166-22.678-1.613z"/></g></svg>