<svg xmlns="http://www.w3.org/2000/svg" width="597.483" height="476.859" viewBox="0 0 597.483 476.859"><linearGradient id="a" gradientUnits="userSpaceOnUse" x1="298.741" y1="469.357" x2="298.741" y2="109.357"><stop offset="0" stop-color="#C68945"/><stop offset="1" stop-color="#C69C6D"/></linearGradient><path fill="url(#a)" d="M7.502 109.357h582.479v360h-582.479z"/><path fill="#1A1A1A" d="M590.035 461.855h-582.48c2.482 2.519 4.965 5.037 7.448 7.556v-359.999c-2.519 2.482-5.038 4.965-7.556 7.448h582.479l-7.448-7.556v360.001c0 9.686 15.004 9.771 15.004.107v-359.999c0-4.065-3.342-7.556-7.448-7.556h-582.48c-4.065 0-7.556 3.342-7.556 7.448v360.001c0 4.064 3.342 7.556 7.448 7.556h582.479c9.688-.003 9.774-15.007.11-15.007z"/><path fill="#C69C6D" d="M488.158 7.534l101.823 101.823h-582.479l101.824-101.823z"/><path fill="#1A1A1A" d="M482.883 12.866l100.229 100.23 1.594 1.593 5.329-12.834h-582.48l5.278 12.777c33.351-33.348 66.699-66.697 100.048-100.046l1.777-1.777-5.387 2.226h378.832c9.686 0 9.771-15.003.107-15.003h-377.593c-5.177 0-7.91 3.511-11.274 6.874-32.39 32.392-64.782 64.783-97.174 97.176-4.58 4.579-1.211 12.777 5.278 12.777h582.479c6.596 0 10.003-8.161 5.329-12.834l-100.229-100.23-1.594-1.593c-6.833-6.836-17.402 3.812-10.549 10.664z"/><path fill="#C7B299" d="M240.494 109.357h116.495v72h-116.495z"/><path fill="#1A1A1A" d="M357.043 173.856h-116.495c2.482 2.519 4.965 5.037 7.448 7.556v-72c-2.519 2.482-5.038 4.965-7.556 7.448h116.496l-7.448-7.556v72c0 9.687 15.004 9.772 15.004.108v-72c0-4.065-3.342-7.556-7.448-7.556h-116.495c-4.065 0-7.556 3.342-7.556 7.448v72c0 4.065 3.342 7.556 7.448 7.556h116.496c9.684-.001 9.77-15.004.106-15.004z"/><path fill="#C7B299" d="M326.304 7.534l30.685 101.823h-116.495l30.687-101.823z"/><path fill="#1A1A1A" d="M319.06 9.475l30.686 101.823 7.298-9.443h-116.495l7.181 9.482 30.687-101.823-7.289 5.521h55.123c9.686 0 9.771-15.003.107-15.003h-55.122c-3.433 0-6.311 2.275-7.289 5.521-10.229 33.941-20.458 67.882-30.688 101.823-1.397 4.638 2.422 9.482 7.181 9.482h116.496c4.758 0 8.72-4.727 7.298-9.443l-30.686-101.823c-2.785-9.243-17.282-5.388-14.488 3.883z"/><path fill="#FFB500" d="M298.742 215.331c-35.005 0-65.535 6.777-90.75 20.141v106.828c0 22.478 8.442 41.279 24.417 54.374 14.837 12.161 60.711 32.214 66.334 34.652l-.001.001c5.328-2.318 51.743-22.685 66.346-34.652 15.967-13.094 24.404-31.895 24.404-54.375v-106.829c-25.214-13.363-55.741-20.14-90.75-20.14z"/><path fill="#351C15" d="M333.886 305.301c-.064-12.758 10.797-20.273 21.184-20.574 8.672-.265 14.552 2.991 17.326 5.129v13.729c-3.288-3.377-8.63-6.437-14.149-6.489-4.468-.04-9.128 1.93-9.28 7.54-.152 5.748 4.492 8.021 10.388 11.475 13.187 7.753 15.737 14.72 15.441 23.928-.305 10.099-7.268 21.12-22.869 21.12-6.24 0-12.409-1.949-17.358-4.897v-14.538c4.035 3.59 10.059 6.389 15.097 6.425 5.792.024 9.602-3.293 9.465-8.799-.111-4.957-2.92-7.648-9.858-11.728-13.021-7.641-15.364-13.921-15.387-22.321zm-38.27-6.721c1.283-.638 3.457-1.139 5.591-1.139 9.168 0 12.963 7.315 12.963 25.002 0 17.258-4.34 25.597-13.428 25.597-2.135 0-3.995-.525-5.126-.951v-48.509zm0 94.655h-15.794v-102.892c5.728-3.694 12.674-5.614 21.281-5.614 18.842 0 29.205 14.298 29.205 37.314 0 23.062-10.06 38.848-27.585 38.848-3.241 0-5.527-.43-7.107-.898v33.244-.002zm-71.231-57.283v-49.624h15.782v50.331c0 4.477 1.083 11.106 8.32 11.106 3.208 0 5.751-.75 7.467-1.93v-59.504h15.762v68.492c-6.023 4.103-14.125 6.341-23.791 6.341-15.62 0-23.541-8.476-23.541-25.208v-.004zm-8.057 6.361c0 19.905 7.359 36.525 21.345 47.92 12.347 10.067 50.343 27.261 61.065 31.989 10.572-4.66 48.481-21.642 61.042-31.989 14.077-11.59 21.361-27.825 21.361-47.92v-104.587c-52.829-4.915-115.346-1.898-164.815 43.474l-.002 61.109h.002l.002.004z"/></svg>