<svg xmlns="http://www.w3.org/2000/svg" width="597.483" height="476.859" viewBox="0 0 597.483 476.859"><g><linearGradient id="a" gradientUnits="userSpaceOnUse" x1="298.741" y1="469.357" x2="298.741" y2="109.357"><stop offset="0" stop-color="#C68945"/><stop offset="1" stop-color="#C69C6D"/></linearGradient><path fill="url(#a)" d="M7.502 109.357h582.479v360h-582.479z"/><path fill="#1A1A1A" d="M590.035 461.855h-582.48c2.482 2.519 4.965 5.037 7.448 7.556v-359.999c-2.519 2.482-5.038 4.965-7.556 7.448h582.479l-7.448-7.556v360.001c0 9.686 15.004 9.771 15.004.107v-359.999c0-4.065-3.342-7.556-7.448-7.556h-582.48c-4.065 0-7.556 3.342-7.556 7.448v360.001c0 4.064 3.342 7.556 7.448 7.556h582.479c9.688-.003 9.774-15.007.11-15.007z"/><path fill="#C69C6D" d="M488.158 7.534l101.823 101.823h-582.479l101.824-101.823z"/><path fill="#1A1A1A" d="M482.883 12.866l100.229 100.23 1.594 1.593 5.329-12.834h-582.48l5.278 12.777c33.351-33.348 66.699-66.697 100.048-100.046l1.777-1.777-5.387 2.226h378.832c9.686 0 9.771-15.003.107-15.003h-377.59299999999996c-5.177 0-7.91 3.511-11.274 6.874-32.39 32.392-64.782 64.783-97.174 97.176-4.58 4.579-1.211 12.777 5.278 12.777h582.479c6.596 0 10.003-8.161 5.329-12.834l-100.229-100.23-1.594-1.593c-6.833-6.836-17.402 3.812-10.549 10.664z"/><path fill="#C7B299" d="M240.494 109.357h116.495v72h-116.495z"/><path fill="#1A1A1A" d="M357.043 173.856h-116.495c2.482 2.519 4.965 5.037 7.448 7.556v-72c-2.519 2.482-5.038 4.965-7.556 7.448h116.496l-7.448-7.556v72c0 9.687 15.004 9.772 15.004.108v-72c0-4.065-3.342-7.556-7.448-7.556h-116.495c-4.065 0-7.556 3.342-7.556 7.448v72c0 4.065 3.342 7.556 7.448 7.556h116.496c9.684-.001 9.77-15.004.106-15.004z"/><path fill="#C7B299" d="M326.304 7.534l30.685 101.823h-116.495l30.687-101.823z"/><path fill="#1A1A1A" d="M319.06 9.475l30.686 101.823 7.298-9.443h-116.495l7.181 9.482 30.687-101.823-7.289 5.521h55.123c9.686 0 9.771-15.003.107-15.003h-55.122c-3.433 0-6.311 2.275-7.289 5.521-10.229 33.941-20.458 67.882-30.688 101.823-1.397 4.638 2.422 9.482 7.181 9.482h116.496c4.758 0 8.72-4.727 7.298-9.443l-30.686-101.823c-2.785-9.243-17.282-5.388-14.488 3.883z"/></g><g><path fill="#8C6239" d="M79.502 397.357l-72 72h144l-144-144v144"/><path fill="#1A1A1A" d="M74.169 392.082l-72 72c-4.58 4.579-1.211 12.777 5.278 12.777h144c6.596 0 10.004-8.16 5.33-12.835l-104.133-104.133-39.867-39.867c-4.579-4.579-12.777-1.21-12.777 5.279v144c0 9.686 15.004 9.771 15.004.107v-144l-12.777 5.279 104.133 104.133 39.867 39.867c1.776-4.278 3.553-8.557 5.33-12.835h-144c1.759 4.26 3.519 8.519 5.278 12.777l72-72c6.835-6.834-3.813-17.402-10.666-10.549z"/><path fill="#fff" d="M43.502 433.357h72l-72-72z"/><path fill="#1A1A1A" d="M43.448 440.859h72c6.596 0 10.004-8.16 5.33-12.835l-72-72c-4.58-4.579-12.778-1.21-12.778 5.279v72c0 9.686 15.004 9.771 15.004.107v-72l-12.777 5.279 72 72c1.776-4.278 3.553-8.557 5.33-12.835h-72c-9.687.001-9.773 15.005-.109 15.005zM306.243 109.411v-101.823c0-9.687-15.004-9.772-15.004-.108v101.823c0 9.686 15.004 9.772 15.004.108z"/></g></svg>