<?xml version="1.0" encoding="utf-8"?>
<!-- Generator: Adobe Illustrator 15.0.0, SVG Export Plug-In . SVG Version: 6.00 Build 0)  -->
<!DOCTYPE svg PUBLIC "-//W3C//DTD SVG 1.1//EN" "http://www.w3.org/Graphics/SVG/1.1/DTD/svg11.dtd">
<svg version="1.1" xmlns="http://www.w3.org/2000/svg" xmlns:xlink="http://www.w3.org/1999/xlink" x="0px" y="0px"
	 width="541.468px" height="683.667px" viewBox="0 0 541.468 683.667" enable-background="new 0 0 541.468 683.667"
	 xml:space="preserve">
<g id="Layer_2">
	<defs>
		<filter id="Adobe_OpacityMaskFilter" filterUnits="userSpaceOnUse" x="0" y="-39.112" width="622.947" height="730.281">
			<feFlood  style="flood-color:white;flood-opacity:1" result="back"/>
			<feBlend  in="SourceGraphic" in2="back" mode="normal"/>
		</filter>
	</defs>
	<mask maskUnits="userSpaceOnUse" x="0" y="-39.112" width="622.947" height="730.281" id="SVGID_1_">
		<g filter="url(#Adobe_OpacityMaskFilter)">
			<linearGradient id="SVGID_2_" gradientUnits="userSpaceOnUse" x1="339.4443" y1="326.2339" x2="624.4297" y2="326.2339">
				<stop  offset="0" style="stop-color:#FFFFFF"/>
				<stop  offset="0.6564" style="stop-color:#000000"/>
			</linearGradient>
			<rect x="339.444" y="-94.495" fill="url(#SVGID_2_)" width="284.985" height="841.458"/>
		</g>
	</mask>
	<g mask="url(#SVGID_1_)">
		<defs>
			<filter id="Adobe_OpacityMaskFilter_1_" filterUnits="userSpaceOnUse" x="0" y="-39.112" width="585.837" height="730.281">
				
					<feColorMatrix  type="matrix" values="-1 0 0 0 1  0 -1 0 0 1  0 0 -1 0 1  0 0 0 1 0" color-interpolation-filters="sRGB" result="source"/>
			</filter>
		</defs>
		<mask maskUnits="userSpaceOnUse" x="0" y="-39.112" width="585.837" height="730.281" id="SVGID_1_">
			<g filter="url(#Adobe_OpacityMaskFilter_1_)">
				<linearGradient id="SVGID_3_" gradientUnits="userSpaceOnUse" x1="313.4785" y1="673.4663" x2="313.4785" y2="7.5">
					<stop  offset="0" style="stop-color:#FFFFFF"/>
					<stop  offset="0.0314" style="stop-color:#DADADA"/>
					<stop  offset="0.0801" style="stop-color:#A7A7A7"/>
					<stop  offset="0.1311" style="stop-color:#7B7B7B"/>
					<stop  offset="0.1834" style="stop-color:#555555"/>
					<stop  offset="0.2375" style="stop-color:#363636"/>
					<stop  offset="0.2939" style="stop-color:#1E1E1E"/>
					<stop  offset="0.3536" style="stop-color:#0D0D0D"/>
					<stop  offset="0.4188" style="stop-color:#030303"/>
					<stop  offset="0.5" style="stop-color:#000000"/>
					<stop  offset="0.5812" style="stop-color:#030303"/>
					<stop  offset="0.6464" style="stop-color:#0D0D0D"/>
					<stop  offset="0.7061" style="stop-color:#1E1E1E"/>
					<stop  offset="0.7625" style="stop-color:#363636"/>
					<stop  offset="0.8166" style="stop-color:#555555"/>
					<stop  offset="0.8689" style="stop-color:#7B7B7B"/>
					<stop  offset="0.9199" style="stop-color:#A7A7A7"/>
					<stop  offset="0.9686" style="stop-color:#DADADA"/>
					<stop  offset="1" style="stop-color:#FFFFFF"/>
				</linearGradient>
				<rect x="-33.003" y="7.5" fill="url(#SVGID_3_)" width="692.965" height="665.967"/>
			</g>
		</mask>
		<g>
			<rect x="7.502" y="-31.611" fill="#FFFFFF" width="570.833" height="715.277"/>
			<g>
				<path fill="#1A1A1A" d="M578.389,676.165c-26.252,0-52.504,0-78.756,0c-59.409,0-118.818,0-178.228,0
					c-63.544,0-127.089,0-190.633,0c-38.659,0-77.317,0-115.976,0c-2.414,0-4.827,0-7.24,0c2.482,2.519,4.965,5.037,7.448,7.556
					c0-21.762,0-43.524,0-65.287c0-52.936,0-105.871,0-158.807c0-65.581,0-131.162,0-196.743c0-59.698,0-119.396,0-179.095
					c0-35.288,0-70.576,0-105.864c0-3.161,0-6.321,0-9.481c-2.519,2.482-5.038,4.965-7.556,7.447c26.252,0,52.504,0,78.757,0
					c59.409,0,118.818,0,178.227,0c63.544,0,127.089,0,190.633,0c38.659,0,77.318,0,115.977,0c2.413,0,4.826,0,7.24,0
					c-2.482-2.519-4.966-5.037-7.448-7.556c0,21.763,0,43.525,0,65.288c0,52.936,0,105.872,0,158.807c0,65.581,0,131.162,0,196.743
					c0,59.698,0,119.396,0,179.095c0,35.288,0,70.576,0,105.863c0,3.161,0,6.321,0,9.482c0,9.686,15.004,9.771,15.004,0.107
					c0-21.762,0-43.524,0-65.287c0-52.936,0-105.871,0-158.807c0-65.581,0-131.162,0-196.743c0-59.698,0-119.396,0-179.095
					c0-35.288,0-70.576,0-105.864c0-3.161,0-6.321,0-9.481c0-4.065-3.342-7.556-7.448-7.556c-26.252,0-52.504,0-78.756,0
					c-59.409,0-118.818,0-178.228,0c-63.544,0-127.089,0-190.633,0c-38.659,0-77.317,0-115.976,0c-2.414,0-4.827,0-7.24,0
					C3.491-39.112,0-35.771,0-31.665C0-9.902,0,11.86,0,33.623C0,86.558,0,139.494,0,192.43c0,65.581,0,131.162,0,196.743
					c0,59.698,0,119.396,0,179.095c0,35.288,0,70.576,0,105.863c0,3.161,0,6.321,0,9.482c0,4.064,3.342,7.556,7.448,7.556
					c26.252,0,52.504,0,78.757,0c59.409,0,118.818,0,178.227,0c63.544,0,127.089,0,190.633,0c38.659,0,77.318,0,115.977,0
					c2.413,0,4.826,0,7.24,0C587.967,691.168,588.053,676.165,578.389,676.165z"/>
			</g>
		</g>
		<g>
			<rect x="39.446" y="254.028" fill="#FFFFFF" width="576" height="72"/>
			<g>
				<path fill="#1A1A1A" d="M615.499,318.526c-26.101,0-52.202,0-78.304,0c-59.251,0-118.503,0-177.754,0
					c-63.824,0-127.648,0-191.473,0c-39.818,0-79.637,0-119.456,0c-3.004,0-6.009,0-9.013,0c2.482,2.519,4.965,5.038,7.447,7.556
					c0-24,0-48,0-72c-2.519,2.482-5.037,4.965-7.556,7.448c26.102,0,52.203,0,78.304,0c59.251,0,118.503,0,177.755,0
					c63.824,0,127.647,0,191.472,0c39.819,0,79.638,0,119.456,0c3.005,0,6.009,0,9.014,0c-2.483-2.519-4.966-5.038-7.448-7.556
					c0,24,0,48,0,72c0,9.687,15.004,9.772,15.004,0.108c0-24,0-48,0-72c0-4.065-3.342-7.556-7.448-7.556
					c-26.101,0-52.202,0-78.304,0c-59.251,0-118.503,0-177.754,0c-63.824,0-127.648,0-191.473,0c-39.818,0-79.637,0-119.456,0
					c-3.004,0-6.009,0-9.013,0c-4.065,0-7.556,3.342-7.556,7.448c0,24,0,48,0,72c0,4.065,3.341,7.556,7.447,7.556
					c26.102,0,52.203,0,78.304,0c59.251,0,118.503,0,177.755,0c63.824,0,127.647,0,191.472,0c39.819,0,79.638,0,119.456,0
					c3.005,0,6.009,0,9.014,0C625.077,333.53,625.163,318.526,615.499,318.526z"/>
			</g>
		</g>
		<g>
			<rect x="39.446" y="407.542" fill="#FFFFFF" width="576" height="72"/>
			<g>
				<path fill="#1A1A1A" d="M615.499,472.04c-26.101,0-52.202,0-78.304,0c-59.251,0-118.503,0-177.754,0
					c-63.824,0-127.648,0-191.473,0c-39.818,0-79.637,0-119.456,0c-3.004,0-6.009,0-9.013,0c2.482,2.519,4.965,5.037,7.447,7.556
					c0-24,0-48,0-72c-2.519,2.482-5.037,4.966-7.556,7.448c26.102,0,52.203,0,78.304,0c59.251,0,118.503,0,177.755,0
					c63.824,0,127.647,0,191.472,0c39.819,0,79.638,0,119.456,0c3.005,0,6.009,0,9.014,0c-2.483-2.519-4.966-5.037-7.448-7.556
					c0,24,0,48,0,72c0,9.686,15.004,9.771,15.004,0.107c0-24,0-48,0-72c0-4.064-3.342-7.556-7.448-7.556
					c-26.101,0-52.202,0-78.304,0c-59.251,0-118.503,0-177.754,0c-63.824,0-127.648,0-191.473,0c-39.818,0-79.637,0-119.456,0
					c-3.004,0-6.009,0-9.013,0c-4.065,0-7.556,3.342-7.556,7.448c0,24,0,48,0,72c0,4.064,3.341,7.556,7.447,7.556
					c26.102,0,52.203,0,78.304,0c59.251,0,118.503,0,177.755,0c63.824,0,127.647,0,191.472,0c39.819,0,79.638,0,119.456,0
					c3.005,0,6.009,0,9.014,0C625.077,487.043,625.163,472.04,615.499,472.04z"/>
			</g>
		</g>
		<g>
			<rect x="39.446" y="557.065" fill="#FFFFFF" width="576" height="72"/>
			<g>
				<path fill="#1A1A1A" d="M615.499,621.563c-26.101,0-52.202,0-78.304,0c-59.251,0-118.503,0-177.754,0
					c-63.824,0-127.648,0-191.473,0c-39.818,0-79.637,0-119.456,0c-3.004,0-6.009,0-9.013,0c2.482,2.519,4.965,5.037,7.447,7.556
					c0-24,0-48,0-72c-2.519,2.483-5.037,4.966-7.556,7.448c26.102,0,52.203,0,78.304,0c59.251,0,118.503,0,177.755,0
					c63.824,0,127.647,0,191.472,0c39.819,0,79.638,0,119.456,0c3.005,0,6.009,0,9.014,0c-2.483-2.519-4.966-5.037-7.448-7.556
					c0,24,0,48,0,72c0,9.686,15.004,9.771,15.004,0.107c0-24,0-48,0-72c0-4.064-3.342-7.556-7.448-7.556
					c-26.101,0-52.202,0-78.304,0c-59.251,0-118.503,0-177.754,0c-63.824,0-127.648,0-191.473,0c-39.818,0-79.637,0-119.456,0
					c-3.004,0-6.009,0-9.013,0c-4.065,0-7.556,3.342-7.556,7.448c0,24,0,48,0,72c0,4.064,3.341,7.556,7.447,7.556
					c26.102,0,52.203,0,78.304,0c59.251,0,118.503,0,177.755,0c63.824,0,127.647,0,191.472,0c39.819,0,79.638,0,119.456,0
					c3.005,0,6.009,0,9.014,0C625.077,636.567,625.163,621.563,615.499,621.563z"/>
			</g>
		</g>
	</g>
</g>
<g id="Layer_7">
	<g>
		<path fill="#1A1A1A" d="M42.807,161.837c-0.816-0.576-1.392-1.632-1.392-2.784c0-1.92,1.536-3.408,3.456-3.408
			c0.96,0,1.632,0.336,2.112,0.672c2.544,1.872,5.329,3.024,8.593,3.024c3.024,0,4.849-1.2,4.849-3.168v-0.096
			c0-1.872-1.152-2.832-6.769-4.272c-6.769-1.729-11.137-3.601-11.137-10.273v-0.096c0-6.097,4.896-10.129,11.761-10.129
			c4.08,0,7.632,1.056,10.657,2.976c0.816,0.48,1.632,1.488,1.632,2.929c0,1.92-1.536,3.408-3.457,3.408
			c-0.72,0-1.296-0.192-1.872-0.528c-2.448-1.44-4.752-2.256-7.057-2.256c-2.833,0-4.32,1.296-4.32,2.928v0.096
			c0,2.208,1.44,2.928,7.249,4.417c6.816,1.776,10.657,4.225,10.657,10.081v0.096c0,6.673-5.088,10.417-12.337,10.417
			C51.015,165.87,46.551,164.525,42.807,161.837z"/>
		<path fill="#1A1A1A" d="M73.431,133.707c0-2.016,1.632-3.648,3.648-3.648s3.648,1.632,3.648,3.648v9.601
			c1.68-2.16,3.84-4.128,7.537-4.128c5.521,0,8.737,3.648,8.737,9.553v13.297c0,2.016-1.632,3.648-3.648,3.648
			s-3.648-1.632-3.648-3.648v-10.993c0-3.457-1.632-5.232-4.417-5.232c-2.784,0-4.56,1.776-4.56,5.232v10.993
			c0,2.016-1.632,3.648-3.648,3.648s-3.648-1.632-3.648-3.648V133.707z"/>
		<path fill="#1A1A1A" d="M103.238,133.515c0-2.112,1.776-3.409,4.08-3.409s4.081,1.296,4.081,3.409v0.096
			c0,2.112-1.776,3.457-4.081,3.457s-4.08-1.344-4.08-3.457V133.515z M103.67,143.02c0-2.016,1.632-3.648,3.648-3.648
			s3.648,1.632,3.648,3.648v19.01c0,2.016-1.632,3.648-3.648,3.648s-3.648-1.632-3.648-3.648V143.02z"/>
		<path fill="#1A1A1A" d="M117.829,143.02c0-2.016,1.632-3.648,3.648-3.648s3.648,1.632,3.648,3.648v0.336
			c1.776-2.4,4.224-4.177,8.017-4.177c6,0,11.713,4.705,11.713,13.297v0.096c0,8.593-5.616,13.297-11.713,13.297
			c-3.888,0-6.289-1.776-8.017-3.84v7.681c0,2.016-1.632,3.648-3.648,3.648s-3.648-1.632-3.648-3.648V143.02z M137.559,152.573
			v-0.096c0-4.272-2.88-7.104-6.289-7.104s-6.241,2.832-6.241,7.104v0.096c0,4.272,2.833,7.104,6.241,7.104
			S137.559,156.893,137.559,152.573z"/>
		<path fill="#1A1A1A" d="M150.229,143.02c0-2.016,1.632-3.648,3.648-3.648s3.648,1.632,3.648,3.648v0.336
			c1.776-2.4,4.224-4.177,8.017-4.177c6,0,11.713,4.705,11.713,13.297v0.096c0,8.593-5.616,13.297-11.713,13.297
			c-3.888,0-6.289-1.776-8.017-3.84v7.681c0,2.016-1.632,3.648-3.648,3.648s-3.648-1.632-3.648-3.648V143.02z M169.958,152.573
			v-0.096c0-4.272-2.88-7.104-6.289-7.104s-6.241,2.832-6.241,7.104v0.096c0,4.272,2.833,7.104,6.241,7.104
			S169.958,156.893,169.958,152.573z"/>
		<path fill="#1A1A1A" d="M182.532,133.515c0-2.112,1.776-3.409,4.08-3.409s4.081,1.296,4.081,3.409v0.096
			c0,2.112-1.776,3.457-4.081,3.457s-4.08-1.344-4.08-3.457V133.515z M182.964,143.02c0-2.016,1.632-3.648,3.648-3.648
			s3.648,1.632,3.648,3.648v19.01c0,2.016-1.632,3.648-3.648,3.648s-3.648-1.632-3.648-3.648V143.02z"/>
		<path fill="#1A1A1A" d="M197.123,143.02c0-2.016,1.632-3.648,3.649-3.648c2.016,0,3.647,1.632,3.647,3.648v0.288
			c1.681-2.16,3.841-4.128,7.537-4.128c5.521,0,8.736,3.648,8.736,9.553v13.297c0,2.016-1.632,3.648-3.648,3.648
			c-2.016,0-3.647-1.632-3.647-3.648v-10.993c0-3.457-1.633-5.232-4.417-5.232s-4.561,1.776-4.561,5.232v10.993
			c0,2.016-1.632,3.648-3.647,3.648c-2.017,0-3.649-1.632-3.649-3.648V143.02z"/>
		<path fill="#1A1A1A" d="M229.139,171.39c-1.249-0.48-2.064-1.488-2.064-2.832c0-1.632,1.344-2.977,2.976-2.977
			c0.48,0,0.864,0.096,1.2,0.24c2.112,0.96,4.369,1.536,7.105,1.536c4.992,0,7.344-2.4,7.344-7.009v-1.248
			c-2.16,2.592-4.512,4.176-8.4,4.176c-6,0-11.425-4.368-11.425-12.001v-0.096c0-7.681,5.521-12.001,11.425-12.001
			c3.984,0,6.337,1.68,8.305,3.84v-0.048c0-1.968,1.632-3.6,3.648-3.6s3.648,1.632,3.648,3.648v16.562
			c0,4.608-1.104,7.969-3.265,10.129c-2.4,2.4-6.097,3.457-11.089,3.457C235.139,173.167,232.163,172.59,229.139,171.39z
			 M245.7,151.276v-0.096c0-3.504-2.736-5.952-6.288-5.952c-3.553,0-6.24,2.448-6.24,5.952v0.096c0,3.552,2.688,5.953,6.24,5.953
			C242.963,157.229,245.7,154.781,245.7,151.276z"/>
		<path fill="#1A1A1A" d="M272.721,160.637l11.712-26.45c0.816-1.824,2.305-2.928,4.32-2.928h0.434c2.016,0,3.455,1.104,4.271,2.928
			l11.713,26.45c0.24,0.528,0.385,1.008,0.385,1.488c0,1.968-1.537,3.552-3.506,3.552c-1.727,0-2.879-1.008-3.551-2.544l-2.256-5.28
			h-14.787l-2.352,5.521c-0.623,1.44-1.871,2.304-3.408,2.304c-1.92,0-3.408-1.536-3.408-3.457
			C272.29,161.693,272.481,161.166,272.721,160.637z M293.508,151.324l-4.656-11.089l-4.658,11.089H293.508z"/>
		<path fill="#1A1A1A" d="M335.988,162.029c0,2.016-1.633,3.648-3.648,3.648c-2.018,0-3.648-1.632-3.648-3.648v-0.336
			c-1.777,2.4-4.225,4.176-8.018,4.176c-6,0-11.713-4.704-11.713-13.297v-0.096c0-8.593,5.617-13.297,11.713-13.297
			c3.889,0,6.289,1.776,8.018,3.84v-9.312c0-2.016,1.631-3.648,3.648-3.648c2.016,0,3.648,1.632,3.648,3.648V162.029z
			 M316.258,152.477v0.096c0,4.272,2.881,7.104,6.289,7.104s6.24-2.833,6.24-7.104v-0.096c0-4.272-2.832-7.104-6.24-7.104
			S316.258,148.156,316.258,152.477z"/>
		<path fill="#1A1A1A" d="M368.387,162.029c0,2.016-1.631,3.648-3.648,3.648c-2.016,0-3.648-1.632-3.648-3.648v-0.336
			c-1.775,2.4-4.225,4.176-8.016,4.176c-6.002,0-11.713-4.704-11.713-13.297v-0.096c0-8.593,5.615-13.297,11.713-13.297
			c3.889,0,6.287,1.776,8.016,3.84v-9.312c0-2.016,1.633-3.648,3.648-3.648c2.018,0,3.648,1.632,3.648,3.648V162.029z
			 M348.658,152.477v0.096c0,4.272,2.879,7.104,6.287,7.104s6.24-2.833,6.24-7.104v-0.096c0-4.272-2.832-7.104-6.24-7.104
			S348.658,148.156,348.658,152.477z"/>
		<path fill="#1A1A1A" d="M374.912,143.02c0-2.016,1.633-3.648,3.648-3.648s3.648,1.632,3.648,3.648v1.152
			c1.057-2.496,2.783-4.8,4.943-4.8c2.258,0,3.553,1.488,3.553,3.552c0,1.92-1.248,3.072-2.736,3.408
			c-3.695,0.864-5.76,3.696-5.76,8.881v6.816c0,2.016-1.633,3.648-3.648,3.648s-3.648-1.632-3.648-3.648V143.02z"/>
		<path fill="#1A1A1A" d="M406.449,165.966c-7.729,0-13.441-5.425-13.441-13.297v-0.096c0-7.345,5.232-13.394,12.721-13.394
			c8.594,0,12.385,7.057,12.385,12.385c0,2.112-1.488,3.504-3.408,3.504h-14.449c0.721,3.312,3.025,5.041,6.289,5.041
			c2.016,0,3.697-0.624,5.184-1.729c0.529-0.384,1.01-0.576,1.777-0.576c1.633,0,2.832,1.248,2.832,2.88
			c0,0.96-0.432,1.68-0.961,2.16C413.121,164.766,410.193,165.966,406.449,165.966z M411.154,150.508
			c-0.434-3.264-2.354-5.473-5.426-5.473c-3.023,0-4.992,2.161-5.568,5.473H411.154z"/>
		<path fill="#1A1A1A" d="M423.008,162.941c-0.768-0.48-1.393-1.344-1.393-2.496c0-1.632,1.248-2.88,2.881-2.88
			c0.527,0,1.057,0.144,1.439,0.384c2.449,1.536,4.896,2.304,6.961,2.304c2.111,0,3.072-0.768,3.072-1.92v-0.096
			c0-1.584-2.496-2.112-5.328-2.976c-3.6-1.056-7.682-2.736-7.682-7.729v-0.096c0-5.232,4.225-8.161,9.41-8.161
			c2.688,0,5.473,0.72,7.969,1.968c1.055,0.528,1.727,1.488,1.727,2.736c0,1.632-1.295,2.88-2.928,2.88
			c-0.527,0-0.863-0.096-1.344-0.336c-2.064-1.008-4.033-1.632-5.568-1.632c-1.775,0-2.688,0.768-2.688,1.776v0.096
			c0,1.44,2.447,2.112,5.232,3.072c3.6,1.2,7.775,2.928,7.775,7.632v0.096c0,5.712-4.271,8.305-9.84,8.305
			C429.537,165.87,426.129,164.958,423.008,162.941z"/>
		<path fill="#1A1A1A" d="M446.623,162.941c-0.768-0.48-1.391-1.344-1.391-2.496c0-1.632,1.248-2.88,2.879-2.88
			c0.529,0,1.057,0.144,1.441,0.384c2.447,1.536,4.896,2.304,6.961,2.304c2.111,0,3.072-0.768,3.072-1.92v-0.096
			c0-1.584-2.498-2.112-5.33-2.976c-3.6-1.056-7.68-2.736-7.68-7.729v-0.096c0-5.232,4.225-8.161,9.408-8.161
			c2.689,0,5.473,0.72,7.969,1.968c1.057,0.528,1.729,1.488,1.729,2.736c0,1.632-1.297,2.88-2.928,2.88
			c-0.529,0-0.865-0.096-1.344-0.336c-2.064-1.008-4.033-1.632-5.57-1.632c-1.775,0-2.688,0.768-2.688,1.776v0.096
			c0,1.44,2.449,2.112,5.232,3.072c3.6,1.2,7.777,2.928,7.777,7.632v0.096c0,5.712-4.273,8.305-9.842,8.305
			C453.152,165.87,449.744,164.958,446.623,162.941z"/>
	</g>
	<g>
		<path fill="#1A1A1A" d="M42.626,70.899v-0.12c0-11.939,9-21.719,21.899-21.719c6.3,0,10.56,1.68,14.04,4.26
			c0.96,0.72,1.8,2.04,1.8,3.66c0,2.52-2.04,4.5-4.56,4.5c-1.26,0-2.1-0.48-2.76-0.9c-2.58-1.92-5.28-3-8.58-3
			c-7.08,0-12.18,5.88-12.18,13.08v0.12c0,7.2,4.98,13.199,12.18,13.199c3.9,0,6.479-1.2,9.12-3.3c0.72-0.6,1.68-1.02,2.76-1.02
			c2.34,0,4.32,1.92,4.32,4.26c0,1.44-0.72,2.58-1.56,3.3c-3.78,3.3-8.219,5.279-14.939,5.279
			C51.806,92.498,42.626,82.958,42.626,70.899z"/>
		<path fill="#1A1A1A" d="M88.765,54.04c0-2.58,2.04-4.62,4.62-4.62s4.62,2.04,4.62,4.62v12.359h17.04V54.04
			c0-2.58,2.04-4.62,4.62-4.62c2.58,0,4.62,2.04,4.62,4.62v33.479c0,2.58-2.04,4.62-4.62,4.62c-2.58,0-4.62-2.04-4.62-4.62v-12.6
			h-17.04v12.6c0,2.58-2.04,4.62-4.62,4.62s-4.62-2.04-4.62-4.62V54.04z"/>
		<path fill="#1A1A1A" d="M134.366,87.158V54.399c0-2.58,2.04-4.62,4.62-4.62h23.279c2.28,0,4.14,1.86,4.14,4.14
			s-1.86,4.08-4.14,4.08h-18.719v8.52h16.02c2.28,0,4.14,1.86,4.14,4.14s-1.86,4.08-4.14,4.08h-16.02v8.819h19.02
			c2.28,0,4.14,1.86,4.14,4.14c0,2.28-1.86,4.08-4.14,4.08h-23.579C136.405,91.778,134.366,89.738,134.366,87.158z"/>
		<path fill="#1A1A1A" d="M172.705,70.899v-0.12c0-11.939,9-21.719,21.899-21.719c6.3,0,10.56,1.68,14.04,4.26
			c0.96,0.72,1.8,2.04,1.8,3.66c0,2.52-2.04,4.5-4.56,4.5c-1.26,0-2.1-0.48-2.76-0.9c-2.58-1.92-5.28-3-8.58-3
			c-7.08,0-12.18,5.88-12.18,13.08v0.12c0,7.2,4.98,13.199,12.18,13.199c3.9,0,6.479-1.2,9.12-3.3c0.72-0.6,1.68-1.02,2.76-1.02
			c2.34,0,4.32,1.92,4.32,4.26c0,1.44-0.72,2.58-1.56,3.3c-3.78,3.3-8.219,5.279-14.939,5.279
			C181.885,92.498,172.705,82.958,172.705,70.899z"/>
		<path fill="#1A1A1A" d="M218.844,54.04c0-2.58,2.04-4.62,4.62-4.62s4.62,2.04,4.62,4.62v14.099l17.039-16.919
			c1.14-1.14,2.279-1.8,3.899-1.8c2.58,0,4.26,1.98,4.26,4.26c0,1.44-0.659,2.52-1.68,3.48l-11.819,11.04l12.899,16.199
			c0.72,0.9,1.26,1.86,1.26,3.24c0,2.58-1.979,4.5-4.68,4.5c-1.8,0-2.88-0.9-3.899-2.22l-12-15.719l-5.279,4.919v8.4
			c0,2.58-2.04,4.62-4.62,4.62s-4.62-2.04-4.62-4.62V54.04z"/>
		<path fill="#1A1A1A" d="M257.904,70.899v-0.12c0-11.939,9.42-21.719,22.379-21.719c12.959,0,22.26,9.66,22.26,21.599v0.12
			c0,11.939-9.42,21.719-22.381,21.719C267.204,92.498,257.904,82.838,257.904,70.899z M292.883,70.899v-0.12
			c0-7.2-5.279-13.2-12.721-13.2c-7.439,0-12.598,5.88-12.598,13.08v0.12c0,7.2,5.279,13.199,12.719,13.199
			C287.723,83.978,292.883,78.098,292.883,70.899z"/>
		<path fill="#1A1A1A" d="M310.104,73.779V54.04c0-2.58,2.041-4.62,4.621-4.62c2.578,0,4.619,2.04,4.619,4.62v19.499
			c0,6.84,3.42,10.379,9.059,10.379c5.641,0,9.061-3.419,9.061-10.08V54.04c0-2.58,2.039-4.62,4.619-4.62s4.621,2.04,4.621,4.62
			v19.439c0,12.72-7.141,18.959-18.42,18.959S310.104,86.138,310.104,73.779z"/>
		<path fill="#1A1A1A" d="M365.902,58.299h-8.879c-2.34,0-4.26-1.92-4.26-4.26s1.92-4.26,4.26-4.26h26.998
			c2.34,0,4.26,1.92,4.26,4.26s-1.92,4.26-4.26,4.26h-8.879v29.219c0,2.58-2.039,4.62-4.619,4.62s-4.621-2.04-4.621-4.62V58.299z"/>
	</g>
</g>
<g id="Layer_4">
	<g>
		<g>
			<path fill="#1A1A1A" d="M42.47,216.431c0-1.548,1.224-2.771,2.772-2.771h0.576c1.332,0,2.124,0.647,2.88,1.62l10.69,14.038
				v-12.994c0-1.512,1.224-2.736,2.736-2.736s2.735,1.225,2.735,2.736v20.049c0,1.548-1.224,2.771-2.771,2.771h-0.18
				c-1.332,0-2.124-0.647-2.879-1.619l-11.086-14.542v13.498c0,1.512-1.224,2.735-2.736,2.735s-2.736-1.224-2.736-2.735V216.431z"/>
			<path fill="#1A1A1A" d="M69.182,233.458v-0.072c0-4.212,3.204-6.155,7.775-6.155c1.944,0,3.348,0.324,4.715,0.792v-0.324
				c0-2.268-1.404-3.527-4.139-3.527c-1.512,0-2.736,0.216-3.78,0.54c-0.324,0.107-0.54,0.144-0.792,0.144
				c-1.26,0-2.268-0.972-2.268-2.231c0-0.972,0.612-1.8,1.476-2.124c1.728-0.647,3.599-1.008,6.155-1.008
				c2.988,0,5.147,0.792,6.516,2.16c1.439,1.439,2.087,3.563,2.087,6.155v8.782c0,1.477-1.188,2.628-2.664,2.628
				c-1.584,0-2.627-1.115-2.627-2.268v-0.036c-1.332,1.476-3.168,2.448-5.832,2.448C72.17,239.361,69.182,237.273,69.182,233.458z
				 M81.745,232.198v-0.973c-0.936-0.432-2.16-0.72-3.492-0.72c-2.34,0-3.779,0.937-3.779,2.664v0.072
				c0,1.476,1.224,2.339,2.987,2.339C80.017,235.581,81.745,234.177,81.745,232.198z"/>
			<path fill="#1A1A1A" d="M91.646,222.227c0-1.513,1.224-2.736,2.735-2.736c1.512,0,2.736,1.224,2.736,2.736v0.216
				c1.26-1.62,2.916-3.096,5.688-3.096c2.52,0,4.427,1.115,5.435,3.06c1.692-1.979,3.708-3.06,6.335-3.06
				c4.067,0,6.515,2.447,6.515,7.091v10.043c0,1.512-1.224,2.735-2.736,2.735s-2.735-1.224-2.735-2.735v-8.243
				c0-2.592-1.152-3.924-3.204-3.924s-3.312,1.332-3.312,3.924v8.243c0,1.512-1.224,2.735-2.735,2.735s-2.736-1.224-2.736-2.735
				v-8.243c0-2.592-1.152-3.924-3.204-3.924s-3.312,1.332-3.312,3.924v8.243c0,1.512-1.224,2.735-2.736,2.735
				c-1.512,0-2.735-1.224-2.735-2.735V222.227z"/>
			<path fill="#1A1A1A" d="M134.988,239.432c-5.795,0-10.079-4.067-10.079-9.971v-0.071c0-5.508,3.924-10.043,9.539-10.043
				c6.443,0,9.287,5.291,9.287,9.287c0,1.583-1.116,2.627-2.556,2.627h-10.834c0.54,2.484,2.268,3.779,4.715,3.779
				c1.512,0,2.771-0.468,3.888-1.295c0.396-0.288,0.756-0.433,1.332-0.433c1.224,0,2.124,0.937,2.124,2.16
				c0,0.72-0.324,1.26-0.72,1.619C139.992,238.533,137.796,239.432,134.988,239.432z M138.516,227.842
				c-0.324-2.448-1.764-4.104-4.067-4.104c-2.268,0-3.744,1.619-4.176,4.104H138.516z"/>
		</g>
		<g>
			<path fill="#1A1A1A" d="M65.231,279.591c0-0.792,0.648-1.44,1.404-1.44h9.323c2.88,0,5.147,0.828,6.587,2.232
				c1.044,1.079,1.62,2.411,1.62,4.031v0.072c0,3.275-2.016,4.967-3.996,5.831c2.988,0.899,5.399,2.628,5.399,6.083v0.072
				c0,4.319-3.635,6.875-9.143,6.875h-9.791c-0.756,0-1.404-0.647-1.404-1.439V279.591z M75.49,289.382
				c3.419,0,5.795-1.548,5.795-4.5v-0.072c0-2.483-1.98-4.104-5.58-4.104h-7.667v8.676H75.49z M76.498,300.792
				c3.815,0,6.191-1.691,6.191-4.499v-0.072c0-2.735-2.304-4.319-6.695-4.319h-7.955v8.891H76.498z"/>
			<path fill="#1A1A1A" d="M90.755,285.962c0-0.756,0.612-1.404,1.368-1.404c0.792,0,1.404,0.612,1.404,1.404v3.491
				c1.368-3.096,4.067-4.967,6.407-4.967c0.828,0,1.368,0.611,1.368,1.403c0,0.756-0.504,1.296-1.224,1.404
				c-3.6,0.432-6.551,3.131-6.551,8.495v6.335c0,0.756-0.576,1.403-1.368,1.403s-1.404-0.611-1.404-1.403V285.962z"/>
			<path fill="#1A1A1A" d="M121.281,302.125c0,0.756-0.576,1.403-1.368,1.403c-0.756,0-1.368-0.611-1.368-1.403v-2.016
				c-1.26,2.016-3.168,3.635-6.372,3.635c-4.499,0-7.127-3.023-7.127-7.45v-10.331c0-0.792,0.576-1.404,1.368-1.404
				c0.756,0,1.404,0.612,1.404,1.404v9.646c0,3.456,1.872,5.615,5.147,5.615c3.167,0,5.58-2.34,5.58-5.831v-9.431
				c0-0.792,0.576-1.404,1.368-1.404c0.756,0,1.368,0.612,1.368,1.404V302.125z"/>
			<path fill="#1A1A1A" d="M126.359,294.133v-0.072c0-5.255,4.104-9.719,9.539-9.719c3.096,0,5.184,1.188,6.839,2.7
				c0.216,0.18,0.432,0.54,0.432,0.972c0,0.756-0.612,1.332-1.332,1.332c-0.36,0-0.684-0.145-0.9-0.324
				c-1.332-1.224-2.844-2.231-5.075-2.231c-3.78,0-6.659,3.203-6.659,7.199v0.071c0,4.032,2.952,7.235,6.839,7.235
				c2.124,0,3.815-0.972,5.184-2.268c0.18-0.18,0.432-0.36,0.792-0.36c0.684,0,1.26,0.612,1.26,1.26c0,0.324-0.144,0.648-0.36,0.864
				c-1.764,1.764-3.887,2.987-7.019,2.987C130.463,303.78,126.359,299.353,126.359,294.133z"/>
			<path fill="#1A1A1A" d="M155.662,303.78c-5.111,0-9.287-3.923-9.287-9.683v-0.072c0-5.363,3.779-9.683,8.927-9.683
				c5.507,0,8.639,4.5,8.639,9.431c0,0.756-0.612,1.296-1.296,1.296h-13.462c0.396,4.032,3.24,6.3,6.551,6.3
				c2.304,0,3.995-0.9,5.363-2.16c0.216-0.18,0.468-0.324,0.792-0.324c0.684,0,1.224,0.54,1.224,1.188
				c0,0.324-0.144,0.647-0.432,0.899C160.917,302.665,158.83,303.78,155.662,303.78z M161.169,293.017
				c-0.288-3.383-2.232-6.335-5.939-6.335c-3.24,0-5.688,2.7-6.047,6.335H161.169z"/>
			<path fill="#1A1A1A" d="M178.594,280.059c-0.072-0.216-0.144-0.432-0.144-0.647c0-0.757,0.684-1.44,1.476-1.44
				c0.72,0,1.26,0.54,1.476,1.188l6.947,20.013l6.587-20.085c0.216-0.648,0.648-1.116,1.404-1.116h0.18
				c0.72,0,1.188,0.468,1.403,1.116l6.588,20.085l6.982-20.085c0.217-0.648,0.685-1.116,1.368-1.116
				c0.756,0,1.439,0.684,1.439,1.404c0,0.216-0.107,0.468-0.18,0.684l-8.062,22.39c-0.252,0.72-0.756,1.224-1.477,1.224h-0.216
				c-0.72,0-1.224-0.504-1.476-1.224l-6.551-19.366l-6.516,19.366c-0.252,0.72-0.756,1.224-1.476,1.224h-0.216
				c-0.72,0-1.225-0.468-1.477-1.224L178.594,280.059z"/>
			<path fill="#1A1A1A" d="M215.602,297.949v-0.072c0-3.923,3.24-6.011,7.955-6.011c2.376,0,4.067,0.324,5.724,0.792v-0.648
				c0-3.348-2.052-5.075-5.543-5.075c-1.872,0-3.456,0.432-4.824,1.044c-0.18,0.072-0.359,0.108-0.504,0.108
				c-0.647,0-1.224-0.54-1.224-1.188c0-0.575,0.396-1.008,0.756-1.151c1.836-0.792,3.708-1.26,6.083-1.26
				c2.628,0,4.644,0.684,6.012,2.052c1.26,1.26,1.908,3.06,1.908,5.435v10.188c0,0.792-0.576,1.367-1.332,1.367
				c-0.792,0-1.332-0.575-1.332-1.296v-1.691c-1.296,1.691-3.456,3.203-6.731,3.203
				C219.094,303.744,215.602,301.764,215.602,297.949z M229.317,296.509v-1.8c-1.368-0.396-3.204-0.792-5.472-0.792
				c-3.491,0-5.436,1.512-5.436,3.852v0.072c0,2.339,2.16,3.707,4.68,3.707C226.509,301.548,229.317,299.46,229.317,296.509z"/>
			<path fill="#1A1A1A" d="M236.878,308.675c-0.432-0.18-0.863-0.54-0.863-1.188c0-0.684,0.575-1.188,1.188-1.188
				c0.252,0,0.468,0.072,0.684,0.145c0.54,0.18,1.08,0.324,2.017,0.324c1.728,0,2.735-1.044,3.743-3.312l0.144-0.288l-7.774-16.486
				c-0.108-0.252-0.181-0.504-0.181-0.756c0-0.756,0.612-1.368,1.404-1.368c0.756,0,1.151,0.469,1.403,1.08l6.479,14.614l5.76-14.65
				c0.216-0.575,0.611-1.044,1.331-1.044c0.756,0,1.368,0.612,1.368,1.368c0,0.216-0.072,0.468-0.144,0.684l-7.271,17.351
				c-1.62,3.852-3.42,5.255-6.228,5.255C238.714,309.215,237.815,309,236.878,308.675z"/>
			<path fill="#1A1A1A" d="M258.371,285.962c0-0.756,0.612-1.404,1.368-1.404c0.791,0,1.403,0.612,1.403,1.404v2.016
				c1.224-2.016,3.168-3.636,6.371-3.636c4.5,0,7.127,3.023,7.127,7.451v10.331c0,0.792-0.611,1.403-1.368,1.403
				c-0.792,0-1.404-0.611-1.404-1.403v-9.647c0-3.455-1.872-5.615-5.147-5.615c-3.203,0-5.579,2.34-5.579,5.832v9.431
				c0,0.792-0.576,1.403-1.368,1.403c-0.791,0-1.403-0.611-1.403-1.403V285.962z"/>
			<path fill="#1A1A1A" d="M288.682,303.78c-5.111,0-9.287-3.923-9.287-9.683v-0.072c0-5.363,3.779-9.683,8.928-9.683
				c5.506,0,8.639,4.5,8.639,9.431c0,0.756-0.613,1.296-1.297,1.296h-13.463c0.396,4.032,3.24,6.3,6.553,6.3
				c2.303,0,3.994-0.9,5.363-2.16c0.215-0.18,0.467-0.324,0.791-0.324c0.684,0,1.225,0.54,1.225,1.188
				c0,0.324-0.145,0.647-0.432,0.899C293.938,302.665,291.85,303.78,288.682,303.78z M294.189,293.017
				c-0.289-3.383-2.232-6.335-5.939-6.335c-3.24,0-5.688,2.7-6.049,6.335H294.189z"/>
		</g>
	</g>
</g>
<g id="Layer_5">
	<g>
		<g>
			<path fill="#1A1A1A" d="M41.966,389.85c-0.612-0.432-1.044-1.224-1.044-2.087c0-1.44,1.152-2.556,2.592-2.556
				c0.72,0,1.224,0.252,1.584,0.504c1.908,1.403,3.996,2.268,6.443,2.268c2.268,0,3.635-0.9,3.635-2.376v-0.072
				c0-1.403-0.864-2.123-5.075-3.203c-5.076-1.296-8.351-2.7-8.351-7.703v-0.072c0-4.571,3.671-7.595,8.819-7.595
				c3.06,0,5.723,0.792,7.991,2.231c0.612,0.36,1.224,1.116,1.224,2.196c0,1.439-1.152,2.556-2.592,2.556
				c-0.54,0-0.972-0.145-1.404-0.396c-1.835-1.08-3.563-1.691-5.291-1.691c-2.124,0-3.24,0.972-3.24,2.195v0.072
				c0,1.655,1.08,2.195,5.435,3.312c5.112,1.332,7.991,3.168,7.991,7.559v0.072c0,5.004-3.815,7.812-9.251,7.812
				C48.121,392.875,44.773,391.867,41.966,389.85z"/>
			<path fill="#1A1A1A" d="M65.654,387.042V377.9h-0.18c-1.296,0-2.339-1.044-2.339-2.34s1.043-2.34,2.339-2.34h0.18v-2.411
				c0-1.512,1.224-2.736,2.735-2.736c1.512,0,2.736,1.225,2.736,2.736v2.411h2.412c1.296,0,2.34,1.044,2.34,2.34
				s-1.044,2.34-2.34,2.34h-2.412v8.243c0,1.26,0.54,1.872,1.764,1.872c0.18,0,0.54-0.036,0.648-0.036
				c1.224,0,2.268,1.008,2.268,2.268c0,0.972-0.648,1.764-1.404,2.052c-1.008,0.396-1.944,0.54-3.132,0.54
				C67.922,392.838,65.654,391.506,65.654,387.042z"/>
			<path fill="#1A1A1A" d="M79.694,375.741c0-1.513,1.224-2.736,2.735-2.736c1.512,0,2.736,1.224,2.736,2.736v0.863
				c0.792-1.872,2.088-3.6,3.708-3.6c1.692,0,2.664,1.116,2.664,2.664c0,1.439-0.936,2.304-2.052,2.556
				c-2.771,0.647-4.319,2.771-4.319,6.659v5.111c0,1.512-1.224,2.735-2.736,2.735c-1.512,0-2.735-1.224-2.735-2.735V375.741z"/>
			<path fill="#1A1A1A" d="M103.345,392.946c-5.795,0-10.079-4.067-10.079-9.971v-0.071c0-5.508,3.924-10.043,9.539-10.043
				c6.443,0,9.287,5.291,9.287,9.287c0,1.583-1.116,2.627-2.556,2.627H98.702c0.54,2.484,2.268,3.779,4.715,3.779
				c1.512,0,2.771-0.468,3.888-1.295c0.396-0.288,0.756-0.433,1.332-0.433c1.224,0,2.124,0.937,2.124,2.16
				c0,0.72-0.324,1.26-0.72,1.619C108.348,392.046,106.152,392.946,103.345,392.946z M106.873,381.356
				c-0.324-2.448-1.764-4.104-4.067-4.104c-2.268,0-3.744,1.619-4.176,4.104H106.873z"/>
			<path fill="#1A1A1A" d="M125.413,392.946c-5.795,0-10.079-4.067-10.079-9.971v-0.071c0-5.508,3.924-10.043,9.539-10.043
				c6.443,0,9.287,5.291,9.287,9.287c0,1.583-1.116,2.627-2.556,2.627H120.77c0.54,2.484,2.268,3.779,4.715,3.779
				c1.512,0,2.771-0.468,3.887-1.295c0.396-0.288,0.756-0.433,1.332-0.433c1.224,0,2.124,0.937,2.124,2.16
				c0,0.72-0.324,1.26-0.72,1.619C130.416,392.046,128.221,392.946,125.413,392.946z M128.94,381.356
				c-0.324-2.448-1.764-4.104-4.067-4.104c-2.268,0-3.744,1.619-4.176,4.104H128.94z"/>
			<path fill="#1A1A1A" d="M139.237,387.042V377.9h-0.18c-1.296,0-2.339-1.044-2.339-2.34s1.043-2.34,2.339-2.34h0.18v-2.411
				c0-1.512,1.224-2.736,2.735-2.736c1.512,0,2.736,1.225,2.736,2.736v2.411h2.412c1.296,0,2.34,1.044,2.34,2.34
				s-1.044,2.34-2.34,2.34h-2.412v8.243c0,1.26,0.54,1.872,1.764,1.872c0.18,0,0.54-0.036,0.648-0.036
				c1.224,0,2.268,1.008,2.268,2.268c0,0.972-0.648,1.764-1.404,2.052c-1.008,0.396-1.944,0.54-3.132,0.54
				C141.505,392.838,139.237,391.506,139.237,387.042z"/>
			<path fill="#1A1A1A" d="M163.249,388.951l8.783-19.834c0.612-1.367,1.729-2.195,3.24-2.195h0.323
				c1.513,0,2.592,0.828,3.204,2.195l8.783,19.834c0.18,0.396,0.287,0.756,0.287,1.116c0,1.476-1.151,2.663-2.627,2.663
				c-1.296,0-2.16-0.756-2.664-1.907l-1.691-3.96H169.8l-1.764,4.14c-0.468,1.08-1.404,1.728-2.556,1.728
				c-1.44,0-2.556-1.151-2.556-2.592C162.925,389.743,163.069,389.346,163.249,388.951z M178.835,381.967l-3.492-8.314l-3.491,8.314
				H178.835z"/>
			<path fill="#1A1A1A" d="M210.694,389.995c0,1.512-1.225,2.735-2.736,2.735s-2.735-1.224-2.735-2.735v-0.252
				c-1.332,1.8-3.168,3.132-6.011,3.132c-4.5,0-8.783-3.528-8.783-9.971v-0.072c0-6.443,4.211-9.971,8.783-9.971
				c2.915,0,4.715,1.332,6.011,2.88v-6.983c0-1.512,1.224-2.736,2.735-2.736s2.736,1.225,2.736,2.736V389.995z M195.899,382.832
				v0.072c0,3.203,2.16,5.327,4.716,5.327s4.68-2.124,4.68-5.327v-0.072c0-3.204-2.124-5.327-4.68-5.327
				S195.899,379.591,195.899,382.832z"/>
			<path fill="#1A1A1A" d="M234.994,389.995c0,1.512-1.225,2.735-2.736,2.735s-2.735-1.224-2.735-2.735v-0.252
				c-1.332,1.8-3.168,3.132-6.012,3.132c-4.499,0-8.782-3.528-8.782-9.971v-0.072c0-6.443,4.211-9.971,8.782-9.971
				c2.916,0,4.716,1.332,6.012,2.88v-6.983c0-1.512,1.224-2.736,2.735-2.736s2.736,1.225,2.736,2.736V389.995z M220.199,382.832
				v0.072c0,3.203,2.16,5.327,4.716,5.327s4.68-2.124,4.68-5.327v-0.072c0-3.204-2.124-5.327-4.68-5.327
				S220.199,379.591,220.199,382.832z"/>
			<path fill="#1A1A1A" d="M239.892,375.741c0-1.513,1.225-2.736,2.736-2.736s2.735,1.224,2.735,2.736v0.863
				c0.792-1.872,2.088-3.6,3.708-3.6c1.691,0,2.663,1.116,2.663,2.664c0,1.439-0.936,2.304-2.052,2.556
				c-2.771,0.647-4.319,2.771-4.319,6.659v5.111c0,1.512-1.224,2.735-2.735,2.735s-2.736-1.224-2.736-2.735V375.741z"/>
			<path fill="#1A1A1A" d="M263.543,392.946c-5.796,0-10.079-4.067-10.079-9.971v-0.071c0-5.508,3.924-10.043,9.539-10.043
				c6.443,0,9.287,5.291,9.287,9.287c0,1.583-1.116,2.627-2.556,2.627h-10.835c0.54,2.484,2.268,3.779,4.715,3.779
				c1.513,0,2.772-0.468,3.888-1.295c0.396-0.288,0.756-0.433,1.332-0.433c1.224,0,2.124,0.937,2.124,2.16
				c0,0.72-0.324,1.26-0.72,1.619C268.546,392.046,266.351,392.946,263.543,392.946z M267.07,381.356
				c-0.324-2.448-1.764-4.104-4.067-4.104c-2.268,0-3.744,1.619-4.176,4.104H267.07z"/>
			<path fill="#1A1A1A" d="M275.963,390.678c-0.575-0.359-1.044-1.008-1.044-1.872c0-1.224,0.937-2.159,2.16-2.159
				c0.396,0,0.792,0.108,1.08,0.288c1.836,1.151,3.671,1.728,5.219,1.728c1.584,0,2.304-0.576,2.304-1.439v-0.072
				c0-1.188-1.871-1.584-3.995-2.231c-2.699-0.792-5.759-2.052-5.759-5.796v-0.071c0-3.924,3.167-6.119,7.055-6.119
				c2.016,0,4.104,0.539,5.976,1.476c0.792,0.396,1.296,1.115,1.296,2.052c0,1.224-0.973,2.159-2.196,2.159
				c-0.396,0-0.647-0.071-1.008-0.252c-1.548-0.756-3.023-1.224-4.176-1.224c-1.331,0-2.016,0.576-2.016,1.332v0.072
				c0,1.079,1.836,1.583,3.924,2.304c2.699,0.899,5.831,2.195,5.831,5.723v0.072c0,4.283-3.203,6.228-7.379,6.228
				C280.858,392.875,278.303,392.19,275.963,390.678z"/>
			<path fill="#1A1A1A" d="M293.675,390.678c-0.575-0.359-1.044-1.008-1.044-1.872c0-1.224,0.937-2.159,2.16-2.159
				c0.396,0,0.792,0.108,1.08,0.288c1.836,1.151,3.671,1.728,5.219,1.728c1.584,0,2.304-0.576,2.304-1.439v-0.072
				c0-1.188-1.871-1.584-3.995-2.231c-2.699-0.792-5.759-2.052-5.759-5.796v-0.071c0-3.924,3.167-6.119,7.055-6.119
				c2.016,0,4.104,0.539,5.976,1.476c0.792,0.396,1.296,1.115,1.296,2.052c0,1.224-0.973,2.159-2.196,2.159
				c-0.396,0-0.647-0.071-1.008-0.252c-1.548-0.756-3.023-1.224-4.176-1.224c-1.331,0-2.016,0.576-2.016,1.332v0.072
				c0,1.079,1.836,1.583,3.924,2.304c2.699,0.899,5.831,2.195,5.831,5.723v0.072c0,4.283-3.203,6.228-7.379,6.228
				C298.57,392.875,296.015,392.19,293.675,390.678z"/>
		</g>
		<g>
			<path fill="#1A1A1A" d="M68.111,434.329l-3.528,1.152c-0.216,0.071-0.432,0.107-0.612,0.107c-0.648,0-1.224-0.54-1.224-1.224
				c0-0.612,0.396-1.008,1.008-1.224l4.139-1.44c0.576-0.18,1.08-0.323,1.548-0.323h0.072c0.828,0,1.404,0.647,1.404,1.403v22.821
				c0,0.792-0.612,1.439-1.404,1.439c-0.756,0-1.404-0.647-1.404-1.439V434.329z"/>
			<path fill="#1A1A1A" d="M76.823,454.198l8.603-7.595c3.888-3.455,5.255-5.399,5.255-7.919c0-2.951-2.34-4.823-5.075-4.823
				c-2.664,0-4.463,1.296-6.263,3.672c-0.216,0.287-0.576,0.504-1.044,0.504c-0.72,0-1.296-0.576-1.296-1.296
				c0-0.288,0.108-0.576,0.288-0.792c2.087-2.916,4.391-4.644,8.531-4.644c4.536,0,7.811,3.023,7.811,7.127v0.072
				c0,3.671-1.944,5.939-6.371,9.79l-6.731,5.976h12.203c0.72,0,1.332,0.576,1.332,1.296s-0.612,1.296-1.332,1.296H77.579
				c-0.828,0-1.439-0.54-1.439-1.332C76.14,454.99,76.355,454.594,76.823,454.198z"/>
			<path fill="#1A1A1A" d="M98.531,453.478c-0.216-0.216-0.468-0.611-0.468-1.008c0-0.756,0.648-1.403,1.404-1.403
				c0.468,0,0.828,0.216,1.044,0.432c1.835,2.088,3.995,3.203,6.839,3.203c3.06,0,5.507-1.943,5.507-4.895v-0.072
				c0-3.132-2.916-4.859-7.055-4.859h-0.9c-0.684,0-1.26-0.54-1.26-1.224c0-0.36,0.18-0.721,0.576-1.116l7.343-8.315h-11.158
				c-0.72,0-1.332-0.539-1.332-1.26c0-0.72,0.612-1.296,1.332-1.296h13.75c0.792,0,1.368,0.504,1.368,1.225
				c0,0.575-0.288,0.972-0.684,1.403l-7.415,8.243c4.391,0.36,8.315,2.483,8.315,7.091v0.072c0,4.499-3.744,7.595-8.423,7.595
				C103.463,457.293,100.547,455.746,98.531,453.478z"/>
			<path fill="#1A1A1A" d="M132.55,433.105c0-0.792,0.648-1.44,1.404-1.44h7.343c7.919,0,13.391,5.436,13.391,12.526v0.072
				c0,7.092-5.472,12.599-13.391,12.599h-7.343c-0.756,0-1.404-0.647-1.404-1.439V433.105z M141.297,454.234
				c6.371,0,10.438-4.319,10.438-9.898v-0.072c0-5.579-4.067-9.971-10.438-9.971h-5.903v19.941H141.297z"/>
			<path fill="#1A1A1A" d="M168.369,457.293c-5.111,0-9.287-3.923-9.287-9.683v-0.072c0-5.363,3.78-9.683,8.928-9.683
				c5.507,0,8.639,4.5,8.639,9.431c0,0.756-0.612,1.296-1.296,1.296h-13.463c0.396,4.032,3.24,6.3,6.552,6.3
				c2.304,0,3.995-0.9,5.363-2.16c0.216-0.18,0.468-0.324,0.792-0.324c0.684,0,1.224,0.54,1.224,1.188
				c0,0.324-0.144,0.647-0.432,0.899C173.625,456.178,171.537,457.293,168.369,457.293z M173.876,446.531
				c-0.288-3.383-2.232-6.335-5.939-6.335c-3.24,0-5.688,2.7-6.048,6.335H173.876z"/>
			<path fill="#1A1A1A" d="M181.546,439.476c0-0.756,0.612-1.404,1.368-1.404c0.791,0,1.403,0.612,1.403,1.404v1.907
				c1.224-1.835,2.88-3.527,6.012-3.527c3.023,0,4.967,1.62,5.975,3.708c1.332-2.052,3.312-3.708,6.552-3.708
				c4.283,0,6.911,2.88,6.911,7.487v10.295c0,0.792-0.612,1.403-1.368,1.403c-0.792,0-1.404-0.611-1.404-1.403v-9.647
				c0-3.599-1.799-5.615-4.823-5.615c-2.808,0-5.111,2.088-5.111,5.76v9.503c0,0.792-0.611,1.403-1.403,1.403
				c-0.756,0-1.368-0.611-1.368-1.403v-9.719c0-3.492-1.836-5.544-4.787-5.544c-2.952,0-5.184,2.448-5.184,5.867v9.396
				c0,0.792-0.576,1.403-1.368,1.403c-0.791,0-1.403-0.611-1.403-1.403V439.476z"/>
			<path fill="#1A1A1A" d="M214.629,447.647v-0.072c0-5.255,4.104-9.719,9.719-9.719c5.58,0,9.684,4.392,9.684,9.647v0.071
				c0,5.256-4.14,9.719-9.755,9.719C218.698,457.293,214.629,452.902,214.629,447.647z M231.188,447.647v-0.072
				c0-3.995-2.988-7.271-6.911-7.271c-4.032,0-6.804,3.275-6.804,7.199v0.071c0,3.996,2.952,7.235,6.875,7.235
				C228.38,454.81,231.188,451.571,231.188,447.647z"/>
			<path fill="#1A1A1A" d="M249.406,453.838c-0.324-0.216-0.54-0.612-0.54-1.08c0-0.792,0.611-1.403,1.367-1.403
				c0.36,0,0.685,0.144,0.864,0.323c2.376,2.016,4.751,2.988,7.955,2.988c3.384,0,5.615-1.8,5.615-4.284v-0.071
				c0-2.34-1.26-3.672-6.551-4.788c-5.796-1.26-8.459-3.131-8.459-7.271v-0.072c0-3.96,3.491-6.875,8.278-6.875
				c3.312,0,5.724,0.828,8.027,2.483c0.288,0.216,0.612,0.612,0.612,1.152c0,0.756-0.612,1.367-1.368,1.367
				c-0.324,0-0.576-0.071-0.828-0.252c-2.124-1.548-4.176-2.195-6.515-2.195c-3.276,0-5.364,1.8-5.364,4.067V438
				c0,2.375,1.296,3.707,6.84,4.896c5.615,1.224,8.207,3.275,8.207,7.127v0.071c0,4.32-3.6,7.128-8.604,7.128
				C255.273,457.222,252.213,456.07,249.406,453.838z"/>
			<path fill="#1A1A1A" d="M273.669,451.93V440.7h-1.512c-0.647,0-1.224-0.576-1.224-1.224c0-0.684,0.576-1.224,1.224-1.224h1.512
				v-4.392c0-0.756,0.577-1.404,1.368-1.404c0.756,0,1.404,0.648,1.404,1.404v4.392h4.822c0.686,0,1.262,0.575,1.262,1.224
				c0,0.684-0.576,1.224-1.262,1.224h-4.822v10.871c0,2.268,1.26,3.096,3.131,3.096c0.973,0,1.477-0.252,1.691-0.252
				c0.648,0,1.189,0.539,1.189,1.188c0,0.504-0.324,0.899-0.793,1.08c-0.791,0.323-1.656,0.504-2.734,0.504
				C275.938,457.186,273.669,455.71,273.669,451.93z"/>
			<path fill="#1A1A1A" d="M287.24,439.476c0-0.756,0.613-1.404,1.369-1.404c0.791,0,1.402,0.612,1.402,1.404v3.491
				c1.369-3.096,4.068-4.967,6.408-4.967c0.828,0,1.367,0.611,1.367,1.403c0,0.756-0.504,1.296-1.225,1.404
				c-3.598,0.432-6.551,3.131-6.551,8.495v6.335c0,0.756-0.576,1.403-1.367,1.403s-1.404-0.611-1.404-1.403V439.476z"/>
			<path fill="#1A1A1A" d="M309.164,457.293c-5.111,0-9.287-3.923-9.287-9.683v-0.072c0-5.363,3.781-9.683,8.928-9.683
				c5.508,0,8.639,4.5,8.639,9.431c0,0.756-0.611,1.296-1.295,1.296h-13.463c0.396,4.032,3.24,6.3,6.551,6.3
				c2.305,0,3.996-0.9,5.363-2.16c0.217-0.18,0.469-0.324,0.793-0.324c0.684,0,1.223,0.54,1.223,1.188
				c0,0.324-0.143,0.647-0.432,0.899C314.42,456.178,312.332,457.293,309.164,457.293z M314.672,446.531
				c-0.287-3.383-2.232-6.335-5.939-6.335c-3.24,0-5.688,2.7-6.047,6.335H314.672z"/>
			<path fill="#1A1A1A" d="M330.477,457.293c-5.111,0-9.287-3.923-9.287-9.683v-0.072c0-5.363,3.779-9.683,8.928-9.683
				c5.506,0,8.639,4.5,8.639,9.431c0,0.756-0.613,1.296-1.297,1.296h-13.463c0.396,4.032,3.24,6.3,6.553,6.3
				c2.303,0,3.994-0.9,5.363-2.16c0.215-0.18,0.467-0.324,0.791-0.324c0.684,0,1.225,0.54,1.225,1.188
				c0,0.324-0.145,0.647-0.432,0.899C335.732,456.178,333.645,457.293,330.477,457.293z M335.984,446.531
				c-0.289-3.383-2.232-6.335-5.939-6.335c-3.24,0-5.688,2.7-6.049,6.335H335.984z"/>
			<path fill="#1A1A1A" d="M344.625,451.93V440.7h-1.512c-0.648,0-1.225-0.576-1.225-1.224c0-0.684,0.576-1.224,1.225-1.224h1.512
				v-4.392c0-0.756,0.576-1.404,1.367-1.404c0.756,0,1.404,0.648,1.404,1.404v4.392h4.822c0.686,0,1.262,0.575,1.262,1.224
				c0,0.684-0.576,1.224-1.262,1.224h-4.822v10.871c0,2.268,1.26,3.096,3.131,3.096c0.973,0,1.477-0.252,1.691-0.252
				c0.648,0,1.189,0.539,1.189,1.188c0,0.504-0.324,0.899-0.793,1.08c-0.791,0.323-1.656,0.504-2.734,0.504
				C346.893,457.186,344.625,455.71,344.625,451.93z"/>
		</g>
	</g>
</g>
<g id="Layer_6">
	<g>
		<g>
			<path fill="#1A1A1A" d="M41.066,538.473l8.783-19.834c0.612-1.367,1.728-2.195,3.239-2.195h0.324
				c1.512,0,2.592,0.828,3.204,2.195l8.783,19.834c0.18,0.396,0.288,0.756,0.288,1.117c0,1.475-1.152,2.662-2.627,2.662
				c-1.296,0-2.16-0.756-2.664-1.906l-1.691-3.961H47.617l-1.764,4.141c-0.468,1.08-1.404,1.727-2.556,1.727
				c-1.44,0-2.556-1.15-2.556-2.592C40.742,539.266,40.886,538.87,41.066,538.473z M56.652,531.491l-3.492-8.314l-3.492,8.314
				H56.652z"/>
			<path fill="#1A1A1A" d="M88.511,539.518c0,1.512-1.224,2.734-2.735,2.734c-1.512,0-2.736-1.223-2.736-2.734v-0.252
				c-1.332,1.799-3.167,3.131-6.011,3.131c-4.5,0-8.783-3.527-8.783-9.971v-0.072c0-6.443,4.211-9.971,8.783-9.971
				c2.916,0,4.715,1.332,6.011,2.881v-6.984c0-1.512,1.224-2.736,2.736-2.736c1.512,0,2.735,1.225,2.735,2.736V539.518z
				 M73.717,532.354v0.072c0,3.203,2.16,5.328,4.715,5.328s4.679-2.125,4.679-5.328v-0.072c0-3.203-2.124-5.326-4.679-5.326
				S73.717,529.114,73.717,532.354z"/>
			<path fill="#1A1A1A" d="M112.811,539.518c0,1.512-1.224,2.734-2.735,2.734c-1.512,0-2.736-1.223-2.736-2.734v-0.252
				c-1.332,1.799-3.167,3.131-6.011,3.131c-4.5,0-8.783-3.527-8.783-9.971v-0.072c0-6.443,4.211-9.971,8.783-9.971
				c2.916,0,4.715,1.332,6.011,2.881v-6.984c0-1.512,1.224-2.736,2.736-2.736c1.512,0,2.735,1.225,2.735,2.736V539.518z
				 M98.017,532.354v0.072c0,3.203,2.16,5.328,4.715,5.328s4.679-2.125,4.679-5.328v-0.072c0-3.203-2.124-5.326-4.679-5.326
				S98.017,529.114,98.017,532.354z"/>
			<path fill="#1A1A1A" d="M117.709,525.264c0-1.514,1.224-2.736,2.735-2.736c1.512,0,2.736,1.223,2.736,2.736v0.863
				c0.792-1.873,2.088-3.6,3.708-3.6c1.692,0,2.664,1.115,2.664,2.664c0,1.439-0.936,2.303-2.052,2.555
				c-2.771,0.648-4.319,2.771-4.319,6.66v5.111c0,1.512-1.224,2.734-2.736,2.734c-1.512,0-2.735-1.223-2.735-2.734V525.264z"/>
			<path fill="#1A1A1A" d="M141.36,542.469c-5.795,0-10.079-4.068-10.079-9.971v-0.072c0-5.508,3.924-10.043,9.539-10.043
				c6.443,0,9.287,5.291,9.287,9.287c0,1.584-1.116,2.627-2.556,2.627h-10.834c0.54,2.484,2.268,3.779,4.715,3.779
				c1.512,0,2.771-0.467,3.887-1.295c0.396-0.287,0.756-0.432,1.332-0.432c1.224,0,2.124,0.936,2.124,2.16
				c0,0.719-0.324,1.26-0.72,1.619C146.363,541.569,144.168,542.469,141.36,542.469z M144.888,530.879
				c-0.324-2.449-1.764-4.104-4.067-4.104c-2.268,0-3.744,1.619-4.176,4.104H144.888z"/>
			<path fill="#1A1A1A" d="M153.781,540.202c-0.576-0.359-1.044-1.008-1.044-1.873c0-1.223,0.936-2.158,2.16-2.158
				c0.396,0,0.792,0.107,1.08,0.287c1.835,1.152,3.671,1.729,5.219,1.729c1.583,0,2.304-0.576,2.304-1.439v-0.072
				c0-1.188-1.872-1.584-3.996-2.232c-2.7-0.791-5.759-2.051-5.759-5.795v-0.072c0-3.924,3.167-6.119,7.055-6.119
				c2.016,0,4.104,0.539,5.975,1.477c0.792,0.395,1.296,1.115,1.296,2.051c0,1.225-0.972,2.16-2.196,2.16
				c-0.396,0-0.648-0.072-1.008-0.252c-1.548-0.756-3.023-1.225-4.175-1.225c-1.332,0-2.016,0.576-2.016,1.332v0.072
				c0,1.08,1.835,1.584,3.923,2.305c2.7,0.898,5.831,2.195,5.831,5.723v0.072c0,4.283-3.204,6.227-7.379,6.227
				C158.676,542.397,156.121,541.713,153.781,540.202z"/>
			<path fill="#1A1A1A" d="M171.492,540.202c-0.575-0.359-1.044-1.008-1.044-1.873c0-1.223,0.937-2.158,2.16-2.158
				c0.396,0,0.792,0.107,1.08,0.287c1.836,1.152,3.671,1.729,5.219,1.729c1.584,0,2.304-0.576,2.304-1.439v-0.072
				c0-1.188-1.871-1.584-3.995-2.232c-2.699-0.791-5.759-2.051-5.759-5.795v-0.072c0-3.924,3.167-6.119,7.055-6.119
				c2.016,0,4.104,0.539,5.976,1.477c0.792,0.395,1.296,1.115,1.296,2.051c0,1.225-0.973,2.16-2.196,2.16
				c-0.396,0-0.647-0.072-1.008-0.252c-1.548-0.756-3.023-1.225-4.176-1.225c-1.331,0-2.016,0.576-2.016,1.332v0.072
				c0,1.08,1.836,1.584,3.924,2.305c2.699,0.898,5.831,2.195,5.831,5.723v0.072c0,4.283-3.203,6.227-7.379,6.227
				C176.388,542.397,173.832,541.713,171.492,540.202z"/>
			<path fill="#1A1A1A" d="M201.408,536.637l7.163-5.867c3.132-2.555,4.355-3.959,4.355-6.047c0-2.123-1.403-3.275-3.383-3.275
				c-1.584,0-2.7,0.684-4.104,2.195c-0.36,0.396-1.008,0.793-1.872,0.793c-1.404,0-2.52-1.117-2.52-2.52
				c0-0.613,0.252-1.26,0.647-1.729c2.016-2.34,4.392-3.707,8.207-3.707c5.22,0,8.675,3.059,8.675,7.773v0.072
				c0,4.213-2.159,6.301-6.623,9.756l-4.104,3.168h8.783c1.332,0,2.411,1.078,2.411,2.41s-1.079,2.377-2.411,2.377h-13.679
				c-1.728,0-2.987-0.973-2.987-2.629C199.969,538.329,200.473,537.393,201.408,536.637z"/>
		</g>
		<g>
			<path fill="#1A1A1A" d="M64.332,603.362c-0.324-0.217-0.54-0.613-0.54-1.08c0-0.793,0.612-1.404,1.368-1.404
				c0.36,0,0.684,0.145,0.864,0.324c2.375,2.016,4.751,2.988,7.955,2.988c3.383,0,5.615-1.801,5.615-4.285v-0.07
				c0-2.34-1.26-3.672-6.551-4.789c-5.795-1.26-8.459-3.131-8.459-7.27v-0.072c0-3.961,3.492-6.875,8.279-6.875
				c3.312,0,5.723,0.828,8.027,2.482c0.288,0.217,0.612,0.613,0.612,1.152c0,0.756-0.612,1.367-1.368,1.367
				c-0.324,0-0.576-0.07-0.828-0.252c-2.124-1.547-4.175-2.195-6.515-2.195c-3.275,0-5.363,1.801-5.363,4.068v0.072
				c0,2.375,1.296,3.707,6.839,4.895c5.615,1.225,8.207,3.275,8.207,7.127v0.072c0,4.32-3.599,7.127-8.603,7.127
				C70.199,606.745,67.139,605.592,64.332,603.362z"/>
			<path fill="#1A1A1A" d="M103.75,605.161c0,0.756-0.576,1.404-1.368,1.404c-0.756,0-1.368-0.611-1.368-1.404v-2.016
				c-1.26,2.016-3.168,3.635-6.372,3.635c-4.499,0-7.127-3.023-7.127-7.449v-10.332c0-0.791,0.576-1.404,1.368-1.404
				c0.756,0,1.404,0.613,1.404,1.404v9.646c0,3.457,1.872,5.615,5.147,5.615c3.167,0,5.58-2.34,5.58-5.83v-9.432
				c0-0.791,0.576-1.404,1.368-1.404c0.756,0,1.368,0.613,1.368,1.404V605.161z"/>
			<path fill="#1A1A1A" d="M109.979,581.944c0-0.9,0.72-1.477,1.62-1.477c0.936,0,1.656,0.576,1.656,1.477v0.469
				c0,0.863-0.72,1.475-1.656,1.475c-0.9,0-1.62-0.611-1.62-1.475V581.944z M110.231,588.999c0-0.756,0.612-1.404,1.368-1.404
				c0.792,0,1.404,0.613,1.404,1.404v16.162c0,0.793-0.576,1.404-1.368,1.404s-1.404-0.611-1.404-1.404V588.999z"/>
			<path fill="#1A1A1A" d="M120.418,601.454v-11.23h-1.512c-0.648,0-1.224-0.576-1.224-1.225c0-0.684,0.576-1.223,1.224-1.223h1.512
				v-4.393c0-0.756,0.576-1.404,1.368-1.404c0.756,0,1.404,0.648,1.404,1.404v4.393h4.823c0.684,0,1.26,0.574,1.26,1.223
				c0,0.684-0.576,1.225-1.26,1.225h-4.823v10.871c0,2.268,1.26,3.096,3.131,3.096c0.972,0,1.476-0.252,1.692-0.252
				c0.648,0,1.188,0.539,1.188,1.188c0,0.504-0.324,0.898-0.792,1.08c-0.792,0.322-1.656,0.504-2.736,0.504
				C122.686,606.709,120.418,605.233,120.418,601.454z"/>
			<path fill="#1A1A1A" d="M141.585,606.817c-5.111,0-9.287-3.924-9.287-9.684v-0.072c0-5.363,3.779-9.682,8.927-9.682
				c5.507,0,8.639,4.5,8.639,9.43c0,0.756-0.612,1.297-1.296,1.297h-13.462c0.396,4.031,3.24,6.299,6.551,6.299
				c2.304,0,3.995-0.9,5.363-2.16c0.216-0.18,0.468-0.324,0.792-0.324c0.684,0,1.224,0.541,1.224,1.189
				c0,0.324-0.144,0.646-0.432,0.898C146.841,605.702,144.753,606.817,141.585,606.817z M147.093,596.053
				c-0.288-3.383-2.231-6.334-5.939-6.334c-3.24,0-5.688,2.699-6.047,6.334H147.093z"/>
			<path fill="#1A1A1A" d="M168.91,583.852l-3.527,1.152c-0.217,0.07-0.433,0.107-0.612,0.107c-0.647,0-1.224-0.541-1.224-1.225
				c0-0.611,0.396-1.008,1.008-1.223l4.14-1.441c0.575-0.18,1.079-0.322,1.548-0.322h0.071c0.828,0,1.404,0.646,1.404,1.402v22.822
				c0,0.791-0.612,1.439-1.404,1.439c-0.756,0-1.403-0.648-1.403-1.439V583.852z"/>
			<path fill="#1A1A1A" d="M180.717,604.26c-2.016-2.016-3.168-4.607-3.168-9.754v-0.072c0-7.666,3.888-13.678,10.475-13.678
				c2.628,0,4.68,0.828,6.552,2.23c0.432,0.289,0.684,0.648,0.684,1.189c0,0.756-0.611,1.367-1.367,1.367
				c-0.288,0-0.576-0.107-0.792-0.252c-1.656-1.26-3.204-1.943-5.22-1.943c-4.571,0-7.415,4.607-7.379,11.123
				c1.368-2.018,3.491-3.852,7.163-3.852c4.68,0,8.711,3.023,8.711,7.738v0.072c0,4.859-3.924,8.387-9.035,8.387
				C184.569,606.817,182.301,605.844,180.717,604.26z M193.459,598.538v-0.072c0-3.096-2.52-5.398-6.155-5.398
				c-3.779,0-6.299,2.699-6.299,5.508v0.07c0,3.205,2.664,5.652,6.371,5.652C191.084,604.297,193.459,601.741,193.459,598.538z"/>
			<path fill="#1A1A1A" d="M211.605,595.549c0-0.756,0.647-1.439,1.439-1.439h7.487c0.792,0,1.439,0.684,1.439,1.439
				c0,0.793-0.647,1.477-1.439,1.477h-7.487C212.252,597.026,211.605,596.342,211.605,595.549z"/>
			<path fill="#1A1A1A" d="M241.375,583.852l-3.527,1.152c-0.217,0.07-0.433,0.107-0.612,0.107c-0.647,0-1.224-0.541-1.224-1.225
				c0-0.611,0.396-1.008,1.008-1.223l4.14-1.441c0.575-0.18,1.079-0.322,1.548-0.322h0.071c0.828,0,1.404,0.646,1.404,1.402v22.822
				c0,0.791-0.612,1.439-1.404,1.439c-0.756,0-1.403-0.648-1.403-1.439V583.852z"/>
			<path fill="#1A1A1A" d="M250.087,603.721l8.604-7.596c3.887-3.455,5.255-5.398,5.255-7.918c0-2.951-2.34-4.824-5.075-4.824
				c-2.664,0-4.464,1.297-6.264,3.672c-0.216,0.287-0.575,0.504-1.044,0.504c-0.72,0-1.296-0.576-1.296-1.295
				c0-0.289,0.108-0.576,0.288-0.793c2.088-2.916,4.392-4.643,8.531-4.643c4.535,0,7.811,3.023,7.811,7.127v0.072
				c0,3.67-1.943,5.939-6.371,9.789l-6.73,5.977h12.202c0.72,0,1.332,0.576,1.332,1.295c0,0.721-0.612,1.297-1.332,1.297h-15.154
				c-0.828,0-1.439-0.541-1.439-1.332C249.404,604.512,249.62,604.118,250.087,603.721z"/>
			<path fill="#1A1A1A" d="M271.795,603c-0.217-0.215-0.469-0.611-0.469-1.008c0-0.756,0.648-1.402,1.404-1.402
				c0.468,0,0.828,0.215,1.044,0.432c1.836,2.088,3.995,3.203,6.838,3.203c3.061,0,5.508-1.943,5.508-4.895v-0.072
				c0-3.133-2.916-4.859-7.055-4.859h-0.9c-0.684,0-1.26-0.541-1.26-1.225c0-0.359,0.18-0.721,0.576-1.115l7.344-8.316h-11.16
				c-0.72,0-1.332-0.539-1.332-1.26c0-0.719,0.612-1.295,1.332-1.295h13.751c0.791,0,1.367,0.504,1.367,1.225
				c0,0.574-0.289,0.971-0.684,1.402l-7.416,8.244c4.393,0.359,8.314,2.482,8.314,7.09v0.072c0,4.5-3.742,7.596-8.422,7.596
				C276.727,606.817,273.811,605.268,271.795,603z"/>
			<path fill="#1A1A1A" d="M307.002,600.409h-12.527c-0.828,0-1.439-0.574-1.439-1.367c0-0.504,0.18-0.9,0.541-1.367l13.102-15.982
				c0.432-0.539,0.828-0.863,1.584-0.863c0.863,0,1.512,0.646,1.512,1.475v15.73h2.844c0.648,0,1.225,0.541,1.225,1.225
				c0,0.646-0.576,1.15-1.225,1.15h-2.844v4.789c0,0.756-0.611,1.367-1.404,1.367c-0.756,0-1.367-0.611-1.367-1.367V600.409z
				 M307.002,598.034V585.04l-10.582,12.994H307.002z"/>
			<path fill="#1A1A1A" d="M318.342,603.542c-0.395-0.324-0.574-0.684-0.574-1.188c0-0.686,0.611-1.332,1.367-1.332
				c0.359,0,0.719,0.143,0.971,0.359c1.98,1.801,4.141,2.844,6.48,2.844c3.527,0,6.047-2.305,6.047-5.58v-0.07
				c0-3.168-2.592-5.293-6.264-5.293c-2.951,0-4.463,1.225-5.111,1.225c-0.539,0-0.936-0.217-1.439-0.539
				c-0.469-0.324-0.648-0.9-0.611-1.549l0.576-9.863c0.035-0.863,0.646-1.367,1.367-1.367h12.094c0.721,0,1.297,0.576,1.297,1.332
				c0,0.719-0.576,1.295-1.297,1.295h-10.869l-0.541,8.064c1.477-0.648,2.879-1.117,4.967-1.117c4.896,0,8.711,2.881,8.711,7.703
				v0.072c0,4.859-3.742,8.279-8.963,8.279C323.273,606.817,320.395,605.377,318.342,603.542z"/>
			<path fill="#1A1A1A" d="M343.002,604.26c-2.016-2.016-3.168-4.607-3.168-9.754v-0.072c0-7.666,3.889-13.678,10.475-13.678
				c2.629,0,4.68,0.828,6.553,2.23c0.432,0.289,0.684,0.648,0.684,1.189c0,0.756-0.611,1.367-1.367,1.367
				c-0.289,0-0.576-0.107-0.793-0.252c-1.656-1.26-3.203-1.943-5.219-1.943c-4.572,0-7.416,4.607-7.379,11.123
				c1.367-2.018,3.49-3.852,7.162-3.852c4.68,0,8.711,3.023,8.711,7.738v0.072c0,4.859-3.924,8.387-9.035,8.387
				C346.854,606.817,344.586,605.844,343.002,604.26z M355.744,598.538v-0.072c0-3.096-2.52-5.398-6.154-5.398
				c-3.779,0-6.299,2.699-6.299,5.508v0.07c0,3.205,2.664,5.652,6.371,5.652S355.744,601.741,355.744,598.538z"/>
		</g>
	</g>
	<g id="Layer_3">
		<polygon fill="#1A1A1A" points="392.429,534.385 392.429,588.292 407.574,582.018 417.667,606.385 425.493,603.144 
			415.399,578.777 430.546,572.502 		"/>
	</g>
</g>
<g id="Layer_9">
	<rect fill="none" width="541.468" height="683.667"/>
</g>
</svg>
