<svg xmlns="http://www.w3.org/2000/svg" width="648" height="666" viewBox="0 0 648 666"><defs><filter id="a" filterUnits="userSpaceOnUse" x="0" y="-24.501" width="648" height="699.003"><feColorMatrix values="-1 0 0 0 1 0 -1 0 0 1 0 0 -1 0 1 0 0 0 1 0" color-interpolation-filters="sRGB" result="source"/></filter></defs><mask maskUnits="userSpaceOnUse" x="0" y="-24.501" width="648" height="699.003" id="d"><g filter="url(#a)"><linearGradient id="b" gradientUnits="userSpaceOnUse" x1="314.588" y1="656.245" x2="314.588" y2="19.4"><stop offset="0" stop-color="#fff"/><stop offset=".031" stop-color="#DADADA"/><stop offset=".08" stop-color="#A7A7A7"/><stop offset=".131" stop-color="#7B7B7B"/><stop offset=".183" stop-color="#555"/><stop offset=".237" stop-color="#363636"/><stop offset=".294" stop-color="#1E1E1E"/><stop offset=".354" stop-color="#0D0D0D"/><stop offset=".419" stop-color="#030303"/><stop offset=".5"/><stop offset=".581" stop-color="#030303"/><stop offset=".646" stop-color="#0D0D0D"/><stop offset=".706" stop-color="#1E1E1E"/><stop offset=".762" stop-color="#363636"/><stop offset=".817" stop-color="#555"/><stop offset=".869" stop-color="#7B7B7B"/><stop offset=".92" stop-color="#A7A7A7"/><stop offset=".969" stop-color="#DADADA"/><stop offset="1" stop-color="#fff"/></linearGradient><path fill="url(#b)" d="M-31.894 19.4h692.965v636.845h-692.965z"/><linearGradient id="c" gradientUnits="userSpaceOnUse" x1="361" y1="300.438" x2="567" y2="300.438"><stop offset="0"/><stop offset="1" stop-color="#fff"/></linearGradient><path fill="url(#c)" d="M361-103.108h206v807.094h-206z"/><path fill="#fff" d="M-31.894-219.773h692.965v239.173h-692.965zm0 876.018h692.965v183.531h-692.965zm598.894-759.353h316v851.12h-316z"/></g></mask><g mask="url(#d)"><path fill="#fff" d="M8.611-17h570.833v684h-570.833z"/><path fill="#1A1A1A" d="M579.498 659.498h-570.833c2.482 2.519 4.965 5.037 7.448 7.556v-683.999l-7.556 7.447h570.834l-7.448-7.556v684.001c0 9.686 15.004 9.771 15.004.107v-683.999c0-4.065-3.342-7.556-7.448-7.556h-570.833c-4.065 0-7.556 3.341-7.556 7.447v684.001c0 4.064 3.342 7.556 7.448 7.556h570.834c9.684-.001 9.77-15.005.106-15.005z"/><path d="M0 0h648v666h-648z" fill="none"/></g><defs><filter id="e" filterUnits="userSpaceOnUse" x="33.054" y="229.859" width="591.003" height="390.041"><feColorMatrix values="-1 0 0 0 1 0 -1 0 0 1 0 0 -1 0 1 0 0 0 1 0" color-interpolation-filters="sRGB" result="source"/></filter></defs><mask maskUnits="userSpaceOnUse" x="33.054" y="229.859" width="591.003" height="390.041" id="h"><g filter="url(#e)"><linearGradient id="f" gradientUnits="userSpaceOnUse" x1="361" y1="284.723" x2="567" y2="284.723"><stop offset="0"/><stop offset="1" stop-color="#fff"/></linearGradient><path fill="url(#f)" d="M361-137.277h206v844h-206z"/><path d="M-193-137.277h554v844h-554z"/><path fill="#fff" d="M567-137.277h358v844h-358z"/><linearGradient id="g" gradientUnits="userSpaceOnUse" x1="387" y1="290.723" x2="593" y2="290.723"><stop offset="0"/><stop offset="1" stop-color="#fff"/></linearGradient><path fill="url(#g)" d="M387-131.277h206v844h-206z"/><path d="M-107-131.277h494v844h-494z"/><path fill="#fff" d="M593-131.277h396v844h-396z"/></g></mask><g mask="url(#h)"><path fill="#fff" d="M40.555 237.361h576v72h-576z"/><path fill="#1A1A1A" d="M616.608 301.859h-576l7.447 7.556v-72c-2.519 2.482-5.037 4.965-7.556 7.448h576.001l-7.448-7.556v72c0 9.687 15.004 9.772 15.004.108v-72c0-4.065-3.342-7.556-7.448-7.556h-576c-4.065 0-7.556 3.342-7.556 7.448v72c0 4.065 3.341 7.556 7.447 7.556h576.001c9.687 0 9.772-15.004.108-15.004z"/><path fill="#fff" d="M40.555 390.875h576v72h-576z"/><path fill="#1A1A1A" d="M616.608 455.373h-576l7.447 7.556v-72l-7.556 7.448h576.001c-2.483-2.519-4.966-5.037-7.448-7.556v72c0 9.686 15.004 9.771 15.004.107v-72c0-4.064-3.342-7.556-7.448-7.556h-576c-4.065 0-7.556 3.342-7.556 7.448v72c0 4.064 3.341 7.556 7.447 7.556h576.001c9.687.001 9.772-15.003.108-15.003z"/><path fill="#fff" d="M40.555 540.398h576v72h-576z"/><path fill="#1A1A1A" d="M616.608 604.896h-576l7.447 7.556v-72c-2.519 2.483-5.037 4.966-7.556 7.448h576.001c-2.483-2.519-4.966-5.037-7.448-7.556v72c0 9.686 15.004 9.771 15.004.107v-72c0-4.064-3.342-7.556-7.448-7.556h-576c-4.065 0-7.556 3.342-7.556 7.448v72c0 4.064 3.341 7.556 7.447 7.556h576.001c9.687.001 9.772-15.003.108-15.003z"/></g><path d="M43.916 144.171c-.816-.576-1.392-1.632-1.392-2.784 0-1.92 1.536-3.408 3.456-3.408.96 0 1.632.336 2.112.672 2.544 1.872 5.329 3.024 8.593 3.024 3.024 0 4.849-1.2 4.849-3.168v-.096c0-1.872-1.152-2.832-6.769-4.272-6.769-1.729-11.137-3.601-11.137-10.273v-.096c0-6.097 4.896-10.129 11.761-10.129 4.08 0 7.632 1.056 10.657 2.976.816.48 1.632 1.488 1.632 2.929 0 1.92-1.536 3.408-3.457 3.408-.72 0-1.296-.192-1.872-.528-2.448-1.44-4.752-2.256-7.057-2.256-2.833 0-4.32 1.296-4.32 2.928v.096c0 2.208 1.44 2.928 7.249 4.417 6.816 1.776 10.657 4.225 10.657 10.081v.096c0 6.673-5.088 10.417-12.337 10.417-4.416-.002-8.881-1.346-12.625-4.034zm30.624-28.13c0-2.016 1.632-3.648 3.648-3.648s3.648 1.632 3.648 3.648v9.601c1.68-2.16 3.84-4.128 7.537-4.128 5.521 0 8.737 3.648 8.737 9.553v13.297c0 2.016-1.632 3.648-3.648 3.648s-3.648-1.632-3.648-3.648v-10.994c0-3.457-1.632-5.232-4.417-5.232-2.784 0-4.56 1.776-4.56 5.232v10.993c0 2.016-1.632 3.648-3.648 3.648s-3.648-1.632-3.648-3.648v-28.322zm29.808-.192c0-2.112 1.776-3.409 4.08-3.409s4.081 1.296 4.081 3.409v.096c0 2.112-1.776 3.457-4.081 3.457s-4.08-1.344-4.08-3.457v-.096zm.431 9.504c0-2.016 1.632-3.648 3.648-3.648s3.648 1.632 3.648 3.648v19.01c0 2.016-1.632 3.648-3.648 3.648s-3.648-1.632-3.648-3.648v-19.01zm14.159 0c0-2.016 1.632-3.648 3.648-3.648s3.648 1.632 3.648 3.648v.336c1.776-2.4 4.224-4.177 8.017-4.177 6 0 11.713 4.705 11.713 13.297v.096c0 8.593-5.616 13.297-11.713 13.297-3.888 0-6.289-1.776-8.017-3.84v7.681c0 2.016-1.632 3.648-3.648 3.648s-3.648-1.632-3.648-3.648v-26.69zm19.73 9.553v-.096c0-4.272-2.88-7.104-6.289-7.104s-6.241 2.832-6.241 7.104v.096c0 4.272 2.833 7.104 6.241 7.104s6.289-2.783 6.289-7.104zm12.67-9.553c0-2.016 1.632-3.648 3.648-3.648s3.648 1.632 3.648 3.648v.336c1.776-2.4 4.224-4.177 8.017-4.177 6 0 11.713 4.705 11.713 13.297v.096c0 8.593-5.616 13.297-11.713 13.297-3.888 0-6.289-1.776-8.017-3.84v7.681c0 2.016-1.632 3.648-3.648 3.648s-3.648-1.632-3.648-3.648v-26.69zm19.73 9.553v-.096c0-4.272-2.88-7.104-6.289-7.104s-6.241 2.832-6.241 7.104v.096c0 4.272 2.833 7.104 6.241 7.104s6.289-2.783 6.289-7.104zm12.574-19.057c0-2.112 1.776-3.409 4.08-3.409s4.081 1.296 4.081 3.409v.096c0 2.112-1.776 3.457-4.081 3.457s-4.08-1.344-4.08-3.457v-.096zm.431 9.504c0-2.016 1.632-3.648 3.648-3.648s3.648 1.632 3.648 3.648v19.01c0 2.016-1.632 3.648-3.648 3.648s-3.648-1.632-3.648-3.648v-19.01zm14.159 0c0-2.016 1.632-3.648 3.649-3.648 2.016 0 3.647 1.632 3.647 3.648v.288c1.681-2.16 3.841-4.128 7.537-4.128 5.521 0 8.736 3.648 8.736 9.553v13.297c0 2.016-1.632 3.648-3.648 3.648s-3.647-1.632-3.647-3.648v-10.993c0-3.457-1.633-5.232-4.417-5.232s-4.561 1.776-4.561 5.232v10.993c0 2.016-1.632 3.648-3.647 3.648-2.017 0-3.649-1.632-3.649-3.648v-19.01zm32.017 28.371c-1.249-.48-2.064-1.488-2.064-2.832 0-1.632 1.344-2.977 2.976-2.977.48 0 .864.096 1.2.24 2.112.96 4.369 1.536 7.105 1.536 4.992 0 7.344-2.4 7.344-7.009v-1.248c-2.16 2.592-4.512 4.176-8.4 4.176-6 0-11.425-4.368-11.425-12.001v-.096c0-7.681 5.521-12.001 11.425-12.001 3.984 0 6.337 1.68 8.305 3.84v-.048c0-1.968 1.632-3.6 3.648-3.6s3.648 1.632 3.648 3.648v16.562c0 4.608-1.104 7.969-3.265 10.129-2.4 2.4-6.097 3.457-11.089 3.457-3.408 0-6.385-.576-9.408-1.776zm16.56-20.114v-.096c0-3.504-2.736-5.952-6.288-5.952-3.553 0-6.24 2.448-6.24 5.952v.096c0 3.552 2.688 5.953 6.24 5.953 3.552-.001 6.288-2.449 6.288-5.953zm27.022 9.361l11.712-26.45c.816-1.824 2.305-2.928 4.32-2.928h.434c2.016 0 3.455 1.104 4.271 2.928l11.713 26.45c.24.528.385 1.008.385 1.488 0 1.968-1.537 3.552-3.506 3.552-1.727 0-2.879-1.008-3.551-2.544l-2.256-5.28h-14.787l-2.352 5.521c-.623 1.44-1.871 2.304-3.408 2.304-1.92 0-3.408-1.536-3.408-3.457.001-.528.192-1.056.433-1.584zm20.786-9.313l-4.656-11.089-4.658 11.089h9.314zm42.481 10.705c0 2.016-1.633 3.648-3.648 3.648-2.018 0-3.648-1.632-3.648-3.648v-.336c-1.777 2.4-4.225 4.176-8.018 4.176-6 0-11.713-4.704-11.713-13.297v-.096c0-8.593 5.617-13.297 11.713-13.297 3.889 0 6.289 1.776 8.018 3.84v-9.312c0-2.016 1.631-3.648 3.648-3.648 2.016 0 3.648 1.632 3.648 3.648v28.322zm-19.731-9.553v.096c0 4.272 2.881 7.104 6.289 7.104s6.24-2.833 6.24-7.104v-.096c0-4.272-2.832-7.104-6.24-7.104s-6.289 2.784-6.289 7.104zm52.129 9.553c0 2.016-1.631 3.648-3.648 3.648-2.016 0-3.648-1.632-3.648-3.648v-.336c-1.775 2.4-4.225 4.176-8.016 4.176-6.002 0-11.713-4.704-11.713-13.297v-.096c0-8.593 5.615-13.297 11.713-13.297 3.889 0 6.287 1.776 8.016 3.84v-9.312c0-2.016 1.633-3.648 3.648-3.648 2.018 0 3.648 1.632 3.648 3.648v28.322zm-19.728-9.553v.096c0 4.272 2.879 7.104 6.287 7.104s6.24-2.833 6.24-7.104v-.096c0-4.272-2.832-7.104-6.24-7.104s-6.287 2.784-6.287 7.104zm26.253-9.457c0-2.016 1.633-3.648 3.648-3.648s3.648 1.632 3.648 3.648v1.152c1.057-2.496 2.783-4.8 4.943-4.8 2.258 0 3.553 1.488 3.553 3.552 0 1.92-1.248 3.072-2.736 3.408-3.695.864-5.76 3.696-5.76 8.881v6.816c0 2.016-1.633 3.648-3.648 3.648s-3.648-1.632-3.648-3.648v-19.009zm31.538 22.946c-7.729 0-13.441-5.425-13.441-13.297v-.096c0-7.345 5.232-13.394 12.721-13.394 8.594 0 12.385 7.057 12.385 12.385 0 2.112-1.488 3.504-3.408 3.504h-14.449c.721 3.312 3.025 5.041 6.289 5.041 2.016 0 3.697-.624 5.184-1.729.529-.384 1.01-.576 1.777-.576 1.633 0 2.832 1.248 2.832 2.88 0 .96-.432 1.68-.961 2.16-2.258 1.922-5.185 3.122-8.929 3.122zm4.705-15.457c-.434-3.264-2.354-5.473-5.426-5.473-3.023 0-4.992 2.161-5.568 5.473h10.994zm11.853 12.433c-.768-.48-1.393-1.344-1.393-2.496 0-1.632 1.248-2.88 2.881-2.88.527 0 1.057.144 1.439.384 2.449 1.536 4.896 2.304 6.961 2.304 2.111 0 3.072-.768 3.072-1.92v-.096c0-1.584-2.496-2.112-5.328-2.976-3.6-1.056-7.682-2.736-7.682-7.729v-.096c0-5.232 4.225-8.161 9.41-8.161 2.688 0 5.473.72 7.969 1.968 1.055.528 1.727 1.488 1.727 2.736 0 1.632-1.295 2.88-2.928 2.88-.527 0-.863-.096-1.344-.336-2.064-1.008-4.033-1.632-5.568-1.632-1.775 0-2.688.768-2.688 1.776v.096c0 1.44 2.447 2.112 5.232 3.072 3.6 1.2 7.775 2.928 7.775 7.632v.096c0 5.712-4.271 8.305-9.84 8.305-3.166.001-6.574-.911-9.695-2.927zm23.615 0c-.768-.48-1.391-1.344-1.391-2.496 0-1.632 1.248-2.88 2.879-2.88.529 0 1.057.144 1.441.384 2.447 1.536 4.896 2.304 6.961 2.304 2.111 0 3.072-.768 3.072-1.92v-.096c0-1.584-2.498-2.112-5.33-2.976-3.6-1.056-7.68-2.736-7.68-7.729v-.096c0-5.232 4.225-8.161 9.408-8.161 2.689 0 5.473.72 7.969 1.968 1.057.528 1.729 1.488 1.729 2.736 0 1.632-1.297 2.88-2.928 2.88-.529 0-.865-.096-1.344-.336-2.064-1.008-4.033-1.632-5.57-1.632-1.775 0-2.688.768-2.688 1.776v.096c0 1.44 2.449 2.112 5.232 3.072 3.6 1.2 7.777 2.928 7.777 7.632v.096c0 5.712-4.273 8.305-9.842 8.305-3.165.001-6.573-.911-9.695-2.927zm-403.997-92.043v-.12c0-11.939 9-21.719 21.899-21.719 6.3 0 10.56 1.68 14.04 4.26.96.72 1.8 2.04 1.8 3.66 0 2.52-2.04 4.5-4.56 4.5-1.26 0-2.1-.48-2.76-.9-2.58-1.92-5.28-3-8.58-3-7.08 0-12.18 5.88-12.18 13.08v.12c0 7.2 4.98 13.199 12.18 13.199 3.9 0 6.479-1.2 9.12-3.3.72-.6 1.68-1.02 2.76-1.02 2.34 0 4.32 1.92 4.32 4.26 0 1.44-.72 2.58-1.56 3.3-3.78 3.3-8.219 5.279-14.939 5.279-12.36 0-21.54-9.539-21.54-21.599zm46.14-16.859c0-2.58 2.04-4.62 4.62-4.62s4.62 2.04 4.62 4.62v12.359h17.04v-12.359c0-2.58 2.04-4.62 4.62-4.62s4.62 2.04 4.62 4.62v33.479c0 2.58-2.04 4.62-4.62 4.62s-4.62-2.04-4.62-4.62v-12.6h-17.04v12.6c0 2.58-2.04 4.62-4.62 4.62s-4.62-2.04-4.62-4.62v-33.479zm45.6 33.119v-32.759c0-2.58 2.04-4.62 4.62-4.62h23.279c2.28 0 4.14 1.86 4.14 4.14s-1.86 4.08-4.14 4.08h-18.719v8.52h16.02c2.28 0 4.14 1.86 4.14 4.14s-1.86 4.08-4.14 4.08h-16.02v8.819h19.02c2.28 0 4.14 1.86 4.14 4.14 0 2.28-1.86 4.08-4.14 4.08h-23.579c-2.581-.001-4.621-2.041-4.621-4.62zm38.339-16.26v-.12c0-11.939 9-21.719 21.899-21.719 6.3 0 10.56 1.68 14.04 4.26.96.72 1.8 2.04 1.8 3.66 0 2.52-2.04 4.5-4.56 4.5-1.26 0-2.1-.48-2.76-.9-2.58-1.92-5.28-3-8.58-3-7.08 0-12.18 5.88-12.18 13.08v.12c0 7.2 4.98 13.199 12.18 13.199 3.9 0 6.479-1.2 9.12-3.3.72-.6 1.68-1.02 2.76-1.02 2.34 0 4.32 1.92 4.32 4.26 0 1.44-.72 2.58-1.56 3.3-3.78 3.3-8.219 5.279-14.939 5.279-12.36 0-21.54-9.539-21.54-21.599zm46.14-16.859c0-2.58 2.04-4.62 4.62-4.62s4.62 2.04 4.62 4.62v14.099l17.039-16.919c1.14-1.14 2.279-1.8 3.899-1.8 2.58 0 4.26 1.98 4.26 4.26 0 1.44-.659 2.52-1.68 3.48l-11.819 11.04 12.899 16.199c.72.9 1.26 1.86 1.26 3.24 0 2.58-1.979 4.5-4.68 4.5-1.8 0-2.88-.9-3.899-2.22l-12-15.719-5.279 4.919v8.4c0 2.58-2.04 4.62-4.62 4.62s-4.62-2.04-4.62-4.62v-33.479zm39.059 16.859v-.12c0-11.939 9.42-21.719 22.379-21.719 12.959 0 22.26 9.66 22.26 21.599v.12c0 11.939-9.42 21.719-22.381 21.719-12.958 0-22.258-9.659-22.258-21.599zm34.979 0v-.12c0-7.2-5.279-13.2-12.721-13.2-7.439 0-12.598 5.88-12.598 13.08v.12c0 7.2 5.279 13.199 12.719 13.199 7.44.001 12.6-5.879 12.6-13.079zm17.221 2.88v-19.739c0-2.58 2.041-4.62 4.621-4.62 2.578 0 4.619 2.04 4.619 4.62v19.499c0 6.84 3.42 10.379 9.059 10.379 5.641 0 9.061-3.419 9.061-10.08v-19.798c0-2.58 2.039-4.62 4.619-4.62s4.621 2.04 4.621 4.62v19.439c0 12.72-7.141 18.959-18.42 18.959s-18.18-6.299-18.18-18.659zm55.799-15.479h-8.879c-2.34 0-4.26-1.92-4.26-4.26s1.92-4.26 4.26-4.26h26.998c2.34 0 4.26 1.92 4.26 4.26s-1.92 4.26-4.26 4.26h-8.879v29.219c0 2.58-2.039 4.62-4.619 4.62s-4.621-2.04-4.621-4.62v-29.219zM43.579 198.765c0-1.548 1.224-2.771 2.772-2.771h.576c1.332 0 2.124.647 2.88 1.62l10.69 14.038v-12.994c0-1.512 1.224-2.736 2.736-2.736s2.735 1.225 2.735 2.736v20.049c0 1.548-1.224 2.771-2.771 2.771h-.18c-1.332 0-2.124-.647-2.879-1.619l-11.086-14.542v13.498c0 1.512-1.224 2.735-2.736 2.735s-2.736-1.224-2.736-2.735v-20.05zm26.713 17.026v-.072c0-4.212 3.204-6.155 7.775-6.155 1.944 0 3.348.324 4.715.792v-.324c0-2.268-1.404-3.527-4.139-3.527-1.512 0-2.736.216-3.78.54-.324.107-.54.144-.792.144-1.26 0-2.268-.972-2.268-2.231 0-.972.612-1.8 1.476-2.124 1.728-.647 3.599-1.008 6.155-1.008 2.988 0 5.147.792 6.516 2.16 1.439 1.439 2.087 3.563 2.087 6.155v8.782c0 1.477-1.188 2.628-2.664 2.628-1.584 0-2.627-1.115-2.627-2.268v-.036c-1.332 1.476-3.168 2.448-5.832 2.448-3.635-.001-6.622-2.089-6.622-5.904zm12.562-1.26v-.973c-.936-.432-2.16-.72-3.492-.72-2.34 0-3.779.937-3.779 2.664v.072c0 1.476 1.224 2.339 2.987 2.339 2.556.001 4.284-1.402 4.284-3.382zm9.901-9.97c0-1.513 1.224-2.736 2.735-2.736 1.512 0 2.736 1.224 2.736 2.736v.216c1.26-1.62 2.916-3.096 5.688-3.096 2.52 0 4.427 1.115 5.435 3.06 1.692-1.979 3.708-3.06 6.335-3.06 4.067 0 6.515 2.447 6.515 7.091v10.043c0 1.512-1.224 2.735-2.736 2.735s-2.735-1.224-2.735-2.735v-8.243c0-2.592-1.152-3.924-3.204-3.924s-3.312 1.332-3.312 3.924v8.243c0 1.512-1.224 2.735-2.735 2.735s-2.736-1.224-2.736-2.735v-8.243c0-2.592-1.152-3.924-3.204-3.924s-3.312 1.332-3.312 3.924v8.243c0 1.512-1.224 2.735-2.736 2.735-1.512 0-2.735-1.224-2.735-2.735v-14.254zm43.343 17.205c-5.795 0-10.079-4.067-10.079-9.971v-.071c0-5.508 3.924-10.043 9.539-10.043 6.443 0 9.287 5.291 9.287 9.287 0 1.583-1.116 2.627-2.556 2.627h-10.834c.54 2.484 2.268 3.779 4.715 3.779 1.512 0 2.771-.468 3.888-1.295.396-.288.756-.433 1.332-.433 1.224 0 2.124.937 2.124 2.16 0 .72-.324 1.26-.72 1.619-1.693 1.441-3.889 2.341-6.696 2.341zm3.527-11.59c-.324-2.448-1.764-4.104-4.067-4.104-2.268 0-3.744 1.619-4.176 4.104h8.243zm-73.284 51.749c0-.792.648-1.44 1.404-1.44h7.343c7.919 0 13.39 5.436 13.39 12.526v.072c0 7.092-5.471 12.599-13.39 12.599h-7.343c-.756 0-1.404-.647-1.404-1.439v-22.318zm8.747 21.129c6.371 0 10.438-4.319 10.438-9.898v-.072c0-5.579-4.067-9.971-10.438-9.971h-5.903v19.941h5.903zm18.937-21.814c0-.899.72-1.476 1.62-1.476.936 0 1.656.576 1.656 1.476v.469c0 .863-.72 1.476-1.656 1.476-.9 0-1.62-.612-1.62-1.476v-.469zm.252 7.056c0-.756.612-1.404 1.368-1.404.792 0 1.404.612 1.404 1.404v16.162c0 .792-.576 1.403-1.368 1.403s-1.404-.611-1.404-1.403v-16.162zm8.208 15.406c-.252-.181-.504-.54-.504-1.008 0-.648.54-1.188 1.224-1.188.252 0 .504.072.684.216 1.908 1.296 3.887 1.98 5.903 1.98 2.231 0 3.851-1.152 3.851-2.952v-.071c0-1.872-2.195-2.592-4.643-3.276-2.916-.827-6.155-1.835-6.155-5.255v-.072c0-3.203 2.664-5.327 6.335-5.327 1.98 0 4.14.612 5.939 1.584.36.216.684.611.684 1.151 0 .648-.54 1.188-1.224 1.188-.252 0-.468-.072-.612-.145-1.584-.899-3.275-1.439-4.859-1.439-2.196 0-3.6 1.151-3.6 2.699v.072c0 1.764 2.304 2.447 4.788 3.203 2.879.864 5.975 1.98 5.975 5.328v.071c0 3.528-2.916 5.58-6.623 5.58-2.448.001-5.148-.899-7.163-2.339zm17.783-7.235v-.072c0-5.255 4.104-9.719 9.539-9.719 3.096 0 5.184 1.188 6.839 2.7.216.18.432.54.432.972 0 .756-.612 1.332-1.332 1.332-.36 0-.684-.145-.9-.324-1.332-1.224-2.844-2.231-5.075-2.231-3.78 0-6.659 3.203-6.659 7.199v.071c0 4.032 2.952 7.235 6.839 7.235 2.124 0 3.815-.972 5.184-2.268.18-.18.432-.36.792-.36.684 0 1.26.612 1.26 1.26 0 .324-.144.648-.36.864-1.764 1.764-3.887 2.987-7.019 2.987-5.436 0-9.54-4.426-9.54-9.646zm21.708-8.171c0-.756.612-1.404 1.368-1.404.792 0 1.404.612 1.404 1.404v3.491c1.368-3.096 4.067-4.967 6.407-4.967.828 0 1.368.611 1.368 1.403 0 .756-.504 1.296-1.224 1.404-3.6.432-6.551 3.131-6.551 8.495v6.335c0 .756-.576 1.403-1.368 1.403s-1.404-.611-1.404-1.403v-16.161zm21.923 17.817c-5.111 0-9.287-3.923-9.287-9.683v-.072c0-5.363 3.78-9.683 8.927-9.683 5.507 0 8.639 4.5 8.639 9.431 0 .756-.612 1.296-1.296 1.296h-13.463c.396 4.032 3.24 6.3 6.552 6.3 2.304 0 3.995-.9 5.363-2.16.216-.18.468-.324.792-.324.684 0 1.224.54 1.224 1.188 0 .324-.144.647-.432.899-1.763 1.693-3.851 2.808-7.019 2.808zm5.508-10.762c-.288-3.383-2.232-6.335-5.939-6.335-3.24 0-5.688 2.7-6.048 6.335h11.987zm15.803 10.762c-5.111 0-9.287-3.923-9.287-9.683v-.072c0-5.363 3.78-9.683 8.928-9.683 5.507 0 8.639 4.5 8.639 9.431 0 .756-.612 1.296-1.296 1.296h-13.463c.396 4.032 3.24 6.3 6.552 6.3 2.304 0 3.995-.9 5.363-2.16.216-.18.468-.324.792-.324.684 0 1.224.54 1.224 1.188 0 .324-.144.647-.432.899-1.764 1.693-3.852 2.808-7.02 2.808zm5.508-10.762c-.288-3.383-2.232-6.335-5.939-6.335-3.24 0-5.688 2.7-6.048 6.335h11.987zm8.642 5.399v-11.23h-1.512c-.647 0-1.224-.576-1.224-1.224 0-.684.576-1.224 1.224-1.224h1.512v-4.392c0-.756.576-1.404 1.368-1.404.756 0 1.403.648 1.403 1.404v4.392h4.823c.685 0 1.261.575 1.261 1.224 0 .684-.576 1.224-1.261 1.224h-4.823v10.871c0 2.268 1.26 3.096 3.132 3.096.972 0 1.476-.252 1.691-.252.648 0 1.188.539 1.188 1.188 0 .504-.324.899-.792 1.08-.792.323-1.656.504-2.735.504-2.988-.001-5.255-1.477-5.255-5.257zm24.839-18.825c0-.792.648-1.44 1.404-1.44h7.343c7.919 0 13.391 5.436 13.391 12.526v.072c0 7.092-5.472 12.599-13.391 12.599h-7.343c-.756 0-1.404-.647-1.404-1.439v-22.318zm8.747 21.129c6.371 0 10.438-4.319 10.438-9.898v-.072c0-5.579-4.067-9.971-10.438-9.971h-5.903v19.941h5.903zm18.937-14.758c0-.756.612-1.404 1.368-1.404.791 0 1.403.612 1.403 1.404v3.491c1.368-3.096 4.067-4.967 6.407-4.967.828 0 1.368.611 1.368 1.403 0 .756-.504 1.296-1.225 1.404-3.599.432-6.551 3.131-6.551 8.495v6.335c0 .756-.576 1.403-1.368 1.403-.791 0-1.403-.611-1.403-1.403v-16.161zm12.636 8.171v-.072c0-5.255 4.104-9.719 9.719-9.719 5.581 0 9.684 4.392 9.684 9.647v.071c0 5.256-4.141 9.719-9.755 9.719-5.58 0-9.648-4.391-9.648-9.646zm16.559 0v-.072c0-3.995-2.988-7.271-6.912-7.271-4.032 0-6.804 3.275-6.804 7.199v.071c0 3.996 2.952 7.235 6.875 7.235 4.033.001 6.841-3.238 6.841-7.162zm7.85-8.171c0-.792.611-1.404 1.367-1.404.791 0 1.404.612 1.404 1.404v2.52c1.512-2.231 3.707-4.14 7.127-4.14 4.463 0 8.891 3.527 8.891 9.647v.071c0 6.084-4.391 9.683-8.891 9.683-3.455 0-5.688-1.871-7.127-3.959v8.099c0 .792-.576 1.404-1.369 1.404-.791 0-1.402-.612-1.402-1.404v-21.921zm15.945 8.135v-.072c0-4.391-3.023-7.198-6.551-7.198-3.455 0-6.732 2.915-6.732 7.163v.071c0 4.319 3.277 7.199 6.732 7.199 3.6 0 6.551-2.663 6.551-7.163zM43.075 372.184c-.612-.432-1.044-1.224-1.044-2.087 0-1.44 1.152-2.556 2.592-2.556.72 0 1.224.252 1.584.504 1.908 1.403 3.996 2.268 6.443 2.268 2.268 0 3.635-.9 3.635-2.376v-.072c0-1.403-.864-2.123-5.075-3.203-5.076-1.296-8.351-2.7-8.351-7.703v-.072c0-4.571 3.671-7.595 8.819-7.595 3.06 0 5.723.792 7.991 2.231.612.36 1.224 1.116 1.224 2.196 0 1.439-1.152 2.556-2.592 2.556-.54 0-.972-.145-1.404-.396-1.835-1.08-3.563-1.691-5.291-1.691-2.124 0-3.24.972-3.24 2.195v.072c0 1.655 1.08 2.195 5.435 3.312 5.112 1.332 7.991 3.168 7.991 7.559v.072c0 5.004-3.815 7.812-9.251 7.812-3.311-.002-6.658-1.01-9.466-3.026zm23.689-2.808v-9.143h-.18c-1.296 0-2.339-1.044-2.339-2.34s1.043-2.34 2.339-2.34h.18v-2.411c0-1.512 1.224-2.736 2.735-2.736 1.512 0 2.736 1.225 2.736 2.736v2.411h2.412c1.296 0 2.34 1.044 2.34 2.34s-1.044 2.34-2.34 2.34h-2.412v8.243c0 1.26.54 1.872 1.764 1.872l.648-.036c1.224 0 2.268 1.008 2.268 2.268 0 .972-.648 1.764-1.404 2.052-1.008.396-1.944.54-3.132.54-3.348 0-5.615-1.332-5.615-5.796zm14.04-11.302c0-1.513 1.224-2.736 2.735-2.736 1.512 0 2.736 1.224 2.736 2.736v.863c.792-1.872 2.088-3.6 3.708-3.6 1.692 0 2.664 1.116 2.664 2.664 0 1.439-.936 2.304-2.052 2.556-2.771.647-4.319 2.771-4.319 6.659v5.111c0 1.512-1.224 2.735-2.736 2.735-1.512 0-2.735-1.224-2.735-2.735v-14.253zm23.65 17.205c-5.795 0-10.079-4.067-10.079-9.971v-.071c0-5.508 3.924-10.043 9.539-10.043 6.443 0 9.287 5.291 9.287 9.287 0 1.583-1.116 2.627-2.556 2.627h-10.834c.54 2.484 2.268 3.779 4.715 3.779 1.512 0 2.771-.468 3.888-1.295.396-.288.756-.433 1.332-.433 1.224 0 2.124.937 2.124 2.16 0 .72-.324 1.26-.72 1.619-1.692 1.442-3.888 2.341-6.696 2.341zm3.528-11.59c-.324-2.448-1.764-4.104-4.067-4.104-2.268 0-3.744 1.619-4.176 4.104h8.243zm18.54 11.59c-5.795 0-10.079-4.067-10.079-9.971v-.071c0-5.508 3.924-10.043 9.539-10.043 6.443 0 9.287 5.291 9.287 9.287 0 1.583-1.116 2.627-2.556 2.627h-10.834c.54 2.484 2.268 3.779 4.715 3.779 1.512 0 2.771-.468 3.887-1.295.396-.288.756-.433 1.332-.433 1.224 0 2.124.937 2.124 2.16 0 .72-.324 1.26-.72 1.619-1.692 1.442-3.887 2.341-6.695 2.341zm3.528-11.59c-.324-2.448-1.764-4.104-4.067-4.104-2.268 0-3.744 1.619-4.176 4.104h8.243zm10.297 5.687v-9.143h-.18c-1.296 0-2.339-1.044-2.339-2.34s1.043-2.34 2.339-2.34h.18v-2.411c0-1.512 1.224-2.736 2.735-2.736 1.512 0 2.736 1.225 2.736 2.736v2.411h2.412c1.296 0 2.34 1.044 2.34 2.34s-1.044 2.34-2.34 2.34h-2.412v8.243c0 1.26.54 1.872 1.764 1.872l.648-.036c1.224 0 2.268 1.008 2.268 2.268 0 .972-.648 1.764-1.404 2.052-1.008.396-1.944.54-3.132.54-3.348 0-5.615-1.332-5.615-5.796zm24.011 1.908l8.783-19.834c.612-1.367 1.729-2.195 3.24-2.195h.323c1.513 0 2.592.828 3.204 2.195l8.783 19.834c.18.396.287.756.287 1.116 0 1.476-1.151 2.663-2.627 2.663-1.296 0-2.16-.756-2.664-1.907l-1.691-3.96h-11.087l-1.764 4.14c-.468 1.08-1.404 1.728-2.556 1.728-1.44 0-2.556-1.151-2.556-2.592.001-.396.145-.792.325-1.188zm15.586-6.983l-3.492-8.314-3.491 8.314h6.983zm31.86 8.027c0 1.512-1.225 2.735-2.736 2.735s-2.735-1.224-2.735-2.735v-.252c-1.332 1.8-3.168 3.132-6.011 3.132-4.5 0-8.783-3.528-8.783-9.971v-.072c0-6.443 4.211-9.971 8.783-9.971 2.915 0 4.715 1.332 6.011 2.88v-6.983c0-1.512 1.224-2.736 2.735-2.736s2.736 1.225 2.736 2.736v21.237zm-14.795-7.163v.072c0 3.203 2.16 5.327 4.716 5.327s4.68-2.124 4.68-5.327v-.072c0-3.204-2.124-5.327-4.68-5.327s-4.716 2.087-4.716 5.327zm39.095 7.163c0 1.512-1.225 2.735-2.736 2.735s-2.735-1.224-2.735-2.735v-.252c-1.332 1.8-3.168 3.132-6.012 3.132-4.499 0-8.782-3.528-8.782-9.971v-.072c0-6.443 4.211-9.971 8.782-9.971 2.916 0 4.716 1.332 6.012 2.88v-6.983c0-1.512 1.224-2.736 2.735-2.736s2.736 1.225 2.736 2.736v21.237zm-14.795-7.163v.072c0 3.203 2.16 5.327 4.716 5.327s4.68-2.124 4.68-5.327v-.072c0-3.204-2.124-5.327-4.68-5.327s-4.716 2.087-4.716 5.327zm19.692-7.091c0-1.513 1.225-2.736 2.736-2.736s2.735 1.224 2.735 2.736v.863c.792-1.872 2.088-3.6 3.708-3.6 1.691 0 2.663 1.116 2.663 2.664 0 1.439-.936 2.304-2.052 2.556-2.771.647-4.319 2.771-4.319 6.659v5.111c0 1.512-1.224 2.735-2.735 2.735s-2.736-1.224-2.736-2.735v-14.253zm23.651 17.205c-5.796 0-10.079-4.067-10.079-9.971v-.071c0-5.508 3.924-10.043 9.539-10.043 6.443 0 9.287 5.291 9.287 9.287 0 1.583-1.116 2.627-2.556 2.627h-10.835c.54 2.484 2.268 3.779 4.715 3.779 1.513 0 2.772-.468 3.888-1.295.396-.288.756-.433 1.332-.433 1.224 0 2.124.937 2.124 2.16 0 .72-.324 1.26-.72 1.619-1.692 1.442-3.887 2.341-6.695 2.341zm3.528-11.59c-.324-2.448-1.764-4.104-4.067-4.104-2.268 0-3.744 1.619-4.176 4.104h8.243zm8.892 9.323c-.575-.359-1.044-1.008-1.044-1.872 0-1.224.937-2.159 2.16-2.159.396 0 .792.108 1.08.288 1.836 1.151 3.671 1.728 5.219 1.728 1.584 0 2.304-.576 2.304-1.439v-.072c0-1.188-1.871-1.584-3.995-2.231-2.699-.792-5.759-2.052-5.759-5.796v-.071c0-3.924 3.167-6.119 7.055-6.119 2.016 0 4.104.539 5.976 1.476.792.396 1.296 1.115 1.296 2.052 0 1.224-.973 2.159-2.196 2.159-.396 0-.647-.071-1.008-.252-1.548-.756-3.023-1.224-4.176-1.224-1.331 0-2.016.576-2.016 1.332v.072c0 1.079 1.836 1.583 3.924 2.304 2.699.899 5.831 2.195 5.831 5.723v.072c0 4.283-3.203 6.228-7.379 6.228-2.376-.003-4.932-.688-7.272-2.199zm17.712 0c-.575-.359-1.044-1.008-1.044-1.872 0-1.224.937-2.159 2.16-2.159.396 0 .792.108 1.08.288 1.836 1.151 3.671 1.728 5.219 1.728 1.584 0 2.304-.576 2.304-1.439v-.072c0-1.188-1.871-1.584-3.995-2.231-2.699-.792-5.759-2.052-5.759-5.796v-.071c0-3.924 3.167-6.119 7.055-6.119 2.016 0 4.104.539 5.976 1.476.792.396 1.296 1.115 1.296 2.052 0 1.224-.973 2.159-2.196 2.159-.396 0-.647-.071-1.008-.252-1.548-.756-3.023-1.224-4.176-1.224-1.331 0-2.016.576-2.016 1.332v.072c0 1.079 1.836 1.583 3.924 2.304 2.699.899 5.831 2.195 5.831 5.723v.072c0 4.283-3.203 6.228-7.379 6.228-2.376-.003-4.932-.688-7.272-2.199zm-225.563 43.65l-3.528 1.152c-.216.071-.432.107-.612.107-.648 0-1.224-.54-1.224-1.224 0-.612.396-1.008 1.008-1.224l4.139-1.44c.576-.18 1.08-.323 1.548-.323h.072c.828 0 1.404.647 1.404 1.403v22.821c0 .792-.612 1.439-1.404 1.439-.756 0-1.404-.647-1.404-1.439v-21.272zm8.712 19.869l8.603-7.595c3.888-3.455 5.255-5.399 5.255-7.919 0-2.951-2.34-4.823-5.075-4.823-2.664 0-4.463 1.296-6.263 3.672-.216.287-.576.504-1.044.504-.72 0-1.296-.576-1.296-1.296 0-.288.108-.576.288-.792 2.087-2.916 4.391-4.644 8.531-4.644 4.536 0 7.811 3.023 7.811 7.127v.072c0 3.671-1.944 5.939-6.371 9.79l-6.731 5.976h12.203c.72 0 1.332.576 1.332 1.296s-.612 1.296-1.332 1.296h-15.156c-.828 0-1.439-.54-1.439-1.332 0-.54.216-.935.684-1.332zm21.708-.719c-.216-.216-.468-.611-.468-1.008 0-.756.648-1.403 1.404-1.403.468 0 .828.216 1.044.432 1.835 2.088 3.995 3.203 6.839 3.203 3.06 0 5.507-1.943 5.507-4.895v-.072c0-3.132-2.916-4.859-7.055-4.859h-.9c-.684 0-1.26-.54-1.26-1.224 0-.36.18-.721.576-1.116l7.343-8.315h-11.158c-.72 0-1.332-.539-1.332-1.26 0-.72.612-1.296 1.332-1.296h13.75c.792 0 1.368.504 1.368 1.225 0 .575-.288.972-.684 1.403l-7.415 8.243c4.391.36 8.315 2.483 8.315 7.091v.072c0 4.499-3.744 7.595-8.423 7.595-3.852-.001-6.768-1.549-8.783-3.816zm34.019-20.374c0-.792.648-1.44 1.404-1.44h7.343c7.919 0 13.391 5.436 13.391 12.526v.072c0 7.092-5.472 12.599-13.391 12.599h-7.343c-.756 0-1.404-.647-1.404-1.439v-22.318zm8.747 21.129c6.371 0 10.438-4.319 10.438-9.898v-.072c0-5.579-4.067-9.971-10.438-9.971h-5.903v19.941h5.903zm27.071 3.06c-5.111 0-9.287-3.923-9.287-9.683v-.072c0-5.363 3.78-9.683 8.928-9.683 5.507 0 8.639 4.5 8.639 9.431 0 .756-.612 1.296-1.296 1.296h-13.463c.396 4.032 3.24 6.3 6.552 6.3 2.304 0 3.995-.9 5.363-2.16.216-.18.468-.324.792-.324.684 0 1.224.54 1.224 1.188 0 .324-.144.647-.432.899-1.764 1.693-3.852 2.808-7.02 2.808zm5.508-10.763c-.288-3.383-2.232-6.335-5.939-6.335-3.24 0-5.688 2.7-6.048 6.335h11.987zm7.67-7.054c0-.756.612-1.404 1.368-1.404.791 0 1.403.612 1.403 1.404v1.907c1.224-1.835 2.88-3.527 6.012-3.527 3.023 0 4.967 1.62 5.975 3.708 1.332-2.052 3.312-3.708 6.552-3.708 4.283 0 6.911 2.88 6.911 7.487v10.295c0 .792-.612 1.403-1.368 1.403-.792 0-1.404-.611-1.404-1.403v-9.647c0-3.599-1.799-5.615-4.823-5.615-2.808 0-5.111 2.088-5.111 5.76v9.503c0 .792-.611 1.403-1.403 1.403-.756 0-1.368-.611-1.368-1.403v-9.719c0-3.492-1.836-5.544-4.787-5.544-2.952 0-5.184 2.448-5.184 5.867v9.396c0 .792-.576 1.403-1.368 1.403-.791 0-1.403-.611-1.403-1.403v-16.163zm33.083 8.17v-.072c0-5.255 4.104-9.719 9.719-9.719 5.58 0 9.684 4.392 9.684 9.647v.071c0 5.256-4.14 9.719-9.755 9.719-5.58.001-9.648-4.391-9.648-9.646zm16.558 0v-.072c0-3.995-2.988-7.271-6.911-7.271-4.032 0-6.804 3.275-6.804 7.199v.071c0 3.996 2.952 7.235 6.875 7.235 4.033.002 6.84-3.238 6.84-7.162zm18.218 6.192c-.324-.216-.54-.612-.54-1.08 0-.792.611-1.403 1.367-1.403.36 0 .685.144.864.323 2.376 2.016 4.751 2.988 7.955 2.988 3.384 0 5.615-1.8 5.615-4.284v-.071c0-2.34-1.26-3.672-6.551-4.788-5.796-1.26-8.459-3.131-8.459-7.271v-.072c0-3.96 3.491-6.875 8.278-6.875 3.312 0 5.724.828 8.027 2.483.288.216.612.612.612 1.152 0 .756-.612 1.367-1.368 1.367-.324 0-.576-.071-.828-.252-2.124-1.548-4.176-2.195-6.515-2.195-3.276 0-5.364 1.8-5.364 4.067v.072c0 2.375 1.296 3.707 6.84 4.896 5.615 1.224 8.207 3.275 8.207 7.127v.071c0 4.32-3.6 7.128-8.604 7.128-3.669.001-6.728-1.152-9.536-3.383zm24.264-1.908v-11.23h-1.512c-.647 0-1.224-.576-1.224-1.224 0-.684.576-1.224 1.224-1.224h1.512v-4.392c0-.756.577-1.404 1.368-1.404.756 0 1.404.648 1.404 1.404v4.392h4.822c.686 0 1.262.575 1.262 1.224 0 .684-.576 1.224-1.262 1.224h-4.822v10.871c0 2.268 1.26 3.096 3.131 3.096.973 0 1.477-.252 1.691-.252.648 0 1.189.539 1.189 1.188 0 .504-.324.899-.793 1.08-.791.323-1.656.504-2.734.504-2.988-.001-5.256-1.477-5.256-5.257zm13.571-12.454c0-.756.613-1.404 1.369-1.404.791 0 1.402.612 1.402 1.404v3.491c1.369-3.096 4.068-4.967 6.408-4.967.828 0 1.367.611 1.367 1.403 0 .756-.504 1.296-1.225 1.404-3.598.432-6.551 3.131-6.551 8.495v6.335c0 .756-.576 1.403-1.367 1.403s-1.404-.611-1.404-1.403v-16.161zm21.923 17.817c-5.111 0-9.287-3.923-9.287-9.683v-.072c0-5.363 3.781-9.683 8.928-9.683 5.508 0 8.639 4.5 8.639 9.431 0 .756-.611 1.296-1.295 1.296h-13.463c.396 4.032 3.24 6.3 6.551 6.3 2.305 0 3.996-.9 5.363-2.16.217-.18.469-.324.793-.324.684 0 1.223.54 1.223 1.188 0 .324-.143.647-.432.899-1.764 1.693-3.852 2.808-7.02 2.808zm5.508-10.763c-.287-3.383-2.232-6.335-5.939-6.335-3.24 0-5.688 2.7-6.047 6.335h11.986zm15.805 10.763c-5.111 0-9.287-3.923-9.287-9.683v-.072c0-5.363 3.779-9.683 8.928-9.683 5.506 0 8.639 4.5 8.639 9.431 0 .756-.613 1.296-1.297 1.296h-13.463c.396 4.032 3.24 6.3 6.553 6.3 2.303 0 3.994-.9 5.363-2.16.215-.18.467-.324.791-.324.684 0 1.225.54 1.225 1.188 0 .324-.145.647-.432.899-1.764 1.693-3.852 2.808-7.02 2.808zm5.508-10.763c-.289-3.383-2.232-6.335-5.939-6.335-3.24 0-5.688 2.7-6.049 6.335h11.988zm8.64 5.4v-11.23h-1.512c-.648 0-1.225-.576-1.225-1.224 0-.684.576-1.224 1.225-1.224h1.512v-4.392c0-.756.576-1.404 1.367-1.404.756 0 1.404.648 1.404 1.404v4.392h4.822c.686 0 1.262.575 1.262 1.224 0 .684-.576 1.224-1.262 1.224h-4.822v10.871c0 2.268 1.26 3.096 3.131 3.096.973 0 1.477-.252 1.691-.252.648 0 1.189.539 1.189 1.188 0 .504-.324.899-.793 1.08-.791.323-1.656.504-2.734.504-2.987-.001-5.255-1.477-5.255-5.257z" fill="#1A1A1A"/><g fill="#1A1A1A"><path d="M42.175 520.807l8.783-19.834c.612-1.367 1.728-2.195 3.239-2.195h.324c1.512 0 2.592.828 3.204 2.195l8.783 19.834c.18.396.288.756.288 1.117 0 1.475-1.152 2.662-2.627 2.662-1.296 0-2.16-.756-2.664-1.906l-1.691-3.961h-11.087l-1.764 4.141c-.468 1.08-1.404 1.727-2.556 1.727-1.44 0-2.556-1.15-2.556-2.592.001-.395.145-.792.324-1.188zm15.587-6.983l-3.492-8.314-3.492 8.314h6.984zm31.859 8.028c0 1.512-1.224 2.734-2.735 2.734-1.512 0-2.736-1.223-2.736-2.734v-.252c-1.332 1.799-3.167 3.131-6.011 3.131-4.5 0-8.783-3.527-8.783-9.971v-.072c0-6.443 4.211-9.971 8.783-9.971 2.916 0 4.715 1.332 6.011 2.881v-6.984c0-1.512 1.224-2.736 2.736-2.736 1.512 0 2.735 1.225 2.735 2.736v21.238zm-14.794-7.164v.072c0 3.203 2.16 5.328 4.715 5.328s4.679-2.125 4.679-5.328v-.072c0-3.203-2.124-5.326-4.679-5.326s-4.715 2.085-4.715 5.326zm39.093 7.164c0 1.512-1.224 2.734-2.735 2.734-1.512 0-2.736-1.223-2.736-2.734v-.252c-1.332 1.799-3.167 3.131-6.011 3.131-4.5 0-8.783-3.527-8.783-9.971v-.072c0-6.443 4.211-9.971 8.783-9.971 2.916 0 4.715 1.332 6.011 2.881v-6.984c0-1.512 1.224-2.736 2.736-2.736 1.512 0 2.735 1.225 2.735 2.736v21.238zm-14.794-7.164v.072c0 3.203 2.16 5.328 4.715 5.328s4.679-2.125 4.679-5.328v-.072c0-3.203-2.124-5.326-4.679-5.326s-4.715 2.085-4.715 5.326zm19.692-7.09c0-1.514 1.224-2.736 2.735-2.736 1.512 0 2.736 1.223 2.736 2.736v.863c.792-1.873 2.088-3.6 3.708-3.6 1.692 0 2.664 1.115 2.664 2.664 0 1.439-.936 2.303-2.052 2.555-2.771.648-4.319 2.771-4.319 6.66v5.111c0 1.512-1.224 2.734-2.736 2.734-1.512 0-2.735-1.223-2.735-2.734v-14.253zm23.651 17.205c-5.795 0-10.079-4.068-10.079-9.971v-.072c0-5.508 3.924-10.043 9.539-10.043 6.443 0 9.287 5.291 9.287 9.287 0 1.584-1.116 2.627-2.556 2.627h-10.834c.54 2.484 2.268 3.779 4.715 3.779 1.512 0 2.771-.467 3.887-1.295.396-.287.756-.432 1.332-.432 1.224 0 2.124.936 2.124 2.16 0 .719-.324 1.26-.72 1.619-1.691 1.44-3.887 2.341-6.695 2.341zm3.528-11.59c-.324-2.449-1.764-4.104-4.067-4.104-2.268 0-3.744 1.619-4.176 4.104h8.243zm8.893 9.322c-.576-.359-1.044-1.008-1.044-1.873 0-1.223.936-2.158 2.16-2.158.396 0 .792.107 1.08.287 1.835 1.152 3.671 1.729 5.219 1.729 1.583 0 2.304-.576 2.304-1.439v-.072c0-1.188-1.872-1.584-3.996-2.232-2.7-.791-5.759-2.051-5.759-5.795v-.072c0-3.924 3.167-6.119 7.055-6.119 2.016 0 4.104.539 5.975 1.477.792.395 1.296 1.115 1.296 2.051 0 1.225-.972 2.16-2.196 2.16-.396 0-.648-.072-1.008-.252-1.548-.756-3.023-1.225-4.175-1.225-1.332 0-2.016.576-2.016 1.332v.072c0 1.08 1.835 1.584 3.923 2.305 2.7.898 5.831 2.195 5.831 5.723v.072c0 4.283-3.204 6.227-7.379 6.227-2.374-.003-4.93-.686-7.27-2.198zm17.712 0c-.575-.359-1.044-1.008-1.044-1.873 0-1.223.937-2.158 2.16-2.158.396 0 .792.107 1.08.287 1.836 1.152 3.671 1.729 5.219 1.729 1.584 0 2.304-.576 2.304-1.439v-.072c0-1.188-1.871-1.584-3.995-2.232-2.699-.791-5.759-2.051-5.759-5.795v-.072c0-3.924 3.167-6.119 7.055-6.119 2.016 0 4.104.539 5.976 1.477.792.395 1.296 1.115 1.296 2.051 0 1.225-.973 2.16-2.196 2.16-.396 0-.647-.072-1.008-.252-1.548-.756-3.023-1.225-4.176-1.225-1.331 0-2.016.576-2.016 1.332v.072c0 1.08 1.836 1.584 3.924 2.305 2.699.898 5.831 2.195 5.831 5.723v.072c0 4.283-3.203 6.227-7.379 6.227-2.377-.003-4.933-.686-7.272-2.198zm29.916-3.564l7.163-5.867c3.132-2.555 4.355-3.959 4.355-6.047 0-2.123-1.403-3.275-3.383-3.275-1.584 0-2.7.684-4.104 2.195-.36.396-1.008.793-1.872.793-1.404 0-2.52-1.117-2.52-2.52 0-.613.252-1.26.647-1.729 2.016-2.34 4.392-3.707 8.207-3.707 5.22 0 8.675 3.059 8.675 7.773v.072c0 4.213-2.159 6.301-6.623 9.756l-4.104 3.168h8.783c1.332 0 2.411 1.078 2.411 2.41s-1.079 2.377-2.411 2.377h-13.679c-1.728 0-2.987-.973-2.987-2.629.002-1.079.506-2.014 1.442-2.77zm-137.077 66.724c-.324-.217-.54-.613-.54-1.08 0-.793.612-1.404 1.368-1.404.36 0 .684.145.864.324 2.375 2.016 4.751 2.988 7.955 2.988 3.383 0 5.615-1.801 5.615-4.285v-.07c0-2.34-1.26-3.672-6.551-4.789-5.795-1.26-8.459-3.131-8.459-7.27v-.072c0-3.961 3.492-6.875 8.279-6.875 3.312 0 5.723.828 8.027 2.482.288.217.612.613.612 1.152 0 .756-.612 1.367-1.368 1.367-.324 0-.576-.07-.828-.252-2.124-1.547-4.175-2.195-6.515-2.195-3.275 0-5.363 1.801-5.363 4.068v.072c0 2.375 1.296 3.707 6.839 4.895 5.615 1.225 8.207 3.275 8.207 7.127v.072c0 4.32-3.599 7.127-8.603 7.127-3.672.001-6.731-1.151-9.539-3.382zm39.418 1.799c0 .756-.576 1.404-1.368 1.404-.756 0-1.368-.611-1.368-1.404v-2.016c-1.26 2.016-3.168 3.635-6.372 3.635-4.499 0-7.127-3.023-7.127-7.449v-10.332c0-.791.576-1.404 1.368-1.404.756 0 1.404.613 1.404 1.404v9.646c0 3.457 1.872 5.615 5.147 5.615 3.167 0 5.58-2.34 5.58-5.83v-9.432c0-.791.576-1.404 1.368-1.404.756 0 1.368.613 1.368 1.404v16.163zm6.23-23.217c0-.9.72-1.477 1.62-1.477.936 0 1.656.576 1.656 1.477v.469c0 .863-.72 1.475-1.656 1.475-.9 0-1.62-.611-1.62-1.475v-.469zm.252 7.055c0-.756.612-1.404 1.368-1.404.792 0 1.404.613 1.404 1.404v16.162c0 .793-.576 1.404-1.368 1.404s-1.404-.611-1.404-1.404v-16.162zm10.187 12.455v-11.23h-1.512c-.648 0-1.224-.576-1.224-1.225 0-.684.576-1.223 1.224-1.223h1.512v-4.393c0-.756.576-1.404 1.368-1.404.756 0 1.404.648 1.404 1.404v4.393h4.823c.684 0 1.26.574 1.26 1.223 0 .684-.576 1.225-1.26 1.225h-4.823v10.871c0 2.268 1.26 3.096 3.131 3.096.972 0 1.476-.252 1.692-.252.648 0 1.188.539 1.188 1.188 0 .504-.324.898-.792 1.08-.792.322-1.656.504-2.736.504-2.988-.001-5.255-1.478-5.255-5.257zm21.167 5.363c-5.111 0-9.287-3.924-9.287-9.684v-.072c0-5.363 3.779-9.682 8.927-9.682 5.507 0 8.639 4.5 8.639 9.43 0 .756-.612 1.297-1.296 1.297h-13.462c.396 4.031 3.24 6.299 6.551 6.299 2.304 0 3.995-.9 5.363-2.16.216-.18.468-.324.792-.324.684 0 1.224.541 1.224 1.189 0 .324-.144.646-.432.898-1.764 1.694-3.851 2.809-7.019 2.809zm5.507-10.763c-.288-3.383-2.231-6.334-5.939-6.334-3.24 0-5.688 2.699-6.047 6.334h11.986zm21.817-12.201l-3.527 1.152c-.217.07-.433.107-.612.107-.647 0-1.224-.541-1.224-1.225 0-.611.396-1.008 1.008-1.223l4.14-1.441c.575-.18 1.079-.322 1.548-.322h.071c.828 0 1.404.646 1.404 1.402v22.822c0 .791-.612 1.439-1.404 1.439-.756 0-1.403-.648-1.403-1.439v-21.272zm11.808 20.408c-2.016-2.016-3.168-4.607-3.168-9.754v-.072c0-7.666 3.888-13.678 10.475-13.678 2.628 0 4.68.828 6.552 2.23.432.289.684.648.684 1.189 0 .756-.611 1.367-1.367 1.367-.288 0-.576-.107-.792-.252-1.656-1.26-3.204-1.943-5.22-1.943-4.571 0-7.415 4.607-7.379 11.123 1.368-2.018 3.491-3.852 7.163-3.852 4.68 0 8.711 3.023 8.711 7.738v.072c0 4.859-3.924 8.387-9.035 8.387-2.773.001-5.04-.971-6.624-2.555zm12.742-5.723v-.072c0-3.096-2.52-5.398-6.155-5.398-3.779 0-6.299 2.699-6.299 5.508v.07c0 3.205 2.664 5.652 6.371 5.652 3.708 0 6.083-2.557 6.083-5.76zm18.145-2.988c0-.756.647-1.439 1.439-1.439h7.487c.792 0 1.439.684 1.439 1.439 0 .793-.647 1.477-1.439 1.477h-7.487c-.791-.001-1.439-.684-1.439-1.477zm29.771-11.697l-3.527 1.152c-.217.07-.433.107-.612.107-.647 0-1.224-.541-1.224-1.225 0-.611.396-1.008 1.008-1.223l4.14-1.441c.575-.18 1.079-.322 1.548-.322h.071c.828 0 1.404.646 1.404 1.402v22.822c0 .791-.612 1.439-1.404 1.439-.756 0-1.403-.648-1.403-1.439v-21.272zm8.712 19.869l8.604-7.596c3.887-3.455 5.255-5.398 5.255-7.918 0-2.951-2.34-4.824-5.075-4.824-2.664 0-4.464 1.297-6.264 3.672-.216.287-.575.504-1.044.504-.72 0-1.296-.576-1.296-1.295 0-.289.108-.576.288-.793 2.088-2.916 4.392-4.643 8.531-4.643 4.535 0 7.811 3.023 7.811 7.127v.072c0 3.67-1.943 5.939-6.371 9.789l-6.73 5.977h12.202c.72 0 1.332.576 1.332 1.295 0 .721-.612 1.297-1.332 1.297h-15.154c-.828 0-1.439-.541-1.439-1.332-.002-.541.214-.936.682-1.332zm21.708-.721c-.217-.215-.469-.611-.469-1.008 0-.756.648-1.402 1.404-1.402.468 0 .828.215 1.044.432 1.836 2.088 3.995 3.203 6.838 3.203 3.061 0 5.508-1.943 5.508-4.895v-.072c0-3.133-2.916-4.859-7.055-4.859h-.9c-.684 0-1.26-.541-1.26-1.225 0-.359.18-.721.576-1.115l7.344-8.316h-11.16c-.72 0-1.332-.539-1.332-1.26 0-.719.612-1.295 1.332-1.295h13.751c.791 0 1.367.504 1.367 1.225 0 .574-.289.971-.684 1.402l-7.416 8.244c4.393.359 8.314 2.482 8.314 7.09v.072c0 4.5-3.742 7.596-8.422 7.596-3.849-.001-6.765-1.549-8.78-3.817zm35.206-2.592h-12.527c-.828 0-1.439-.574-1.439-1.367 0-.504.18-.9.541-1.367l13.102-15.982c.432-.539.828-.863 1.584-.863.863 0 1.512.646 1.512 1.475v15.73h2.844c.648 0 1.225.541 1.225 1.225 0 .646-.576 1.15-1.225 1.15h-2.844v4.789c0 .756-.611 1.367-1.404 1.367-.756 0-1.367-.611-1.367-1.367v-4.79zm0-2.375v-12.994l-10.582 12.994h10.582zm11.34 5.508c-.395-.324-.574-.684-.574-1.188 0-.686.611-1.332 1.367-1.332.359 0 .719.143.971.359 1.98 1.801 4.141 2.844 6.48 2.844 3.527 0 6.047-2.305 6.047-5.58v-.07c0-3.168-2.592-5.293-6.264-5.293-2.951 0-4.463 1.225-5.111 1.225-.539 0-.936-.217-1.439-.539-.469-.324-.648-.9-.611-1.549l.576-9.863c.035-.863.646-1.367 1.367-1.367h12.094c.721 0 1.297.576 1.297 1.332 0 .719-.576 1.295-1.297 1.295h-10.869l-.541 8.064c1.477-.648 2.879-1.117 4.967-1.117 4.896 0 8.711 2.881 8.711 7.703v.072c0 4.859-3.742 8.279-8.963 8.279-3.276 0-6.155-1.439-8.208-3.275zm24.66.719c-2.016-2.016-3.168-4.607-3.168-9.754v-.072c0-7.666 3.889-13.678 10.475-13.678 2.629 0 4.68.828 6.553 2.23.432.289.684.648.684 1.189 0 .756-.611 1.367-1.367 1.367-.289 0-.576-.107-.793-.252-1.656-1.26-3.203-1.943-5.219-1.943-4.572 0-7.416 4.607-7.379 11.123 1.367-2.018 3.49-3.852 7.162-3.852 4.68 0 8.711 3.023 8.711 7.738v.072c0 4.859-3.924 8.387-9.035 8.387-2.772.001-5.04-.971-6.624-2.555zm12.743-5.723v-.072c0-3.096-2.52-5.398-6.154-5.398-3.779 0-6.299 2.699-6.299 5.508v.07c0 3.205 2.664 5.652 6.371 5.652s6.082-2.557 6.082-5.76zM393.538 516.719v53.906l15.146-6.273 10.092 24.367 7.827-3.241-10.094-24.368 15.146-6.274z"/></g></svg>