<svg xmlns="http://www.w3.org/2000/svg" width="2517.421" height="477.387" viewBox="0 0 2517.421 477.387"><g><path fill="#1A1A1A" d="M1138.834 181.855l-124.707-72-124.707 72 124.708 72zM1142.62 175.379l-122.756-70.874-1.951-1.126c-2.337-1.349-5.234-1.349-7.571 0-40.919 23.624-81.838 47.249-122.756 70.873l-1.952 1.126c-4.865 2.809-4.865 10.143 0 12.952 40.919 23.625 81.838 47.249 122.756 70.874l1.952 1.126c2.336 1.349 5.234 1.349 7.57 0 40.918-23.625 81.836-47.249 122.756-70.874l1.951-1.126c8.371-4.833.82-17.797-7.57-12.952-40.92 23.625-81.838 47.249-122.756 70.874l-1.951 1.126h7.57c-40.918-23.624-81.836-47.248-122.755-70.873l-1.951-1.126v12.952l122.755-70.874 1.952-1.126h-7.571l122.756 70.874 1.951 1.126c8.393 4.845 15.942-8.119 7.571-12.952z"/><linearGradient id="a" gradientUnits="userSpaceOnUse" x1="870.127" y1="1439.131" x2="870.127" y2="1612.972" gradientTransform="matrix(1 0 0 -1 144 1707.906)"><stop offset=".043" stop-color="#0070BF"/><stop offset=".207" stop-color="#1986D4"/><stop offset=".396" stop-color="#2E9AE6"/><stop offset=".581" stop-color="#3BA5F1"/><stop offset=".755" stop-color="#3FA9F5"/></linearGradient><path fill="url(#a)" d="M963.215 247.67c-28.141-28.141-28.141-73.683 0-101.824l50.912-50.912 50.911 50.912c28.143 28.142 28.143 73.685 0 101.823-28.141 28.141-73.682 28.141-101.823.001z"/><path fill="#1A1A1A" d="M968.518 242.367c-14.594-14.89-21.563-35.861-18.015-56.521 2.612-15.21 10.647-27.328 21.344-38.023 15.861-15.861 31.722-31.723 47.583-47.583h-10.606c16.705 16.704 33.41 33.409 50.114 50.114 14.082 14.083 20.947 32.687 19.445 52.54-1.754 23.214-17.406 43.182-38.087 52.893-23.999 11.266-53.209 4.781-71.778-13.42-6.91-6.773-17.523 3.826-10.606 10.605 17.195 16.855 41.055 25.49 65.066 22.758 24.544-2.792 46.171-16.897 59.19-37.815 12.494-20.075 14.688-45.842 6.805-67.979-5.293-14.858-15.178-25.938-26.062-36.823l-43.48-43.48c-2.89-2.89-7.717-2.89-10.606 0-16.487 16.487-32.975 32.974-49.461 49.461-13.816 13.814-22.155 30.743-24.365 50.172-2.66 23.39 6.612 47.079 22.913 63.709 6.779 6.914 17.38-3.698 10.606-10.608z"/><g fill="#1A1A1A"><path d="M1158.36 187.05c0-4.3 3.4-7.701 7.701-7.701h19.602c22.002 0 37.201 15.102 37.201 34.802v.2c0 19.701-15.199 35.002-37.201 35.002h-19.602c-4.299 0-7.701-3.399-7.701-7.701v-54.602zm27.303 48.404c12.602 0 21.102-8.5 21.102-20.901v-.2c0-12.4-8.5-21.102-21.102-21.102h-11.9v42.203h11.9zM1235.44 186.451c0-4.301 3.4-7.701 7.701-7.701s7.701 3.399 7.701 7.701v55.803c0 4.3-3.4 7.701-7.701 7.701s-7.701-3.4-7.701-7.701v-55.803zM1265.792 241.955c-1.701-1.2-2.9-3.4-2.9-5.8 0-4 3.199-7.102 7.199-7.102 2 0 3.4.7 4.4 1.4 5.301 3.899 11.102 6.301 17.9 6.301 6.299 0 10.102-2.5 10.102-6.601v-.2c0-3.9-2.4-5.9-14.102-8.9-14.1-3.6-23.201-7.5-23.201-21.4v-.2c0-12.701 10.201-21.103 24.502-21.103 8.5 0 15.898 2.2 22.199 6.201 1.701 1 3.4 3.101 3.4 6.101 0 4-3.199 7.101-7.199 7.101-1.502 0-2.701-.4-3.9-1.1-5.102-3-9.9-4.7-14.701-4.7-5.898 0-9 2.7-9 6.1v.2c0 4.6 3.002 6.1 15.102 9.201 14.201 3.7 22.201 8.8 22.201 21.001v.2c0 13.9-10.602 21.7-25.701 21.7-9.202-.001-18.503-2.801-26.301-8.4zM1325.838 214.552v-.2c0-19.9 15.002-36.202 36.502-36.202 10.502 0 17.604 2.801 23.402 7.101 1.6 1.2 3 3.399 3 6.101 0 4.2-3.4 7.5-7.602 7.5-2.1 0-3.5-.8-4.6-1.5-4.301-3.199-8.801-5-14.301-5-11.803 0-20.303 9.801-20.303 21.802v.199c0 12 8.301 22.001 20.303 22.001 6.5 0 10.801-2 15.199-5.5 1.199-1 2.801-1.699 4.602-1.699 3.898 0 7.201 3.199 7.201 7.101 0 2.4-1.201 4.3-2.602 5.5-6.301 5.5-13.701 8.801-24.9 8.801-20.6-.003-35.901-15.903-35.901-36.005zM1401.36 187.05c0-4.3 3.398-7.701 7.699-7.701h24.303c8.898 0 15.801 2.5 20.4 7.102 3.9 3.899 6 9.399 6 16.001v.199c0 11-5.5 17.802-14.002 21.302l10.701 13c1.5 1.899 2.5 3.5 2.5 5.899 0 4.3-3.6 7.102-7.301 7.102-3.5 0-5.799-1.7-7.6-4l-15.002-19.001h-12.301v15.301c0 4.3-3.398 7.701-7.699 7.701s-7.699-3.4-7.699-7.701v-55.204h.001zm31.002 26.302c7.5 0 11.801-4 11.801-9.9v-.2c0-6.6-4.602-10-12.102-10h-15.303v20.102l15.604-.002zM1473.127 241.654v-54.604c0-4.3 3.4-7.701 7.701-7.701h38.803c3.799 0 6.9 3.101 6.9 6.9s-3.102 6.801-6.9 6.801h-31.203v14.201h26.703c3.799 0 6.9 3.1 6.9 6.9 0 3.8-3.102 6.8-6.9 6.8h-26.703v14.7h31.703c3.799 0 6.9 3.101 6.9 6.9s-3.102 6.8-6.9 6.8h-39.303c-4.298.003-7.701-3.396-7.701-7.697zM1539.2 241.654v-54.604c0-4.3 3.398-7.701 7.699-7.701h38.803c3.801 0 6.898 3.101 6.898 6.9s-3.1 6.801-6.898 6.801h-31.202v14.201h26.701c3.801 0 6.898 3.1 6.898 6.9 0 3.8-3.1 6.8-6.898 6.8h-26.701v14.7h31.701c3.801 0 6.898 3.101 6.898 6.9s-3.1 6.8-6.898 6.8h-39.303c-4.3.003-7.698-3.396-7.698-7.697zM1621.86 193.551h-14.803c-3.898 0-7.1-3.2-7.1-7.101s3.199-7.102 7.1-7.102h45.004c3.9 0 7.102 3.2 7.102 7.102 0 3.9-3.201 7.101-7.102 7.101h-14.801v48.703c0 4.3-3.4 7.701-7.701 7.701s-7.701-3.4-7.701-7.701v-48.703h.002zM1158.36 267.05c0-4.3 3.4-7.701 7.701-7.701h19.602c22.002 0 37.201 15.102 37.201 34.803v.2c0 19.701-15.199 35.002-37.201 35.002h-19.602c-4.299 0-7.701-3.399-7.701-7.7v-54.604zm27.303 48.404c12.602 0 21.102-8.501 21.102-20.901v-.199c0-12.4-8.5-21.102-21.102-21.102h-11.9v42.203l11.9-.001zM1235.129 267.05c0-4.3 3.4-7.701 7.701-7.701h24.301c8.902 0 15.803 2.5 20.402 7.102 3.898 3.899 5.998 9.399 5.998 16.001v.2c0 11-5.498 17.801-13.998 21.301l10.697 13.001c1.5 1.899 2.5 3.501 2.5 5.899 0 4.301-3.6 7.102-7.299 7.102-3.5 0-5.801-1.7-7.602-4l-15-19.002h-12.301v15.301c0 4.301-3.4 7.701-7.701 7.701s-7.699-3.4-7.699-7.701v-55.204h.001zm31.002 26.303c7.502 0 11.801-4.001 11.801-9.9v-.2c0-6.601-4.6-10-12.1-10h-15.303v20.102l15.602-.002zM1302.467 294.552v-.199c0-19.901 15.701-36.203 37.303-36.203 21.604 0 37.104 16.102 37.104 36.001v.201c0 19.9-15.701 36.201-37.303 36.201-21.602.001-37.104-16.099-37.104-36.001zm58.305 0v-.199c0-12.001-8.801-22.002-21.201-22.002s-21 9.801-21 21.801v.201c0 12 8.801 22 21.199 22 12.4 0 21.002-9.8 21.002-21.801zM1389.368 267.05c0-4.3 3.4-7.701 7.701-7.701h20.9c16.701 0 26.801 9.901 26.801 24.202v.199c0 16.201-12.6 24.602-28.301 24.602h-11.701v13.9c0 4.301-3.398 7.701-7.699 7.701s-7.701-3.4-7.701-7.701v-55.202zm27.601 27.602c7.699 0 12.201-4.6 12.201-10.6v-.201c0-6.899-4.801-10.6-12.502-10.6h-11.9v21.4h12.201z"/></g><linearGradient id="b" gradientUnits="userSpaceOnUse" x1="776.597" y1="1364.051" x2="838.952" y2="1472.052" gradientTransform="matrix(1 0 0 -1 144 1707.906)"><stop offset="0" stop-color="#C68945"/><stop offset="1" stop-color="#C69C6D"/></linearGradient><path fill="url(#b)" d="M889.42 181.855l124.708 72v144l-124.708-72z"/><path fill="#1A1A1A" d="M885.634 188.332c40.919 23.625 81.838 47.249 122.756 70.874l1.952 1.126-3.715-6.477v144.001c3.762-2.158 7.523-4.316 11.285-6.477-40.918-23.625-81.837-47.249-122.756-70.874l-1.951-1.126 3.714 6.476v-144c0-9.673-15-9.673-15 0v141.747c0 3.503.406 6.819 3.912 8.843l6.351 3.668 32.1 18.532c25.607 14.785 51.214 29.568 76.822 44.354l9.238 5.334c4.92 2.84 11.285-.77 11.285-6.477v-141.748c0-3.504-.406-6.818-3.912-8.843l-6.351-3.667c-10.7-6.178-21.4-12.354-32.1-18.533-25.607-14.784-51.214-29.568-76.822-44.353-3.079-1.778-6.158-3.556-9.237-5.333-8.392-4.845-15.942 8.119-7.571 12.953z"/><linearGradient id="c" gradientUnits="userSpaceOnUse" x1="901.304" y1="1472.051" x2="963.658" y2="1364.051" gradientTransform="matrix(1 0 0 -1 144 1707.906)"><stop offset="0" stop-color="#C69C6D"/><stop offset="1" stop-color="#C68945"/></linearGradient><path fill="url(#c)" d="M1138.834 181.855l-124.706 72v144l124.706-72z"/><path fill="#1A1A1A" d="M1135.049 175.379c-40.92 23.625-81.838 47.249-122.756 70.874-3.043 1.757-5.666 3.767-5.666 7.831v143.77100000000002c0 5.707 6.365 9.316 11.285 6.477 40.918-23.625 81.836-47.248 122.756-70.874 3.043-1.757 5.666-3.769 5.666-7.83v-143.773c0-9.673-15-9.673-15 0v144l3.715-6.476c-40.92 23.624-81.838 47.248-122.756 70.873l-1.951 1.127c3.762 2.158 7.523 4.318 11.285 6.477v-144.001l-3.715 6.477c40.918-23.625 81.836-47.249 122.756-70.874l1.951-1.126c8.372-4.834.823-17.798-7.57-12.953z"/></g><g><path fill="#1A1A1A" d="M627.674 267.109h216c9.687 0 9.772-15.003.108-15.003h-216c-9.686 0-9.772 15.003-.108 15.003zM849.003 254.276l-50.912-50.912c-6.835-6.835-17.403 3.812-10.551 10.665l50.912 50.912c6.836 6.835 17.404-3.813 10.551-10.665zM798.148 315.795c16.971-16.97 33.941-33.94 50.912-50.911 6.836-6.835-3.812-17.403-10.665-10.551-16.971 16.97-33.941 33.94-50.912 50.911-6.836 6.836 3.813 17.403 10.665 10.551zM1669.059 267.109h216c9.686 0 9.771-15.003.107-15.003h-216c-9.685 0-9.771 15.003-.107 15.003zM1890.388 254.276l-50.912-50.912c-6.836-6.835-17.403 3.812-10.551 10.665l50.912 50.912c6.836 6.835 17.404-3.813 10.551-10.665zM1839.533 315.795c16.971-16.97 33.941-33.94 50.912-50.911 6.836-6.835-3.812-17.403-10.664-10.551-16.971 16.97-33.941 33.94-50.912 50.911-6.836 6.836 3.812 17.403 10.664 10.551z"/></g><g><g><linearGradient id="d" gradientUnits="userSpaceOnUse" x1="-47.03" y1="494.356" x2="-47.03" y2="854.356" gradientTransform="matrix(1 0 0 -1 345.773 964.238)"><stop offset="0" stop-color="#C68945"/><stop offset="1" stop-color="#C69C6D"/></linearGradient><path fill="url(#d)" d="M7.504 109.882h582.479v360h-582.479z"/><path fill="#1A1A1A" d="M590.037 462.381h-582.48l7.448 7.555v-359.998c-2.519 2.481-5.038 4.965-7.556 7.448h582.4780000000001l-7.447-7.557v360.001c0 9.686 15.004 9.771 15.004.107v-359.999c0-4.065-3.342-7.556-7.448-7.556h-582.48c-4.065 0-7.556 3.342-7.556 7.447v360c0 4.064 3.342 7.557 7.448 7.557h582.478c9.689-.001 9.775-15.005.111-15.005z"/><path fill="#C69C6D" d="M488.16 8.059l101.822 101.823h-582.478l101.824-101.823z"/><path fill="#1A1A1A" d="M482.885 13.391l100.229 100.229 1.595 1.594 5.329-12.834h-582.48c1.759 4.259 3.519 8.519 5.278 12.776 33.35-33.347 66.697-66.697 100.047-100.045l1.777-1.777-5.387 2.227h378.832c9.686 0 9.771-15.003.106-15.003h-377.59299999999996c-5.178 0-7.91 3.511-11.273 6.874l-97.174 97.175c-4.58 4.579-1.211 12.777 5.278 12.777h582.4780000000001c6.596 0 10.004-8.161 5.329-12.834-33.408-33.41-66.818-66.82-100.229-100.23l-1.594-1.593c-6.831-6.836-17.402 3.812-10.548 10.664z"/><path fill="#C7B299" d="M240.496 109.882h116.494v72h-116.494z"/><path fill="#1A1A1A" d="M357.045 174.381h-116.495l7.448 7.556v-72c-2.52 2.481-5.038 4.965-7.557 7.448h116.496l-7.447-7.557v72c0 9.688 15.004 9.772 15.004.108v-72c0-4.065-3.342-7.556-7.448-7.556h-116.495c-4.064 0-7.556 3.342-7.556 7.447v72c0 4.065 3.342 7.557 7.448 7.557h116.496c9.684 0 9.77-15.003.106-15.003z"/><path fill="#C7B299" d="M326.307 8.059l30.683 101.823h-116.494l30.688-101.823z"/><path fill="#1A1A1A" d="M319.062 10c10.229 33.941 20.457 67.883 30.686 101.823 2.434-3.146 4.865-6.295 7.298-9.442h-116.495l7.182 9.481c10.229-33.941 20.457-67.882 30.687-101.823l-7.289 5.521h55.123c9.687 0 9.771-15.003.106-15.003h-55.121c-3.434 0-6.311 2.274-7.289 5.521l-30.688 101.823c-1.398 4.638 2.422 9.482 7.18 9.482h116.496c4.758 0 8.721-4.728 7.299-9.443-10.23-33.941-20.458-67.882-30.687-101.823-2.784-9.243-17.282-5.388-14.488 3.883z"/></g><g><path fill="#3FA9F5" d="M153.844 210.93h289.801v180h-289.801z"/><path fill="#1A1A1A" d="M443.697 383.428h-289.798c2.481 2.52 4.965 5.037 7.447 7.557v-180c-2.519 2.482-5.037 4.965-7.556 7.448h289.79900000000004c-2.482-2.52-4.966-5.037-7.447-7.557v179.99900000000002c0 9.688 15.004 9.771 15.004.107v-179.999c0-4.065-3.342-7.556-7.449-7.556h-289.798c-4.064 0-7.556 3.342-7.556 7.447v180c0 4.064 3.343 7.557 7.448 7.557h289.799c9.685.001 9.771-15.003.107-15.003z"/><g stroke="#1A1A1A"><path d="M194.525 283.59c0-3.097 2.447-5.545 5.543-5.545 3.098 0 5.545 2.448 5.545 5.545v35.211h20.521c2.809 0 5.041 2.231 5.041 5.041 0 2.808-2.232 5.04-5.041 5.04h-26.066c-3.096 0-5.543-2.448-5.543-5.546v-39.746zM233.98 303.823v-.144c0-14.329 11.306-26.066 26.858-26.066 15.554 0 26.714 11.593 26.714 25.922v.146c0 14.329-11.305 26.065-26.857 26.065s-26.715-11.593-26.715-25.923zm41.98 0v-.144c0-8.642-6.336-15.843-15.265-15.843-8.93 0-15.123 7.058-15.123 15.697v.146c0 8.641 6.338 15.842 15.267 15.842s15.121-7.056 15.121-15.698zM295.182 303.823v-.144c0-14.329 11.16-26.066 26.426-26.066 7.633 0 12.674 1.729 17.209 4.896 1.08.792 2.305 2.305 2.305 4.465 0 3.022-2.448 5.472-5.473 5.472-1.584 0-2.592-.575-3.385-1.151-3.023-2.159-6.265-3.457-11.017-3.457-8.063 0-14.474 7.13-14.474 15.697v.146c0 9.217 6.336 15.984 15.266 15.984 4.031 0 7.633-1.008 10.439-3.023v-7.2h-7.488c-2.664 0-4.823-2.089-4.823-4.753s2.159-4.824 4.823-4.824h12.674c3.097 0 5.545 2.448 5.545 5.545v12.24c0 3.24-1.225 5.473-3.889 7.057-4.104 2.521-10.082 5.041-17.643 5.041-15.697-.002-26.495-11.019-26.495-25.925zM351.628 303.823v-.144c0-14.329 11.306-26.066 26.858-26.066s26.713 11.593 26.713 25.922v.146c0 14.329-11.305 26.065-26.857 26.065s-26.714-11.593-26.714-25.923zm41.979 0v-.144c0-8.642-6.338-15.843-15.267-15.843s-15.12 7.058-15.12 15.697v.146c0 8.641 6.336 15.842 15.266 15.842 8.929 0 15.121-7.056 15.121-15.698z"/></g></g><g><path fill="#fff" d="M402.521 145.882h144v232.991h-144z"/><path fill="#1A1A1A" d="M546.574 371.371h-144c2.482 2.52 4.966 5.037 7.447 7.557v-232.992c-2.519 2.481-5.037 4.965-7.556 7.448h144l-7.448-7.557v232.993c0 9.688 15.004 9.771 15.004.107v-232.992c0-4.065-3.342-7.557-7.447-7.557h-144c-4.064 0-7.557 3.343-7.557 7.448v232.993c0 4.064 3.342 7.557 7.449 7.557h144c9.686-.001 9.772-15.005.108-15.005z"/><path stroke="#1A1A1A" stroke-miterlimit="10" fill="none" d="M546.521 378.873h-144"/><path fill="#1A1A1A" d="M424.021 358.652v-54c0-4.514-7-4.514-7 0v54c0 4.514 7 4.514 7 0zM442.021 358.373v-53.721c0-4.514-7-4.514-7 0v53.721c0 4.516 7 4.516 7 0zM460.021 358.373v-53.721c0-4.514-7-4.514-7 0v53.721c0 4.516 7 4.516 7 0zM478.021 358.373v-53.721c0-4.514-7-4.514-7 0v53.721c0 4.516 7 4.516 7 0zM496.021 358.373v-53.721c0-4.514-7-4.514-7 0v53.721c0 4.516 7 4.516 7 0zM514.021 358.373v-53.721c0-4.514-7-4.514-7 0v53.721c0 4.516 7 4.516 7 0zM532.021 358.373v-53.721c0-4.514-7-4.514-7 0v53.721c0 4.516 7 4.516 7 0zM501.104 274.152h-53.722c-4.515 0-4.515 7 0 7h53.722c4.513 0 4.513-7 0-7zM501.104 256.152h-53.722c-4.515 0-4.515 7 0 7h53.722c4.513 0 4.513-7 0-7zM501.104 238.152h-53.722c-4.515 0-4.515 7 0 7h53.722c4.513 0 4.513-7 0-7zM501.104 220.152h-53.722c-4.515 0-4.515 7 0 7h53.722c4.513 0 4.513-7 0-7z"/><path fill="#1A1A1A" stroke="#1A1A1A" d="M425.561 170.218c0-2.58 2.041-4.62 4.619-4.62h12.541c10.02 0 16.078 5.938 16.078 14.519v.12c0 9.72-7.561 14.759-16.979 14.759h-7.02v8.34c0 2.58-2.04 4.62-4.62 4.62-2.578 0-4.619-2.04-4.619-4.62v-33.118zm16.559 16.559c4.618 0 7.319-2.76 7.319-6.359v-.119c0-4.141-2.881-6.36-7.5-6.36h-7.141v12.839h7.322v-.001z"/><path fill="#1A1A1A" d="M527.965 189.715h-53.722c-4.515 0-4.515 7 0 7h53.722c4.514 0 4.514-7 0-7zM527.965 171.715h-53.722c-4.515 0-4.515 7 0 7h53.722c4.514 0 4.514-7 0-7z"/></g><path fill="#FF7BAC" d="M63.525 151.487h116.494v72.001h-116.494z"/><path fill="#1A1A1A" d="M180.074 215.986h-116.494l7.447 7.556v-72.001l-7.555 7.447h116.494l-7.447-7.556v72.002c0 9.686 15.004 9.771 15.004.106v-72.001c0-4.064-3.342-7.556-7.449-7.556h-116.494c-4.064 0-7.557 3.341-7.557 7.447v72.002c0 4.063 3.342 7.556 7.449 7.556h116.494c9.686.002 9.772-15.002.108-15.002zM147.564 191.102h-53.723c-4.514 0-4.514 7 0 7h53.723c4.515 0 4.515-7 0-7zM147.564 173.102h-53.723c-4.514 0-4.514 7 0 7h53.723c4.515 0 4.515-7 0-7z"/><path fill="#FCEE21" d="M379.203 364.93h116.494v72.002h-116.494z"/><path fill="#1A1A1A" d="M495.752 429.43h-116.495c2.481 2.518 4.966 5.037 7.448 7.555v-72l-7.557 7.447h116.496c-2.483-2.52-4.967-5.037-7.449-7.557v72.002c0 9.686 15.004 9.771 15.004.107v-72.002c0-4.064-3.342-7.555-7.447-7.555h-116.495c-4.063 0-7.556 3.342-7.556 7.447v72c0 4.064 3.342 7.557 7.447 7.557h116.496c9.686.003 9.772-15.001.108-15.001z"/><path fill="none" d="M463.242 408.045h-53.721"/><path fill="#1A1A1A" d="M463.242 404.545h-53.723c-4.514 0-4.514 7 0 7h53.723c4.514 0 4.514-7 0-7z"/><path fill="none" d="M463.242 390.045h-53.721"/><path fill="#1A1A1A" d="M463.242 386.545h-53.723c-4.514 0-4.514 7 0 7h53.723c4.514 0 4.514-7 0-7z"/><g><path fill="#8C6239" d="M79.504 397.883l-72 72h144l-144-144.001v144.001"/><path fill="#1A1A1A" d="M74.171 392.607l-72 72c-4.58 4.578-1.211 12.777 5.278 12.777h144.001c6.596 0 10.004-8.16 5.33-12.836l-104.133-104.133-39.867-39.867c-4.579-4.579-12.777-1.21-12.777 5.278v144.001c0 9.686 15.004 9.771 15.004.107v-144.001l-12.777 5.279 104.132 104.133 39.867 39.867c1.776-4.279 3.553-8.559 5.33-12.836h-144c1.759 4.26 3.519 8.52 5.278 12.777l72-72c6.835-6.831-3.814-17.399-10.666-10.546z"/><path fill="#fff" d="M43.504 433.883h72l-72-72z"/><path fill="#1A1A1A" d="M43.45 441.385h72c6.597 0 10.005-8.16 5.33-12.836l-72-72c-4.58-4.578-12.778-1.209-12.778 5.279v72c0 9.686 15.004 9.771 15.004.107v-72l-12.777 5.279 72 72c1.776-4.279 3.553-8.559 5.33-12.836h-72c-9.687.003-9.773 15.007-.109 15.007zM306.245 109.936v-101.823c0-9.687-15.005-9.771-15.005-.107v101.822c0 9.686 15.005 9.772 15.005.108z"/></g></g><g><linearGradient id="e" gradientUnits="userSpaceOnUse" x1="1872.91" y1="494.881" x2="1872.91" y2="854.881" gradientTransform="matrix(1 0 0 -1 345.773 964.238)"><stop offset="0" stop-color="#C68945"/><stop offset="1" stop-color="#C69C6D"/></linearGradient><path fill="url(#e)" d="M1927.442 109.356h582.479v360.001h-582.479z"/><path fill="#1A1A1A" d="M2509.975 461.855h-582.4789999999999l7.447 7.555v-359.999c-2.52 2.481-5.038 4.965-7.557 7.448h582.4789999999999l-7.448-7.557v360.00199999999995c0 9.686 15.004 9.771 15.004.107v-360c0-4.065-3.342-7.556-7.447-7.556h-582.48c-4.064 0-7.556 3.342-7.556 7.447v360.00100000000003c0 4.064 3.342 7.557 7.448 7.557h582.4780000000001c9.688-.001 9.774-15.005.111-15.005z"/><path fill="#C69C6D" d="M2408.097 7.533l101.824 101.823h-582.479l101.824-101.823z"/><path fill="#1A1A1A" d="M2402.823 12.865l100.229 100.229 1.594 1.594c1.775-4.278 3.553-8.557 5.329-12.834h-582.4789999999999c1.758 4.259 3.518 8.519 5.277 12.776 33.352-33.348 66.699-66.697 100.048-100.046l1.777-1.777-5.388 2.227h378.832c9.687 0 9.771-15.003.107-15.003h-377.59299999999996c-5.177 0-7.91 3.511-11.274 6.874-32.39 32.392-64.781 64.783-97.174 97.176-4.58 4.579-1.211 12.777 5.277 12.777h582.4789999999999c6.597 0 10.003-8.161 5.329-12.834-33.41-33.41-66.818-66.82-100.229-100.23l-1.594-1.593c-6.831-6.836-17.4 3.812-10.547 10.664z"/><path fill="#C7B299" d="M2160.434 109.356h116.495v72h-116.495z"/><path fill="#1A1A1A" d="M2276.983 173.855h-116.495l7.448 7.556v-72c-2.519 2.481-5.038 4.965-7.556 7.448h116.496l-7.449-7.557v72c0 9.688 15.005 9.772 15.005.108v-72c0-4.065-3.343-7.556-7.448-7.556h-116.495c-4.065 0-7.556 3.342-7.556 7.447v72c0 4.065 3.342 7.557 7.447 7.557h116.496c9.685 0 9.771-15.003.107-15.003z"/><path fill="#C7B299" d="M2246.244 7.533l30.685 101.823h-116.495l30.687-101.823z"/><path fill="#1A1A1A" d="M2239 9.474c10.229 33.941 20.457 67.883 30.687 101.823l7.298-9.442h-116.495l7.181 9.481 30.688-101.823-7.289 5.521h55.123c9.686 0 9.771-15.003.107-15.003h-55.123c-3.432 0-6.311 2.274-7.289 5.521-10.229 33.941-20.457 67.882-30.688 101.823-1.396 4.638 2.422 9.482 7.182 9.482h116.496c4.758 0 8.719-4.728 7.297-9.443l-30.686-101.823c-2.786-9.243-17.282-5.388-14.489 3.883z"/></g></svg>