<svg xmlns="http://www.w3.org/2000/svg" width="780.038" height="317.857" viewBox="0 0 780.038 317.857"><text transform="translate(268.041 161.89)"><tspan x="0" y="0" fill="#1A1A1A" font-family="'GothamRounded-Bold'" font-size="100">DISCREET</tspan><tspan x="0" y="80" fill="#1A1A1A" font-family="'GothamRounded-Bold'" font-size="100">DROP</tspan></text><path fill="#1A1A1A" d="M202.271 125.939l54.644-31.549-89.407-51.619 15.61 15.61c18.34 18.341 24.718 44.07 19.153 67.558zm3.785 6.477l54.644-31.549c4.866-2.809 4.866-10.143 0-12.952-29.802-17.207-59.604-34.413-89.407-51.619-7.398-4.271-15.146 5.721-9.088 11.779 7.052 7.052 14.623 13.849 20.953 21.571 12.208 14.895 16.066 35.778 11.882 54.3-2.128 9.42 12.333 13.421 14.464 3.987 4.959-21.952 1.005-44.938-11.736-63.596-6.855-10.04-16.4-18.312-24.957-26.869l-9.088 11.779c29.802 17.207 59.604 34.413 89.407 51.619v-12.952l-54.644 31.549c-8.372 4.834-.822 17.798 7.57 12.953zm-124.761-74.034s6.895-6.896 15.609-15.609l-89.404 51.618 54.643 31.548c-5.565-23.488.812-49.217 19.152-67.557zm5.303 5.303l15.609-15.609c6.059-6.058-1.69-16.05-9.088-11.779-29.802 17.206-59.603 34.411-89.405 51.618-4.865 2.809-4.865 10.143 0 12.952l54.644 31.548c5.897 3.405 12.446-2.146 11.017-8.47-4.93-21.825 1.607-44.297 17.223-60.26 6.766-6.916-3.833-17.53-10.606-10.606-19.444 19.876-27.199 47.77-21.081 74.854 3.672-2.823 7.345-5.646 11.017-8.47l-54.642-31.548v12.952c29.801-17.206 59.603-34.412 89.403-51.618l-9.088-11.779-15.609 15.609c-6.846 6.845 3.761 17.452 10.606 10.606zm-10.606-10.606c-18.771 19.187-26.513 45.591-21.715 71.907 1.114 6.11 4.428 7.63 9.112 10.334 5.511 3.182 11.022 6.364 16.534 9.546 13.241 7.645 26.482 15.29 39.723 22.934 2.907 1.678 5.813 3.356 8.72 5.035 4.503 2.6 8.43-.432 12.195-2.605 21.79-12.581 43.58-25.161 65.37-37.741 4.526-2.613 4.642-9.324 5.19-13.951.771-6.507.728-12.963-.129-19.459-1.716-13.008-6.496-25.333-14.138-36.016-7.077-9.893-16.591-18.14-25.163-26.712-11.394-11.394-22.788-22.788-34.181-34.182-2.89-2.89-7.717-2.89-10.606 0-16.971 16.968-33.943 33.938-50.912 50.91-6.845 6.846 3.761 17.452 10.606 10.606 16.97-16.971 33.941-33.941 50.912-50.912h-10.606l35.34 35.341c7.039 7.039 14.595 13.824 20.913 21.532 12.208 14.895 16.066 35.778 11.882 54.3l3.447-4.482-70.063 40.451h7.57c-23.354-13.484-46.709-26.968-70.064-40.452l3.447 4.482c-4.93-21.826 1.607-44.297 17.223-60.26 6.765-6.916-3.834-17.53-10.607-10.606zm60.001 106.836c-40.028-23.11-80.056-46.22-120.084-69.331l-4.623-2.669c-4.921-2.841-11.286.768-11.286 6.476v141.747c0 3.503.406 6.819 3.912 8.843l6.351 3.667 32.1 18.533c25.607 14.784 51.214 29.568 76.822 44.353 3.079 1.778 6.158 3.556 9.238 5.333 4.92 2.841 11.285-.768 11.285-6.476v-144c0-9.673-15-9.673-15 0v144c3.762-2.158 7.523-4.317 11.285-6.476-40.918-23.625-81.837-47.249-122.756-70.874l-1.951-1.126 3.714 6.476v-144l-11.286 6.476c40.335 23.288 80.67 46.575 121.006 69.862l3.702 2.138c8.393 4.845 15.943-8.119 7.571-12.952zm62.493-40.452c-21.35 12.327-42.7 24.653-64.05 36.979-3.359 1.939-8.336 3.868-9.46 7.954-.589 2.142-.268 4.751-.268 6.932v139.062c0 5.708 6.365 9.316 11.285 6.476 40.919-23.624 81.837-47.248 122.756-70.873 3.043-1.757 5.666-3.768 5.666-7.83v-143.773c0-5.708-6.365-9.317-11.285-6.476-18.215 10.517-36.43 21.033-54.644 31.549-8.372 4.833-.822 17.797 7.57 12.952l54.644-31.549-11.285-6.476v144l3.715-6.476c-40.919 23.624-81.837 47.248-122.756 70.873l-1.951 1.127c3.762 2.158 7.523 4.317 11.285 6.476v-144l-3.715 6.476 70.063-40.451c8.372-4.833.822-17.797-7.57-12.952z"/></svg>