<svg xmlns="http://www.w3.org/2000/svg" width="264.415" height="317.857" viewBox="0 0 264.415 317.857"><path fill="#1A1A1A" d="M256.915 94.391l-124.708-72-124.707 72 124.708 72zm3.785-6.476c-40.918-23.625-81.837-47.249-122.756-70.874l-1.951-1.126c-2.337-1.349-5.234-1.349-7.571 0-40.919 23.624-81.838 47.249-122.756 70.873l-1.952 1.126c-4.865 2.809-4.865 10.143 0 12.952 40.919 23.625 81.838 47.249 122.756 70.874l1.952 1.126c2.336 1.349 5.234 1.349 7.57 0l122.756-70.874 1.951-1.126c8.372-4.833.822-17.797-7.57-12.952l-122.756 70.874-1.951 1.126h7.57c-40.918-23.624-81.836-47.248-122.755-70.873l-1.951-1.126v12.952l122.755-70.874 1.952-1.126h-7.571c40.919 23.625 81.838 47.249 122.756 70.874l1.952 1.126c8.392 4.845 15.942-8.119 7.57-12.952z"/><linearGradient id="a" gradientUnits="userSpaceOnUse" x1="132.207" y1="181.31" x2="132.207" y2="7.47"><stop offset=".043" stop-color="#0070BF"/><stop offset=".207" stop-color="#1986D4"/><stop offset=".396" stop-color="#2E9AE6"/><stop offset=".581" stop-color="#3BA5F1"/><stop offset=".755" stop-color="#3FA9F5"/></linearGradient><path fill="url(#a)" d="M81.295 160.206c-28.141-28.141-28.141-73.683 0-101.824l50.912-50.912 50.911 50.912c28.143 28.141 28.143 73.684 0 101.823-28.141 28.141-73.682 28.141-101.823.001z"/><path fill="#1A1A1A" d="M86.598 154.902c-14.594-14.889-21.563-35.861-18.015-56.521 2.612-15.21 10.647-27.328 21.344-38.024l47.583-47.583h-10.606l50.114 50.115c14.083 14.083 20.948 32.686 19.446 52.54-1.755 23.214-17.407 43.181-38.088 52.892-23.999 11.268-53.209 4.783-71.778-13.419-6.91-6.773-17.523 3.827-10.606 10.606 17.195 16.855 41.055 25.49 65.066 22.758 24.545-2.792 46.172-16.898 59.191-37.816 12.494-20.075 14.688-45.842 6.804-67.979-5.292-14.859-15.177-25.938-26.063-36.824-14.493-14.494-28.986-28.987-43.479-43.48-2.89-2.89-7.717-2.89-10.606 0-16.487 16.487-32.975 32.974-49.461 49.461-13.816 13.814-22.155 30.743-24.365 50.172-2.66 23.389 6.612 47.079 22.913 63.709 6.779 6.916 17.38-3.697 10.606-10.607z"/><linearGradient id="b" gradientUnits="userSpaceOnUse" x1="38.677" y1="256.391" x2="101.031" y2="148.39"><stop offset="0" stop-color="#C68945"/><stop offset="1" stop-color="#C69C6D"/></linearGradient><path fill="url(#b)" d="M7.5 94.391l124.708 72v144l-124.708-72z"/><path fill="#1A1A1A" d="M3.714 100.867c40.919 23.625 81.838 47.249 122.756 70.874l1.952 1.126-3.715-6.476v144c3.762-2.158 7.523-4.317 11.285-6.476-40.918-23.625-81.837-47.249-122.756-70.874l-1.951-1.126 3.714 6.476v-144c0-9.673-15-9.673-15 0v141.747c0 3.503.406 6.819 3.912 8.843l6.351 3.667 32.1 18.533c25.607 14.784 51.214 29.568 76.822 44.353 3.079 1.778 6.158 3.556 9.238 5.333 4.92 2.841 11.285-.768 11.285-6.476v-141.747c0-3.504-.406-6.819-3.912-8.843l-6.351-3.667-32.1-18.533c-25.607-14.785-51.214-29.569-76.822-44.353-3.079-1.778-6.158-3.556-9.237-5.333-8.392-4.846-15.942 8.118-7.571 12.952z"/><linearGradient id="c" gradientUnits="userSpaceOnUse" x1="163.384" y1="148.391" x2="225.738" y2="256.391"><stop offset="0" stop-color="#C69C6D"/><stop offset="1" stop-color="#C68945"/></linearGradient><path fill="url(#c)" d="M256.915 94.391l-124.707 72v144l124.707-72z"/><path fill="#1A1A1A" d="M253.129 87.915l-122.756 70.874c-3.043 1.757-5.666 3.767-5.666 7.831v143.771c0 5.708 6.365 9.316 11.285 6.476 40.919-23.624 81.837-47.248 122.756-70.873 3.043-1.757 5.666-3.768 5.666-7.83v-143.773c0-9.673-15-9.673-15 0v144l3.715-6.476c-40.919 23.624-81.837 47.248-122.756 70.873l-1.951 1.127c3.762 2.158 7.523 4.317 11.285 6.476v-144l-3.715 6.476 122.756-70.874 1.951-1.126c8.373-4.834.823-17.798-7.57-12.952z"/></svg>