<svg xmlns="http://www.w3.org/2000/svg" width="780.038" height="317.857" viewBox="0 0 780.038 317.857"><path fill="#1A1A1A" d="M256.915 94.391l-124.708-72-124.707 72 124.708 72zm3.785-6.476c-40.918-23.625-81.837-47.249-122.756-70.874l-1.951-1.126c-2.337-1.349-5.234-1.349-7.571 0-40.919 23.624-81.838 47.249-122.756 70.873l-1.952 1.126c-4.865 2.809-4.865 10.143 0 12.952 40.919 23.625 81.838 47.249 122.756 70.874l1.952 1.126c2.336 1.349 5.234 1.349 7.57 0l122.756-70.874 1.951-1.126c8.372-4.833.822-17.797-7.57-12.952l-122.756 70.874-1.951 1.126h7.57c-40.918-23.624-81.836-47.248-122.755-70.873l-1.951-1.126v12.952l122.755-70.874 1.952-1.126h-7.571c40.919 23.625 81.838 47.249 122.756 70.874l1.952 1.126c8.392 4.845 15.942-8.119 7.57-12.952z"/><linearGradient id="a" gradientUnits="userSpaceOnUse" x1="132.207" y1="181.31" x2="132.207" y2="7.47"><stop offset=".043" stop-color="#0070BF"/><stop offset=".207" stop-color="#1986D4"/><stop offset=".396" stop-color="#2E9AE6"/><stop offset=".581" stop-color="#3BA5F1"/><stop offset=".755" stop-color="#3FA9F5"/></linearGradient><path fill="url(#a)" d="M81.295 160.206c-28.141-28.141-28.141-73.683 0-101.824l50.912-50.912 50.911 50.912c28.143 28.141 28.143 73.684 0 101.823-28.141 28.141-73.682 28.141-101.823.001z"/><path fill="#1A1A1A" d="M86.598 154.902c-14.594-14.889-21.563-35.861-18.015-56.521 2.612-15.21 10.647-27.328 21.344-38.024l47.583-47.583h-10.606l50.114 50.115c14.083 14.083 20.948 32.686 19.446 52.54-1.755 23.214-17.407 43.181-38.088 52.892-23.999 11.268-53.209 4.783-71.778-13.419-6.91-6.773-17.523 3.827-10.606 10.606 17.195 16.855 41.055 25.49 65.066 22.758 24.545-2.792 46.172-16.898 59.191-37.816 12.494-20.075 14.688-45.842 6.804-67.979-5.292-14.859-15.177-25.938-26.063-36.824-14.493-14.494-28.986-28.987-43.479-43.48-2.89-2.89-7.717-2.89-10.606 0-16.487 16.487-32.975 32.974-49.461 49.461-13.816 13.814-22.155 30.743-24.365 50.172-2.66 23.389 6.612 47.079 22.913 63.709 6.779 6.916 17.38-3.697 10.606-10.607zm189.843-55.316c0-4.3 3.4-7.701 7.701-7.701h19.601c22.001 0 37.202 15.101 37.202 34.802v.2c0 19.701-15.201 35.002-37.202 35.002h-19.601c-4.3 0-7.701-3.4-7.701-7.701v-54.602zm27.302 48.403c12.601 0 21.102-8.5 21.102-20.901v-.2c0-12.401-8.501-21.102-21.102-21.102h-11.901v42.203h11.901zm49.778-49.003c0-4.3 3.4-7.701 7.7-7.701 4.301 0 7.701 3.4 7.701 7.701v55.803c0 4.3-3.4 7.701-7.701 7.701-4.3 0-7.7-3.4-7.7-7.701v-55.803zm30.35 55.504c-1.7-1.2-2.9-3.4-2.9-5.8 0-4 3.2-7.101 7.2-7.101 2 0 3.4.7 4.4 1.4 5.301 3.9 11.102 6.301 17.901 6.301 6.3 0 10.101-2.5 10.101-6.601v-.2c0-3.9-2.4-5.9-14.101-8.9-14.101-3.6-23.202-7.5-23.202-21.401v-.2c0-12.701 10.201-21.102 24.502-21.102 8.5 0 15.9 2.2 22.201 6.201 1.7 1 3.4 3.1 3.4 6.1 0 4-3.2 7.101-7.2 7.101-1.501 0-2.7-.4-3.9-1.1-5.101-3-9.901-4.7-14.701-4.7-5.9 0-9.001 2.7-9.001 6.1v.2c0 4.6 3.001 6.1 15.102 9.201 14.201 3.7 22.201 8.8 22.201 21.001v.2c0 13.901-10.601 21.701-25.701 21.701-9.202-.001-18.503-2.801-26.302-8.401zm60.049-27.402v-.2c0-19.901 15.001-36.202 36.502-36.202 10.501 0 17.602 2.8 23.402 7.1 1.6 1.2 3 3.4 3 6.101 0 4.2-3.4 7.5-7.602 7.5-2.1 0-3.5-.8-4.6-1.5-4.301-3.2-8.801-5-14.301-5-11.801 0-20.301 9.8-20.301 21.801v.2c0 12 8.3 22.001 20.301 22.001 6.5 0 10.801-2 15.201-5.5 1.199-1 2.8-1.7 4.6-1.7 3.9 0 7.201 3.2 7.201 7.101 0 2.4-1.201 4.3-2.601 5.5-6.3 5.5-13.7 8.801-24.901 8.801-20.6-.001-35.901-15.902-35.901-36.003zm75.52-27.502c0-4.3 3.4-7.701 7.701-7.701h24.301c8.9 0 15.801 2.5 20.401 7.101 3.9 3.9 6.001 9.4 6.001 16.001v.2c0 11-5.501 17.801-14.002 21.301l10.701 13c1.5 1.9 2.5 3.5 2.5 5.9 0 4.3-3.6 7.101-7.301 7.101-3.5 0-5.8-1.7-7.6-4l-15.002-19.001h-12.3v15.301c0 4.3-3.399 7.701-7.699 7.701-4.301 0-7.701-3.4-7.701-7.701v-55.203zm31.002 26.302c7.5 0 11.801-4 11.801-9.901v-.2c0-6.6-4.6-10-12.101-10h-15.302v20.102h15.602zm40.767 28.301v-54.603c0-4.3 3.4-7.701 7.701-7.701h38.802c3.8 0 6.9 3.1 6.9 6.9s-3.101 6.801-6.9 6.801h-31.202v14.201h26.702c3.8 0 6.9 3.1 6.9 6.9s-3.101 6.8-6.9 6.8h-26.702v14.701h31.702c3.8 0 6.9 3.1 6.9 6.9s-3.101 6.8-6.9 6.8h-39.302c-4.3.002-7.701-3.398-7.701-7.699zm66.071 0v-54.603c0-4.3 3.4-7.701 7.7-7.701h38.802c3.801 0 6.9 3.1 6.9 6.9s-3.1 6.801-6.9 6.801h-31.201v14.201h26.701c3.801 0 6.9 3.1 6.9 6.9s-3.1 6.8-6.9 6.8h-26.701v14.701h31.701c3.801 0 6.9 3.1 6.9 6.9s-3.1 6.8-6.9 6.8h-39.302c-4.3.002-7.7-3.398-7.7-7.699zm82.66-48.102h-14.801c-3.9 0-7.1-3.2-7.1-7.101s3.199-7.101 7.1-7.101h45.003c3.9 0 7.101 3.2 7.101 7.101s-3.2 7.101-7.101 7.101h-14.801v48.703c0 4.3-3.4 7.701-7.7 7.701-4.301 0-7.701-3.4-7.701-7.701v-48.703zm-463.499 73.499c0-4.3 3.4-7.701 7.701-7.701h19.601c22.001 0 37.202 15.101 37.202 34.802v.201c0 19.701-15.201 35.002-37.202 35.002h-19.601c-4.3 0-7.701-3.4-7.701-7.701v-54.603zm27.302 48.403c12.601 0 21.102-8.501 21.102-20.901v-.199c0-12.401-8.501-21.102-21.102-21.102h-11.901v42.203h11.901zm49.467-48.403c0-4.3 3.4-7.701 7.7-7.701h24.302c8.901 0 15.802 2.5 20.401 7.101 3.9 3.9 6 9.4 6 16.001v.2c0 11-5.5 17.801-14 21.301l10.7 13.001c1.5 1.9 2.5 3.501 2.5 5.9 0 4.3-3.601 7.101-7.3 7.101-3.501 0-5.801-1.7-7.602-4l-15-19.002h-12.301v15.301c0 4.301-3.4 7.701-7.701 7.701-4.3 0-7.7-3.4-7.7-7.701v-55.203zm31.002 26.303c7.501 0 11.801-4.001 11.801-9.901v-.2c0-6.6-4.601-10-12.101-10h-15.301v20.102h15.601zm36.337 1.199v-.199c0-19.902 15.701-36.203 37.303-36.203s37.103 16.101 37.103 36.001v.201c0 19.9-15.701 36.201-37.303 36.201-21.601.001-37.103-16.1-37.103-36.001zm58.305 0v-.199c0-12.001-8.801-22.002-21.202-22.002-12.4 0-21.001 9.8-21.001 21.801v.201c0 12 8.801 22 21.201 22s21.002-9.8 21.002-21.801zm28.595-27.502c0-4.3 3.4-7.701 7.7-7.701h20.902c16.7 0 26.801 9.901 26.801 24.202v.199c0 16.201-12.601 24.602-28.302 24.602h-11.7v13.9c0 4.301-3.4 7.701-7.701 7.701-4.3 0-7.7-3.4-7.7-7.701v-55.202zm27.601 27.602c7.7 0 12.201-4.6 12.201-10.6v-.201c0-6.9-4.8-10.6-12.501-10.6h-11.9v21.401h12.2z"/><linearGradient id="b" gradientUnits="userSpaceOnUse" x1="38.677" y1="256.391" x2="101.031" y2="148.39"><stop offset="0" stop-color="#C68945"/><stop offset="1" stop-color="#C69C6D"/></linearGradient><path fill="url(#b)" d="M7.5 94.391l124.708 72v144l-124.708-72z"/><path fill="#1A1A1A" d="M3.714 100.867c40.919 23.625 81.838 47.249 122.756 70.874l1.952 1.126-3.715-6.476v144c3.762-2.158 7.523-4.317 11.285-6.476-40.918-23.625-81.837-47.249-122.756-70.874l-1.951-1.126 3.714 6.476v-144c0-9.673-15-9.673-15 0v141.747c0 3.503.406 6.819 3.912 8.843l6.351 3.667 32.1 18.533c25.607 14.784 51.214 29.568 76.822 44.353 3.079 1.778 6.158 3.556 9.238 5.333 4.92 2.841 11.285-.768 11.285-6.476v-141.747c0-3.504-.406-6.819-3.912-8.843l-6.351-3.667-32.1-18.533c-25.607-14.785-51.214-29.569-76.822-44.353-3.079-1.778-6.158-3.556-9.237-5.333-8.392-4.846-15.942 8.118-7.571 12.952z"/><linearGradient id="c" gradientUnits="userSpaceOnUse" x1="163.384" y1="148.391" x2="225.738" y2="256.391"><stop offset="0" stop-color="#C69C6D"/><stop offset="1" stop-color="#C68945"/></linearGradient><path fill="url(#c)" d="M256.915 94.391l-124.707 72v144l124.707-72z"/><path fill="#1A1A1A" d="M253.129 87.915l-122.756 70.874c-3.043 1.757-5.666 3.767-5.666 7.831v143.771c0 5.708 6.365 9.316 11.285 6.476 40.919-23.624 81.837-47.248 122.756-70.873 3.043-1.757 5.666-3.768 5.666-7.83v-143.773c0-9.673-15-9.673-15 0v144l3.715-6.476c-40.919 23.624-81.837 47.248-122.756 70.873l-1.951 1.127c3.762 2.158 7.523 4.317 11.285 6.476v-144l-3.715 6.476 122.756-70.874 1.951-1.126c8.373-4.834.823-17.798-7.57-12.952z"/></svg>