<svg xmlns="http://www.w3.org/2000/svg" width="780.038" height="317.857" viewBox="0 0 780.038 317.857"><path d="M276.441 99.586c0-4.3 3.4-7.701 7.701-7.701h19.601c22.001 0 37.202 15.101 37.202 34.802v.2c0 19.701-15.201 35.002-37.202 35.002h-19.601c-4.3 0-7.701-3.4-7.701-7.701v-54.602zm27.302 48.403c12.601 0 21.102-8.5 21.102-20.901v-.2c0-12.401-8.501-21.102-21.102-21.102h-11.901v42.203h11.901zm49.778-49.003c0-4.3 3.4-7.701 7.7-7.701 4.301 0 7.701 3.4 7.701 7.701v55.803c0 4.3-3.4 7.701-7.701 7.701-4.3 0-7.7-3.4-7.7-7.701v-55.803zm30.35 55.504c-1.7-1.2-2.9-3.4-2.9-5.8 0-4 3.2-7.101 7.2-7.101 2 0 3.4.7 4.4 1.4 5.301 3.9 11.102 6.301 17.901 6.301 6.3 0 10.101-2.5 10.101-6.601v-.2c0-3.9-2.4-5.9-14.101-8.9-14.101-3.6-23.202-7.5-23.202-21.401v-.2c0-12.701 10.201-21.102 24.502-21.102 8.5 0 15.9 2.2 22.201 6.201 1.7 1 3.4 3.1 3.4 6.1 0 4-3.2 7.101-7.2 7.101-1.501 0-2.7-.4-3.9-1.1-5.101-3-9.901-4.7-14.701-4.7-5.9 0-9.001 2.7-9.001 6.1v.2c0 4.6 3.001 6.1 15.102 9.201 14.201 3.7 22.201 8.8 22.201 21.001v.2c0 13.901-10.601 21.701-25.701 21.701-9.202-.001-18.503-2.801-26.302-8.401zm60.049-27.402v-.2c0-19.901 15.001-36.202 36.502-36.202 10.501 0 17.602 2.8 23.402 7.1 1.6 1.2 3 3.4 3 6.101 0 4.2-3.4 7.5-7.602 7.5-2.1 0-3.5-.8-4.6-1.5-4.301-3.2-8.801-5-14.301-5-11.801 0-20.301 9.8-20.301 21.801v.2c0 12 8.3 22.001 20.301 22.001 6.5 0 10.801-2 15.201-5.5 1.199-1 2.8-1.7 4.6-1.7 3.9 0 7.201 3.2 7.201 7.101 0 2.4-1.201 4.3-2.601 5.5-6.3 5.5-13.7 8.801-24.901 8.801-20.6-.001-35.901-15.902-35.901-36.003zm75.52-27.502c0-4.3 3.4-7.701 7.701-7.701h24.301c8.9 0 15.801 2.5 20.401 7.101 3.9 3.9 6.001 9.4 6.001 16.001v.2c0 11-5.501 17.801-14.002 21.301l10.701 13c1.5 1.9 2.5 3.5 2.5 5.9 0 4.3-3.6 7.101-7.301 7.101-3.5 0-5.8-1.7-7.6-4l-15.002-19.001h-12.3v15.301c0 4.3-3.399 7.701-7.699 7.701-4.301 0-7.701-3.4-7.701-7.701v-55.203zm31.002 26.302c7.5 0 11.801-4 11.801-9.901v-.2c0-6.6-4.6-10-12.101-10h-15.302v20.102h15.602zm40.767 28.301v-54.603c0-4.3 3.4-7.701 7.701-7.701h38.802c3.8 0 6.9 3.1 6.9 6.9s-3.101 6.801-6.9 6.801h-31.202v14.201h26.702c3.8 0 6.9 3.1 6.9 6.9s-3.101 6.8-6.9 6.8h-26.702v14.701h31.702c3.8 0 6.9 3.1 6.9 6.9s-3.101 6.8-6.9 6.8h-39.302c-4.3.002-7.701-3.398-7.701-7.699zm66.071 0v-54.603c0-4.3 3.4-7.701 7.7-7.701h38.802c3.801 0 6.9 3.1 6.9 6.9s-3.1 6.801-6.9 6.801h-31.201v14.201h26.701c3.801 0 6.9 3.1 6.9 6.9s-3.1 6.8-6.9 6.8h-26.701v14.701h31.701c3.801 0 6.9 3.1 6.9 6.9s-3.1 6.8-6.9 6.8h-39.302c-4.3.002-7.7-3.398-7.7-7.699zm82.66-48.102h-14.801c-3.9 0-7.1-3.2-7.1-7.101s3.199-7.101 7.1-7.101h45.003c3.9 0 7.101 3.2 7.101 7.101s-3.2 7.101-7.101 7.101h-14.801v48.703c0 4.3-3.4 7.701-7.7 7.701-4.301 0-7.701-3.4-7.701-7.701v-48.703zm-463.499 73.499c0-4.3 3.4-7.701 7.701-7.701h19.601c22.001 0 37.202 15.101 37.202 34.802v.201c0 19.701-15.201 35.002-37.202 35.002h-19.601c-4.3 0-7.701-3.4-7.701-7.701v-54.603zm27.302 48.403c12.601 0 21.102-8.501 21.102-20.901v-.199c0-12.401-8.501-21.102-21.102-21.102h-11.901v42.203h11.901zm49.467-48.403c0-4.3 3.4-7.701 7.7-7.701h24.302c8.901 0 15.802 2.5 20.401 7.101 3.9 3.9 6 9.4 6 16.001v.2c0 11-5.5 17.801-14 21.301l10.7 13.001c1.5 1.9 2.5 3.501 2.5 5.9 0 4.3-3.601 7.101-7.3 7.101-3.501 0-5.801-1.7-7.602-4l-15-19.002h-12.301v15.301c0 4.301-3.4 7.701-7.701 7.701-4.3 0-7.7-3.4-7.7-7.701v-55.203zm31.002 26.303c7.501 0 11.801-4.001 11.801-9.901v-.2c0-6.6-4.601-10-12.101-10h-15.301v20.102h15.601zm36.337 1.199v-.199c0-19.902 15.701-36.203 37.303-36.203s37.103 16.101 37.103 36.001v.201c0 19.9-15.701 36.201-37.303 36.201-21.601.001-37.103-16.1-37.103-36.001zm58.305 0v-.199c0-12.001-8.801-22.002-21.202-22.002-12.4 0-21.001 9.8-21.001 21.801v.201c0 12 8.801 22 21.201 22s21.002-9.8 21.002-21.801zm28.595-27.502c0-4.3 3.4-7.701 7.7-7.701h20.902c16.7 0 26.801 9.901 26.801 24.202v.199c0 16.201-12.601 24.602-28.302 24.602h-11.7v13.9c0 4.301-3.4 7.701-7.701 7.701-4.3 0-7.7-3.4-7.7-7.701v-55.202zm27.601 27.602c7.7 0 12.201-4.6 12.201-10.6v-.201c0-6.9-4.8-10.6-12.501-10.6h-11.9v21.401h12.2zM202.271 125.939l54.644-31.549-89.407-51.619 15.61 15.61c18.34 18.341 24.718 44.07 19.153 67.558zm3.785 6.477l54.644-31.549c4.866-2.809 4.866-10.143 0-12.952-29.802-17.207-59.604-34.413-89.407-51.619-7.398-4.271-15.146 5.721-9.088 11.779 7.052 7.052 14.623 13.849 20.953 21.571 12.208 14.895 16.066 35.778 11.882 54.3-2.128 9.42 12.333 13.421 14.464 3.987 4.959-21.952 1.005-44.938-11.736-63.596-6.855-10.04-16.4-18.312-24.957-26.869l-9.088 11.779c29.802 17.207 59.604 34.413 89.407 51.619v-12.952l-54.644 31.549c-8.372 4.834-.822 17.798 7.57 12.953zm-124.761-74.034s6.895-6.896 15.609-15.609l-89.404 51.618 54.643 31.548c-5.565-23.488.812-49.217 19.152-67.557zm5.303 5.303l15.609-15.609c6.059-6.058-1.69-16.05-9.088-11.779-29.802 17.206-59.603 34.411-89.405 51.618-4.865 2.809-4.865 10.143 0 12.952l54.644 31.548c5.897 3.405 12.446-2.146 11.017-8.47-4.93-21.825 1.607-44.297 17.223-60.26 6.766-6.916-3.833-17.53-10.606-10.606-19.444 19.876-27.199 47.77-21.081 74.854 3.672-2.823 7.345-5.646 11.017-8.47l-54.642-31.548v12.952c29.801-17.206 59.603-34.412 89.403-51.618l-9.088-11.779-15.609 15.609c-6.846 6.845 3.761 17.452 10.606 10.606zm-10.606-10.606c-18.771 19.187-26.513 45.591-21.715 71.907 1.114 6.11 4.428 7.63 9.112 10.334 5.511 3.182 11.022 6.364 16.534 9.546 13.241 7.645 26.482 15.29 39.723 22.934 2.907 1.678 5.813 3.356 8.72 5.035 4.503 2.6 8.43-.432 12.195-2.605 21.79-12.581 43.58-25.161 65.37-37.741 4.526-2.613 4.642-9.324 5.19-13.951.771-6.507.728-12.963-.129-19.459-1.716-13.008-6.496-25.333-14.138-36.016-7.077-9.893-16.591-18.14-25.163-26.712-11.394-11.394-22.788-22.788-34.181-34.182-2.89-2.89-7.717-2.89-10.606 0-16.971 16.968-33.943 33.938-50.912 50.91-6.845 6.846 3.761 17.452 10.606 10.606 16.97-16.971 33.941-33.941 50.912-50.912h-10.606l35.34 35.341c7.039 7.039 14.595 13.824 20.913 21.532 12.208 14.895 16.066 35.778 11.882 54.3l3.447-4.482-70.063 40.451h7.57c-23.354-13.484-46.709-26.968-70.064-40.452l3.447 4.482c-4.93-21.826 1.607-44.297 17.223-60.26 6.765-6.916-3.834-17.53-10.607-10.606zm60.001 106.836c-40.028-23.11-80.056-46.22-120.084-69.331l-4.623-2.669c-4.921-2.841-11.286.768-11.286 6.476v141.747c0 3.503.406 6.819 3.912 8.843l6.351 3.667 32.1 18.533c25.607 14.784 51.214 29.568 76.822 44.353 3.079 1.778 6.158 3.556 9.238 5.333 4.92 2.841 11.285-.768 11.285-6.476v-144c0-9.673-15-9.673-15 0v144c3.762-2.158 7.523-4.317 11.285-6.476-40.918-23.625-81.837-47.249-122.756-70.874l-1.951-1.126 3.714 6.476v-144l-11.286 6.476c40.335 23.288 80.67 46.575 121.006 69.862l3.702 2.138c8.393 4.845 15.943-8.119 7.571-12.952zm62.493-40.452c-21.35 12.327-42.7 24.653-64.05 36.979-3.359 1.939-8.336 3.868-9.46 7.954-.589 2.142-.268 4.751-.268 6.932v139.062c0 5.708 6.365 9.316 11.285 6.476 40.919-23.624 81.837-47.248 122.756-70.873 3.043-1.757 5.666-3.768 5.666-7.83v-143.773c0-5.708-6.365-9.317-11.285-6.476-18.215 10.517-36.43 21.033-54.644 31.549-8.372 4.833-.822 17.797 7.57 12.952l54.644-31.549-11.285-6.476v144l3.715-6.476c-40.919 23.624-81.837 47.248-122.756 70.873l-1.951 1.127c3.762 2.158 7.523 4.317 11.285 6.476v-144l-3.715 6.476 70.063-40.451c8.372-4.833.822-17.797-7.57-12.952z" fill="#1A1A1A"/></svg>