<?xml version="1.0" encoding="utf-8"?>
<!-- Generator: Adobe Illustrator 15.0.0, SVG Export Plug-In . SVG Version: 6.00 Build 0)  -->
<!DOCTYPE svg PUBLIC "-//W3C//DTD SVG 1.1//EN" "http://www.w3.org/Graphics/SVG/1.1/DTD/svg11.dtd">
<svg version="1.1" id="Layer_1" xmlns="http://www.w3.org/2000/svg" xmlns:xlink="http://www.w3.org/1999/xlink" x="0px" y="0px"
	 width="780.038px" height="317.857px" viewBox="0 0 780.038 317.857" enable-background="new 0 0 780.038 317.857"
	 xml:space="preserve">
<g>
	<path fill="#1A1A1A" d="M276.441,99.586c0-4.3,3.4-7.701,7.701-7.701h19.601c22.001,0,37.202,15.101,37.202,34.802v0.2
		c0,19.701-15.201,35.002-37.202,35.002h-19.601c-4.3,0-7.701-3.4-7.701-7.701V99.586z M303.743,147.989
		c12.601,0,21.102-8.5,21.102-20.901v-0.2c0-12.401-8.501-21.102-21.102-21.102h-11.901v42.203H303.743z"/>
	<path fill="#1A1A1A" d="M353.521,98.986c0-4.3,3.4-7.701,7.7-7.701c4.301,0,7.701,3.4,7.701,7.701v55.803
		c0,4.3-3.4,7.701-7.701,7.701c-4.3,0-7.7-3.4-7.7-7.701V98.986z"/>
	<path fill="#1A1A1A" d="M383.871,154.49c-1.7-1.2-2.9-3.4-2.9-5.8c0-4,3.2-7.101,7.2-7.101c2,0,3.4,0.7,4.4,1.4
		c5.301,3.9,11.102,6.301,17.901,6.301c6.3,0,10.101-2.5,10.101-6.601v-0.2c0-3.9-2.4-5.9-14.101-8.9
		c-14.101-3.6-23.202-7.5-23.202-21.401v-0.2c0-12.701,10.201-21.102,24.502-21.102c8.5,0,15.9,2.2,22.201,6.201
		c1.7,1,3.4,3.1,3.4,6.1c0,4-3.2,7.101-7.2,7.101c-1.501,0-2.7-0.4-3.9-1.1c-5.101-3-9.901-4.7-14.701-4.7
		c-5.9,0-9.001,2.7-9.001,6.1v0.2c0,4.6,3.001,6.1,15.102,9.201c14.201,3.7,22.201,8.8,22.201,21.001v0.2
		c0,13.901-10.601,21.701-25.701,21.701C400.971,162.89,391.67,160.09,383.871,154.49z"/>
	<path fill="#1A1A1A" d="M443.92,127.088v-0.2c0-19.901,15.001-36.202,36.502-36.202c10.501,0,17.602,2.8,23.402,7.1
		c1.6,1.2,3,3.4,3,6.101c0,4.2-3.4,7.5-7.602,7.5c-2.1,0-3.5-0.8-4.6-1.5c-4.301-3.2-8.801-5-14.301-5
		c-11.801,0-20.301,9.8-20.301,21.801v0.2c0,12,8.3,22.001,20.301,22.001c6.5,0,10.801-2,15.201-5.5c1.199-1,2.8-1.7,4.6-1.7
		c3.9,0,7.201,3.2,7.201,7.101c0,2.4-1.201,4.3-2.601,5.5c-6.3,5.5-13.7,8.801-24.901,8.801
		C459.221,163.09,443.92,147.189,443.92,127.088z"/>
	<path fill="#1A1A1A" d="M519.44,99.586c0-4.3,3.4-7.701,7.701-7.701h24.301c8.9,0,15.801,2.5,20.401,7.101
		c3.9,3.9,6.001,9.4,6.001,16.001v0.2c0,11-5.501,17.801-14.002,21.301l10.701,13c1.5,1.9,2.5,3.5,2.5,5.9
		c0,4.3-3.6,7.101-7.301,7.101c-3.5,0-5.8-1.7-7.6-4l-15.002-19.001H534.84v15.301c0,4.3-3.399,7.701-7.699,7.701
		c-4.301,0-7.701-3.4-7.701-7.701V99.586z M550.442,125.888c7.5,0,11.801-4,11.801-9.901v-0.2c0-6.6-4.6-10-12.101-10H534.84v20.102
		H550.442z"/>
	<path fill="#1A1A1A" d="M591.209,154.189V99.586c0-4.3,3.4-7.701,7.701-7.701h38.802c3.8,0,6.9,3.1,6.9,6.9s-3.101,6.801-6.9,6.801
		H606.51v14.201h26.702c3.8,0,6.9,3.1,6.9,6.9s-3.101,6.8-6.9,6.8H606.51v14.701h31.702c3.8,0,6.9,3.1,6.9,6.9s-3.101,6.8-6.9,6.8
		h-39.302C594.61,161.89,591.209,158.49,591.209,154.189z"/>
	<path fill="#1A1A1A" d="M657.28,154.189V99.586c0-4.3,3.4-7.701,7.7-7.701h38.802c3.801,0,6.9,3.1,6.9,6.9s-3.1,6.801-6.9,6.801
		h-31.201v14.201h26.701c3.801,0,6.9,3.1,6.9,6.9s-3.1,6.8-6.9,6.8h-26.701v14.701h31.701c3.801,0,6.9,3.1,6.9,6.9s-3.1,6.8-6.9,6.8
		H664.98C660.68,161.89,657.28,158.49,657.28,154.189z"/>
	<path fill="#1A1A1A" d="M739.94,106.087h-14.801c-3.9,0-7.1-3.2-7.1-7.101s3.199-7.101,7.1-7.101h45.003
		c3.9,0,7.101,3.2,7.101,7.101s-3.2,7.101-7.101,7.101h-14.801v48.703c0,4.3-3.4,7.701-7.7,7.701c-4.301,0-7.701-3.4-7.701-7.701
		V106.087z"/>
	<path fill="#1A1A1A" d="M276.441,179.586c0-4.3,3.4-7.701,7.701-7.701h19.601c22.001,0,37.202,15.101,37.202,34.802v0.201
		c0,19.701-15.201,35.002-37.202,35.002h-19.601c-4.3,0-7.701-3.4-7.701-7.701V179.586z M303.743,227.989
		c12.601,0,21.102-8.501,21.102-20.901v-0.199c0-12.401-8.501-21.102-21.102-21.102h-11.901v42.203H303.743z"/>
	<path fill="#1A1A1A" d="M353.21,179.586c0-4.3,3.4-7.701,7.7-7.701h24.302c8.901,0,15.802,2.5,20.401,7.101c3.9,3.9,6,9.4,6,16.001
		v0.2c0,11-5.5,17.801-14,21.301l10.7,13.001c1.5,1.9,2.5,3.501,2.5,5.9c0,4.3-3.601,7.101-7.3,7.101c-3.501,0-5.801-1.7-7.602-4
		l-15-19.002h-12.301v15.301c0,4.301-3.4,7.701-7.701,7.701c-4.3,0-7.7-3.4-7.7-7.701V179.586z M384.212,205.889
		c7.501,0,11.801-4.001,11.801-9.901v-0.2c0-6.6-4.601-10-12.101-10h-15.301v20.102H384.212z"/>
	<path fill="#1A1A1A" d="M420.549,207.088v-0.199c0-19.902,15.701-36.203,37.303-36.203s37.103,16.101,37.103,36.001v0.201
		c0,19.9-15.701,36.201-37.303,36.201C436.051,243.09,420.549,226.989,420.549,207.088z M478.854,207.088v-0.199
		c0-12.001-8.801-22.002-21.202-22.002c-12.4,0-21.001,9.8-21.001,21.801v0.201c0,12,8.801,22,21.201,22
		S478.854,219.089,478.854,207.088z"/>
	<path fill="#1A1A1A" d="M507.449,179.586c0-4.3,3.4-7.701,7.7-7.701h20.902c16.7,0,26.801,9.901,26.801,24.202v0.199
		c0,16.201-12.601,24.602-28.302,24.602h-11.7v13.9c0,4.301-3.4,7.701-7.701,7.701c-4.3,0-7.7-3.4-7.7-7.701V179.586z
		 M535.05,207.188c7.7,0,12.201-4.6,12.201-10.6v-0.201c0-6.9-4.8-10.6-12.501-10.6h-11.9v21.401H535.05z"/>
</g>
<g>
	<path fill="#1A1A1A" d="M202.271,125.939l54.644-31.549l-89.407-51.619l15.61,15.61
		C201.458,76.722,207.836,102.451,202.271,125.939z"/>
	<g>
		<path fill="#1A1A1A" d="M206.056,132.416c18.215-10.516,36.429-21.033,54.644-31.549c4.866-2.809,4.866-10.143,0-12.952
			c-29.802-17.207-59.604-34.413-89.407-51.619c-7.398-4.271-15.146,5.721-9.088,11.779c7.052,7.052,14.623,13.849,20.953,21.571
			c12.208,14.895,16.066,35.778,11.882,54.3c-2.128,9.42,12.333,13.421,14.464,3.987c4.959-21.952,1.005-44.938-11.736-63.596
			c-6.855-10.04-16.4-18.312-24.957-26.869c-3.029,3.926-6.059,7.853-9.088,11.779c29.802,17.207,59.604,34.413,89.407,51.619
			c0-4.317,0-8.635,0-12.952c-18.215,10.516-36.429,21.033-54.644,31.549C190.114,124.297,197.664,137.261,206.056,132.416z"/>
	</g>
</g>
<g>
	<path fill="#1A1A1A" d="M81.295,58.382c0,0,6.895-6.896,15.609-15.609L7.5,94.391l54.643,31.548
		C56.578,102.451,62.955,76.722,81.295,58.382z"/>
	<g>
		<path fill="#1A1A1A" d="M86.598,63.685c5.203-5.203,10.406-10.406,15.609-15.609c6.059-6.058-1.69-16.05-9.088-11.779
			C63.317,53.503,33.516,70.708,3.714,87.915c-4.865,2.809-4.865,10.143,0,12.952c18.215,10.516,36.429,21.032,54.644,31.548
			c5.897,3.405,12.446-2.146,11.017-8.47C64.445,102.12,70.982,79.648,86.598,63.685c6.766-6.916-3.833-17.53-10.606-10.606
			c-19.444,19.876-27.199,47.77-21.081,74.854c3.672-2.823,7.345-5.646,11.017-8.47C47.714,108.947,29.5,98.431,11.286,87.915
			c0,4.317,0,8.635,0,12.952c29.801-17.206,59.603-34.412,89.403-51.618c-3.029-3.926-6.059-7.853-9.088-11.779
			c-5.203,5.203-10.406,10.406-15.609,15.609C69.146,59.924,79.753,70.531,86.598,63.685z"/>
	</g>
</g>
<g>
	<g>
		<path fill="#1A1A1A" d="M75.992,53.079C57.221,72.266,49.479,98.67,54.277,124.986c1.114,6.11,4.428,7.63,9.112,10.334
			c5.511,3.182,11.022,6.364,16.534,9.546c13.241,7.645,26.482,15.29,39.723,22.934c2.907,1.678,5.813,3.356,8.72,5.035
			c4.503,2.6,8.43-0.432,12.195-2.605c21.79-12.581,43.58-25.161,65.37-37.741c4.526-2.613,4.642-9.324,5.19-13.951
			c0.771-6.507,0.728-12.963-0.129-19.459c-1.716-13.008-6.496-25.333-14.138-36.016c-7.077-9.893-16.591-18.14-25.163-26.712
			c-11.394-11.394-22.788-22.788-34.181-34.182c-2.89-2.89-7.717-2.89-10.606,0C109.933,19.137,92.961,36.107,75.992,53.079
			c-6.845,6.846,3.761,17.452,10.606,10.606c16.97-16.971,33.941-33.941,50.912-50.912c-3.536,0-7.071,0-10.606,0
			c11.78,11.78,23.56,23.561,35.34,35.341c7.039,7.039,14.595,13.824,20.913,21.532c12.208,14.895,16.066,35.778,11.882,54.3
			c1.149-1.494,2.298-2.988,3.447-4.482c-23.354,13.484-46.709,26.967-70.063,40.451c2.523,0,5.047,0,7.57,0
			c-23.354-13.484-46.709-26.968-70.064-40.452c1.149,1.494,2.298,2.988,3.447,4.482c-4.93-21.826,1.607-44.297,17.223-60.26
			C93.364,56.769,82.765,46.155,75.992,53.079z"/>
	</g>
</g>
<g>
	<g>
		<path fill="#1A1A1A" d="M65.928,119.463C47.714,108.947,29.5,98.431,11.286,87.915C6.365,85.074,0,88.683,0,94.391
			c0,47.249,0,94.498,0,141.747c0,3.503,0.406,6.819,3.912,8.843c2.117,1.223,4.234,2.444,6.351,3.667
			c10.7,6.178,21.4,12.355,32.1,18.533c25.607,14.784,51.214,29.568,76.822,44.353c3.079,1.778,6.158,3.556,9.238,5.333
			c4.92,2.841,11.285-0.768,11.285-6.476c0-47.249,0-94.498,0-141.747c0-0.751,0-1.502,0-2.253c0-2.632-1.43-5.157-3.715-6.476
			C112.638,146.431,89.283,132.947,65.928,119.463c-8.393-4.845-15.942,8.119-7.57,12.952
			c23.354,13.484,46.709,26.968,70.064,40.452c-1.238-2.159-2.477-4.317-3.715-6.476c0,47.249,0,94.498,0,141.747
			c0,0.751,0,1.502,0,2.253c3.762-2.158,7.523-4.317,11.285-6.476c-40.918-23.625-81.837-47.249-122.756-70.874
			c-0.65-0.375-1.301-0.751-1.951-1.126c1.238,2.158,2.476,4.317,3.714,6.476c0-47.249,0-94.498,0-141.747c0-0.751,0-1.502,0-2.253
			c-3.762,2.159-7.523,4.317-11.286,6.476c18.215,10.516,36.429,21.032,54.644,31.548C66.75,137.261,74.3,124.296,65.928,119.463z"
			/>
	</g>
</g>
<g>
	<g>
		<path fill="#1A1A1A" d="M198.486,119.463c-21.35,12.327-42.7,24.653-64.05,36.979c-3.359,1.939-8.336,3.868-9.46,7.954
			c-0.589,2.142-0.268,4.751-0.268,6.932c0,11.395,0,22.79,0,34.185c0,34.959,0,69.918,0,104.877c0,5.708,6.365,9.316,11.285,6.476
			c40.919-23.624,81.837-47.248,122.756-70.873c3.043-1.757,5.666-3.768,5.666-7.83c0-2.445,0-4.89,0-7.334
			c0-12.355,0-24.711,0-37.066c0-29.568,0-59.137,0-88.706c0-3.555,0-7.111,0-10.667c0-5.708-6.365-9.317-11.285-6.476
			C234.915,98.431,216.7,108.947,198.486,119.463c-8.372,4.833-0.822,17.797,7.57,12.952c18.215-10.516,36.429-21.033,54.644-31.549
			c-3.762-2.159-7.523-4.317-11.285-6.476c0,47.249,0,94.498,0,141.747c0,0.751,0,1.502,0,2.253
			c1.238-2.158,2.477-4.317,3.715-6.476c-40.919,23.624-81.837,47.248-122.756,70.873c-0.65,0.375-1.301,0.751-1.951,1.127
			c3.762,2.158,7.523,4.317,11.285,6.476c0-47.249,0-94.498,0-141.747c0-0.751,0-1.502,0-2.253
			c-1.238,2.159-2.477,4.317-3.715,6.476c23.354-13.484,46.709-26.967,70.063-40.451
			C214.428,127.582,206.878,114.618,198.486,119.463z"/>
	</g>
</g>
</svg>
