<?xml version="1.0" encoding="utf-8"?>
<!-- Generator: Adobe Illustrator 15.0.0, SVG Export Plug-In . SVG Version: 6.00 Build 0)  -->
<!DOCTYPE svg PUBLIC "-//W3C//DTD SVG 1.1//EN" "http://www.w3.org/Graphics/SVG/1.1/DTD/svg11.dtd">
<svg version="1.1" id="Layer_1" xmlns="http://www.w3.org/2000/svg" xmlns:xlink="http://www.w3.org/1999/xlink" x="0px" y="0px"
	 width="780.038px" height="317.857px" viewBox="0 0 780.038 317.857" enable-background="new 0 0 780.038 317.857"
	 xml:space="preserve">
<g>
	<polygon fill="#1A1A1A" points="256.915,94.391 132.207,22.391 7.5,94.391 132.208,166.391 	"/>
	<g>
		<path fill="#1A1A1A" d="M260.7,87.915c-40.918-23.625-81.837-47.249-122.756-70.874c-0.65-0.375-1.301-0.751-1.951-1.126
			c-2.337-1.349-5.234-1.349-7.571,0C87.503,39.539,46.584,63.164,5.666,86.788c-0.65,0.375-1.301,0.751-1.952,1.126
			c-4.865,2.809-4.865,10.143,0,12.952c40.919,23.625,81.838,47.249,122.756,70.874c0.65,0.375,1.301,0.751,1.952,1.126
			c2.336,1.349,5.234,1.349,7.57,0c40.919-23.625,81.837-47.249,122.756-70.874c0.65-0.375,1.301-0.751,1.951-1.126
			c8.372-4.833,0.822-17.797-7.57-12.952c-40.919,23.625-81.837,47.249-122.756,70.874c-0.65,0.375-1.301,0.751-1.951,1.126
			c2.523,0,5.047,0,7.57,0C95.074,136.29,54.156,112.666,13.237,89.041c-0.65-0.375-1.301-0.751-1.951-1.126
			c0,4.317,0,8.635,0,12.952c40.918-23.625,81.837-47.249,122.755-70.874c0.65-0.375,1.301-0.751,1.952-1.126
			c-2.524,0-5.047,0-7.571,0c40.919,23.625,81.838,47.249,122.756,70.874c0.65,0.375,1.301,0.751,1.952,1.126
			C261.522,105.712,269.072,92.748,260.7,87.915z"/>
	</g>
</g>
<g>
	<linearGradient id="SVGID_1_" gradientUnits="userSpaceOnUse" x1="132.207" y1="181.3105" x2="132.207" y2="7.4702">
		<stop  offset="0.0429" style="stop-color:#0070BF"/>
		<stop  offset="0.2073" style="stop-color:#1986D4"/>
		<stop  offset="0.3964" style="stop-color:#2E9AE6"/>
		<stop  offset="0.5811" style="stop-color:#3BA5F1"/>
		<stop  offset="0.7546" style="stop-color:#3FA9F5"/>
	</linearGradient>
	<path fill="url(#SVGID_1_)" d="M81.295,160.206c-28.141-28.141-28.141-73.683,0-101.824C81.294,58.383,132.207,7.47,132.207,7.47
		l50.911,50.912c28.143,28.141,28.143,73.684,0,101.823C154.977,188.346,109.436,188.346,81.295,160.206z"/>
	<g>
		<path fill="#1A1A1A" d="M86.598,154.902c-14.594-14.889-21.563-35.861-18.015-56.521c2.612-15.21,10.647-27.328,21.344-38.024
			c15.861-15.861,31.722-31.722,47.583-47.583c-3.536,0-7.071,0-10.606,0c16.705,16.705,33.409,33.41,50.114,50.115
			c14.083,14.083,20.948,32.686,19.446,52.54c-1.755,23.214-17.407,43.181-38.088,52.892
			C134.377,179.589,105.167,173.104,86.598,154.902c-6.91-6.773-17.523,3.827-10.606,10.606
			c17.195,16.855,41.055,25.49,65.066,22.758c24.545-2.792,46.172-16.898,59.191-37.816c12.494-20.075,14.688-45.842,6.804-67.979
			c-5.292-14.859-15.177-25.938-26.063-36.824c-14.493-14.494-28.986-28.987-43.479-43.48c-2.89-2.89-7.717-2.89-10.606,0
			c-16.487,16.487-32.975,32.974-49.461,49.461C63.628,65.442,55.289,82.371,53.079,101.8c-2.66,23.389,6.612,47.079,22.913,63.709
			C82.771,172.425,93.372,161.812,86.598,154.902z"/>
	</g>
</g>
<g>
	<path fill="#1A1A1A" d="M276.441,99.586c0-4.3,3.4-7.701,7.701-7.701h19.601c22.001,0,37.202,15.101,37.202,34.802v0.2
		c0,19.701-15.201,35.002-37.202,35.002h-19.601c-4.3,0-7.701-3.4-7.701-7.701V99.586z M303.743,147.989
		c12.601,0,21.102-8.5,21.102-20.901v-0.2c0-12.401-8.501-21.102-21.102-21.102h-11.901v42.203H303.743z"/>
	<path fill="#1A1A1A" d="M353.521,98.986c0-4.3,3.4-7.701,7.7-7.701c4.301,0,7.701,3.4,7.701,7.701v55.803
		c0,4.3-3.4,7.701-7.701,7.701c-4.3,0-7.7-3.4-7.7-7.701V98.986z"/>
	<path fill="#1A1A1A" d="M383.871,154.49c-1.7-1.2-2.9-3.4-2.9-5.8c0-4,3.2-7.101,7.2-7.101c2,0,3.4,0.7,4.4,1.4
		c5.301,3.9,11.102,6.301,17.901,6.301c6.3,0,10.101-2.5,10.101-6.601v-0.2c0-3.9-2.4-5.9-14.101-8.9
		c-14.101-3.6-23.202-7.5-23.202-21.401v-0.2c0-12.701,10.201-21.102,24.502-21.102c8.5,0,15.9,2.2,22.201,6.201
		c1.7,1,3.4,3.1,3.4,6.1c0,4-3.2,7.101-7.2,7.101c-1.501,0-2.7-0.4-3.9-1.1c-5.101-3-9.901-4.7-14.701-4.7
		c-5.9,0-9.001,2.7-9.001,6.1v0.2c0,4.6,3.001,6.1,15.102,9.201c14.201,3.7,22.201,8.8,22.201,21.001v0.2
		c0,13.901-10.601,21.701-25.701,21.701C400.971,162.89,391.67,160.09,383.871,154.49z"/>
	<path fill="#1A1A1A" d="M443.92,127.088v-0.2c0-19.901,15.001-36.202,36.502-36.202c10.501,0,17.602,2.8,23.402,7.1
		c1.6,1.2,3,3.4,3,6.101c0,4.2-3.4,7.5-7.602,7.5c-2.1,0-3.5-0.8-4.6-1.5c-4.301-3.2-8.801-5-14.301-5
		c-11.801,0-20.301,9.8-20.301,21.801v0.2c0,12,8.3,22.001,20.301,22.001c6.5,0,10.801-2,15.201-5.5c1.199-1,2.8-1.7,4.6-1.7
		c3.9,0,7.201,3.2,7.201,7.101c0,2.4-1.201,4.3-2.601,5.5c-6.3,5.5-13.7,8.801-24.901,8.801
		C459.221,163.09,443.92,147.189,443.92,127.088z"/>
	<path fill="#1A1A1A" d="M519.44,99.586c0-4.3,3.4-7.701,7.701-7.701h24.301c8.9,0,15.801,2.5,20.401,7.101
		c3.9,3.9,6.001,9.4,6.001,16.001v0.2c0,11-5.501,17.801-14.002,21.301l10.701,13c1.5,1.9,2.5,3.5,2.5,5.9
		c0,4.3-3.6,7.101-7.301,7.101c-3.5,0-5.8-1.7-7.6-4l-15.002-19.001H534.84v15.301c0,4.3-3.399,7.701-7.699,7.701
		c-4.301,0-7.701-3.4-7.701-7.701V99.586z M550.442,125.888c7.5,0,11.801-4,11.801-9.901v-0.2c0-6.6-4.6-10-12.101-10H534.84v20.102
		H550.442z"/>
	<path fill="#1A1A1A" d="M591.209,154.189V99.586c0-4.3,3.4-7.701,7.701-7.701h38.802c3.8,0,6.9,3.1,6.9,6.9s-3.101,6.801-6.9,6.801
		H606.51v14.201h26.702c3.8,0,6.9,3.1,6.9,6.9s-3.101,6.8-6.9,6.8H606.51v14.701h31.702c3.8,0,6.9,3.1,6.9,6.9s-3.101,6.8-6.9,6.8
		h-39.302C594.61,161.89,591.209,158.49,591.209,154.189z"/>
	<path fill="#1A1A1A" d="M657.28,154.189V99.586c0-4.3,3.4-7.701,7.7-7.701h38.802c3.801,0,6.9,3.1,6.9,6.9s-3.1,6.801-6.9,6.801
		h-31.201v14.201h26.701c3.801,0,6.9,3.1,6.9,6.9s-3.1,6.8-6.9,6.8h-26.701v14.701h31.701c3.801,0,6.9,3.1,6.9,6.9s-3.1,6.8-6.9,6.8
		H664.98C660.68,161.89,657.28,158.49,657.28,154.189z"/>
	<path fill="#1A1A1A" d="M739.94,106.087h-14.801c-3.9,0-7.1-3.2-7.1-7.101s3.199-7.101,7.1-7.101h45.003
		c3.9,0,7.101,3.2,7.101,7.101s-3.2,7.101-7.101,7.101h-14.801v48.703c0,4.3-3.4,7.701-7.7,7.701c-4.301,0-7.701-3.4-7.701-7.701
		V106.087z"/>
	<path fill="#1A1A1A" d="M276.441,179.586c0-4.3,3.4-7.701,7.701-7.701h19.601c22.001,0,37.202,15.101,37.202,34.802v0.201
		c0,19.701-15.201,35.002-37.202,35.002h-19.601c-4.3,0-7.701-3.4-7.701-7.701V179.586z M303.743,227.989
		c12.601,0,21.102-8.501,21.102-20.901v-0.199c0-12.401-8.501-21.102-21.102-21.102h-11.901v42.203H303.743z"/>
	<path fill="#1A1A1A" d="M353.21,179.586c0-4.3,3.4-7.701,7.7-7.701h24.302c8.901,0,15.802,2.5,20.401,7.101c3.9,3.9,6,9.4,6,16.001
		v0.2c0,11-5.5,17.801-14,21.301l10.7,13.001c1.5,1.9,2.5,3.501,2.5,5.9c0,4.3-3.601,7.101-7.3,7.101c-3.501,0-5.801-1.7-7.602-4
		l-15-19.002h-12.301v15.301c0,4.301-3.4,7.701-7.701,7.701c-4.3,0-7.7-3.4-7.7-7.701V179.586z M384.212,205.889
		c7.501,0,11.801-4.001,11.801-9.901v-0.2c0-6.6-4.601-10-12.101-10h-15.301v20.102H384.212z"/>
	<path fill="#1A1A1A" d="M420.549,207.088v-0.199c0-19.902,15.701-36.203,37.303-36.203s37.103,16.101,37.103,36.001v0.201
		c0,19.9-15.701,36.201-37.303,36.201C436.051,243.09,420.549,226.989,420.549,207.088z M478.854,207.088v-0.199
		c0-12.001-8.801-22.002-21.202-22.002c-12.4,0-21.001,9.8-21.001,21.801v0.201c0,12,8.801,22,21.201,22
		S478.854,219.089,478.854,207.088z"/>
	<path fill="#1A1A1A" d="M507.449,179.586c0-4.3,3.4-7.701,7.7-7.701h20.902c16.7,0,26.801,9.901,26.801,24.202v0.199
		c0,16.201-12.601,24.602-28.302,24.602h-11.7v13.9c0,4.301-3.4,7.701-7.701,7.701c-4.3,0-7.7-3.4-7.7-7.701V179.586z
		 M535.05,207.188c7.7,0,12.201-4.6,12.201-10.6v-0.201c0-6.9-4.8-10.6-12.501-10.6h-11.9v21.401H535.05z"/>
</g>
<g>
	<linearGradient id="SVGID_2_" gradientUnits="userSpaceOnUse" x1="38.6772" y1="256.3906" x2="101.0312" y2="148.3903">
		<stop  offset="0" style="stop-color:#C68945"/>
		<stop  offset="1" style="stop-color:#C69C6D"/>
	</linearGradient>
	<polygon fill="url(#SVGID_2_)" points="7.5,94.391 132.208,166.391 132.208,310.391 7.5,238.391 	"/>
	<g>
		<path fill="#1A1A1A" d="M3.714,100.867c40.919,23.625,81.838,47.249,122.756,70.874c0.65,0.375,1.301,0.751,1.952,1.126
			c-1.238-2.159-2.477-4.317-3.715-6.476c0,47.249,0,94.498,0,141.747c0,0.751,0,1.502,0,2.253
			c3.762-2.158,7.523-4.317,11.285-6.476c-40.918-23.625-81.837-47.249-122.756-70.874c-0.65-0.375-1.301-0.751-1.951-1.126
			c1.238,2.158,2.476,4.317,3.714,6.476c0-47.249,0-94.498,0-141.747c0-0.751,0-1.502,0-2.253c0-9.673-15-9.673-15,0
			c0,47.249,0,94.498,0,141.747c0,3.503,0.406,6.819,3.912,8.843c2.117,1.223,4.234,2.444,6.351,3.667
			c10.7,6.178,21.4,12.355,32.1,18.533c25.607,14.784,51.214,29.568,76.822,44.353c3.079,1.778,6.158,3.556,9.238,5.333
			c4.92,2.841,11.285-0.768,11.285-6.476c0-47.249,0-94.498,0-141.747c0-3.504-0.406-6.819-3.912-8.843
			c-2.117-1.223-4.234-2.445-6.351-3.667c-10.7-6.178-21.4-12.355-32.1-18.533c-25.607-14.785-51.214-29.569-76.822-44.353
			c-3.079-1.778-6.158-3.556-9.237-5.333C2.893,83.069-4.657,96.033,3.714,100.867z"/>
	</g>
</g>
<g>
	<linearGradient id="SVGID_3_" gradientUnits="userSpaceOnUse" x1="163.3843" y1="148.3906" x2="225.7383" y2="256.3909">
		<stop  offset="0" style="stop-color:#C69C6D"/>
		<stop  offset="1" style="stop-color:#C68945"/>
	</linearGradient>
	<polygon fill="url(#SVGID_3_)" points="256.915,94.391 132.208,166.391 132.208,310.391 256.915,238.391 	"/>
	<g>
		<path fill="#1A1A1A" d="M253.129,87.915c-40.919,23.625-81.837,47.249-122.756,70.874c-3.043,1.757-5.666,3.767-5.666,7.831
			c0,2.444,0,4.889,0,7.333c0,12.355,0,24.711,0,37.065c0,29.569,0,59.138,0,88.706c0,3.556,0,7.111,0,10.667
			c0,5.708,6.365,9.316,11.285,6.476c40.919-23.624,81.837-47.248,122.756-70.873c3.043-1.757,5.666-3.768,5.666-7.83
			c0-2.445,0-4.89,0-7.334c0-12.355,0-24.711,0-37.066c0-29.568,0-59.137,0-88.706c0-3.555,0-7.111,0-10.667c0-9.673-15-9.673-15,0
			c0,47.249,0,94.498,0,141.747c0,0.751,0,1.502,0,2.253c1.238-2.158,2.477-4.317,3.715-6.476
			c-40.919,23.624-81.837,47.248-122.756,70.873c-0.65,0.375-1.301,0.751-1.951,1.127c3.762,2.158,7.523,4.317,11.285,6.476
			c0-47.249,0-94.498,0-141.747c0-0.751,0-1.502,0-2.253c-1.238,2.159-2.477,4.317-3.715,6.476
			c40.919-23.625,81.837-47.249,122.756-70.874c0.65-0.375,1.301-0.751,1.951-1.126C269.072,96.033,261.522,83.069,253.129,87.915z"
			/>
	</g>
</g>
</svg>
