<svg xmlns="http://www.w3.org/2000/svg" width="2171.475" height="1483.697" viewBox="0 0 2171.475 1483.697"><path fill="#1A1A1A" d="M1097.746 971.527l50.912-50.912c6.836-6.836-3.812-17.403-10.664-10.551l-50.912 50.912c-6.836 6.836 3.812 17.403 10.664 10.551zm-61.519-50.856c16.97 16.971 33.94 33.941 50.911 50.912 6.835 6.836 17.403-3.812 10.551-10.664-16.97-16.971-33.94-33.941-50.911-50.912-6.835-6.836-17.403 3.812-10.551 10.664zm63.69-242.366c-.415-43.597-35.811-79.141-79.448-79.556-9.69-.092-9.767 14.912-.107 15.004 35.437.337 64.215 28.967 64.552 64.444.091 9.68 15.094 9.775 15.003.108zm0 .021c.337-35.437 28.967-64.215 64.444-64.552 9.68-.093 9.774-15.096.107-15.004-43.597.415-79.141 35.811-79.556 79.448-.091 9.691 14.913 9.767 15.005.108zm-807.004-144.113c.415 43.597 35.81 79.141 79.448 79.556 9.69.092 9.767-14.912.108-15.004-35.437-.337-64.215-28.967-64.552-64.444-.093-9.68-15.096-9.775-15.004-.108zm1584-.005c-.337 35.437-28.967 64.215-64.444 64.552-9.68.093-9.774 15.096-.107 15.004 43.597-.415 79.141-35.811 79.556-79.448.09-9.691-14.914-9.767-15.005-.108zm-856.445 64.557h-648c-9.687 0-9.772 15.004-.108 15.004h648c9.686 0 9.772-15.004.108-15.004zm79.449 79.561v-144.01c0-9.686-15.004-9.771-15.004-.107v144.01c0 9.685 15.004 9.771 15.004.107zm712.551-79.561h-648c-9.686 0-9.771 15.004-.107 15.004h648c9.685 0 9.771-15.004.107-15.004zm-712.551 367.54v-288c0-9.686-15.004-9.771-15.004-.107v288c0 9.685 15.004 9.771 15.004.107z"/><linearGradient id="a" gradientUnits="userSpaceOnUse" x1="408.538" y1="1886.17" x2="408.538" y2="2246.17" gradientTransform="matrix(1 0 0 -1 684.77 3362.362)"><stop offset="0" stop-color="#C68945"/><stop offset="1" stop-color="#C69C6D"/></linearGradient><path fill="url(#a)" d="M802.069 1116.192h582.479v360h-582.479z"/><path fill="#1A1A1A" d="M1384.602 1468.689h-582.48l7.447 7.557v-359.999c-2.518 2.481-5.037 4.965-7.555 7.448h582.478c-2.482-2.52-4.967-5.038-7.447-7.557v360.001c0 9.687 15.004 9.771 15.004.107v-359.999c0-4.065-3.342-7.556-7.449-7.556h-582.478c-4.066 0-7.557 3.342-7.557 7.447v360.001c0 4.064 3.342 7.557 7.447 7.557h582.48c9.688-.002 9.774-15.007.11-15.007z"/><path fill="#C69C6D" d="M1282.725 1014.369l101.822 101.823h-582.478l101.824-101.823z"/><path fill="#1A1A1A" d="M1277.45 1019.701c33.41 33.41 66.818 66.819 100.229 100.229l1.594 1.594c1.777-4.278 3.555-8.557 5.33-12.834h-582.48c1.76 4.259 3.52 8.519 5.277 12.776 33.352-33.348 66.699-66.697 100.049-100.046l1.777-1.777-5.387 2.227h378.832c9.686 0 9.77-15.003.105-15.003h-377.592c-5.178 0-7.91 3.511-11.273 6.874-32.391 32.392-64.783 64.783-97.174 97.176-4.58 4.579-1.213 12.777 5.277 12.777h582.478c6.596 0 10.004-8.161 5.328-12.834-33.408-33.41-66.818-66.82-100.229-100.23l-1.594-1.593c-6.83-6.836-17.401 3.811-10.547 10.664z"/><path fill="#C7B299" d="M1035.061 1116.192h116.494v72h-116.494z"/><path fill="#1A1A1A" d="M1151.61 1180.691h-116.494c2.48 2.519 4.965 5.036 7.447 7.556v-72c-2.52 2.481-5.039 4.965-7.557 7.448h116.496l-7.447-7.557v72c0 9.688 15.004 9.772 15.004.108v-72c0-4.065-3.342-7.556-7.449-7.556h-116.494c-4.064 0-7.557 3.342-7.557 7.447v72c0 4.065 3.344 7.557 7.449 7.557h116.496c9.684 0 9.77-15.003.106-15.003z"/><path fill="#C7B299" d="M1120.872 1014.369l30.683 101.823h-116.494l30.688-101.823z"/><path fill="#1A1A1A" d="M1113.627 1016.309c10.229 33.941 20.457 67.883 30.686 101.823 2.434-3.146 4.865-6.295 7.297-9.443h-116.494l7.182 9.482 30.686-101.823c-2.43 1.841-4.857 3.682-7.287 5.521h55.123c9.686 0 9.77-15.003.105-15.003h-55.121c-3.434 0-6.311 2.274-7.289 5.521l-30.688 101.823c-1.398 4.638 2.422 9.482 7.18 9.482h116.496c4.758 0 8.721-4.728 7.299-9.443l-30.686-101.823c-2.785-9.243-17.283-5.387-14.489 3.883z"/><linearGradient id="b" gradientUnits="userSpaceOnUse" x1="406.985" y1="2892.139" x2="406.985" y2="3252.139" gradientTransform="matrix(1 0 0 -1 684.77 3362.362)"><stop offset="0" stop-color="#C68945"/><stop offset="1" stop-color="#C69C6D"/></linearGradient><path fill="url(#b)" d="M800.516 110.223h582.479v360h-582.479z"/><path fill="#1A1A1A" d="M1383.049 462.72h-582.48l7.447 7.557v-359.999c-2.518 2.481-5.037 4.965-7.555 7.448h582.478c-2.482-2.52-4.967-5.038-7.447-7.557v360.001c0 9.687 15.004 9.771 15.004.107v-359.999c0-4.065-3.342-7.556-7.449-7.556h-582.478c-4.066 0-7.557 3.342-7.557 7.447v360.001c0 4.064 3.342 7.557 7.447 7.557h582.48c9.688-.003 9.774-15.007.11-15.007z"/><path fill="#C69C6D" d="M1281.172 8.399l101.823 101.824h-582.479l101.824-101.824z"/><path fill="#1A1A1A" d="M1275.897 13.731c33.41 33.41 66.818 66.819 100.229 100.229l1.594 1.594c1.777-4.278 3.555-8.557 5.33-12.834h-582.48c1.76 4.259 3.52 8.519 5.277 12.776 33.351-33.347 66.698-66.696 100.048-100.045l1.777-1.777-5.387 2.227h378.832c9.686 0 9.77-15.003.105-15.003h-377.592c-5.178 0-7.91 3.511-11.273 6.874-32.391 32.392-64.783 64.783-97.174 97.176-4.58 4.579-1.213 12.777 5.277 12.777h582.478c6.596 0 10.004-8.161 5.328-12.834-33.406-33.411-66.816-66.821-100.226-100.231l-1.594-1.593c-6.832-6.836-17.403 3.812-10.549 10.664z"/><path fill="#C7B299" d="M1033.508 110.223h116.494v72h-116.494z"/><path fill="#1A1A1A" d="M1150.057 174.722h-116.494c2.48 2.519 4.965 5.036 7.447 7.556v-72c-2.52 2.481-5.039 4.965-7.557 7.448h116.496l-7.447-7.557v72c0 9.688 15.004 9.772 15.004.108v-72c0-4.065-3.342-7.556-7.449-7.556h-116.494c-4.064 0-7.557 3.342-7.557 7.447v72c0 4.065 3.344 7.557 7.449 7.557h116.496c9.684 0 9.77-15.003.106-15.003z"/><path fill="#C7B299" d="M1119.319 8.399l30.683 101.824h-116.494l30.688-101.824z"/><path fill="#1A1A1A" d="M1112.075 10.34c10.229 33.941 20.457 67.883 30.686 101.823 2.434-3.146 4.865-6.295 7.297-9.443h-116.494l7.182 9.482 30.686-101.823c-2.43 1.841-4.857 3.682-7.287 5.521h55.123c9.686 0 9.77-15.003.105-15.003h-55.121c-3.434 0-6.311 2.274-7.289 5.521l-30.688 101.823c-1.398 4.638 2.422 9.482 7.18 9.482h116.496c4.758 0 8.721-4.728 7.299-9.443l-30.686-101.823c-2.786-9.243-17.284-5.388-14.489 3.883z"/><path fill="#3FA9F5" d="M946.856 211.271h289.801v180h-289.801z"/><path fill="#1A1A1A" d="M1236.709 383.769h-289.798l7.447 7.556v-180c-2.52 2.482-5.037 4.965-7.557 7.448h289.8c-2.482-2.52-4.967-5.037-7.447-7.557v180c0 9.687 15.004 9.771 15.004.107v-180c0-4.065-3.342-7.556-7.449-7.556h-289.798c-4.064 0-7.555 3.342-7.555 7.447v180c0 4.064 3.342 7.557 7.447 7.557h289.8c9.685.001 9.771-15.002.106-15.002z"/><path d="M987.538 283.931c0-3.097 2.447-5.545 5.543-5.545 3.098 0 5.545 2.448 5.545 5.545v35.211h20.521c2.809 0 5.041 2.231 5.041 5.041 0 2.808-2.232 5.04-5.041 5.04h-26.066c-3.096 0-5.543-2.448-5.543-5.546v-39.746zm39.455 20.232v-.144c0-14.329 11.305-26.066 26.859-26.066 15.553 0 26.713 11.593 26.713 25.922v.146c0 14.329-11.305 26.065-26.857 26.065s-26.715-11.593-26.715-25.923zm41.978 0v-.144c0-8.642-6.336-15.843-15.264-15.843-8.93 0-15.123 7.058-15.123 15.697v.146c0 8.641 6.338 15.842 15.268 15.842 8.928 0 15.119-7.055 15.119-15.698zm19.223 0v-.144c0-14.329 11.16-26.066 26.426-26.066 7.633 0 12.674 1.729 17.209 4.896 1.08.792 2.305 2.305 2.305 4.465 0 3.022-2.447 5.472-5.473 5.472-1.584 0-2.592-.575-3.385-1.151-3.023-2.159-6.266-3.456-11.018-3.456-8.062 0-14.473 7.129-14.473 15.696v.146c0 9.217 6.336 15.984 15.266 15.984 4.031 0 7.633-1.008 10.439-3.023v-7.2h-7.488c-2.664 0-4.824-2.089-4.824-4.753s2.16-4.824 4.824-4.824h12.674c3.098 0 5.545 2.448 5.545 5.545v12.24c0 3.24-1.225 5.473-3.889 7.057-4.104 2.521-10.082 5.041-17.643 5.041-15.696-.002-26.495-11.019-26.495-25.925zm56.445 0v-.144c0-14.329 11.307-26.066 26.859-26.066s26.713 11.593 26.713 25.922v.146c0 14.329-11.305 26.065-26.857 26.065s-26.715-11.593-26.715-25.923zm41.981 0v-.144c0-8.642-6.338-15.843-15.266-15.843-8.93 0-15.121 7.058-15.121 15.697v.146c0 8.641 6.336 15.842 15.266 15.842 8.927 0 15.121-7.055 15.121-15.698z" stroke="#1A1A1A"/><linearGradient id="c" gradientUnits="userSpaceOnUse" x1="1187.964" y1="2891.683" x2="1187.964" y2="3251.683" gradientTransform="matrix(1 0 0 -1 684.77 3362.362)"><stop offset="0" stop-color="#C68945"/><stop offset="1" stop-color="#C69C6D"/></linearGradient><path fill="url(#c)" d="M1581.495 110.678h582.479v360h-582.479z"/><path fill="#1A1A1A" d="M2164.028 463.175h-582.48l7.447 7.556v-359.999c-2.518 2.481-5.037 4.965-7.555 7.448h582.478c-2.482-2.52-4.967-5.038-7.447-7.557v360.001c0 9.686 15.004 9.772 15.004.107v-360c0-4.065-3.342-7.556-7.449-7.556h-582.478c-4.066 0-7.557 3.342-7.557 7.447v360c0 4.065 3.342 7.557 7.447 7.557h582.48c9.688.002 9.774-15.004.11-15.004z"/><path fill="#C69C6D" d="M2062.151 8.855l101.822 101.823h-582.478l101.824-101.823z"/><path fill="#1A1A1A" d="M2056.875 14.187c33.41 33.41 66.818 66.819 100.229 100.229l1.594 1.594c1.777-4.278 3.555-8.557 5.33-12.834h-582.48c1.76 4.259 3.52 8.519 5.277 12.776 33.352-33.348 66.699-66.697 100.049-100.046l1.777-1.777-5.387 2.227h378.832c9.686 0 9.77-15.003.105-15.003h-377.592c-5.178 0-7.91 3.511-11.273 6.874-32.391 32.392-64.783 64.783-97.174 97.176-4.58 4.579-1.213 12.777 5.277 12.777h582.478c6.596 0 10.004-8.161 5.328-12.834-33.408-33.41-66.818-66.82-100.229-100.23l-1.594-1.593c-6.83-6.836-17.4 3.811-10.547 10.664z"/><path fill="#C7B299" d="M1814.487 110.678h116.494v72h-116.494z"/><path fill="#1A1A1A" d="M1931.036 175.177h-116.494c2.48 2.519 4.965 5.036 7.447 7.556v-72c-2.52 2.481-5.039 4.965-7.557 7.448h116.496l-7.447-7.557v72c0 9.688 15.004 9.772 15.004.108v-72c0-4.065-3.342-7.556-7.449-7.556h-116.494c-4.064 0-7.557 3.342-7.557 7.447v72c0 4.065 3.344 7.557 7.449 7.557h116.496c9.684 0 9.77-15.003.106-15.003z"/><path fill="#C7B299" d="M1900.297 8.855l30.684 101.823h-116.494l30.687-101.823z"/><path fill="#1A1A1A" d="M1893.053 10.795c10.229 33.941 20.457 67.883 30.686 101.823 2.434-3.146 4.865-6.295 7.297-9.443h-116.494l7.182 9.482 30.686-101.823c-2.43 1.841-4.857 3.682-7.287 5.521h55.123c9.686 0 9.77-15.003.105-15.003h-55.121c-3.434 0-6.311 2.274-7.289 5.521l-30.688 101.823c-1.398 4.638 2.422 9.482 7.18 9.482h116.496c4.758 0 8.721-4.728 7.299-9.443l-30.686-101.823c-2.786-9.243-17.284-5.387-14.489 3.883z"/><path fill="#8C6239" d="M1653.495 398.678l-72 72.001h144l-144-144.001v144.001"/><path fill="#1A1A1A" d="M1648.163 393.403l-72 72c-4.58 4.579-1.213 12.778 5.277 12.778h144c6.596 0 10.004-8.161 5.33-12.836-34.711-34.711-69.422-69.422-104.133-104.134-13.289-13.288-26.578-26.577-39.867-39.866-4.58-4.579-12.777-1.211-12.777 5.278v144.001c0 9.686 15.004 9.772 15.004.107v-144.001c-4.26 1.76-8.52 3.52-12.777 5.278 34.711 34.712 69.422 69.423 104.133 104.134 13.289 13.289 26.578 26.578 39.867 39.866l5.33-12.834h-144l5.279 12.777c24-24.001 48-48.001 72-72.001 6.834-6.832-3.815-17.4-10.666-10.547z"/><path fill="#fff" d="M1617.495 434.678h72l-72-72z"/><path fill="#1A1A1A" d="M1617.44 442.18h72c6.598 0 10.004-8.16 5.33-12.835l-72-72c-4.58-4.579-12.777-1.211-12.777 5.278v72c0 9.687 15.004 9.771 15.004.107v-72c-4.26 1.76-8.52 3.52-12.777 5.278l72 72 5.33-12.834h-72c-9.688.001-9.774 15.006-.11 15.006zm262.795-331.448v-101.823c0-9.687-15.004-9.771-15.004-.107v101.822c0 9.686 15.004 9.772 15.004.108z"/><linearGradient id="d" gradientUnits="userSpaceOnUse" x1="-386.026" y1="2893.005" x2="-386.026" y2="3253.005" gradientTransform="matrix(1 0 0 -1 684.77 3362.362)"><stop offset="0" stop-color="#C68945"/><stop offset="1" stop-color="#C69C6D"/></linearGradient><path fill="url(#d)" d="M7.505 109.357h582.478v360h-582.478z"/><path fill="#1A1A1A" d="M590.038 461.854h-582.48c2.481 2.52 4.965 5.037 7.447 7.557v-359.999c-2.519 2.481-5.037 4.965-7.556 7.448h582.478c-2.482-2.52-4.967-5.038-7.447-7.557v360.001c0 9.687 15.004 9.771 15.004.107v-359.999c0-4.065-3.342-7.556-7.449-7.556h-582.479c-4.065 0-7.557 3.342-7.557 7.447v360.001c0 4.064 3.343 7.557 7.448 7.557h582.479c9.69-.002 9.776-15.007.112-15.007z"/><path fill="#C69C6D" d="M488.16 7.534l101.823 101.823h-582.478l101.823-101.823z"/><path fill="#1A1A1A" d="M482.886 12.866l100.228 100.229 1.594 1.594c1.777-4.278 3.555-8.557 5.33-12.834h-582.48l5.277 12.776c33.352-33.347 66.699-66.697 100.049-100.046l1.776-1.777-5.387 2.227h378.831c9.688 0 9.771-15.003.107-15.003h-377.593c-5.177 0-7.909 3.511-11.273 6.874-32.39 32.391-64.782 64.783-97.173 97.176-4.58 4.579-1.212 12.777 5.277 12.777h582.478c6.596 0 10.004-8.161 5.328-12.834-33.408-33.41-66.817-66.82-100.228-100.23l-1.594-1.593c-6.832-6.836-17.4 3.811-10.547 10.664z"/><path fill="#C7B299" d="M240.496 109.357h116.496v72h-116.496z"/><path fill="#1A1A1A" d="M357.046 173.856h-116.496l7.447 7.556v-72c-2.518 2.481-5.037 4.965-7.555 7.448h116.496c-2.484-2.52-4.967-5.038-7.449-7.557v72c0 9.688 15.004 9.772 15.004.108v-72c0-4.065-3.342-7.556-7.447-7.556h-116.494c-4.066 0-7.557 3.342-7.557 7.447v72c0 4.065 3.342 7.557 7.447 7.557h116.496c9.685 0 9.772-15.003.108-15.003z"/><path fill="#C7B299" d="M326.306 7.534l30.686 101.823h-116.496l30.687-101.823z"/><path fill="#1A1A1A" d="M319.062 9.474c10.229 33.941 20.457 67.883 30.686 101.823 2.434-3.146 4.865-6.295 7.299-9.443h-116.494l7.18 9.482c10.23-33.941 20.459-67.882 30.688-101.823-2.43 1.841-4.859 3.682-7.289 5.521h55.123c9.686 0 9.771-15.003.107-15.003h-55.123c-3.432 0-6.311 2.274-7.289 5.521-10.229 33.941-20.457 67.882-30.688 101.823-1.396 4.638 2.422 9.482 7.182 9.482h116.496c4.758 0 8.719-4.728 7.297-9.443-10.23-33.941-20.458-67.881-30.687-101.823-2.785-9.243-17.281-5.387-14.488 3.883z"/><path fill="#fff" d="M402.521 145.357h144v232.991h-144z"/><path fill="#1A1A1A" d="M546.574 370.846h-144c2.484 2.52 4.967 5.037 7.449 7.557v-232.992c-2.52 2.481-5.037 4.965-7.557 7.448h144l-7.447-7.557v232.993c0 9.686 15.004 9.771 15.004.107v-232.992c0-4.065-3.342-7.557-7.449-7.557h-144c-4.062 0-7.555 3.343-7.555 7.448v232.993c0 4.064 3.342 7.556 7.447 7.556h144c9.686 0 9.772-15.004.108-15.004z"/><path stroke="#1A1A1A" stroke-miterlimit="10" d="M546.521 378.348h-144" fill="none"/><path fill="#1A1A1A" d="M424.021 358.126v-54c0-4.514-7-4.514-7 0v54c0 4.514 7 4.514 7 0zm18-.278v-53.722c0-4.514-7-4.514-7 0v53.722c0 4.515 7 4.515 7 0zm18 0v-53.722c0-4.514-7-4.514-7 0v53.722c0 4.515 7 4.515 7 0zm18 0v-53.722c0-4.514-7-4.514-7 0v53.722c0 4.515 7 4.515 7 0zm18 0v-53.722c0-4.514-7-4.514-7 0v53.722c0 4.515 7 4.515 7 0zm18 0v-53.722c0-4.514-7-4.514-7 0v53.722c0 4.515 7 4.515 7 0zm18 0v-53.722c0-4.514-7-4.514-7 0v53.722c0 4.515 7 4.515 7 0zm-30.916-84.222h-53.723c-4.514 0-4.514 7 0 7h53.723c4.512 0 4.512-7 0-7zm0-18h-53.723c-4.514 0-4.514 7 0 7h53.723c4.512 0 4.512-7 0-7zm0-18h-53.723c-4.514 0-4.514 7 0 7h53.723c4.512 0 4.512-7 0-7zm0-18h-53.723c-4.514 0-4.514 7 0 7h53.723c4.512 0 4.512-7 0-7z"/><path fill="#1A1A1A" stroke="#1A1A1A" d="M425.562 169.693c0-2.58 2.039-4.62 4.619-4.62h12.539c10.02 0 16.08 5.938 16.08 14.519v.12c0 9.72-7.561 14.759-16.98 14.759h-7.02v8.34c0 2.58-2.039 4.62-4.619 4.62s-4.619-2.04-4.619-4.62v-33.118zm16.559 16.558c4.619 0 7.318-2.76 7.318-6.359v-.119c0-4.141-2.879-6.36-7.5-6.36h-7.139v12.839h7.321z"/><path fill="#1A1A1A" d="M527.966 189.19h-53.723c-4.514 0-4.514 7 0 7h53.723c4.514 0 4.514-7 0-7zm0-18h-53.723c-4.514 0-4.514 7 0 7h53.723c4.514 0 4.514-7 0-7z"/><path fill="#FF7BAC" d="M63.525 150.961h116.496v72.001h-116.496z"/><path fill="#1A1A1A" d="M180.076 215.46h-116.496l7.448 7.556v-72.001l-7.556 7.447h116.496c-2.482-2.519-4.965-5.037-7.449-7.556v72.002c0 9.686 15.003 9.771 15.003.106v-72.001c0-4.064-3.342-7.556-7.447-7.556h-116.496c-4.064 0-7.556 3.341-7.556 7.447v72.002c0 4.063 3.342 7.556 7.448 7.556h116.496c9.687.002 9.771-15.002.109-15.002zm-32.512-24.883h-53.722c-4.515 0-4.515 7 0 7h53.722c4.515 0 4.515-7 0-7zm0-18h-53.722c-4.515 0-4.515 7 0 7h53.722c4.515 0 4.515-7 0-7z"/><path fill="#FCEE21" d="M379.203 364.405h116.496v72.001h-116.496z"/><path fill="#1A1A1A" d="M495.753 428.904h-116.496c2.482 2.519 4.967 5.037 7.447 7.556v-72.001c-2.518 2.483-5.035 4.966-7.555 7.448h116.494l-7.447-7.557v72.001c0 9.687 15.004 9.771 15.004.107v-72.001c0-4.064-3.342-7.556-7.447-7.556h-116.496c-4.064 0-7.557 3.342-7.557 7.447v72.001c0 4.064 3.344 7.557 7.449 7.557h116.494c9.687.002 9.774-15.002.11-15.002z"/><path d="M463.242 407.52h-53.721" fill="none"/><path fill="#1A1A1A" d="M463.242 404.02h-53.721c-4.514 0-4.514 7 0 7h53.721c4.515 0 4.515-7 0-7z"/><path d="M463.242 389.52h-53.721" fill="none"/><path fill="#1A1A1A" d="M463.242 386.02h-53.721c-4.514 0-4.514 7 0 7h53.721c4.515 0 4.515-7 0-7z"/></svg>