<svg xmlns="http://www.w3.org/2000/svg" width="908.058" height="1042.903" viewBox="0 0 908.058 1042.903"><g><path fill="#FFB500" d="M755.883 0c-35.006 0-65.537 6.778-90.753 20.141v106.831c0 22.477 8.443 41.28 24.419 54.375 14.837 12.161 60.71 32.212 66.334 34.653 5.329-2.319 51.744-22.684 66.347-34.651 15.968-13.095 24.405-31.896 24.405-54.376v-106.831c-25.215-13.364-55.741-20.142-90.752-20.142z"/><path fill="#351C15" d="M791.026 89.973c-.064-12.758 10.798-20.274 21.186-20.575 8.67-.265 14.551 2.992 17.326 5.129v13.729c-3.288-3.377-8.631-6.438-14.15-6.489-4.468-.041-9.128 1.929-9.28 7.541-.152 5.747 4.493 8.021 10.388 11.474 13.187 7.753 15.738 14.719 15.441 23.929-.305 10.099-7.268 21.121-22.868 21.121-6.24 0-12.411-1.95-17.359-4.897v-14.539c4.034 3.589 10.06 6.389 15.098 6.425 5.79.023 9.601-3.293 9.464-8.8-.112-4.957-2.919-7.648-9.858-11.728-13.02-7.64-15.362-13.921-15.388-22.32zm-38.269-6.722c1.283-.637 3.457-1.139 5.592-1.139 9.167 0 12.963 7.316 12.963 25.003 0 17.258-4.341 25.597-13.429 25.597-2.133 0-3.995-.526-5.126-.951v-48.51zm0 94.658h-15.794v-102.894c5.726-3.694 12.674-5.615 21.28-5.615 18.844 0 29.206 14.298 29.206 37.316 0 23.062-10.059 38.849-27.585 38.849-3.241 0-5.526-.429-7.107-.899v33.245-.002zm-71.233-57.285v-49.624h15.783v50.332c0 4.477 1.082 11.107 8.32 11.107 3.208 0 5.751-.75 7.468-1.93v-59.507h15.762v68.493c-6.023 4.103-14.126 6.341-23.792 6.341-15.619 0-23.541-8.474-23.541-25.208v-.004zm-8.056 6.361c0 19.905 7.359 36.525 21.345 47.922 12.348 10.067 50.343 27.26 61.066 31.99 10.573-4.662 48.482-21.642 61.044-31.99 14.077-11.591 21.36-27.827 21.36-47.922v-104.589c-52.83-4.914-115.347-1.897-164.818 43.476l-.001 61.11h.001l.003.003z"/></g><g><path fill="#1A1A1A" d="M473.235 541.838c16.971-16.971 33.941-33.941 50.911-50.912 6.836-6.836-3.812-17.403-10.664-10.551l-50.912 50.912c-6.835 6.836 3.813 17.403 10.665 10.551zM411.716 490.982l50.911 50.912c6.836 6.836 17.404-3.812 10.552-10.664l-50.912-50.912c-6.836-6.836-17.404 3.812-10.551 10.664zM475.404 536.616v-144c0-9.687-15.003-9.772-15.003-.108v144.001c0 9.685 15.003 9.771 15.003.107zM683.936 313.061h-144c-9.686 0-9.771 15.003-.107 15.003h144c9.685-.001 9.771-15.003.107-15.003zM475.385 392.596c-.415-43.597-35.81-79.141-79.448-79.556-9.69-.092-9.767 14.912-.108 15.004 35.437.337 64.215 28.966 64.552 64.444.092 9.68 15.096 9.775 15.004.108zM475.385 392.616c.337-35.437 28.966-64.215 64.444-64.553 9.68-.092 9.774-15.095.107-15.003-43.597.415-79.14 35.81-79.556 79.447-.091 9.691 14.912 9.768 15.005.109zM395.937 313.04h-144c-9.687 0-9.772 15.004-.108 15.004h144c9.686 0 9.772-15.004.108-15.004zM172.381 248.508c.415 43.597 35.81 79.141 79.447 79.556 9.69.092 9.767-14.911.108-15.003-35.437-.337-64.215-28.967-64.553-64.444-.091-9.681-15.094-9.776-15.002-.109zM748.38 248.508c-.337 35.437-28.967 64.215-64.444 64.553-9.68.092-9.774 15.095-.107 15.003 43.597-.415 79.141-35.81 79.556-79.447.091-9.691-14.913-9.768-15.005-.109z"/></g><g><path fill="#FF5900" d="M381.704 125.046l18.961 20.898 18.253-20.898h38.979l-38.093 42.841 38.615 43.182h-40.552l-18.781-21.059-18.612 21.059h-39.158l38.281-43.008-38.281-43.015z"/><path fill="#FF5900" d="M341.316 125.046v29.068h-43.353v26.668h43.353v30.287h-75.213v-135.504h75.213v30.2h-43.353v19.281z"/><path fill="#2A007C" d="M234.377 75.565v55.457h-.352c-7.029-8.077-15.803-10.881-25.981-10.881-20.861 0-36.573 14.183-42.088 32.929-6.295-20.656-22.521-33.321-46.574-33.321-19.533 0-34.96 8.767-43.009 23.055v-17.758h-40.381v-19.281h44.069v-30.2h-80.061v135.504h35.992v-56.955h35.88c-1.07 4.179-1.642 8.662-1.642 13.394 0 28.266 21.594 48.101 49.152 48.101 23.177 0 38.451-10.881 46.524-30.71h-30.85c-4.169 5.963-7.334 7.729-15.675 7.729-9.672 0-18.013-8.438-18.013-18.442h62.812c2.724 22.452 20.214 41.814 44.212 41.814 10.353 0 19.835-5.092 25.627-13.691h.351v8.773h31.726v-135.517h-31.719zm-132.001 78.948c1.999-8.605 8.677-14.233 17.012-14.233 9.175 0 15.511 5.453 17.18 14.233h-34.192zm112.741 35.932c-11.696 0-18.968-10.906-18.968-22.278 0-12.162 6.324-23.858 18.968-23.858 13.11 0 18.33 11.696 18.33 23.858 0 11.527-5.534 22.278-18.33 22.278z"/></g><g><g><linearGradient id="a" gradientUnits="userSpaceOnUse" x1="271.875" y1="1146.657" x2="271.875" y2="1506.657" gradientTransform="matrix(1 0 0 -1 184.738 2182.055)"><stop offset="0" stop-color="#C68945"/><stop offset="1" stop-color="#C69C6D"/></linearGradient><path fill="url(#a)" d="M165.373 675.397h582.479v360h-582.479z"/><path fill="#1A1A1A" d="M747.906 1027.896h-582.4810000000001c2.482 2.52 4.965 5.037 7.448 7.557v-359.999c-2.519 2.481-5.038 4.965-7.556 7.447h582.478l-7.448-7.556v360.001c0 9.687 15.004 9.771 15.004.107v-359.999c0-4.065-3.342-7.557-7.448-7.557h-582.48c-4.065 0-7.556 3.343-7.556 7.448v360.001c0 4.064 3.342 7.557 7.448 7.557h582.4780000000001c9.69-.004 9.776-15.007.113-15.007z"/><path fill="#C69C6D" d="M646.029 573.575l101.823 101.822h-582.479l101.824-101.822z"/><path fill="#1A1A1A" d="M640.754 578.907l100.229 100.229 1.595 1.593c1.775-4.277 3.553-8.556 5.329-12.834h-582.4810000000001c1.759 4.26 3.519 8.52 5.278 12.777l100.047-100.046 1.777-1.777-5.387 2.227h378.832c9.687 0 9.771-15.003.107-15.003h-377.59299999999996c-5.177 0-7.91 3.511-11.274 6.874-32.392 32.392-64.784 64.782-97.175 97.175-4.58 4.579-1.211 12.776 5.278 12.776h582.478c6.596 0 10.003-8.161 5.329-12.834-33.41-33.409-66.819-66.819-100.229-100.229l-1.594-1.593c-6.831-6.835-17.4 3.813-10.546 10.665z"/><path fill="#C7B299" d="M484.175 573.575l30.684 101.822h-116.494l30.687-101.822z"/><path fill="#1A1A1A" d="M476.93 575.516c10.229 33.941 20.457 67.882 30.687 101.823l7.298-9.443h-116.495l7.181 9.482c10.229-33.941 20.458-67.882 30.688-101.823l-7.289 5.521h55.123c9.686 0 9.771-15.003.106-15.003h-55.122c-3.433 0-6.311 2.274-7.289 5.521-10.229 33.941-20.458 67.882-30.688 101.823-1.397 4.638 2.422 9.481 7.181 9.481h116.496c4.758 0 8.72-4.727 7.298-9.442l-30.686-101.823c-2.785-9.243-17.283-5.388-14.489 3.883z"/></g><g><path fill="#8C6239" d="M747.852 675.397h-582.479l101.824-101.822h378.832z"/><path fill="#1A1A1A" d="M747.906 667.896h-582.48c1.759 4.26 3.519 8.52 5.278 12.777 33.41-33.41 66.82-66.82 100.23-100.229l1.593-1.594-5.387 2.227h378.832l-5.222-2.169c33.41 33.409 66.819 66.819 100.229 100.229l1.595 1.593c6.836 6.835 17.402-3.812 10.551-10.665-33.41-33.409-66.819-66.819-100.229-100.229-2.982-2.983-6.055-3.762-10.065-3.762h-370.738c-3.991 0-7.584-.421-10.746 2.74-33.665 33.665-67.329 67.33-100.994 100.994l-.314.314c-4.58 4.579-1.211 12.776 5.278 12.776h582.4770000000001c9.689.001 9.775-15.002.112-15.002zM259.695 573.521v101.823c0 9.687 15.003 9.772 15.003.108v-101.823c0-9.687-15.003-9.773-15.003-.108zM638.526 573.521v101.823c0 9.687 15.005 9.772 15.005.108v-101.823c0-9.687-15.005-9.773-15.005-.108z"/><path fill="#C69C6D" d="M745.307 474.297l-99.278 99.278 101.823 101.822 152.735-152.734z"/><path fill="#1A1A1A" d="M739.975 469.021l-98.497 98.497-.782.782c-2.898 2.899-2.819 7.73.059 10.608l100.229 100.229 1.595 1.593c2.898 2.9 7.729 2.821 10.606-.057 34.249-34.248 68.497-68.496 102.745-102.745l49.989-49.99c4.094-4.094 1.949-10.859-3.353-12.511-47.316-14.739-94.635-29.477-141.952-44.215-4.441-1.384-8.885-2.769-13.326-4.151-9.266-2.886-13.167 11.604-3.961 14.471l141.951 44.215c4.442 1.384 8.886 2.768 13.327 4.15-1.116-4.17-2.233-8.34-3.352-12.511l-102.745 102.745-49.989 49.99 10.607-.058c-33.41-33.409-66.819-66.819-100.229-100.229l-1.594-1.593.058 10.607 98.496-98.496.781-.78c6.837-6.836-3.811-17.403-10.663-10.551z"/><path fill="#C69C6D" d="M167.918 474.297l99.279 99.278-101.824 101.822-152.734-152.734z"/><path fill="#1A1A1A" d="M162.642 479.63c32.833 32.832 65.665 65.665 98.497 98.497l.781.781-.057-10.608c-33.41 33.41-66.82 66.82-100.23 100.229l-1.593 1.595 10.608-.058c-34.249-34.248-68.497-68.497-102.745-102.745l-49.99-49.989-3.335 12.577c47.317-14.739 94.635-29.478 141.953-44.216 4.442-1.384 8.884-2.768 13.327-4.15 9.21-2.869 5.364-17.369-3.882-14.489-47.316 14.738-94.634 29.478-141.951 44.215-4.442 1.384-8.884 2.769-13.327 4.151-5.384 1.677-7.478 8.434-3.335 12.577 34.249 34.248 68.497 68.497 102.745 102.745 16.663 16.664 33.327 33.326 49.99 49.989 2.9 2.9 7.73 2.821 10.608-.057 33.41-33.41 66.82-66.82 100.23-100.229l1.593-1.594c2.9-2.898 2.821-7.729-.057-10.607-32.833-32.832-65.665-65.665-98.497-98.497l-.781-.781c-6.836-6.837-17.404 3.81-10.552 10.664z"/></g><g fill="#004C82"><path d="M327.095 755.876h1.623l2.707.527 3.233.542 8.643 2.166 11.875 2.152 6.489 1.629 7.017 1.622 7.558 1.079 7.561 2.158 8.103 1.075 8.096 2.163 25.923 4.855 8.102 2.166 8.642 1.618 7.554 1.622 8.104 1.619 7.551 1.616 7.562 1.085 6.481 1.622 6.487 1.076 5.401 1.617 4.856 1.085 4.316.538 3.782.541 2.708.544 1.62.537h1.071l7.022 1.619 6.486 1.083 5.401 1.619 4.313 1.08 4.326 1.616 3.243 1.083 4.311 2.162 1.618 1.085 2.709 2.691v.541l.545.547v.526h23.209l2.166.546h2.162l1.617.542h1.616l1.619.544 4.327 2.148.535 1.089 3.781 5.94 1.084 7.013-1.084 8.644-2.698 8.104-3.24 8.098-3.249 6.484-2.691 4.32-1.077 1.622-1.085.539-2.698 1.075-3.782 1.618-5.397 2.162-5.948 2.154-7.55 3.252-8.11 3.233-9.179 3.236-10.262 4.329-10.798 3.781-10.795 4.31-23.761 9.737-12.424 4.859-12.423 4.314-12.417 5.392-12.954 4.87-12.423 4.314-11.885 5.408-12.416 4.313-11.345 4.316-21.602 8.655-9.719 3.766-9.181 3.249-8.096 3.233-7.016 2.705-5.946 2.701-4.854 1.627-3.785 1.622-2.161.52-.545.547h279.196l45.357-214.925h-305.112zM536.091 825.532l-1.629.544-10.794 2.148h-2.704l-2.163.547h-2.151l-3.248.541-1.616.541-1.08.532-.546 1.093v1.075l1.089 1.076h2.153l2.162.542h5.4l3.236-.542h3.238l7.566-1.076h3.784l4.316-.548 3.776-.527 3.254-.544 3.768-.549h14.586l1.613.549 1.09.544 1.073 1.615v2.155l-.54 2.159-.533 2.707-1.09 3.238-1.613 3.786-1.081 3.78-.544 2.153 1.08 1.082 1.086-.546 2.162-2.157 1.073-1.62 1.625-2.692 1.62-3.242 1.617-3.782 1.615-3.239 1.085-3.246.535-2.695v-3.24l-1.073-2.707-1.617-1.618-2.162-1.614-2.704-1.081-3.241-.54-3.773-.543h-22.687l-.54.543h-.541l-1.072.54-1.092 2.164-1.071.531-1.08 1.085zM316.838 804.477l-35.642 165.236 1.627-.547 3.236-2.142 5.403-2.175 7.024-3.781 8.09-3.779 9.186-4.843 10.801-4.863 10.259-5.406 10.799-4.875 10.261-5.389 10.258-4.862 9.716-4.858 8.108-4.326 7.015-3.236 5.402-2.705 3.781-1.608 5.402-2.704 4.862-2.704 5.937-2.703 5.939-3.234 5.399-2.702 6.482-2.706 5.941-3.232 6.476-2.691 6.487-3.263 32.394-13.484 14.586-4.861 2.159-.544 2.153-1.075 2.71-.539 9.712-3.242 11.342-3.246 3.783-.542 11.336-3.239 6.489-1.072 2.151-.541 1.619-.544h1.627l1.618-.532 1.082-1.088h.544v-.544l-1.091-2.148-1.617-.545-2.163-.545h-2.153l-3.234-.532h-3.254l-3.776.532-6.482.545-7.021 1.074-7.555 1.619-8.107 1.632-8.09 2.153-8.643 2.704-8.106 2.696-8.636 2.703-8.096 3.241-8.109 2.693-7.556 2.705-7.016 2.703-6.49 3.24-5.397 2.153-4.861 2.173-3.78 2.152-20.518-63.726h130.688l.53-2.694-2.151-2.707-3.246-1.618-4.861-1.619-5.401-1.614-14.04-2.166-22.679-1.613z"/></g></g></svg>