<?xml version="1.0" encoding="utf-8"?>
<!-- Generator: Adobe Illustrator 15.0.0, SVG Export Plug-In . SVG Version: 6.00 Build 0)  -->
<!DOCTYPE svg PUBLIC "-//W3C//DTD SVG 1.1//EN" "http://www.w3.org/Graphics/SVG/1.1/DTD/svg11.dtd">
<svg version="1.1" xmlns="http://www.w3.org/2000/svg" xmlns:xlink="http://www.w3.org/1999/xlink" x="0px" y="0px"
	 width="908.058px" height="1042.903px" viewBox="0 0 908.058 1042.903" enable-background="new 0 0 908.058 1042.903"
	 xml:space="preserve">
<g id="Layer_2">
	<g>
		<path fill="#FFB500" d="M755.883,0c-35.006,0-65.537,6.778-90.753,20.141v106.831c0,22.477,8.443,41.28,24.419,54.375
			c14.837,12.161,60.71,32.212,66.334,34.653c5.329-2.319,51.744-22.684,66.347-34.651c15.968-13.095,24.405-31.896,24.405-54.376
			V20.142C821.42,6.778,790.894,0,755.883,0z"/>
		<path fill="#351C15" d="M791.026,89.973c-0.064-12.758,10.798-20.274,21.186-20.575c8.67-0.265,14.551,2.992,17.326,5.129v13.729
			c-3.288-3.377-8.631-6.438-14.15-6.489c-4.468-0.041-9.128,1.929-9.28,7.541c-0.152,5.747,4.493,8.021,10.388,11.474
			c13.187,7.753,15.738,14.719,15.441,23.929c-0.305,10.099-7.268,21.121-22.868,21.121c-6.24,0-12.411-1.95-17.359-4.897v-14.539
			c4.034,3.589,10.06,6.389,15.098,6.425c5.79,0.023,9.601-3.293,9.464-8.8c-0.112-4.957-2.919-7.648-9.858-11.728
			C793.394,104.653,791.052,98.372,791.026,89.973L791.026,89.973z M752.757,83.251c1.283-0.637,3.457-1.139,5.592-1.139
			c9.167,0,12.963,7.316,12.963,25.003c0,17.258-4.341,25.597-13.429,25.597c-2.133,0-3.995-0.526-5.126-0.951V83.251
			L752.757,83.251z M752.757,177.909h-15.794V75.015c5.726-3.694,12.674-5.615,21.28-5.615c18.844,0,29.206,14.298,29.206,37.316
			c0,23.062-10.059,38.849-27.585,38.849c-3.241,0-5.526-0.429-7.107-0.899v33.245V177.909z M681.524,120.624V71h15.783v50.332
			c0,4.477,1.082,11.107,8.32,11.107c3.208,0,5.751-0.75,7.468-1.93V71.002h15.762v68.493c-6.023,4.103-14.126,6.341-23.792,6.341
			c-15.619,0-23.541-8.474-23.541-25.208V120.624z M673.468,126.985c0,19.905,7.359,36.525,21.345,47.922
			c12.348,10.067,50.343,27.26,61.066,31.99c10.573-4.662,48.482-21.642,61.044-31.99c14.077-11.591,21.36-27.827,21.36-47.922
			V22.396c-52.83-4.914-115.347-1.897-164.818,43.476l-0.001,61.11h0.001L673.468,126.985z"/>
	</g>
</g>
<g id="Layer_3">
	<g>
		<g>
			<g>
				<path fill="#1A1A1A" d="M473.235,541.838c16.971-16.971,33.941-33.941,50.911-50.912c6.836-6.836-3.812-17.403-10.664-10.551
					c-16.971,16.971-33.941,33.941-50.912,50.912C455.735,538.123,466.383,548.69,473.235,541.838L473.235,541.838z"/>
			</g>
		</g>
		<g>
			<g>
				<path fill="#1A1A1A" d="M411.716,490.982c16.97,16.971,33.941,33.941,50.911,50.912c6.836,6.836,17.404-3.812,10.552-10.664
					c-16.971-16.971-33.941-33.941-50.912-50.912C415.431,473.482,404.863,484.13,411.716,490.982L411.716,490.982z"/>
			</g>
		</g>
		<g>
			<g>
				<path fill="#1A1A1A" d="M475.404,536.616c0-47.162,0-94.325,0-141.487c0-0.837,0-1.675,0-2.513
					c0-9.687-15.003-9.772-15.003-0.108c0,47.163,0,94.325,0,141.487c0,0.838,0,1.676,0,2.514
					C460.401,546.194,475.404,546.28,475.404,536.616L475.404,536.616z"/>
			</g>
		</g>
	</g>
	<g>
		<g>
			<path fill="#1A1A1A" d="M683.936,313.061c-47.248,0-94.497,0-141.746,0c-0.751,0-1.502,0-2.254,0
				c-9.686,0-9.771,15.003-0.107,15.003c47.248,0,94.497,0,141.746,0c0.751,0,1.502,0,2.254,0
				C693.514,328.063,693.6,313.061,683.936,313.061L683.936,313.061z"/>
		</g>
	</g>
	<g>
		<g>
			<path fill="#1A1A1A" d="M475.385,392.596c-0.415-43.597-35.81-79.141-79.448-79.556c-9.69-0.092-9.767,14.912-0.108,15.004
				c35.437,0.337,64.215,28.966,64.552,64.444C460.473,402.168,475.477,402.263,475.385,392.596L475.385,392.596z"/>
		</g>
	</g>
	<g>
		<g>
			<path fill="#1A1A1A" d="M475.385,392.616c0.337-35.437,28.966-64.215,64.444-64.553c9.68-0.092,9.774-15.095,0.107-15.003
				c-43.597,0.415-79.14,35.81-79.556,79.447C460.289,402.198,475.292,402.275,475.385,392.616L475.385,392.616z"/>
		</g>
	</g>
	<g>
		<g>
			<path fill="#1A1A1A" d="M395.937,313.04c-47.249,0-94.498,0-141.747,0c-0.751,0-1.502,0-2.253,0
				c-9.687,0-9.772,15.004-0.108,15.004c47.249,0,94.498,0,141.747,0c0.751,0,1.502,0,2.253,0
				C405.515,328.044,405.601,313.04,395.937,313.04L395.937,313.04z"/>
		</g>
	</g>
	<g>
		<g>
			<path fill="#1A1A1A" d="M172.381,248.508c0.415,43.597,35.81,79.141,79.447,79.556c9.69,0.092,9.767-14.911,0.108-15.003
				c-35.437-0.337-64.215-28.967-64.553-64.444C187.292,238.936,172.289,238.841,172.381,248.508L172.381,248.508z"/>
		</g>
	</g>
	<g>
		<g>
			<path fill="#1A1A1A" d="M748.38,248.508c-0.337,35.437-28.967,64.215-64.444,64.553c-9.68,0.092-9.774,15.095-0.107,15.003
				c43.597-0.415,79.141-35.81,79.556-79.447C763.476,238.926,748.472,238.849,748.38,248.508L748.38,248.508z"/>
		</g>
	</g>
</g>
<g id="Layer_6_1_">
	<g id="g6" transform="translate(-0.81,-0.35400034)">
		<polygon id="polygon10" fill="#FF5900" points="382.514,125.4 401.475,146.298 419.728,125.4 458.707,125.4 420.614,168.241 
			459.229,211.423 418.677,211.423 399.896,190.364 381.284,211.423 342.126,211.423 380.407,168.415 342.126,125.4 		"/>
		<polygon id="polygon12" fill="#FF5900" points="342.126,125.4 342.126,154.468 298.773,154.468 298.773,181.136 342.126,181.136 
			342.126,211.423 266.913,211.423 266.913,75.919 342.126,75.919 342.126,106.119 298.773,106.119 298.773,125.4 		"/>
		<path id="path14" fill="#2A007C" d="M235.187,75.919v55.457h-0.352c-7.029-8.077-15.803-10.881-25.981-10.881
			c-20.861,0-36.573,14.183-42.088,32.929c-6.295-20.656-22.521-33.321-46.574-33.321c-19.533,0-34.96,8.767-43.009,23.055V125.4
			H36.802v-19.281h44.069v-30.2H0.81v135.504h35.992v-56.955h35.88c-1.07,4.179-1.642,8.662-1.642,13.394
			c0,28.266,21.594,48.101,49.152,48.101c23.177,0,38.451-10.881,46.524-30.71h-30.85c-4.169,5.963-7.334,7.729-15.675,7.729
			c-9.672,0-18.013-8.438-18.013-18.442h62.812c2.724,22.452,20.214,41.814,44.212,41.814c10.353,0,19.835-5.092,25.627-13.691
			h0.351v8.773h31.726V75.919H235.187z M103.186,154.867c1.999-8.605,8.677-14.233,17.012-14.233c9.175,0,15.511,5.453,17.18,14.233
			C138.077,154.867,103.186,154.867,103.186,154.867z M215.927,190.799c-11.696,0-18.968-10.906-18.968-22.278
			c0-12.162,6.324-23.858,18.968-23.858c13.11,0,18.33,11.696,18.33,23.858C234.257,180.048,228.723,190.799,215.927,190.799z"/>
	</g>
</g>
<g id="Layer_5">
	<g id="Layer_10" display="none">
		<g display="inline">
			<g>
				<path fill="#1A1A1A" d="M-14.681,934.899c17.078,0,34.155,0,51.232,0c44.12,0,88.24,0,132.36,0c60.495,0,120.99,0,181.486,0
					c66.202,0,132.405,0,198.607,0c61.242,0,122.482,0,183.726,0c45.613,0,91.229,0,136.841,0c19.317,0,38.637,0,57.953,0
					c0.092,0,0.185,0,0.275,0c9.686,0,9.771-15.004,0.107-15.004c-17.077,0-34.154,0-51.231,0c-44.12,0-88.24,0-132.36,0
					c-60.494,0-120.989,0-181.484,0c-66.203,0-132.405,0-198.607,0c-61.242,0-122.484,0-183.726,0c-45.614,0-91.228,0-136.841,0
					c-19.318,0-38.635,0-57.953,0c-0.092,0-0.184,0-0.275,0C-24.26,919.896-24.345,934.899-14.681,934.899L-14.681,934.899z"/>
			</g>
		</g>
		<g display="inline">
			<polygon fill="#CCCCCC" points="747.852,855.397 927.852,1035.397 -14.627,1035.397 165.373,855.397 			"/>
			<g>
				<path fill="#1A1A1A" d="M742.577,860.73c32.117,32.118,64.236,64.237,96.355,96.356c27.881,27.881,55.763,55.762,83.645,83.644
					c1.775-4.277,3.553-8.557,5.329-12.835c-17.077,0-34.154,0-51.231,0c-44.12,0-88.24,0-132.36,0c-60.495,0-120.989,0-181.484,0
					c-66.203,0-132.405,0-198.607,0c-61.242,0-122.484,0-183.726,0c-45.614,0-91.228,0-136.841,0c-19.318,0-38.635,0-57.953,0
					c-0.092,0-0.184,0-0.275,0c1.759,4.26,3.519,8.52,5.278,12.777c32.119-32.118,64.238-64.237,96.356-96.356
					c27.881-27.881,55.762-55.762,83.644-83.644c-1.795,0.742-3.591,1.484-5.387,2.227c25.848,0,51.696,0,77.544,0
					c58.932,0,117.864,0,176.796,0c64.097,0,128.192,0,192.29,0c41.344,0,82.687,0,124.028,0c3.94,0,7.88,0,11.82,0
					c9.686,0,9.771-15.004,0.106-15.004c-25.848,0-51.695,0-77.544,0c-58.932,0-117.863,0-176.796,0c-64.097,0-128.192,0-192.291,0
					c-41.343,0-82.686,0-124.029,0c-3.509,0-7.018,0-10.526,0c-3.574,0-6.133,1.681-8.559,4.105
					c-14.03,14.028-28.06,28.06-42.089,42.089c-41.492,41.492-82.985,82.983-124.477,124.477
					c-3.852,3.853-7.704,7.704-11.555,11.557c-4.58,4.579-1.211,12.776,5.278,12.776c17.078,0,34.155,0,51.232,0
					c44.12,0,88.24,0,132.36,0c60.495,0,120.99,0,181.486,0c66.202,0,132.405,0,198.607,0c61.242,0,122.482,0,183.726,0
					c45.613,0,91.229,0,136.841,0c19.317,0,38.637,0,57.953,0c0.092,0,0.185,0,0.275,0c6.596,0,10.003-8.16,5.329-12.835
					c-32.118-32.118-64.237-64.237-96.356-96.355c-27.881-27.882-55.762-55.763-83.644-83.645
					C746.292,843.229,735.724,853.878,742.577,860.73z"/>
			</g>
		</g>
		<g display="inline">
			<rect x="-14.627" y="1035.397" fill="#CCCCCC" width="942.479" height="72"/>
			<g>
				<path fill="#1A1A1A" d="M927.906,1099.896c-17.077,0-34.154,0-51.231,0c-44.12,0-88.24,0-132.36,0
					c-60.495,0-120.989,0-181.484,0c-66.203,0-132.405,0-198.607,0c-61.242,0-122.484,0-183.726,0c-45.614,0-91.228,0-136.841,0
					c-19.318,0-38.635,0-57.953,0c-0.092,0-0.184,0-0.275,0c2.482,2.52,4.965,5.037,7.447,7.557c0-24,0-48,0-72
					c-2.519,2.481-5.037,4.966-7.556,7.447c17.078,0,34.155,0,51.232,0c44.12,0,88.24,0,132.36,0c60.495,0,120.99,0,181.486,0
					c66.202,0,132.405,0,198.607,0c61.242,0,122.482,0,183.726,0c45.613,0,91.229,0,136.841,0c19.317,0,38.637,0,57.953,0
					c0.092,0,0.185,0,0.275,0c-2.482-2.519-4.966-5.037-7.448-7.556c0,24,0,48,0,72c0,9.686,15.004,9.771,15.004,0.107
					c0-24,0-48,0-72c0-4.064-3.342-7.557-7.447-7.557c-17.077,0-34.154,0-51.231,0c-44.12,0-88.24,0-132.36,0
					c-60.494,0-120.989,0-181.484,0c-66.203,0-132.405,0-198.607,0c-61.242,0-122.484,0-183.726,0c-45.614,0-91.228,0-136.841,0
					c-19.318,0-38.635,0-57.953,0c-0.092,0-0.184,0-0.275,0c-4.065,0-7.556,3.342-7.556,7.448c0,24,0,48,0,72
					c0,4.064,3.341,7.556,7.447,7.556c17.078,0,34.155,0,51.232,0c44.12,0,88.24,0,132.36,0c60.495,0,120.99,0,181.485,0
					c66.202,0,132.405,0,198.607,0c61.242,0,122.483,0,183.726,0c45.613,0,91.229,0,136.842,0c19.316,0,38.636,0,57.953,0
					c0.092,0,0.184,0,0.274,0C937.483,1114.899,937.57,1099.896,927.906,1099.896z"/>
			</g>
		</g>
		<defs>
			<filter id="Adobe_OpacityMaskFilter" filterUnits="userSpaceOnUse" x="157.869" y="293.943" width="597.484" height="568.955">
				<feColorMatrix  type="matrix" values="1 0 0 0 0  0 1 0 0 0  0 0 1 0 0  0 0 0 1 0"/>
			</filter>
		</defs>
		<mask maskUnits="userSpaceOnUse" x="157.869" y="293.943" width="597.484" height="568.955" id="SVGID_2_" display="inline">
			<g filter="url(#Adobe_OpacityMaskFilter)">
				<g>
					
						<linearGradient id="SVGID_1_" gradientUnits="userSpaceOnUse" x1="271.8745" y1="1880.6094" x2="271.8745" y2="1326.6572" gradientTransform="matrix(1 0 0 -1 184.7383 2182.0547)">
						<stop  offset="0.0675" style="stop-color:#FFFFFF"/>
						<stop  offset="0.5092" style="stop-color:#000000"/>
					</linearGradient>
					<rect x="96.613" y="301.445" fill="url(#SVGID_1_)" width="720" height="553.952"/>
				</g>
			</g>
		</mask>
		<g display="inline" mask="url(#SVGID_2_)">
			<rect x="165.373" y="301.445" fill="#D9534F" width="582.479" height="553.952"/>
			<g>
				<path fill="#1A1A1A" d="M747.906,847.896c-25.849,0-51.696,0-77.545,0c-58.932,0-117.863,0-176.796,0
					c-64.097,0-128.192,0-192.291,0c-41.343,0-82.686,0-124.029,0c-3.94,0-7.88,0-11.82,0c2.482,2.52,4.965,5.037,7.448,7.557
					c0-26.938,0-53.877,0-80.816c0-60.223,0-120.445,0-180.668c0-62.617,0-125.233,0-187.85c0-34.121,0-68.242,0-102.362
					c0-0.751,0-1.503,0-2.255c-2.519,2.481-5.038,4.965-7.556,7.447c25.848,0,51.696,0,77.544,0c58.932,0,117.864,0,176.796,0
					c64.097,0,128.192,0,192.289,0c41.345,0,82.688,0,124.029,0c3.94,0,7.88,0,11.82,0c-2.483-2.52-4.966-5.037-7.448-7.557
					c0,26.939,0,53.877,0,80.816c0,60.223,0,120.444,0,180.668c0,62.617,0,125.232,0,187.85c0,34.121,0,68.242,0,102.362
					c0,0.752,0,1.504,0,2.256c0,9.687,15.004,9.771,15.004,0.107c0-26.938,0-53.877,0-80.816c0-60.223,0-120.445,0-180.668
					c0-62.617,0-125.233,0-187.85c0-34.121,0-68.242,0-102.362c0-0.751,0-1.503,0-2.255c0-4.065-3.342-7.557-7.448-7.557
					c-25.848,0-51.695,0-77.544,0c-58.932,0-117.863,0-176.796,0c-64.097,0-128.192,0-192.291,0c-41.343,0-82.686,0-124.029,0
					c-3.94,0-7.88,0-11.82,0c-4.065,0-7.556,3.342-7.556,7.447c0,26.939,0,53.877,0,80.816c0,60.223,0,120.444,0,180.668
					c0,62.617,0,125.232,0,187.85c0,34.121,0,68.242,0,102.362c0,0.752,0,1.504,0,2.256c0,4.064,3.342,7.556,7.448,7.556
					c25.848,0,51.696,0,77.544,0c58.932,0,117.864,0,176.795,0c64.098,0,128.193,0,192.29,0c41.345,0,82.688,0,124.029,0
					c3.94,0,7.88,0,11.82,0C757.483,862.899,757.569,847.896,747.906,847.896z"/>
			</g>
		</g>
		<g id="Layer_11" display="inline">
			<g>
				<circle fill="#C7B299" cx="660.889" cy="457.445" r="36"/>
				<g>
					<path fill="#1A1A1A" d="M617.387,457.392c0.451,23.979,19.429,43.104,43.448,43.557c23.978,0.451,43.116-20.107,43.556-43.447
						c0.451-23.979-20.106-43.117-43.448-43.557C636.966,413.493,617.827,434.051,617.387,457.392
						c-0.183,9.693,14.822,9.761,15.004,0.108c0.297-15.764,12.641-28.255,28.444-28.553c15.765-0.297,28.263,13.087,28.552,28.443
						c0.297,15.766-13.087,28.263-28.443,28.553c-15.766,0.297-28.264-13.087-28.553-28.443
						C632.209,447.827,617.206,447.724,617.387,457.392z"/>
				</g>
			</g>
		</g>
	</g>
	<g id="Layer_1_1_">
		<g>
			<g>
				
					<linearGradient id="SVGID_3_" gradientUnits="userSpaceOnUse" x1="271.8745" y1="1146.6572" x2="271.8745" y2="1506.6572" gradientTransform="matrix(1 0 0 -1 184.7383 2182.0547)">
					<stop  offset="0" style="stop-color:#C68945"/>
					<stop  offset="1" style="stop-color:#C69C6D"/>
				</linearGradient>
				<rect x="165.373" y="675.397" fill="url(#SVGID_3_)" width="582.479" height="360"/>
				<g>
					<path fill="#1A1A1A" d="M747.906,1027.896c-25.849,0-51.696,0-77.545,0c-58.932,0-117.863,0-176.796,0
						c-64.097,0-128.192,0-192.291,0c-41.343,0-82.686,0-124.029,0c-3.94,0-7.88,0-11.82,0c2.482,2.52,4.965,5.037,7.448,7.557
						c0-37.189,0-74.379,0-111.568c0-62.795,0-125.59,0-188.386c0-20.016,0-40.03,0-60.045c-2.519,2.481-5.038,4.965-7.556,7.447
						c25.848,0,51.696,0,77.544,0c58.932,0,117.864,0,176.796,0c64.097,0,128.192,0,192.289,0c41.345,0,82.688,0,124.029,0
						c3.94,0,7.88,0,11.82,0c-2.483-2.519-4.966-5.038-7.448-7.556c0,37.189,0,74.379,0,111.569c0,62.795,0,125.59,0,188.386
						c0,20.015,0,40.03,0,60.046c0,9.687,15.004,9.771,15.004,0.107c0-37.189,0-74.379,0-111.568c0-62.795,0-125.59,0-188.386
						c0-20.016,0-40.03,0-60.045c0-4.065-3.342-7.557-7.448-7.557c-25.848,0-51.695,0-77.544,0c-58.932,0-117.863,0-176.796,0
						c-64.097,0-128.192,0-192.291,0c-41.343,0-82.686,0-124.029,0c-3.94,0-7.88,0-11.82,0c-4.065,0-7.556,3.343-7.556,7.448
						c0,37.189,0,74.379,0,111.569c0,62.795,0,125.59,0,188.386c0,20.015,0,40.03,0,60.046c0,4.064,3.342,7.557,7.448,7.557
						c25.848,0,51.696,0,77.544,0c58.932,0,117.864,0,176.795,0c64.098,0,128.193,0,192.29,0c41.345,0,82.688,0,124.029,0
						c3.94,0,7.88,0,11.82,0C757.483,1042.899,757.569,1027.896,747.906,1027.896z"/>
				</g>
			</g>
			<g>
				<polygon fill="#C69C6D" points="646.029,573.575 747.852,675.397 165.373,675.397 267.197,573.575 				"/>
				<g>
					<path fill="#1A1A1A" d="M640.754,578.907c33.41,33.409,66.818,66.819,100.229,100.229c0.531,0.531,1.062,1.062,1.595,1.593
						c1.775-4.277,3.553-8.556,5.329-12.834c-25.849,0-51.696,0-77.545,0c-58.932,0-117.863,0-176.796,0
						c-64.097,0-128.192,0-192.291,0c-41.343,0-82.686,0-124.029,0c-3.94,0-7.88,0-11.82,0c1.759,4.26,3.519,8.52,5.278,12.777
						c33.349-33.349,66.698-66.697,100.047-100.046c0.592-0.593,1.185-1.186,1.777-1.777c-1.795,0.742-3.591,1.484-5.387,2.227
						c35.836,0,71.673,0,107.509,0c63.64,0,127.279,0,190.917,0c26.803,0,53.604,0,80.406,0c9.687,0,9.771-15.003,0.107-15.003
						c-35.836,0-71.673,0-107.51,0c-63.64,0-127.277,0-190.916,0c-21.683,0-43.363,0-65.044,0c-4.708,0-9.415,0-14.123,0
						c-5.177,0-7.91,3.511-11.274,6.874c-32.392,32.392-64.784,64.782-97.175,97.175c-4.58,4.579-1.211,12.776,5.278,12.776
						c25.848,0,51.696,0,77.544,0c58.932,0,117.864,0,176.796,0c64.097,0,128.192,0,192.289,0c41.345,0,82.688,0,124.029,0
						c3.94,0,7.88,0,11.82,0c6.596,0,10.003-8.161,5.329-12.834c-33.41-33.409-66.819-66.819-100.229-100.229
						c-0.531-0.531-1.062-1.062-1.594-1.593C644.469,561.407,633.9,572.055,640.754,578.907z"/>
				</g>
			</g>
		</g>
		<line display="none" fill="none" stroke="#000000" stroke-miterlimit="10" x1="747.852" y1="675.397" x2="514.859" y2="675.397"/>
		<line display="none" fill="none" stroke="#000000" stroke-miterlimit="10" x1="398.365" y1="675.397" x2="165.373" y2="675.397"/>
		<line display="none" fill="none" stroke="#000000" stroke-miterlimit="10" x1="429.052" y1="573.575" x2="267.197" y2="573.575"/>
		<line display="none" fill="none" stroke="#000000" stroke-miterlimit="10" x1="646.029" y1="573.575" x2="484.175" y2="573.575"/>
		<g display="none">
			<rect x="398.365" y="675.397" display="inline" fill="#C7B299" width="116.494" height="72"/>
			<g display="inline">
				<path fill="#1A1A1A" d="M514.914,739.896c-38.831,0-77.663,0-116.495,0c2.481,2.52,4.965,5.037,7.448,7.557c0-24,0-48,0-72
					c-2.52,2.481-5.038,4.965-7.557,7.447c38.832,0,77.664,0,116.496,0c-2.482-2.519-4.966-5.038-7.448-7.556c0,24,0,48,0,72
					c0,9.688,15.005,9.772,15.005,0.108c0-24,0-48,0-72c0-4.065-3.343-7.557-7.448-7.557c-38.831,0-77.663,0-116.495,0
					c-4.065,0-7.557,3.343-7.557,7.448c0,24,0,48,0,72c0,4.065,3.343,7.556,7.448,7.556c38.832,0,77.664,0,116.496,0
					C524.492,754.899,524.578,739.896,514.914,739.896z"/>
			</g>
		</g>
		<g>
			<polygon fill="#C7B299" points="484.175,573.575 514.859,675.397 398.365,675.397 429.052,573.575 			"/>
			<g>
				<path fill="#1A1A1A" d="M476.93,575.516c10.229,33.941,20.457,67.882,30.687,101.823c2.433-3.147,4.864-6.295,7.298-9.443
					c-38.831,0-77.663,0-116.495,0c2.394,3.161,4.787,6.322,7.181,9.482c10.229-33.941,20.458-67.882,30.688-101.823
					c-2.431,1.84-4.859,3.681-7.289,5.521c18.374,0,36.749,0,55.123,0c9.686,0,9.771-15.003,0.106-15.003
					c-18.374,0-36.748,0-55.122,0c-3.433,0-6.311,2.274-7.289,5.521c-10.229,33.941-20.458,67.882-30.688,101.823
					c-1.397,4.638,2.422,9.481,7.181,9.481c38.832,0,77.664,0,116.496,0c4.758,0,8.72-4.727,7.298-9.442
					c-10.229-33.941-20.457-67.882-30.686-101.823C488.634,562.39,474.136,566.245,476.93,575.516z"/>
			</g>
		</g>
	</g>
	<g id="Layer_5_2_" display="none">
		<g display="inline">
			<rect x="311.713" y="776.445" fill="#3FA9F5" width="289.8" height="180.001"/>
			<g>
				<path fill="#1A1A1A" d="M601.565,948.943c-42.482,0-84.966,0-127.448,0c-52.342,0-104.684,0-157.024,0c-1.775,0-3.551,0-5.326,0
					c2.482,2.52,4.965,5.037,7.448,7.557c0-49.992,0-99.984,0-149.978c0-10.008,0-20.016,0-30.022
					c-2.519,2.481-5.038,4.965-7.556,7.448c42.483,0,84.967,0,127.45,0c52.343,0,104.684,0,157.023,0c1.775,0,3.552,0,5.327,0
					c-2.483-2.52-4.966-5.037-7.448-7.557c0,49.993,0,99.985,0,149.978c0,10.008,0,20.016,0,30.022
					c0,9.687,15.004,9.771,15.004,0.107c0-49.992,0-99.984,0-149.978c0-10.008,0-20.016,0-30.022c0-4.065-3.342-7.557-7.448-7.557
					c-42.482,0-84.966,0-127.448,0c-52.341,0-104.684,0-157.024,0c-1.775,0-3.551,0-5.326,0c-4.065,0-7.556,3.343-7.556,7.448
					c0,49.993,0,99.985,0,149.978c0,10.008,0,20.016,0,30.022c0,4.064,3.342,7.556,7.448,7.556c42.483,0,84.967,0,127.45,0
					c52.343,0,104.684,0,157.023,0c1.775,0,3.552,0,5.327,0C611.144,963.948,611.229,948.943,601.565,948.943z"/>
			</g>
		</g>
		<g display="inline">
			<path stroke="#1A1A1A" d="M352.394,849.105c0-3.096,2.448-5.544,5.544-5.544c3.098,0,5.545,2.448,5.545,5.544v35.211h20.521
				c2.808,0,5.041,2.232,5.041,5.041s-2.232,5.04-5.041,5.04h-26.066c-3.096,0-5.544-2.447-5.544-5.545V849.105z"/>
			<path stroke="#1A1A1A" d="M391.85,869.34v-0.145c0-14.328,11.305-26.065,26.858-26.065c15.553,0,26.714,11.593,26.714,25.922
				v0.145c0,14.329-11.305,26.066-26.858,26.066C403.01,895.262,391.85,883.67,391.85,869.34z M433.829,869.34v-0.145
				c0-8.641-6.336-15.842-15.266-15.842c-8.929,0-15.122,7.058-15.122,15.697v0.145c0,8.642,6.338,15.843,15.267,15.843
				S433.829,877.98,433.829,869.34z"/>
			<path stroke="#1A1A1A" d="M453.05,869.34v-0.145c0-14.328,11.161-26.065,26.426-26.065c7.633,0,12.674,1.729,17.21,4.896
				c1.08,0.792,2.305,2.306,2.305,4.466c0,3.022-2.448,5.472-5.473,5.472c-1.585,0-2.593-0.575-3.385-1.151
				c-3.024-2.16-6.265-3.457-11.018-3.457c-8.063,0-14.474,7.129-14.474,15.697v0.145c0,9.218,6.337,15.985,15.267,15.985
				c4.031,0,7.633-1.008,10.439-3.023v-7.2h-7.488c-2.664,0-4.823-2.089-4.823-4.753s2.159-4.824,4.823-4.824h12.674
				c3.097,0,5.545,2.448,5.545,5.545v12.24c0,3.239-1.226,5.473-3.89,7.057c-4.104,2.521-10.081,5.041-17.642,5.041
				C463.85,895.262,453.05,884.245,453.05,869.34z"/>
			<path stroke="#1A1A1A" d="M509.497,869.34v-0.145c0-14.328,11.305-26.065,26.857-26.065c15.554,0,26.714,11.593,26.714,25.922
				v0.145c0,14.329-11.305,26.066-26.857,26.066C520.658,895.262,509.497,883.67,509.497,869.34z M551.476,869.34v-0.145
				c0-8.641-6.337-15.842-15.266-15.842s-15.121,7.058-15.121,15.697v0.145c0,8.642,6.337,15.843,15.266,15.843
				C545.284,885.038,551.476,877.98,551.476,869.34z"/>
		</g>
	</g>
	<g id="Layer_12" display="none">
		<g display="inline">
			<path fill="#1A1A1A" stroke="#1A1A1A" d="M358.212,897.882h-43.198c-6.15,0-11.25-4.5-11.25-10.65c0-4.8,1.95-8.549,5.399-12.6
				l45.598-52.947c4.35-5.1,7.65-7.8,14.399-7.8c6.149,0,11.1,4.8,11.1,10.949v54.298h5.55c5.25,0,9.45,4.2,9.45,9.449
				c0,5.25-4.2,9.301-9.45,9.301h-5.55v12.599c0,6.149-4.95,10.95-11.1,10.95s-10.949-4.801-10.949-10.95L358.212,897.882
				L358.212,897.882z M358.212,879.132v-32.699l-27.899,32.699H358.212z"/>
			<path fill="#1A1A1A" stroke="#1A1A1A" d="M409.963,868.333v-0.301c0-30.449,18.898-54.299,46.798-54.299
				c27.749,0,46.498,23.551,46.498,53.998v0.301c0,30.448-18.749,54.298-46.798,54.298S409.963,898.78,409.963,868.333z
				 M479.559,868.333v-0.301c0-19.05-9.299-33.448-23.099-33.448s-22.799,13.949-22.799,33.147v0.301
				c0,19.198,9.148,33.448,23.099,33.448S479.559,887.382,479.559,868.333z"/>
			<path fill="#1A1A1A" stroke="#1A1A1A" d="M571.059,897.882h-43.197c-6.149,0-11.25-4.5-11.25-10.65c0-4.8,1.951-8.549,5.4-12.6
				l45.598-52.947c4.351-5.1,7.65-7.8,14.4-7.8c6.148,0,11.1,4.8,11.1,10.949v54.298h5.55c5.25,0,9.448,4.2,9.448,9.449
				c0,5.25-4.198,9.301-9.448,9.301h-5.55v12.599c0,6.149-4.95,10.95-11.1,10.95c-6.15,0-10.951-4.801-10.951-10.95V897.882
				L571.059,897.882z M571.059,879.132v-32.699l-27.897,32.699H571.059z"/>
		</g>
	</g>
	<g id="Layer_4" display="none">
		<path display="inline" fill="#1A1A1A" stroke="#1A1A1A" stroke-miterlimit="10" d="M521.981,923.418
			c-2.448,5.66-5.35,10.87-8.709,15.66c-4.579,6.529-8.329,11.05-11.221,13.56c-4.479,4.12-9.279,6.23-14.42,6.352
			c-3.689,0-8.141-1.052-13.32-3.182c-5.196-2.12-9.973-3.17-14.34-3.17c-4.58,0-9.492,1.05-14.746,3.17
			c-5.262,2.13-9.501,3.24-12.742,3.352c-4.929,0.21-9.842-1.96-14.745-6.521c-3.13-2.729-7.046-7.41-11.734-14.04
			c-5.032-7.08-9.169-15.29-12.41-24.648c-3.471-10.11-5.211-19.9-5.211-29.378c0-10.857,2.346-20.223,7.045-28.068
			c3.693-6.303,8.605-11.275,14.755-14.925c6.149-3.65,12.793-5.511,19.948-5.629c3.915,0,9.049,1.211,15.429,3.591
			c6.362,2.388,10.447,3.599,12.238,3.599c1.339,0,5.877-1.416,13.569-4.238c7.274-2.617,13.416-3.701,18.444-3.274
			c13.631,1.1,23.87,6.473,30.681,16.153c-12.189,7.386-18.22,17.729-18.101,31.002c0.11,10.337,3.86,18.938,11.23,25.769
			c3.34,3.17,7.069,5.62,11.22,7.36C523.942,918.517,522.992,921.017,521.981,923.418L521.981,923.418z M490.722,800.408
			c0,8.102-2.96,15.667-8.858,22.669c-7.121,8.323-15.732,13.134-25.071,12.375c-0.119-0.974-0.188-1.995-0.188-3.07
			c0-7.778,3.387-16.102,9.399-22.908c3.002-3.445,6.819-6.311,11.45-8.597c4.619-2.252,8.989-3.497,13.1-3.71
			C490.673,798.25,490.722,799.333,490.722,800.408L490.722,800.408z"/>
	</g>
	<g id="Layer_8" display="none">
		<g display="inline">
			<path fill="#FFFFFF" stroke="#1A1A1A" stroke-miterlimit="10" d="M805.144,884.896c2.524-12.702,6.418-25.148,11.071-37.238
				c4.929-11.105,10.036-22.221,12.942-33.997c3.581-14.515,5.46-30.933,3.671-46.013c-2.335-19.693-3.534-26.368-12.068-44.6
				c-6.049-12.923-20.641-25.715-32.921-32.362c-23.41-12.671-49.119-12.398-72.603-0.18c-1.791,0.933-3.443,1.979-5.012,3.096
				c-2.896-0.41-5.847-0.651-8.851-0.672c-36.478-0.242-68.147,30.252-68.002,67.029c0.088,22.175,3.209,44.269,6.688,66.129
				c2.553,16.038,10.236,30.427,17.203,44.972c0.079,0.265,0.155,0.528,0.231,0.794c0.145,3.322,0.235,6.647,0.385,9.96
				c0.65,14.567,2.272,29.024,4.581,43.437c1.964,12.267,6.369,25.729,13.489,35.707c7.695,10.789,17.014,23.145,29.765,28.556
				c17.69,7.506,16.3,7.814,35.634,9.655c7.343,0.699,14.796-1.202,22.01-2.521c16.874-3.087,32.668-17.042,40.986-31.449
				c5.9-10.302,8.92-21.39,9.059-33.265c0.009-11.082-2.479-21.498-7.44-31.248c-0.385-1.334-0.739-2.676-1.062-4.025
				C804.784,892.735,804.87,888.815,805.144,884.896z"/>
			<path fill="#1A1A1A" stroke="#1A1A1A" stroke-miterlimit="10" d="M534.156,1042.91h402.588
				c8.187-0.098,14.771-6.763,14.771-14.948c0-75.844-95.644-106.093-136.693-115.618c-0.495-0.139-0.84-0.588-0.84-1.102v-16.314
				c9.489-12.361,16.579-26.391,20.901-41.361c10.802-10.628,15.563-27.251,18.122-36.511c4.189-14.728,8.379-36.068-3.174-51.327
				l-0.485-0.661c5.556-26.941,12.479-90.043-35.585-122.1c5.632-5.741,8.686-13.524,8.466-21.562
				c-0.057-0.771-0.422-1.486-1.013-1.984c-0.556-0.468-1.261-0.718-1.985-0.706c-0.616,0-60.719,6.834-89.688,0.837
				c-29.812-6.129-62.484,16.448-69.056,39.554c-11.224,1.466-21.438,7.236-28.484,16.096
				c-13.229,16.183-17.153,41.935-11.95,76.505c0.354,4.41,0.883,8.818,1.676,13.228l-0.527,0.662
				c-11.511,15.257-7.32,36.6-3.132,51.327c2.558,9.084,7.319,25.885,18.078,36.511c4.301,15.075,11.391,29.21,20.9,41.67v16.051
				c0.017,0.521-0.333,0.979-0.837,1.103c-41.141,9.481-136.694,39.687-136.694,115.618
				C519.466,1036.045,525.984,1042.742,534.156,1042.91z M735.451,970.418c-25.478,0.358-49.558-11.614-64.646-32.146
				c6.569-3.67,11.572-9.611,14.067-16.712c6.735,4.381,13.976,7.934,21.562,10.583c18.773,6.643,39.256,6.643,58.028,0
				c7.575-2.755,14.799-6.396,21.519-10.848c2.461,7.188,7.483,13.218,14.111,16.933
				C785.009,958.769,760.932,970.759,735.451,970.418z M679.096,721.809c11.95-7.274,27.25-6.967,45.505,0.794
				c37.306,16.007,65.308,14.991,82.237,11.112c11.014,8.294,16.336,22.139,13.714,35.672
				c-54.15-19.182-113.191-19.524-167.562-0.969C655.506,755.762,661.986,732.26,679.096,721.809z M788.363,790.729
				c0,7.671-6.219,13.891-13.89,13.891s-13.892-6.22-13.892-13.891s6.221-13.891,13.892-13.891S788.363,783.059,788.363,790.729
				L788.363,790.729z M710.008,790.729c0,7.671-6.219,13.891-13.891,13.891s-13.892-6.22-13.892-13.891s6.22-13.891,13.892-13.891
				c7.67-0.097,13.968,6.042,14.065,13.714c0,0.059,0,0.117,0,0.177H710.008z M643.688,809.734
				c-0.528-1.939-1.015-3.748-1.411-5.424c59.894,23.5,126.452,23.5,186.346,0c-0.396,1.676-0.837,3.483-1.411,5.424
				c-6.79,23.944-12.302,26.193-13.845,26.458c-1.316,0.088-2.397,1.075-2.603,2.381c-3.97,25.53-24.253,57.323-55.427,68.523
				c-12.949,4.604-27.092,4.604-40.038,0c-32.455-11.42-51.416-43.566-55.296-68.566c-0.204-1.307-1.285-2.296-2.603-2.383
				C656.079,835.971,650.433,833.679,643.688,809.734z"/>
		</g>
	</g>
	<g id="Layer_2_1_" display="none">
		<g display="inline">
			<rect x="560.389" y="711.397" fill="#FFFFFF" width="144" height="232.992"/>
			<g>
				<path fill="#1A1A1A" d="M704.442,936.888c-47.249,0-94.497,0-141.745,0c-0.752,0-1.504,0-2.255,0
					c2.483,2.52,4.967,5.037,7.448,7.556c0-47.097,0-94.191,0-141.288c0-30.568,0-61.136,0-91.703
					c-2.519,2.481-5.037,4.965-7.556,7.447c47.249,0,94.497,0,141.746,0c0.751,0,1.503,0,2.254,0
					c-2.483-2.519-4.966-5.038-7.448-7.556c0,47.097,0,94.193,0,141.29c0,30.567,0,61.136,0,91.703
					c0,9.686,15.004,9.771,15.004,0.106c0-47.097,0-94.191,0-141.288c0-30.568,0-61.136,0-91.703c0-4.065-3.342-7.557-7.448-7.557
					c-47.249,0-94.497,0-141.745,0c-0.752,0-1.504,0-2.255,0c-4.063,0-7.556,3.342-7.556,7.448c0,47.097,0,94.193,0,141.29
					c0,30.567,0,61.136,0,91.703c0,4.063,3.342,7.556,7.448,7.556c47.249,0,94.497,0,141.746,0c0.751,0,1.503,0,2.254,0
					C714.021,951.892,714.106,936.888,704.442,936.888z"/>
			</g>
		</g>
		<polyline display="inline" fill="none" stroke="#1A1A1A" stroke-miterlimit="10" points="704.389,944.39 686.389,944.39 
			668.389,944.39 650.389,944.39 632.389,944.39 614.389,944.39 596.389,944.39 578.389,944.39 560.389,944.39 		"/>
		<g display="inline">
			<g>
				<g>
					<path fill="#1A1A1A" d="M581.889,924.169c0-18,0-36,0-54c0-4.514-7-4.514-7,0c0,18,0,36,0,54
						C574.889,928.682,581.889,928.682,581.889,924.169L581.889,924.169z"/>
				</g>
			</g>
			<g>
				<g>
					<path fill="#1A1A1A" d="M599.889,923.89c0-17.907,0-35.813,0-53.722c0-4.515-7-4.515-7,0c0,17.907,0,35.813,0,53.722
						C592.889,928.403,599.889,928.403,599.889,923.89L599.889,923.89z"/>
				</g>
			</g>
			<g>
				<g>
					<path fill="#1A1A1A" d="M617.889,923.89c0-17.907,0-35.813,0-53.722c0-4.515-7-4.515-7,0c0,17.907,0,35.813,0,53.722
						C610.889,928.403,617.889,928.403,617.889,923.89L617.889,923.89z"/>
				</g>
			</g>
			<g>
				<g>
					<path fill="#1A1A1A" d="M635.889,923.89c0-17.907,0-35.813,0-53.722c0-4.515-7-4.515-7,0c0,17.907,0,35.813,0,53.722
						C628.889,928.403,635.889,928.403,635.889,923.89L635.889,923.89z"/>
				</g>
			</g>
			<g>
				<g>
					<path fill="#1A1A1A" d="M653.889,923.89c0-17.907,0-35.813,0-53.722c0-4.515-7-4.515-7,0c0,17.907,0,35.813,0,53.722
						C646.889,928.403,653.889,928.403,653.889,923.89L653.889,923.89z"/>
				</g>
			</g>
			<g>
				<g>
					<path fill="#1A1A1A" d="M671.889,923.89c0-17.907,0-35.813,0-53.722c0-4.515-7-4.515-7,0c0,17.907,0,35.813,0,53.722
						C664.889,928.403,671.889,928.403,671.889,923.89L671.889,923.89z"/>
				</g>
			</g>
			<g>
				<g>
					<path fill="#1A1A1A" d="M689.889,923.89c0-17.907,0-35.813,0-53.722c0-4.515-7-4.515-7,0c0,17.907,0,35.813,0,53.722
						C682.889,928.403,689.889,928.403,689.889,923.89L689.889,923.89z"/>
				</g>
			</g>
		</g>
		<g display="inline">
			<g display="none">
				<g display="inline">
					<path fill="#1A1A1A" d="M659.251,893.669c-18,0-36,0-54,0c-4.515,0-4.515,7,0,7c18,0,36,0,54,0
						C663.764,900.669,663.764,893.669,659.251,893.669L659.251,893.669z"/>
				</g>
			</g>
			<g display="none">
				<g display="inline">
					<path fill="#1A1A1A" d="M658.972,875.669c-17.907,0-35.813,0-53.722,0c-4.514,0-4.514,7,0,7c17.907,0,35.813,0,53.722,0
						C663.485,882.669,663.485,875.669,658.972,875.669L658.972,875.669z"/>
				</g>
			</g>
			<g display="none">
				<g display="inline">
					<path fill="#1A1A1A" d="M658.972,857.669c-17.907,0-35.813,0-53.722,0c-4.514,0-4.514,7,0,7c17.907,0,35.813,0,53.722,0
						C663.485,864.669,663.485,857.669,658.972,857.669L658.972,857.669z"/>
				</g>
			</g>
			<g>
				<g>
					<path fill="#1A1A1A" d="M658.972,839.669c-17.907,0-35.813,0-53.722,0c-4.514,0-4.514,7,0,7c17.907,0,35.813,0,53.722,0
						C663.485,846.669,663.485,839.669,658.972,839.669L658.972,839.669z"/>
				</g>
			</g>
			<g>
				<g>
					<path fill="#1A1A1A" d="M658.972,821.669c-17.907,0-35.813,0-53.722,0c-4.514,0-4.514,7,0,7c17.907,0,35.813,0,53.722,0
						C663.485,828.669,663.485,821.669,658.972,821.669L658.972,821.669z"/>
				</g>
			</g>
			<g>
				<g>
					<path fill="#1A1A1A" d="M658.972,803.669c-17.907,0-35.813,0-53.722,0c-4.514,0-4.514,7,0,7c17.907,0,35.813,0,53.722,0
						C663.485,810.669,663.485,803.669,658.972,803.669L658.972,803.669z"/>
				</g>
			</g>
			<g>
				<g>
					<path fill="#1A1A1A" d="M658.972,785.669c-17.907,0-35.813,0-53.722,0c-4.514,0-4.514,7,0,7c17.907,0,35.813,0,53.722,0
						C663.485,792.669,663.485,785.669,658.972,785.669L658.972,785.669z"/>
				</g>
			</g>
		</g>
		<g display="inline">
			<path fill="#1A1A1A" stroke="#1A1A1A" d="M583.429,735.733c0-2.58,2.04-4.619,4.619-4.619h12.54
				c10.02,0,16.079,5.938,16.079,14.519v0.12c0,9.72-7.561,14.759-16.979,14.759h-7.02v8.34c0,2.58-2.04,4.62-4.62,4.62
				c-2.579,0-4.619-2.04-4.619-4.62V735.733L583.429,735.733z M599.988,752.293c4.619,0,7.319-2.76,7.319-6.359v-0.12
				c0-4.14-2.88-6.359-7.5-6.359h-7.14v12.839H599.988z"/>
		</g>
		<g display="inline">
			<g display="none">
				<g display="inline">
					<path fill="#1A1A1A" d="M676.251,831.002c-18,0-36,0-54,0c-4.515,0-4.515,7,0,7c18,0,36,0,54,0
						C680.764,838.002,680.764,831.002,676.251,831.002L676.251,831.002z"/>
				</g>
			</g>
			<g display="none">
				<g display="inline">
					<path fill="#1A1A1A" d="M675.972,813.002c-17.907,0-35.813,0-53.722,0c-4.514,0-4.514,7,0,7c17.907,0,35.813,0,53.722,0
						C680.485,820.002,680.485,813.002,675.972,813.002L675.972,813.002z"/>
				</g>
			</g>
			<g display="none">
				<g display="inline">
					<path fill="#1A1A1A" d="M675.972,795.002c-17.907,0-35.813,0-53.722,0c-4.514,0-4.514,7,0,7c17.907,0,35.813,0,53.722,0
						C680.485,802.002,680.485,795.002,675.972,795.002L675.972,795.002z"/>
				</g>
			</g>
			<g display="none">
				<g display="inline">
					<path fill="#1A1A1A" d="M675.972,777.002c-17.907,0-35.813,0-53.722,0c-4.514,0-4.514,7,0,7c17.907,0,35.813,0,53.722,0
						C680.485,784.002,680.485,777.002,675.972,777.002L675.972,777.002z"/>
				</g>
			</g>
			<g display="none">
				<g display="inline">
					<path fill="#1A1A1A" d="M675.972,759.002c-17.907,0-35.813,0-53.722,0c-4.514,0-4.514,7,0,7c17.907,0,35.813,0,53.722,0
						C680.485,766.002,680.485,759.002,675.972,759.002L675.972,759.002z"/>
				</g>
			</g>
			<g>
				<g>
					<path fill="#1A1A1A" d="M685.834,755.23c-17.907,0-35.814,0-53.723,0c-4.514,0-4.514,7,0,7c17.907,0,35.814,0,53.723,0
						C690.347,762.23,690.347,755.23,685.834,755.23L685.834,755.23z"/>
				</g>
			</g>
			<g>
				<g>
					<path fill="#1A1A1A" d="M685.834,737.23c-17.907,0-35.814,0-53.723,0c-4.514,0-4.514,7,0,7c17.907,0,35.814,0,53.723,0
						C690.347,744.23,690.347,737.23,685.834,737.23L685.834,737.23z"/>
				</g>
			</g>
		</g>
	</g>
	<g id="Layer_3_1_" display="none">
		<g display="inline">
			<g>
				<rect x="221.394" y="717.003" fill="#FF7BAC" width="116.495" height="72.001"/>
				<g>
					<path fill="#1A1A1A" d="M337.943,781.503c-38.832,0-77.664,0-116.495,0c2.482,2.519,4.965,5.037,7.448,7.556
						c0-24,0-48,0-72.001c-2.519,2.482-5.038,4.965-7.556,7.447c38.832,0,77.664,0,116.495,0c-2.482-2.52-4.965-5.037-7.448-7.556
						c0,24,0,48.001,0,72.002c0,9.686,15.004,9.771,15.004,0.106c0-24,0-48,0-72.001c0-4.064-3.342-7.556-7.448-7.556
						c-38.832,0-77.664,0-116.495,0c-4.065,0-7.556,3.341-7.556,7.447c0,24,0,48,0,72.002c0,4.063,3.342,7.556,7.448,7.556
						c38.832,0,77.664,0,116.495,0C347.521,796.507,347.606,781.503,337.943,781.503z"/>
				</g>
			</g>
			<g>
				<g display="none">
					<g display="inline">
						<path fill="#1A1A1A" d="M295.85,832.389c-18,0-36,0-54,0c-4.514,0-4.514,7,0,7c18,0,36,0,54,0
							C300.364,839.389,300.364,832.389,295.85,832.389L295.85,832.389z"/>
					</g>
				</g>
				<g display="none">
					<g display="inline">
						<path fill="#1A1A1A" d="M295.572,814.389c-17.907,0-35.814,0-53.722,0c-4.514,0-4.514,7,0,7c17.907,0,35.814,0,53.722,0
							C300.086,821.389,300.086,814.389,295.572,814.389L295.572,814.389z"/>
					</g>
				</g>
				<g display="none">
					<g display="inline">
						<path fill="#1A1A1A" d="M295.572,796.389c-17.907,0-35.814,0-53.722,0c-4.514,0-4.514,7,0,7c17.907,0,35.814,0,53.722,0
							C300.086,803.389,300.086,796.389,295.572,796.389L295.572,796.389z"/>
					</g>
				</g>
				<g display="none">
					<g display="inline">
						<path fill="#1A1A1A" d="M295.572,778.389c-17.907,0-35.814,0-53.722,0c-4.514,0-4.514,7,0,7c17.907,0,35.814,0,53.722,0
							C300.086,785.389,300.086,778.389,295.572,778.389L295.572,778.389z"/>
					</g>
				</g>
				<g display="none">
					<g display="inline">
						<path fill="#1A1A1A" d="M295.572,760.389c-17.907,0-35.814,0-53.722,0c-4.514,0-4.514,7,0,7c17.907,0,35.814,0,53.722,0
							C300.086,767.389,300.086,760.389,295.572,760.389L295.572,760.389z"/>
					</g>
				</g>
				<g>
					<g>
						<path fill="#1A1A1A" d="M305.433,756.618c-17.907,0-35.814,0-53.722,0c-4.514,0-4.514,7,0,7c17.907,0,35.814,0,53.722,0
							C309.947,763.618,309.947,756.618,305.433,756.618L305.433,756.618z"/>
					</g>
				</g>
				<g>
					<g>
						<path fill="#1A1A1A" d="M305.433,738.618c-17.907,0-35.814,0-53.722,0c-4.514,0-4.514,7,0,7c17.907,0,35.814,0,53.722,0
							C309.947,745.618,309.947,738.618,305.433,738.618L305.433,738.618z"/>
					</g>
				</g>
			</g>
		</g>
		<g display="inline">
			<g>
				<rect x="537.072" y="930.446" fill="#FCEE21" width="116.494" height="72"/>
				<g>
					<path fill="#1A1A1A" d="M653.621,994.944c-38.831,0-77.663,0-116.495,0c2.481,2.52,4.966,5.037,7.448,7.557c0-24,0-48,0-72.001
						c-2.52,2.482-5.037,4.966-7.557,7.448c38.831,0,77.663,0,116.495,0c-2.483-2.52-4.966-5.037-7.448-7.557c0,24,0,48,0,72.001
						c0,9.687,15.004,9.771,15.004,0.107c0-24,0-48,0-72.001c0-4.064-3.342-7.557-7.447-7.557c-38.831,0-77.663,0-116.495,0
						c-4.064,0-7.557,3.343-7.557,7.448c0,24,0,48,0,72.001c0,4.064,3.343,7.557,7.448,7.557c38.831,0,77.663,0,116.495,0
						C663.199,1009.949,663.285,994.944,653.621,994.944z"/>
				</g>
			</g>
			<g>
				<g display="none">
					<line display="inline" fill="none" x1="611.527" y1="1049.332" x2="557.527" y2="1049.332"/>
					<g display="inline">
						<path fill="#1A1A1A" d="M611.527,1045.832c-18,0-36,0-54,0c-4.514,0-4.514,7,0,7c18,0,36,0,54,0
							C616.042,1052.832,616.042,1045.832,611.527,1045.832L611.527,1045.832z"/>
					</g>
				</g>
				<g display="none">
					<line display="inline" fill="none" x1="611.25" y1="1031.332" x2="557.527" y2="1031.332"/>
					<g display="inline">
						<path fill="#1A1A1A" d="M611.25,1027.832c-17.907,0-35.814,0-53.723,0c-4.514,0-4.514,7,0,7c17.907,0,35.814,0,53.723,0
							C615.763,1034.832,615.763,1027.832,611.25,1027.832L611.25,1027.832z"/>
					</g>
				</g>
				<g display="none">
					<line display="inline" fill="none" x1="611.25" y1="1013.332" x2="557.527" y2="1013.332"/>
					<g display="inline">
						<path fill="#1A1A1A" d="M611.25,1009.832c-17.907,0-35.814,0-53.723,0c-4.514,0-4.514,7,0,7c17.907,0,35.814,0,53.723,0
							C615.763,1016.832,615.763,1009.832,611.25,1009.832L611.25,1009.832z"/>
					</g>
				</g>
				<g display="none">
					<line display="inline" fill="none" x1="611.25" y1="995.332" x2="557.527" y2="995.332"/>
					<g display="inline">
						<path fill="#1A1A1A" d="M611.25,991.832c-17.907,0-35.814,0-53.723,0c-4.514,0-4.514,7,0,7c17.907,0,35.814,0,53.723,0
							C615.763,998.832,615.763,991.832,611.25,991.832L611.25,991.832z"/>
					</g>
				</g>
				<g display="none">
					<line display="inline" fill="none" x1="611.25" y1="977.331" x2="557.527" y2="977.331"/>
					<g display="inline">
						<path fill="#1A1A1A" d="M611.25,973.831c-17.907,0-35.814,0-53.723,0c-4.514,0-4.514,7,0,7c17.907,0,35.814,0,53.723,0
							C615.763,980.831,615.763,973.831,611.25,973.831L611.25,973.831z"/>
					</g>
				</g>
				<g>
					<line fill="none" x1="621.11" y1="973.561" x2="567.389" y2="973.561"/>
					<g>
						<path fill="#1A1A1A" d="M621.11,970.061c-17.906,0-35.813,0-53.722,0c-4.514,0-4.514,7,0,7c17.907,0,35.814,0,53.722,0
							C625.625,977.061,625.625,970.061,621.11,970.061L621.11,970.061z"/>
					</g>
				</g>
				<g>
					<line fill="none" x1="621.11" y1="955.561" x2="567.389" y2="955.561"/>
					<g>
						<path fill="#1A1A1A" d="M621.11,952.061c-17.906,0-35.813,0-53.722,0c-4.514,0-4.514,7,0,7c17.907,0,35.814,0,53.722,0
							C625.625,959.061,625.625,952.061,621.11,952.061L621.11,952.061z"/>
					</g>
				</g>
			</g>
		</g>
	</g>
	<g id="Layer_6" display="none">
		<g display="inline">
			<polyline fill="#8C6239" points="237.373,963.397 165.373,1035.397 309.373,1035.397 165.373,891.397 165.373,1035.397 			"/>
			<g>
				<path fill="#1A1A1A" d="M232.04,958.123c-24,24-48,48-72,72c-4.58,4.579-1.211,12.776,5.278,12.776c47.249,0,94.498,0,141.747,0
					c0.751,0,1.502,0,2.253,0c6.596,0,10.004-8.159,5.33-12.835c-34.711-34.711-69.422-69.422-104.133-104.133
					c-13.289-13.289-26.578-26.578-39.867-39.867c-4.579-4.579-12.777-1.21-12.777,5.279c0,47.248,0,94.497,0,141.746
					c0,0.751,0,1.502,0,2.254c0,9.686,15.004,9.771,15.004,0.107c0-47.248,0-94.497,0-141.746c0-0.751,0-1.502,0-2.254
					c-4.259,1.76-8.519,3.52-12.777,5.278c34.711,34.711,69.422,69.422,104.133,104.133c13.289,13.289,26.578,26.578,39.867,39.867
					c1.776-4.277,3.553-8.557,5.33-12.835c-47.249,0-94.498,0-141.747,0c-0.751,0-1.502,0-2.253,0
					c1.759,4.26,3.519,8.52,5.278,12.777c24-24,48-48,72-72C249.541,961.839,238.893,951.27,232.04,958.123L232.04,958.123z"/>
			</g>
		</g>
		<g display="inline">
			<polygon fill="#FFFFFF" points="201.373,999.397 273.373,999.397 201.373,927.397 			"/>
			<g>
				<path fill="#1A1A1A" d="M201.319,1006.899c24,0,48,0,72,0c6.596,0,10.004-8.159,5.33-12.835c-24-24-48-48-72-72
					c-4.579-4.579-12.777-1.21-12.777,5.279c0,24,0,48,0,72c0,9.686,15.004,9.771,15.004,0.107c0-24,0-48,0-72
					c-4.259,1.76-8.519,3.52-12.777,5.278c24,24,48,48,72,72c1.776-4.277,3.553-8.557,5.33-12.835c-24,0-48,0-72,0
					C191.74,991.896,191.655,1006.899,201.319,1006.899z"/>
			</g>
		</g>
		<g display="inline">
			<g>
				<path fill="#1A1A1A" d="M464.113,675.452c0-33.941,0-67.883,0-101.823c0-9.688-15.004-9.772-15.004-0.108
					c0,33.941,0,67.882,0,101.823C449.109,685.03,464.113,685.116,464.113,675.452L464.113,675.452z"/>
			</g>
		</g>
	</g>
	<g id="Layer_7">
		<g display="none">
			<polygon display="inline" fill="#C69C6D" points="646.029,573.575 747.852,675.397 849.676,573.575 712.214,507.39 			"/>
			<g display="inline">
				<path d="M640.754,578.907c33.41,33.409,66.818,66.819,100.229,100.229c0.531,0.531,1.062,1.062,1.595,1.593
					c2.898,2.9,7.729,2.821,10.606-0.057c33.41-33.41,66.82-66.82,100.23-100.229c0.531-0.53,1.062-1.062,1.594-1.594
					c3.23-3.23,2.811-9.655-1.583-11.771c-43.802-21.09-87.604-42.181-131.407-63.271c-2.018-0.972-4.036-1.943-6.055-2.916
					c-3.08-1.482-6.562-1.303-9.082,1.219c-22.062,22.062-44.123,44.124-66.186,66.187c-6.836,6.835,3.812,17.404,10.666,10.551
					c22.061-22.062,44.122-44.123,66.184-66.185c-3.027,0.405-6.055,0.812-9.082,1.219c43.803,21.09,87.604,42.18,131.407,63.27
					c2.018,0.973,4.036,1.944,6.055,2.916c-0.526-3.923-1.055-7.847-1.583-11.771c-33.409,33.41-66.819,66.82-100.229,100.229
					c-0.531,0.531-1.062,1.062-1.594,1.595c3.535-0.02,7.071-0.038,10.607-0.058c-33.41-33.41-66.819-66.819-100.229-100.229
					c-0.53-0.531-1.062-1.062-1.594-1.593C644.469,561.407,633.9,572.055,640.754,578.907z"/>
			</g>
		</g>
		<g display="none">
			<polygon display="inline" fill="#C69C6D" points="267.197,573.575 165.373,675.397 63.55,573.575 201.012,507.39 			"/>
			<g display="inline">
				<path d="M261.864,568.3c-33.409,33.41-66.819,66.82-100.229,100.229c-0.531,0.531-1.062,1.062-1.593,1.595
					c3.535-0.02,7.071-0.038,10.607-0.058c-33.41-33.41-66.819-66.819-100.229-100.229c-0.531-0.531-1.062-1.062-1.594-1.593
					c-0.492,3.934-0.985,7.867-1.478,11.802c43.802-21.09,87.604-42.18,131.406-63.271c2.019-0.972,4.037-1.943,6.056-2.916
					c-3.024-0.379-6.049-0.758-9.073-1.137c22.062,22.062,44.123,44.124,66.185,66.186c6.835,6.835,17.403-3.812,10.551-10.665
					c-22.062-22.062-44.123-44.124-66.185-66.186c-2.52-2.52-6.021-2.605-9.073-1.137c-43.802,21.09-87.604,42.18-131.406,63.27
					c-2.019,0.973-4.037,1.944-6.056,2.916c-4.441,2.14-4.688,8.594-1.478,11.803c33.41,33.409,66.819,66.819,100.229,100.229
					c0.531,0.531,1.062,1.062,1.594,1.593c2.899,2.9,7.729,2.821,10.607-0.057c33.41-33.41,66.82-66.82,100.23-100.229
					c0.531-0.53,1.062-1.062,1.594-1.594C279.364,572.015,268.717,561.446,261.864,568.3z"/>
			</g>
		</g>
		<g>
			<polygon fill="#8C6239" points="747.852,675.397 165.373,675.397 267.197,573.575 646.029,573.575 			"/>
			<g>
				<path fill="#1A1A1A" d="M747.906,667.896c-25.849,0-51.696,0-77.545,0c-58.932,0-117.862,0-176.796,0
					c-64.097,0-128.192,0-192.29,0c-41.343,0-82.686,0-124.029,0c-3.94,0-7.88,0-11.82,0c1.759,4.26,3.519,8.52,5.278,12.777
					c33.41-33.41,66.82-66.82,100.23-100.229c0.531-0.53,1.062-1.062,1.593-1.594c-1.795,0.742-3.591,1.484-5.387,2.227
					c35.836,0,71.673,0,107.509,0c63.64,0,127.279,0,190.917,0c26.803,0,53.604,0,80.406,0c-1.741-0.724-3.48-1.446-5.222-2.169
					c33.41,33.409,66.819,66.819,100.229,100.229c0.531,0.531,1.062,1.062,1.595,1.593c6.836,6.835,17.402-3.812,10.551-10.665
					c-33.41-33.409-66.819-66.819-100.229-100.229c-2.982-2.983-6.055-3.762-10.065-3.762c-5.864,0-11.729,0-17.594,0
					c-23.257,0-46.513,0-69.769,0c-63.827,0-127.654,0-191.479,0c-24.119,0-48.239,0-72.358,0c-6.513,0-13.025,0-19.538,0
					c-3.991,0-7.584-0.421-10.746,2.74c-33.665,33.665-67.329,67.33-100.994,100.994c-0.104,0.104-0.209,0.209-0.314,0.314
					c-4.58,4.579-1.211,12.776,5.278,12.776c25.848,0,51.696,0,77.544,0c58.932,0,117.864,0,176.795,0c64.097,0,128.192,0,192.29,0
					c41.344,0,82.687,0,124.028,0c3.94,0,7.88,0,11.82,0C757.483,682.899,757.569,667.896,747.906,667.896z"/>
			</g>
		</g>
		<g>
			<g>
				<path fill="#1A1A1A" d="M259.695,573.521c0,33.941,0,67.882,0,101.823c0,9.687,15.003,9.772,15.003,0.108
					c0-33.941,0-67.883,0-101.823C274.698,563.942,259.695,563.856,259.695,573.521L259.695,573.521z"/>
			</g>
		</g>
		<g>
			<g>
				<path fill="#1A1A1A" d="M638.526,573.521c0,33.941,0,67.882,0,101.823c0,9.687,15.005,9.772,15.005,0.108
					c0-33.941,0-67.883,0-101.823C653.531,563.942,638.526,563.856,638.526,573.521L638.526,573.521z"/>
			</g>
		</g>
		<g>
			<polygon fill="#C69C6D" points="745.307,474.297 646.029,573.575 747.852,675.397 900.587,522.663 			"/>
			<g>
				<path fill="#1A1A1A" d="M739.975,469.021c-32.833,32.833-65.665,65.665-98.497,98.497c-0.261,0.261-0.521,0.521-0.782,0.782
					c-2.898,2.899-2.819,7.73,0.059,10.608c33.41,33.409,66.818,66.819,100.229,100.229c0.531,0.531,1.062,1.062,1.595,1.593
					c2.898,2.9,7.729,2.821,10.606-0.057c34.249-34.248,68.497-68.496,102.745-102.745c16.663-16.663,33.326-33.327,49.989-49.99
					c4.094-4.094,1.949-10.859-3.353-12.511c-47.316-14.739-94.635-29.477-141.952-44.215c-4.441-1.384-8.885-2.769-13.326-4.151
					c-9.266-2.886-13.167,11.604-3.961,14.471c47.316,14.738,94.635,29.477,141.951,44.215c4.442,1.384,8.886,2.768,13.327,4.15
					c-1.116-4.17-2.233-8.34-3.352-12.511c-34.249,34.249-68.497,68.497-102.745,102.745c-16.663,16.663-33.326,33.327-49.989,49.99
					c3.535-0.02,7.071-0.038,10.607-0.058c-33.41-33.409-66.819-66.819-100.229-100.229c-0.531-0.531-1.062-1.062-1.594-1.593
					c0.02,3.535,0.038,7.071,0.058,10.607c32.832-32.832,65.664-65.664,98.496-98.496c0.261-0.261,0.521-0.521,0.781-0.78
					C757.475,472.736,746.827,462.169,739.975,469.021z"/>
			</g>
		</g>
		<g>
			<polygon fill="#C69C6D" points="167.918,474.297 267.197,573.575 165.373,675.397 12.639,522.663 			"/>
			<g>
				<path fill="#1A1A1A" d="M162.642,479.63c32.833,32.832,65.665,65.665,98.497,98.497c0.261,0.26,0.521,0.521,0.781,0.781
					c-0.019-3.536-0.038-7.072-0.057-10.608c-33.41,33.41-66.82,66.82-100.23,100.229c-0.531,0.531-1.062,1.062-1.593,1.595
					c3.536-0.02,7.072-0.038,10.608-0.058c-34.249-34.248-68.497-68.497-102.745-102.745c-16.663-16.663-33.327-33.326-49.99-49.989
					c-1.112,4.191-2.223,8.385-3.335,12.577c47.317-14.739,94.635-29.478,141.953-44.216c4.442-1.384,8.884-2.768,13.327-4.15
					c9.21-2.869,5.364-17.369-3.882-14.489c-47.316,14.738-94.634,29.478-141.951,44.215c-4.442,1.384-8.884,2.769-13.327,4.151
					c-5.384,1.677-7.478,8.434-3.335,12.577c34.249,34.248,68.497,68.497,102.745,102.745c16.663,16.664,33.327,33.326,49.99,49.989
					c2.9,2.9,7.73,2.821,10.608-0.057c33.41-33.41,66.82-66.82,100.23-100.229c0.531-0.53,1.062-1.062,1.593-1.594
					c2.9-2.898,2.821-7.729-0.057-10.607c-32.833-32.832-65.665-65.665-98.497-98.497c-0.261-0.261-0.521-0.521-0.781-0.781
					C166.358,462.129,155.79,472.776,162.642,479.63z"/>
			</g>
		</g>
	</g>
	<g id="Layer_9">
		<g>
			<polygon fill="#004C82" points="327.095,755.876 328.718,755.876 331.425,756.403 334.658,756.945 343.301,759.111 
				355.176,761.263 361.665,762.892 368.682,764.514 376.24,765.593 383.801,767.751 391.904,768.826 400,770.989 425.923,775.844 
				434.025,778.01 442.667,779.628 450.221,781.25 458.325,782.869 465.876,784.485 473.438,785.57 479.919,787.192 
				486.406,788.268 491.807,789.885 496.663,790.97 500.979,791.508 504.761,792.049 507.469,792.593 509.089,793.13 510.16,793.13 
				517.182,794.749 523.668,795.832 529.069,797.451 533.382,798.531 537.708,800.147 540.951,801.23 545.262,803.392 
				546.88,804.477 549.589,807.168 549.589,807.709 550.134,808.256 550.134,808.782 573.343,808.782 575.509,809.328 
				577.671,809.328 579.288,809.87 580.904,809.87 582.523,810.414 586.85,812.562 587.385,813.651 591.166,819.591 592.25,826.604 
				591.166,835.248 588.468,843.352 585.228,851.45 581.979,857.934 579.288,862.254 578.211,863.876 577.126,864.415 
				574.428,865.49 570.646,867.108 565.249,869.27 559.301,871.424 551.751,874.676 543.641,877.909 534.462,881.145 524.2,885.474 
				513.402,889.255 502.607,893.565 478.846,903.302 466.422,908.161 453.999,912.475 441.582,917.867 428.628,922.737 
				416.205,927.051 404.32,932.459 391.904,936.772 380.559,941.088 358.957,949.743 349.238,953.509 340.057,956.758 
				331.961,959.991 324.945,962.696 318.999,965.397 314.145,967.024 310.36,968.646 308.199,969.166 307.654,969.713 
				586.85,969.713 632.207,754.788 327.095,754.788 			"/>
			<polygon fill="#004C82" points="536.091,825.532 534.462,826.076 523.668,828.224 520.964,828.224 518.801,828.771 
				516.65,828.771 513.402,829.312 511.786,829.853 510.706,830.385 510.16,831.478 510.16,832.553 511.249,833.629 
				513.402,833.629 515.564,834.171 520.964,834.171 524.2,833.629 527.438,833.629 535.004,832.553 538.788,832.553 
				543.104,832.005 546.88,831.478 550.134,830.934 553.902,830.385 568.488,830.385 570.101,830.934 571.191,831.478 
				572.264,833.093 572.264,835.248 571.724,837.407 571.191,840.114 570.101,843.352 568.488,847.138 567.407,850.918 
				566.863,853.071 567.943,854.153 569.029,853.607 571.191,851.45 572.264,849.83 573.889,847.138 575.509,843.896 
				577.126,840.114 578.741,836.875 579.826,833.629 580.361,830.934 580.361,827.694 579.288,824.987 577.671,823.369 
				575.509,821.755 572.805,820.674 569.564,820.134 565.791,819.591 543.104,819.591 542.564,820.134 542.023,820.134 
				540.951,820.674 539.859,822.838 538.788,823.369 537.708,824.454 			"/>
			<polygon fill="#004C82" points="316.838,804.477 281.196,969.713 282.823,969.166 286.059,967.024 291.462,964.849 
				298.486,961.068 306.576,957.289 315.762,952.446 326.563,947.583 336.822,942.177 347.621,937.302 357.882,931.913 
				368.14,927.051 377.856,922.193 385.964,917.867 392.979,914.631 398.381,911.926 402.162,910.318 407.564,907.614 
				412.426,904.91 418.363,902.207 424.302,898.973 429.701,896.271 436.183,893.565 442.124,890.333 448.6,887.642 
				455.087,884.379 487.481,870.895 502.067,866.034 504.226,865.49 506.379,864.415 509.089,863.876 518.801,860.634 
				530.143,857.388 533.926,856.846 545.262,853.607 551.751,852.535 553.902,851.994 555.521,851.45 557.148,851.45 
				558.766,850.918 559.848,849.83 560.392,849.83 560.392,849.286 559.301,847.138 557.684,846.593 555.521,846.048 
				553.368,846.048 550.134,845.516 546.88,845.516 543.104,846.048 536.622,846.593 529.601,847.667 522.046,849.286 
				513.939,850.918 505.849,853.071 497.206,855.775 489.1,858.471 480.464,861.174 472.368,864.415 464.259,867.108 
				456.703,869.813 449.687,872.516 443.197,875.756 437.8,877.909 432.939,880.082 429.159,882.234 408.641,818.508 
				539.329,818.508 539.859,815.814 537.708,813.107 534.462,811.489 529.601,809.87 524.2,808.256 510.16,806.09 487.481,804.477 
							"/>
			<polygon display="none" fill="#EA4156" points="1573.624,867.265 658.671,867.265 659.981,853.517 1574.939,853.517 			"/>
			<path display="none" d="M700.25,836.875l-7.018-0.541l-7.02-1.619l-5.402-1.622l-4.861-3.239l-3.236-3.776l-2.162-4.868
				l-0.54-5.394l0.54-6.486l2.704-11.877l2.153-10.8l2.164-9.188l1.613-7.554l1.094-6.482l1.074-4.86l0.543-2.694l0.528-1.085
				h17.824l-0.542,2.157l-1.076,5.402l-2.167,8.098l-1.616,9.18l-2.164,9.188l-2.693,13.497l-0.547,1.616l-0.536,4.324v7.562
				l1.083,2.694l2.156,2.164l2.701,1.616l3.779,1.076l4.323,0.544l4.858-0.544l3.78-0.529l3.78-1.632l2.696-2.697l2.165-2.695
				l2.163-3.254l3.239-8.631l0.532-4.316l1.617-6.484l1.634-8.098l1.613-8.641l2.156-8.104l1.092-7.021l1.073-4.86l0.539-1.611
				h17.824l-3.246,15.66l-1.617,8.105l-1.082,2.695v1.075l-0.544,3.246l-1.618,8.095l-3.771,15.662l-0.543,3.233l-1.616,3.253
				l-1.091,2.692l-1.616,2.7l-2.158,2.702l-4.321,4.313l-2.706,1.629l-3.235,1.625l-2.699,1.616l-3.234,1.078l-3.241,0.544
				l-3.246,1.07l-7.555,1.091h-4.324v-0.002H700.25z M1530.793,767.751h-25.387l-4.31,1.075l-3.243,2.163l-0.547,1.072l-0.536,1.627
				v2.155l0.536,2.166l1.619,2.164l1.625,2.697l4.857,4.856l3.235,2.161l2.702,2.163l3.241,2.7l5.396,5.396l2.166,2.699l3.233,6.48
				l0.547,3.232l-0.547,3.785l-1.07,3.785l-1.634,3.775l-2.692,3.24l-3.782,2.702l-4.312,2.153l-5.407,1.625l-7.014,1.085
				l-7.564,0.534h-27.543l3.243-12.96h29.162l2.702-0.534l2.155-0.546l1.625-1.073l1.624-2.161l1.07-2.161l-0.539-4.326l-3.238-4.32
				l-5.399-4.319l-5.396-4.857l-5.938-5.397l-4.865-5.94l-3.233-5.945l-0.541-7.016l1.08-3.776l2.166-4.321l2.16-3.241l3.772-2.703
				l4.865-2.151l4.857-1.618l6.48-1.09h31.322L1530.793,767.751L1530.793,767.751z M1468.143,767.751h-40.486l-4.873,21.062h35.648
				l-2.697,11.336h-35.642l-4.327,22.141h40.502l-2.704,12.958h-58.312l17.278-80.458h58.323L1468.143,767.751L1468.143,767.751z
				 M1397.942,767.751h-24.827l-14.59,67.495h-17.817l14.58-67.495h-25.385l3.241-12.963h67.5L1397.942,767.751L1397.942,767.751z
				 M1273.744,835.248l7.023-12.96h25.381l-7.022-51.299l-35.64,64.257h-17.82l46.445-80.458h21.058l12.429,80.46H1273.744
				L1273.744,835.248z M1270.508,767.751h-24.842l-14.587,67.495h-17.823l14.59-67.495h-25.382l3.235-12.963h67.504
				L1270.508,767.751L1270.508,767.751z M1193.287,767.751h-24.844l-2.705,0.531l-2.157,0.544l-1.617,1.085l-2.165,2.15v3.78
				l0.546,2.166l1.073,2.163l2.163,2.697l4.862,4.857l2.692,2.161l3.249,2.163l8.098,8.097l2.162,2.7l2.151,3.241l1.093,3.238
				l0.539,3.233v3.785l-1.088,3.785l-1.614,3.775l-3.241,3.24l-3.233,2.702l-4.863,2.153l-5.404,1.624l-6.478,1.086l-8.103,0.533
				h-27.004l2.702-12.96h29.696l2.704-0.533l2.156-0.547l1.618-1.073l1.622-2.16l0.539-2.159l-0.539-4.329l-3.24-4.32l-4.86-4.319
				l-5.397-4.858l-5.942-5.396l-4.861-5.941l-3.235-5.942l-0.547-7.018l1.097-3.777l1.605-4.318l2.707-3.244l3.78-2.702l4.322-2.152
				l5.398-1.617l6.48-1.088h31.313L1193.287,767.751L1193.287,767.751z M1030.2,794.749l-8.104,40.497h36.185l4.318-0.534h4.318
				l7.561-2.163l4.317-1.617l3.79-2.166l6.478-4.312l6.471-6.483l5.404-7.558l2.158-4.324l1.616-4.316l1.096-4.865l0.537-2.158
				l0.531-3.241l1.078-7.556l-0.532-7.018l-1.616-5.942l-2.713-5.396l-4.312-4.861l-5.398-3.237l-7.016-2.164l-8.11-0.542h-39.417
				L1030.2,794.749L1030.2,794.749z M1089.061,794.749l-0.546,2.702l-1.614,3.237l-1.081,2.703l-1.071,3.243l-1.633,2.144
				l-2.147,2.707l-4.329,4.329l-5.396,3.239l-2.695,1.078l-3.241,1.072l-6.483,1.083h-16.204l5.407-27.542l5.936-26.998h23.221
				l4.312,1.622l3.254,2.161l2.688,3.237l1.625,3.239l1.072,4.313v8.646l-1.072,3.241v0.539h-0.001V794.749z M1023.183,767.751
				h-39.971l-4.854,21.062h35.099l-2.166,11.336h-35.634l-4.321,22.141h39.955l-2.148,12.958H950.82l17.275-80.458h57.786
				L1023.183,767.751L1023.183,767.751z M953.517,767.751H928.14l-14.587,67.495h-17.273l14.574-67.495h-25.374l2.69-12.963h67.502
				L953.517,767.751L953.517,767.751z M859.016,835.248H841.73l16.74-80.46h17.818L859.016,835.248L859.016,835.248z
				 M824.455,835.248h-22.143l-19.983-59.936h-0.533l-12.418,59.936h-15.66l17.272-80.46h22.679l19.44,60.485l12.424-60.485h16.197
				L824.455,835.248L824.455,835.248z"/>
			<path display="none" d="M676.495,938.929h-2.164l-1.076-0.532h-3.248l-1.078-0.546h-1.072l-1.088-11.328h4.321l0.535,0.531h3.242
				l4.313-0.531l6.481-2.171l2.164-2.155l3.237-4.329l1.082-2.158v-2.156l0.536-2.702v-2.688l-0.536-2.169l-1.082-1.611
				l-3.237-2.168h-2.164l-2.149-0.532h-14.585l-14.584,67.488h-17.82l17.283-80.456h38.34l5.935,0.544l4.328,2.174l3.776,2.686
				l2.164,3.784l1.078,3.78l0.541,4.314v4.327l-0.541,3.778l-1.621,5.396l-2.705,4.856l-3.24,4.314l-4.309,3.795l-4.324,2.703
				l-10.804,3.232L676.495,938.929L676.495,938.929z M1565.351,901.676h-41.032l-4.329,21.062h35.647l-2.71,11.88h-35.634
				l-4.319,22.141h40.503l-2.703,12.406h-58.321l17.28-80.458h58.323L1565.351,901.676L1565.351,901.676z M1493.535,902.754
				l-2.164-0.547h-1.624l-4.314-1.077l-2.702-0.532h-2.693l-2.166-0.546h-3.234l-5.945,0.546l-5.406,1.607l-5.397,2.171
				l-4.854,3.782l-3.782,3.768l-3.783,4.874l-2.154,5.936l-2.164,6.471l-1.088,6.484l0.547,5.938l1.611,4.863l2.163,3.778
				l3.241,3.236l4.319,2.703l4.859,1.621l5.407,0.532h3.233l3.24-0.532h2.703l5.396-1.077h2.161l2.701-0.544l2.163-0.534
				l-4.325,13.486l-2.156,0.547h-2.697l-2.163,0.544h-2.7l-2.16,0.533h-12.424l-8.639-1.08l-3.782-1.062l-3.782-1.625l-3.231-1.624
				l-3.243-2.158l-2.705-2.169l-2.694-2.704l-1.616-3.233l-1.617-3.78l-1.624-3.236l-0.539-4.312v-4.326l0.539-4.86l0.531-5.407
				l1.624-4.86l1.617-5.392l4.318-8.643l2.694-3.779l6.498-6.479l3.782-2.702l7.556-4.313l8.634-3.249l4.326-1.08l4.314-0.544
				l4.864-0.521h11.337l2.157,0.521h2.169l2.158,0.544h2.156l2.165,0.546L1493.535,902.754L1493.535,902.754z M1404.428,969.166
				h-17.821l17.282-80.458h17.82L1404.428,969.166L1404.428,969.166z M1347.185,969.166h-21.06l-11.885-80.458h17.823l8.103,64.804
				l35.642-64.804h17.276L1347.185,969.166L1347.185,969.166z M1281.837,934.617l12.967,34.549h-19.442l-14.582-43.738h10.269
				l3.239-0.531l3.232-1.078l2.695-1.624l2.166-1.608l2.165-2.174l1.071-2.702l1.093-3.231l0.526-2.154v-2.161l-1.07-3.249
				l-1.078-1.078l-2.161-1.078l-5.404-1.08h-16.204l-14.584,67.49h-17.809l17.281-80.458h37.262l5.384,0.547l4.874,1.078l3.78,1.624
				l2.697,2.155l2.155,2.689l1.625,3.798l0.535,4.312v4.313l-0.535,5.404l-1.625,4.863l-2.155,4.326l-2.697,3.233l-3.249,3.233
				l-4.313,2.171l-3.78,1.608L1281.837,934.617L1281.837,934.617z M1230.545,901.676h-40.502l-4.319,21.062h35.095l-2.157,11.88
				h-35.634l-4.327,22.141h40.5l-2.694,12.406h-58.862l17.276-80.458h58.323L1230.545,901.676L1230.545,901.676z M1157.095,901.676
				h-22.679l-5.399,1.08l-2.158,0.547l-1.077,1.078l-1.625,1.078l-1.072,2.155v2.707l0.531,2.155l1.091,2.156l2.154,2.171
				l2.156,2.689l2.705,2.155l2.694,2.702l3.233,2.171l2.709,2.689l3.236,2.168l2.164,3.235l2.166,2.687l2.155,3.248l1.086,2.705
				l0.532,3.78v3.232l-1.077,4.33l-1.619,3.233l-6.484,6.484l-4.319,2.158l-5.945,1.622l-6.471,1.064h-35.103l2.702-12.405h29.705
				l2.694-0.547l2.163-1.08l1.619-1.078l1.617-1.606l1.069-2.174l-1.069-4.327l-3.236-4.312l-4.858-4.86l-5.406-4.859l-5.943-4.861
				l-4.859-5.937l-3.236-6.484l-0.547-6.471l1.088-4.328l1.622-3.78l2.693-3.249l3.783-2.689l4.314-2.157l5.403-1.622l6.485-1.081
				l7.548-0.546h23.766L1157.095,901.676L1157.095,901.676z M1060.975,969.166h-54.543l16.751-80.458h18.354l-14.582,68.05h36.722
				L1060.975,969.166L1060.975,969.166z M945.423,969.166l7.014-12.408h25.379l-7.558-51.846l-35.102,64.254h-17.824l45.908-80.458
				h21.592l12.421,80.458H945.423L945.423,969.166z M942.178,901.676h-25.384l-14.587,67.49h-17.82l14.587-67.49h-24.845
				l2.707-12.968h67.493L942.178,901.676L942.178,901.676z M864.958,901.676H842.27l-5.398,1.08l-1.622,0.547l-1.621,1.078
				l-2.148,2.155l-0.541,1.078v2.707l0.541,2.155l3.238,4.327l2.153,2.689l2.705,2.155l2.693,2.702l3.246,2.171l3.239,2.689
				l2.694,2.168l2.164,3.235l2.698,2.687l1.617,3.248l1.086,2.705l1.075,3.78l-0.536,3.232l-1.084,4.33l-1.623,3.233l-2.692,3.235
				l-3.246,3.249l-4.86,2.155l-5.935,1.625l-6.489,1.062h-34.559l2.168-12.406h30.242l2.148-0.544l4.327-2.158l1.078-1.609
				l1.085-2.174l-0.542-4.326l-3.24-4.312l-4.856-4.86l-5.942-4.858l-5.402-4.862l-4.855-5.938l-3.239-6.483l-1.089-6.472
				l1.089-4.329l2.155-3.776l2.7-3.249l3.24-2.689l4.326-2.158l5.934-1.621l6.479-1.081l7.017-0.546h23.766L864.958,901.676
				L864.958,901.676z M714.835,929.208l-1.09,8.641l1.627,11.346l3.241,6.482l2.152,3.236l4.869,4.857l3.232,2.158l3.241,1.625
				l3.78,1.609l4.317,1.093l4.319,0.531h9.188l8.635-1.078l4.316-1.065l4.322-1.622l3.783-1.626l3.236-2.156l3.781-2.171
				l3.242-2.701l2.692-3.236l3.245-3.231l2.152-3.781l4.327-8.643l1.616-4.857l1.078-5.409l1.084-4.312v-8.095l-0.543-4.326
				l-0.541-3.783l-3.244-6.484l-4.309-5.404l-2.707-2.144l-3.235-2.168l-3.243-1.612l-4.321-1.624l-3.784-1.093l-4.313-0.521h-9.182
				l-8.639,1.063l-4.316,1.08l-4.326,1.64l-3.778,1.609l-3.238,2.157l-3.782,2.702l-3.232,2.156l-3.238,3.249l-2.703,3.779
				l-2.699,3.233l-2.163,4.314l-1.621,4.326l-1.616,5.393L714.835,929.208L714.835,929.208z M782.329,929.208l-1.623,6.486
				l-2.694,5.938l-2.707,4.86l-3.767,3.779l-4.329,3.236l-4.859,2.702l-4.857,1.622l-5.942,0.534l-5.944-0.534l-4.317-2.156
				l-3.781-2.702l-2.699-3.78l-1.626-3.781l-1.073-5.391v-5.407l1.073-5.406l1.626-6.471l2.699-5.938l2.699-4.874l3.778-3.765
				l4.318-3.783l4.863-2.171l4.851-1.606l5.954-0.549l5.406,1.078l4.854,1.077l3.779,3.249l2.696,3.235l1.622,4.327l1.079,4.846
				v5.404L782.329,929.208L782.329,929.208z"/>
		</g>
	</g>
	<g id="Layer_13_1_" display="none">
		<g display="inline">
			<path fill="#FFB500" d="M456.613,781.372c-35.006,0-65.535,6.776-90.75,20.141v106.828c0,22.478,8.441,41.279,24.416,54.374
				c14.838,12.161,60.712,32.214,66.334,34.652v0.001c5.327-2.318,51.742-22.686,66.346-34.652
				c15.967-13.094,24.403-31.896,24.403-54.375V801.512C522.148,788.148,491.622,781.372,456.613,781.372z"/>
			<path fill="#351C15" d="M491.757,871.343c-0.064-12.758,10.797-20.273,21.184-20.574c8.673-0.265,14.553,2.991,17.326,5.129
				v13.729c-3.288-3.377-8.63-6.438-14.148-6.489c-4.469-0.04-9.128,1.93-9.28,7.54c-0.152,5.748,4.492,8.021,10.388,11.475
				c13.188,7.753,15.737,14.721,15.441,23.929c-0.306,10.099-7.269,21.12-22.869,21.12c-6.24,0-12.409-1.949-17.358-4.897v-14.538
				c4.035,3.59,10.06,6.39,15.098,6.425c5.792,0.024,9.602-3.293,9.465-8.799c-0.111-4.957-2.92-7.647-9.858-11.728
				C494.123,886.021,491.779,879.742,491.757,871.343L491.757,871.343z M453.486,864.621c1.283-0.639,3.457-1.14,5.592-1.14
				c9.168,0,12.963,7.315,12.963,25.002c0,17.259-4.34,25.598-13.428,25.598c-2.136,0-3.995-0.525-5.127-0.951V864.621
				L453.486,864.621z M453.486,959.275h-15.794V856.384c5.729-3.694,12.675-5.614,21.281-5.614
				c18.842,0,29.205,14.298,29.205,37.314c0,23.062-10.06,38.848-27.585,38.848c-3.241,0-5.527-0.43-7.107-0.897v33.243V959.275z
				 M382.256,901.993v-49.624h15.782V902.7c0,4.477,1.083,11.105,8.319,11.105c3.208,0,5.751-0.75,7.468-1.93v-59.504h15.762v68.492
				c-6.023,4.103-14.125,6.341-23.791,6.341c-15.62,0-23.541-8.477-23.541-25.208L382.256,901.993L382.256,901.993z
				 M374.199,908.354c0,19.905,7.358,36.525,21.345,47.92c12.347,10.067,50.343,27.262,61.064,31.989
				c10.572-4.66,48.481-21.642,61.042-31.989c14.077-11.59,21.361-27.824,21.361-47.92V803.767
				c-52.829-4.915-115.346-1.897-164.814,43.475l-0.002,61.108h0.002L374.199,908.354z"/>
		</g>
	</g>
	<g id="Layer_15_1_" display="none">
		<g id="g6_2_" transform="translate(-0.81,-0.35400034)" display="inline">
			<polygon id="polygon10_2_" fill="#FF5900" points="609.915,858.3 628.874,879.199 647.129,858.3 686.11,858.3 648.013,901.142 
				686.632,944.324 646.079,944.324 627.294,923.265 608.686,944.324 569.531,944.324 607.809,901.316 569.531,858.3 			"/>
			<polygon id="polygon12_2_" fill="#FF5900" points="569.531,858.3 569.531,887.369 526.175,887.369 526.175,914.037 
				569.531,914.037 569.531,944.324 494.316,944.324 494.316,808.821 569.531,808.821 569.531,839.02 526.175,839.02 526.175,858.3 
							"/>
			<path id="path14_2_" fill="#2A007C" d="M462.585,808.821v55.456h-0.349c-7.026-8.077-15.806-10.882-25.978-10.882
				c-20.867,0-36.573,14.184-42.096,32.93c-6.292-20.655-22.521-33.32-46.57-33.32c-19.536,0-34.957,8.768-43.009,23.056v-17.758
				H264.2v-19.281h44.072v-30.199h-80.061v135.504H264.2v-56.955h35.883c-1.07,4.179-1.642,8.661-1.642,13.395
				c0,28.266,21.594,48.101,49.15,48.101c23.181,0,38.451-10.881,46.521-30.71h-30.847c-4.172,5.963-7.331,7.729-15.675,7.729
				c-9.676,0-18.014-8.438-18.014-18.44h62.812c2.724,22.452,20.215,41.813,44.215,41.813c10.347,0,19.835-5.093,25.624-13.69h0.354
				v8.772h31.724V808.821H462.585z M330.587,887.768c1.996-8.605,8.675-14.233,17.013-14.233c9.171,0,15.513,5.453,17.18,14.233
				C365.476,887.768,330.587,887.768,330.587,887.768z M443.329,923.7c-11.694,0-18.971-10.906-18.971-22.278
				c0-12.162,6.33-23.857,18.971-23.857c13.113,0,18.33,11.695,18.33,23.857C461.659,912.949,456.124,923.7,443.329,923.7z"/>
		</g>
	</g>
</g>
</svg>
