<?xml version="1.0" encoding="utf-8"?>
<!-- Generator: Adobe Illustrator 15.0.0, SVG Export Plug-In . SVG Version: 6.00 Build 0)  -->
<!DOCTYPE svg PUBLIC "-//W3C//DTD SVG 1.1//EN" "http://www.w3.org/Graphics/SVG/1.1/DTD/svg11.dtd">
<svg version="1.1" xmlns="http://www.w3.org/2000/svg" xmlns:xlink="http://www.w3.org/1999/xlink" x="0px" y="0px"
	 width="584.448px" height="447.003px" viewBox="0 0 584.448 447.003" enable-background="new 0 0 584.448 447.003"
	 xml:space="preserve">
<g id="Layer_1">
	<defs>
		<filter id="Adobe_OpacityMaskFilter" filterUnits="userSpaceOnUse" x="0" y="0" width="584.448" height="447.003">
			
				<feColorMatrix  type="matrix" values="-1 0 0 0 1  0 -1 0 0 1  0 0 -1 0 1  0 0 0 1 0" color-interpolation-filters="sRGB" result="source"/>
		</filter>
	</defs>
	<mask maskUnits="userSpaceOnUse" x="0" y="0" width="584.448" height="447.003" id="SVGID_1_">
		<g filter="url(#Adobe_OpacityMaskFilter)">
			<linearGradient id="SVGID_2_" gradientUnits="userSpaceOnUse" x1="283.8906" y1="461.7236" x2="283.8906" y2="2.0015">
				<stop  offset="0.0982" style="stop-color:#FFFFFF"/>
				<stop  offset="0.5031" style="stop-color:#000000"/>
			</linearGradient>
			<rect x="-31.387" y="2.001" fill="url(#SVGID_2_)" width="630.556" height="459.723"/>
		</g>
	</mask>
	<g mask="url(#SVGID_1_)">
		<rect x="7.502" y="7.501" fill="#FFFFFF" width="569.444" height="432"/>
		<g>
			<path fill="#1A1A1A" d="M577,431.999c-26.299,0-52.599,0-78.898,0c-59.463,0-118.926,0-178.388,0c-63.472,0-126.943,0-190.415,0
				c-38.326,0-76.651,0-114.978,0c-2.255,0-4.51,0-6.766,0c2.482,2.519,4.965,5.037,7.448,7.556c0-32.685,0-65.369,0-98.054
				c0-64.184,0-128.368,0-192.552c0-44.878,0-89.756,0-134.634c0-2.253,0-4.507,0-6.76c-2.519,2.482-5.038,4.965-7.556,7.447
				c26.3,0,52.6,0,78.899,0c59.463,0,118.925,0,178.388,0c63.472,0,126.943,0,190.415,0c38.325,0,76.651,0,114.977,0
				c2.256,0,4.511,0,6.767,0c-2.483-2.519-4.966-5.037-7.448-7.556c0,32.685,0,65.37,0,98.054c0,64.184,0,128.368,0,192.551
				c0,44.878,0,89.756,0,134.634c0,2.254,0,4.507,0,6.761c0,9.686,15.004,9.771,15.004,0.107c0-32.685,0-65.369,0-98.054
				c0-64.184,0-128.368,0-192.552c0-44.878,0-89.756,0-134.634c0-2.253,0-4.507,0-6.76C584.448,3.491,581.106,0,577,0
				c-26.299,0-52.599,0-78.898,0c-59.463,0-118.926,0-178.388,0c-63.472,0-126.943,0-190.415,0C90.974,0,52.648,0,14.322,0
				c-2.255,0-4.51,0-6.766,0C3.491,0,0,3.341,0,7.447c0,32.685,0,65.37,0,98.054c0,64.184,0,128.368,0,192.551
				c0,44.878,0,89.756,0,134.634c0,2.254,0,4.507,0,6.761c0,4.064,3.342,7.556,7.448,7.556c26.3,0,52.6,0,78.899,0
				c59.463,0,118.925,0,178.388,0c63.472,0,126.943,0,190.415,0c38.325,0,76.651,0,114.977,0c2.256,0,4.511,0,6.767,0
				C586.578,447.003,586.664,431.999,577,431.999z"/>
		</g>
	</g>
</g>
<g id="Layer_4">
</g>
<g id="Layer_2">
	<g>
		<path d="M72.279,178.078l-3.528,1.152c-0.216,0.072-0.432,0.108-0.612,0.108c-0.648,0-1.224-0.54-1.224-1.224
			c0-0.612,0.396-1.008,1.008-1.224l4.139-1.439c0.576-0.18,1.08-0.324,1.548-0.324h0.072c0.828,0,1.404,0.648,1.404,1.404v22.821
			c0,0.792-0.612,1.44-1.404,1.44c-0.756,0-1.404-0.648-1.404-1.44V178.078z"/>
		<path d="M82.791,197.948l8.603-7.595c3.888-3.456,5.255-5.399,5.255-7.919c0-2.952-2.34-4.823-5.075-4.823
			c-2.664,0-4.463,1.296-6.263,3.671c-0.216,0.288-0.576,0.504-1.044,0.504c-0.72,0-1.296-0.576-1.296-1.296
			c0-0.288,0.108-0.576,0.288-0.792c2.087-2.916,4.391-4.643,8.531-4.643c4.536,0,7.811,3.023,7.811,7.127v0.072
			c0,3.672-1.944,5.939-6.371,9.791l-6.731,5.975h12.203c0.72,0,1.332,0.576,1.332,1.296s-0.612,1.296-1.332,1.296H83.546
			c-0.828,0-1.439-0.54-1.439-1.332C82.107,198.74,82.323,198.344,82.791,197.948z"/>
		<path d="M106.298,197.228c-0.216-0.216-0.468-0.612-0.468-1.008c0-0.756,0.648-1.404,1.404-1.404c0.468,0,0.828,0.216,1.044,0.432
			c1.835,2.088,3.995,3.204,6.839,3.204c3.06,0,5.507-1.944,5.507-4.896v-0.072c0-3.132-2.916-4.859-7.055-4.859h-0.9
			c-0.684,0-1.26-0.54-1.26-1.224c0-0.36,0.18-0.72,0.576-1.116l7.343-8.315H108.17c-0.72,0-1.332-0.54-1.332-1.26
			c0-0.72,0.612-1.296,1.332-1.296h13.75c0.792,0,1.368,0.504,1.368,1.224c0,0.576-0.288,0.972-0.684,1.404l-7.415,8.243
			c4.391,0.36,8.315,2.484,8.315,7.091v0.072c0,4.5-3.744,7.595-8.423,7.595C111.23,201.043,108.314,199.496,106.298,197.228z"/>
		<path d="M143.917,176.854c0-0.792,0.648-1.44,1.404-1.44h7.343c7.919,0,13.39,5.435,13.39,12.526v0.072
			c0,7.091-5.471,12.599-13.39,12.599h-7.343c-0.756,0-1.404-0.648-1.404-1.44V176.854z M152.665,197.984
			c6.371,0,10.438-4.32,10.438-9.899v-0.072c0-5.579-4.067-9.971-10.438-9.971h-5.903v19.942H152.665z"/>
		<path d="M181.537,201.043c-5.111,0-9.287-3.924-9.287-9.683v-0.072c0-5.363,3.779-9.683,8.927-9.683
			c5.507,0,8.639,4.5,8.639,9.431c0,0.756-0.612,1.296-1.296,1.296h-13.462c0.396,4.031,3.24,6.299,6.551,6.299
			c2.304,0,3.995-0.9,5.363-2.16c0.216-0.18,0.468-0.324,0.792-0.324c0.684,0,1.224,0.54,1.224,1.188c0,0.324-0.144,0.648-0.432,0.9
			C186.792,199.927,184.704,201.043,181.537,201.043z M187.044,190.281c-0.288-3.384-2.231-6.335-5.939-6.335
			c-3.24,0-5.688,2.7-6.047,6.335H187.044z"/>
		<path d="M196.514,183.226c0-0.756,0.612-1.404,1.368-1.404c0.792,0,1.404,0.612,1.404,1.404v1.908
			c1.224-1.836,2.88-3.528,6.011-3.528c3.024,0,4.967,1.62,5.975,3.708c1.332-2.052,3.312-3.708,6.551-3.708
			c4.284,0,6.911,2.88,6.911,7.487v10.295c0,0.792-0.612,1.404-1.368,1.404c-0.792,0-1.404-0.612-1.404-1.404v-9.647
			c0-3.6-1.8-5.615-4.823-5.615c-2.808,0-5.111,2.087-5.111,5.759v9.503c0,0.792-0.612,1.404-1.404,1.404
			c-0.756,0-1.368-0.612-1.368-1.404v-9.719c0-3.492-1.835-5.543-4.787-5.543s-5.184,2.448-5.184,5.867v9.395
			c0,0.792-0.576,1.404-1.368,1.404s-1.404-0.612-1.404-1.404V183.226z"/>
		<path d="M231.397,191.396v-0.072c0-5.255,4.104-9.719,9.719-9.719c5.579,0,9.683,4.392,9.683,9.647v0.072
			c0,5.255-4.14,9.719-9.755,9.719C235.465,201.043,231.397,196.652,231.397,191.396z M247.955,191.396v-0.072
			c0-3.996-2.987-7.271-6.911-7.271c-4.031,0-6.803,3.276-6.803,7.199v0.072c0,3.995,2.952,7.235,6.875,7.235
			C245.147,198.56,247.955,195.32,247.955,191.396z"/>
		<path d="M269.773,197.588c-0.324-0.216-0.54-0.612-0.54-1.08c0-0.792,0.611-1.404,1.367-1.404c0.36,0,0.685,0.144,0.864,0.324
			c2.376,2.016,4.751,2.988,7.955,2.988c3.384,0,5.615-1.8,5.615-4.283v-0.072c0-2.34-1.26-3.671-6.551-4.787
			c-5.796-1.26-8.459-3.132-8.459-7.271v-0.072c0-3.959,3.491-6.875,8.278-6.875c3.312,0,5.724,0.828,8.027,2.483
			c0.288,0.216,0.612,0.612,0.612,1.152c0,0.756-0.612,1.368-1.368,1.368c-0.324,0-0.576-0.072-0.828-0.252
			c-2.124-1.548-4.176-2.196-6.515-2.196c-3.276,0-5.364,1.8-5.364,4.067v0.072c0,2.376,1.296,3.708,6.84,4.896
			c5.615,1.224,8.207,3.276,8.207,7.127v0.072c0,4.319-3.6,7.127-8.604,7.127C275.641,200.971,272.581,199.819,269.773,197.588z"/>
		<path d="M295.837,195.68v-11.231h-1.512c-0.647,0-1.224-0.576-1.224-1.224c0-0.684,0.576-1.224,1.224-1.224h1.512v-4.391
			c0-0.756,0.576-1.404,1.368-1.404c0.756,0,1.403,0.648,1.403,1.404v4.391h4.823c0.685,0,1.261,0.576,1.261,1.224
			c0,0.684-0.576,1.224-1.261,1.224h-4.823v10.871c0,2.268,1.26,3.096,3.132,3.096c0.972,0,1.476-0.252,1.691-0.252
			c0.648,0,1.188,0.54,1.188,1.188c0,0.504-0.324,0.9-0.792,1.08c-0.792,0.324-1.656,0.504-2.735,0.504
			C298.104,200.935,295.837,199.459,295.837,195.68z"/>
		<path d="M311.209,183.226c0-0.756,0.612-1.404,1.368-1.404c0.791,0,1.403,0.612,1.403,1.404v3.492
			c1.368-3.096,4.067-4.968,6.407-4.968c0.828,0,1.368,0.612,1.368,1.404c0,0.756-0.504,1.296-1.225,1.404
			c-3.599,0.432-6.551,3.132-6.551,8.495v6.335c0,0.756-0.576,1.404-1.368,1.404c-0.791,0-1.403-0.612-1.403-1.404V183.226z"/>
		<path d="M334.932,201.043c-5.111,0-9.287-3.924-9.287-9.683v-0.072c0-5.363,3.78-9.683,8.928-9.683c5.507,0,8.639,4.5,8.639,9.431
			c0,0.756-0.612,1.296-1.296,1.296h-13.463c0.396,4.031,3.24,6.299,6.552,6.299c2.304,0,3.995-0.9,5.363-2.16
			c0.216-0.18,0.468-0.324,0.792-0.324c0.684,0,1.224,0.54,1.224,1.188c0,0.324-0.144,0.648-0.432,0.9
			C340.188,199.927,338.1,201.043,334.932,201.043z M340.439,190.281c-0.288-3.384-2.232-6.335-5.939-6.335
			c-3.24,0-5.688,2.7-6.048,6.335H340.439z"/>
		<path d="M358.044,201.043c-5.111,0-9.287-3.924-9.287-9.683v-0.072c0-5.363,3.78-9.683,8.928-9.683c5.507,0,8.639,4.5,8.639,9.431
			c0,0.756-0.612,1.296-1.296,1.296h-13.463c0.396,4.031,3.24,6.299,6.552,6.299c2.304,0,3.995-0.9,5.363-2.16
			c0.216-0.18,0.468-0.324,0.792-0.324c0.684,0,1.224,0.54,1.224,1.188c0,0.324-0.144,0.648-0.432,0.9
			C363.3,199.927,361.212,201.043,358.044,201.043z M363.552,190.281c-0.288-3.384-2.232-6.335-5.939-6.335
			c-3.24,0-5.688,2.7-6.048,6.335H363.552z"/>
		<path d="M373.992,195.68v-11.231h-1.512c-0.647,0-1.224-0.576-1.224-1.224c0-0.684,0.576-1.224,1.224-1.224h1.512v-4.391
			c0-0.756,0.576-1.404,1.368-1.404c0.756,0,1.403,0.648,1.403,1.404v4.391h4.823c0.685,0,1.261,0.576,1.261,1.224
			c0,0.684-0.576,1.224-1.261,1.224h-4.823v10.871c0,2.268,1.26,3.096,3.132,3.096c0.972,0,1.476-0.252,1.691-0.252
			c0.648,0,1.188,0.54,1.188,1.188c0,0.504-0.324,0.9-0.792,1.08c-0.792,0.324-1.656,0.504-2.735,0.504
			C376.26,200.935,373.992,199.459,373.992,195.68z"/>
		<path d="M68.499,240.788c-0.324-0.216-0.54-0.612-0.54-1.08c0-0.792,0.612-1.404,1.368-1.404c0.36,0,0.684,0.144,0.864,0.324
			c2.375,2.016,4.751,2.988,7.955,2.988c3.383,0,5.615-1.8,5.615-4.283v-0.072c0-2.34-1.26-3.671-6.551-4.787
			c-5.795-1.26-8.459-3.132-8.459-7.271v-0.072c0-3.959,3.492-6.875,8.279-6.875c3.312,0,5.723,0.828,8.027,2.483
			c0.288,0.216,0.612,0.612,0.612,1.152c0,0.756-0.612,1.368-1.368,1.368c-0.324,0-0.576-0.072-0.828-0.252
			c-2.124-1.548-4.175-2.196-6.515-2.196c-3.275,0-5.363,1.8-5.363,4.067v0.072c0,2.376,1.296,3.708,6.839,4.896
			c5.615,1.224,8.207,3.276,8.207,7.127v0.072c0,4.319-3.599,7.127-8.603,7.127C74.366,244.172,71.307,243.02,68.499,240.788z"/>
		<path d="M109.717,242.588c0,0.756-0.576,1.403-1.368,1.403c-0.756,0-1.368-0.611-1.368-1.403v-2.016
			c-1.26,2.016-3.168,3.635-6.372,3.635c-4.499,0-7.127-3.023-7.127-7.451v-10.331c0-0.792,0.576-1.404,1.368-1.404
			c0.756,0,1.404,0.612,1.404,1.404v9.646c0,3.456,1.872,5.616,5.147,5.616c3.167,0,5.58-2.34,5.58-5.832v-9.431
			c0-0.792,0.576-1.404,1.368-1.404c0.756,0,1.368,0.612,1.368,1.404V242.588z"/>
		<path d="M117.747,219.371c0-0.9,0.72-1.476,1.62-1.476c0.936,0,1.656,0.576,1.656,1.476v0.468c0,0.864-0.72,1.476-1.656,1.476
			c-0.9,0-1.62-0.612-1.62-1.476V219.371z M117.999,226.426c0-0.756,0.612-1.404,1.368-1.404c0.792,0,1.404,0.612,1.404,1.404
			v16.162c0,0.792-0.576,1.403-1.368,1.403s-1.404-0.611-1.404-1.403V226.426z"/>
		<path d="M129.986,238.88v-11.231h-1.512c-0.648,0-1.224-0.576-1.224-1.224c0-0.684,0.576-1.224,1.224-1.224h1.512v-4.391
			c0-0.756,0.576-1.404,1.368-1.404c0.756,0,1.404,0.648,1.404,1.404v4.391h4.823c0.684,0,1.26,0.576,1.26,1.224
			c0,0.684-0.576,1.224-1.26,1.224h-4.823v10.871c0,2.268,1.26,3.096,3.131,3.096c0.972,0,1.476-0.252,1.692-0.252
			c0.648,0,1.188,0.54,1.188,1.188c0,0.504-0.324,0.899-0.792,1.08c-0.792,0.323-1.656,0.504-2.736,0.504
			C132.254,244.136,129.986,242.659,129.986,238.88z"/>
		<path d="M152.953,244.243c-5.111,0-9.287-3.923-9.287-9.683v-0.072c0-5.363,3.779-9.683,8.927-9.683
			c5.507,0,8.639,4.5,8.639,9.431c0,0.756-0.612,1.296-1.296,1.296h-13.462c0.396,4.031,3.24,6.299,6.551,6.299
			c2.304,0,3.995-0.9,5.363-2.16c0.216-0.18,0.468-0.324,0.792-0.324c0.684,0,1.224,0.54,1.224,1.188c0,0.324-0.144,0.648-0.432,0.9
			C158.208,243.128,156.121,244.243,152.953,244.243z M158.46,233.481c-0.288-3.384-2.231-6.335-5.939-6.335
			c-3.24,0-5.688,2.7-6.047,6.335H158.46z"/>
		<path d="M183.877,221.278l-3.528,1.152c-0.216,0.072-0.432,0.108-0.612,0.108c-0.648,0-1.224-0.54-1.224-1.224
			c0-0.612,0.396-1.008,1.008-1.224l4.139-1.439c0.576-0.18,1.08-0.324,1.548-0.324h0.072c0.828,0,1.404,0.648,1.404,1.404v22.821
			c0,0.792-0.612,1.439-1.404,1.439c-0.756,0-1.404-0.647-1.404-1.439V221.278z"/>
		<path d="M197.485,241.688c-2.016-2.016-3.167-4.607-3.167-9.755v-0.072c0-7.667,3.887-13.678,10.475-13.678
			c2.627,0,4.679,0.828,6.551,2.232c0.432,0.288,0.684,0.648,0.684,1.188c0,0.756-0.612,1.368-1.368,1.368
			c-0.288,0-0.576-0.108-0.792-0.252c-1.656-1.26-3.204-1.944-5.219-1.944c-4.571,0-7.415,4.607-7.379,11.123
			c1.368-2.016,3.492-3.852,7.163-3.852c4.679,0,8.711,3.024,8.711,7.739v0.072c0,4.859-3.924,8.387-9.035,8.387
			C201.336,244.243,199.069,243.271,197.485,241.688z M210.228,235.964v-0.072c0-3.096-2.52-5.399-6.155-5.399
			c-3.78,0-6.299,2.7-6.299,5.507v0.072c0,3.204,2.664,5.651,6.371,5.651S210.228,239.168,210.228,235.964z"/>
		<path d="M231.972,232.977c0-0.756,0.648-1.44,1.44-1.44h7.487c0.792,0,1.439,0.684,1.439,1.44c0,0.792-0.647,1.476-1.439,1.476
			h-7.487C232.62,234.453,231.972,233.769,231.972,232.977z"/>
		<path d="M265.343,221.278l-3.527,1.152c-0.217,0.072-0.433,0.108-0.612,0.108c-0.647,0-1.224-0.54-1.224-1.224
			c0-0.612,0.396-1.008,1.008-1.224l4.14-1.439c0.575-0.18,1.079-0.324,1.548-0.324h0.071c0.828,0,1.404,0.648,1.404,1.404v22.821
			c0,0.792-0.612,1.439-1.404,1.439c-0.756,0-1.403-0.647-1.403-1.439V221.278z"/>
		<path d="M275.854,241.148l8.604-7.595c3.887-3.456,5.255-5.399,5.255-7.919c0-2.952-2.34-4.823-5.075-4.823
			c-2.664,0-4.464,1.296-6.264,3.671c-0.216,0.288-0.575,0.504-1.044,0.504c-0.72,0-1.296-0.576-1.296-1.296
			c0-0.288,0.108-0.576,0.288-0.792c2.088-2.916,4.392-4.643,8.531-4.643c4.535,0,7.811,3.023,7.811,7.127v0.072
			c0,3.672-1.943,5.939-6.371,9.791l-6.73,5.975h12.202c0.72,0,1.332,0.576,1.332,1.296s-0.612,1.296-1.332,1.296H276.61
			c-0.828,0-1.439-0.54-1.439-1.332C275.171,241.94,275.387,241.544,275.854,241.148z"/>
		<path d="M299.363,240.428c-0.217-0.216-0.469-0.612-0.469-1.008c0-0.756,0.648-1.404,1.404-1.404c0.468,0,0.828,0.216,1.044,0.432
			c1.836,2.088,3.995,3.204,6.839,3.204c3.06,0,5.508-1.944,5.508-4.896v-0.072c0-3.132-2.916-4.859-7.056-4.859h-0.899
			c-0.685,0-1.26-0.54-1.26-1.224c0-0.36,0.18-0.72,0.575-1.116l7.344-8.315h-11.159c-0.72,0-1.332-0.54-1.332-1.26
			c0-0.72,0.612-1.296,1.332-1.296h13.751c0.791,0,1.367,0.504,1.367,1.224c0,0.576-0.288,0.972-0.684,1.404l-7.415,8.243
			c4.392,0.36,8.314,2.484,8.314,7.091v0.072c0,4.5-3.743,7.595-8.423,7.595C304.294,244.243,301.379,242.695,299.363,240.428z"/>
		<path d="M336.369,237.836h-12.526c-0.828,0-1.439-0.576-1.439-1.368c0-0.504,0.18-0.9,0.54-1.368l13.103-15.982
			c0.432-0.54,0.827-0.864,1.583-0.864c0.864,0,1.512,0.648,1.512,1.476v15.73h2.844c0.648,0,1.225,0.54,1.225,1.224
			c0,0.648-0.576,1.152-1.225,1.152h-2.844v4.788c0,0.756-0.611,1.367-1.403,1.367c-0.756,0-1.368-0.611-1.368-1.367V237.836z
			 M336.369,235.46v-12.994l-10.582,12.994H336.369z"/>
		<path d="M349.51,240.968c-0.396-0.324-0.575-0.684-0.575-1.188c0-0.684,0.611-1.332,1.367-1.332c0.36,0,0.72,0.144,0.972,0.36
			c1.98,1.8,4.14,2.844,6.479,2.844c3.527,0,6.047-2.304,6.047-5.58V236c0-3.167-2.591-5.292-6.263-5.292
			c-2.952,0-4.464,1.224-5.111,1.224c-0.54,0-0.936-0.216-1.439-0.54c-0.469-0.324-0.648-0.9-0.612-1.548l0.576-9.863
			c0.036-0.864,0.647-1.368,1.367-1.368h12.095c0.72,0,1.296,0.576,1.296,1.332c0,0.72-0.576,1.296-1.296,1.296h-10.87l-0.54,8.063
			c1.476-0.648,2.879-1.116,4.967-1.116c4.896,0,8.711,2.88,8.711,7.703v0.072c0,4.859-3.743,8.279-8.963,8.279
			C354.441,244.243,351.562,242.804,349.51,240.968z"/>
		<path d="M375.97,241.688c-2.016-2.016-3.168-4.607-3.168-9.755v-0.072c0-7.667,3.888-13.678,10.475-13.678
			c2.628,0,4.68,0.828,6.552,2.232c0.432,0.288,0.684,0.648,0.684,1.188c0,0.756-0.611,1.368-1.367,1.368
			c-0.288,0-0.576-0.108-0.792-0.252c-1.656-1.26-3.204-1.944-5.22-1.944c-4.571,0-7.415,4.607-7.379,11.123
			c1.368-2.016,3.491-3.852,7.163-3.852c4.68,0,8.711,3.024,8.711,7.739v0.072c0,4.859-3.924,8.387-9.035,8.387
			C379.821,244.243,377.554,243.271,375.97,241.688z M388.712,235.964v-0.072c0-3.096-2.52-5.399-6.155-5.399
			c-3.779,0-6.299,2.7-6.299,5.507v0.072c0,3.204,2.664,5.651,6.371,5.651C386.337,241.724,388.712,239.168,388.712,235.964z"/>
		<path d="M76.058,264.442h-7.307c-0.72,0-1.332-0.576-1.332-1.296s0.612-1.332,1.332-1.332h17.494c0.72,0,1.332,0.612,1.332,1.332
			s-0.612,1.296-1.332,1.296h-7.307v21.31c0,0.792-0.648,1.439-1.44,1.439s-1.44-0.647-1.44-1.439V264.442z"/>
		<path d="M88.335,277.797v-0.072c0-5.255,4.104-9.719,9.719-9.719c5.579,0,9.683,4.392,9.683,9.647v0.071
			c0,5.256-4.139,9.719-9.755,9.719C92.402,287.443,88.335,283.052,88.335,277.797z M104.893,277.797v-0.072
			c0-3.995-2.987-7.271-6.911-7.271c-4.031,0-6.803,3.275-6.803,7.199v0.071c0,3.996,2.952,7.235,6.875,7.235
			C102.085,284.96,104.893,281.721,104.893,277.797z"/>
		<path d="M118.287,286.04l-5.651-15.73c-0.072-0.216-0.18-0.504-0.18-0.756c0-0.684,0.576-1.332,1.404-1.332
			c0.72,0,1.188,0.469,1.404,1.152l4.679,13.966l4.716-14.002c0.216-0.647,0.648-1.116,1.368-1.116h0.144
			c0.756,0,1.224,0.469,1.44,1.116l4.679,14.002l4.751-14.038c0.18-0.576,0.576-1.08,1.332-1.08c0.792,0,1.368,0.612,1.368,1.296
			c0,0.252-0.108,0.54-0.18,0.756l-5.687,15.767c-0.288,0.828-0.864,1.26-1.512,1.26h-0.108c-0.72,0-1.26-0.432-1.512-1.26
			l-4.644-13.57l-4.679,13.57c-0.252,0.828-0.792,1.26-1.512,1.26h-0.072C119.151,287.3,118.575,286.868,118.287,286.04z"/>
		<path d="M146.439,269.626c0-0.756,0.612-1.404,1.368-1.404c0.792,0,1.404,0.612,1.404,1.404v2.016
			c1.224-2.016,3.167-3.636,6.371-3.636c4.5,0,7.127,3.023,7.127,7.451v10.331c0,0.792-0.612,1.403-1.368,1.403
			c-0.792,0-1.404-0.611-1.404-1.403v-9.647c0-3.455-1.872-5.615-5.147-5.615c-3.204,0-5.58,2.34-5.58,5.832v9.431
			c0,0.792-0.576,1.403-1.368,1.403s-1.404-0.611-1.404-1.403V269.626z"/>
		<path d="M169.407,285.032c-0.252-0.181-0.504-0.54-0.504-1.008c0-0.648,0.54-1.188,1.224-1.188c0.252,0,0.504,0.072,0.684,0.216
			c1.908,1.296,3.887,1.98,5.903,1.98c2.231,0,3.852-1.152,3.852-2.952v-0.071c0-1.872-2.196-2.592-4.644-3.276
			c-2.916-0.827-6.155-1.835-6.155-5.255v-0.072c0-3.203,2.664-5.327,6.335-5.327c1.98,0,4.14,0.612,5.939,1.584
			c0.36,0.216,0.684,0.611,0.684,1.151c0,0.648-0.54,1.188-1.224,1.188c-0.252,0-0.468-0.072-0.612-0.145
			c-1.584-0.899-3.275-1.439-4.859-1.439c-2.196,0-3.6,1.151-3.6,2.699v0.072c0,1.764,2.304,2.447,4.788,3.203
			c2.879,0.864,5.975,1.98,5.975,5.328v0.071c0,3.528-2.916,5.58-6.623,5.58C174.122,287.372,171.422,286.472,169.407,285.032z"/>
		<path d="M197.017,287.3h-0.144c-0.756,0-1.26-0.468-1.583-1.188l-6.983-15.767c-0.072-0.252-0.18-0.504-0.18-0.756
			c0-0.72,0.612-1.368,1.404-1.368s1.188,0.469,1.404,1.08l6.011,14.542l6.119-14.614c0.18-0.539,0.576-1.008,1.296-1.008
			c0.756,0,1.368,0.612,1.368,1.368c0,0.252-0.072,0.504-0.144,0.684l-7.019,15.839C198.241,286.832,197.773,287.3,197.017,287.3z"
			/>
		<path d="M212.354,262.57c0-0.899,0.72-1.476,1.62-1.476c0.936,0,1.656,0.576,1.656,1.476v0.469c0,0.863-0.72,1.476-1.656,1.476
			c-0.9,0-1.62-0.612-1.62-1.476V262.57z M212.606,269.626c0-0.756,0.612-1.404,1.368-1.404c0.792,0,1.404,0.612,1.404,1.404v16.162
			c0,0.792-0.576,1.403-1.368,1.403s-1.404-0.611-1.404-1.403V269.626z"/>
		<path d="M223.874,261.959c0-0.756,0.612-1.404,1.368-1.404c0.792,0,1.404,0.648,1.404,1.404v23.829
			c0,0.792-0.576,1.403-1.368,1.403s-1.404-0.611-1.404-1.403V261.959z"/>
		<path d="M235.141,261.959c0-0.756,0.612-1.404,1.368-1.404c0.792,0,1.404,0.648,1.404,1.404v23.829
			c0,0.792-0.576,1.403-1.368,1.403s-1.404-0.611-1.404-1.403V261.959z"/>
		<path d="M254.291,287.443c-5.111,0-9.287-3.923-9.287-9.683v-0.072c0-5.363,3.78-9.683,8.928-9.683c5.507,0,8.639,4.5,8.639,9.431
			c0,0.756-0.612,1.296-1.296,1.296h-13.463c0.396,4.032,3.24,6.3,6.552,6.3c2.304,0,3.995-0.9,5.363-2.16
			c0.216-0.18,0.468-0.324,0.792-0.324c0.684,0,1.224,0.54,1.224,1.188c0,0.324-0.144,0.647-0.432,0.899
			C259.547,286.328,257.459,287.443,254.291,287.443z M259.799,276.681c-0.288-3.383-2.232-6.335-5.939-6.335
			c-3.24,0-5.688,2.7-6.048,6.335H259.799z"/>
		<path d="M267.901,289.963c1.476-0.647,2.088-1.547,2.016-2.951c-0.756-0.18-1.404-0.756-1.404-1.728v-0.576
			c0-0.936,0.685-1.656,1.656-1.656c1.044,0,1.764,0.792,1.764,1.98v0.684c0,2.16-0.468,3.491-1.296,4.319
			c-0.756,0.756-1.872,1.296-2.447,1.296c-0.468,0-0.756-0.288-0.756-0.72C267.434,290.323,267.613,290.071,267.901,289.963z"/>
		<path d="M292.596,263.11c0-0.756,0.648-1.403,1.404-1.403h0.396c0.648,0,1.044,0.324,1.439,0.828l15.299,19.509v-19.005
			c0-0.756,0.611-1.404,1.403-1.404c0.756,0,1.368,0.648,1.368,1.404v22.749c0,0.756-0.54,1.332-1.296,1.332h-0.145
			c-0.611,0-1.043-0.36-1.476-0.864l-15.622-19.978v19.51c0,0.756-0.611,1.403-1.403,1.403c-0.756,0-1.368-0.647-1.368-1.403V263.11
			z"/>
		<path d="M330.575,277.113l-9.359-13.103c-0.18-0.288-0.323-0.612-0.323-0.972c0-0.756,0.684-1.404,1.476-1.404
			c0.612,0,1.008,0.36,1.368,0.864l8.314,11.986l8.387-11.986c0.36-0.504,0.72-0.864,1.332-0.864c0.792,0,1.404,0.648,1.404,1.404
			c0,0.359-0.217,0.756-0.396,1.044l-9.322,12.958v8.711c0,0.792-0.648,1.439-1.44,1.439s-1.439-0.647-1.439-1.439V277.113z"/>
		<path d="M362.759,284.924c-0.396-0.288-0.648-0.647-0.648-1.151c0-0.756,0.612-1.368,1.368-1.368c0.324,0,0.612,0.108,0.9,0.288
			c1.764,1.439,3.491,2.159,5.471,2.159c4.536,0,7.596-4.607,7.487-11.05c-1.368,2.195-3.636,4.031-7.127,4.031
			c-5.184,0-8.783-3.275-8.783-7.812v-0.071c0-4.788,3.708-8.567,9.071-8.567c2.879,0,5.003,0.972,6.623,2.592
			c1.907,1.908,3.132,4.716,3.132,9.755v0.072c0,7.99-4.248,13.642-10.475,13.642C366.898,287.443,364.666,286.364,362.759,284.924z
			 M376.797,269.698v-0.072c0-3.204-2.628-5.724-6.407-5.724s-6.047,2.771-6.047,5.903v0.072c0,3.203,2.52,5.507,6.191,5.507
			C374.386,275.385,376.797,272.577,376.797,269.698z"/>
		<path d="M386.482,274.485v-0.072c0-7.055,4.212-13.03,10.691-13.03c6.479,0,10.582,5.903,10.582,12.958v0.072
			c0,7.056-4.176,13.03-10.654,13.03C390.586,287.443,386.482,281.54,386.482,274.485z M404.805,274.485v-0.072
			c0-5.507-3.023-10.438-7.703-10.438c-4.716,0-7.667,4.823-7.667,10.366v0.072c0,5.508,3.023,10.438,7.739,10.438
			C401.889,284.852,404.805,279.992,404.805,274.485z"/>
		<path d="M413.698,284.348l8.604-7.595c3.887-3.455,5.255-5.399,5.255-7.919c0-2.951-2.34-4.823-5.075-4.823
			c-2.664,0-4.464,1.296-6.264,3.672c-0.216,0.287-0.575,0.504-1.044,0.504c-0.72,0-1.296-0.576-1.296-1.296
			c0-0.288,0.108-0.576,0.288-0.792c2.088-2.916,4.392-4.644,8.531-4.644c4.535,0,7.811,3.023,7.811,7.127v0.072
			c0,3.671-1.943,5.939-6.371,9.79l-6.73,5.976h12.202c0.72,0,1.332,0.576,1.332,1.296s-0.612,1.296-1.332,1.296h-15.154
			c-0.828,0-1.439-0.54-1.439-1.332C413.015,285.14,413.23,284.744,413.698,284.348z"/>
		<path d="M441.238,264.479l-3.527,1.152c-0.217,0.071-0.433,0.107-0.612,0.107c-0.647,0-1.224-0.54-1.224-1.224
			c0-0.612,0.396-1.008,1.008-1.224l4.14-1.44c0.575-0.18,1.079-0.323,1.548-0.323h0.071c0.828,0,1.404,0.647,1.404,1.403v22.821
			c0,0.792-0.612,1.439-1.404,1.439c-0.756,0-1.403-0.647-1.403-1.439V264.479z"/>
		<path d="M451.714,274.485v-0.072c0-7.055,4.212-13.03,10.691-13.03c6.479,0,10.582,5.903,10.582,12.958v0.072
			c0,7.056-4.176,13.03-10.654,13.03C455.817,287.443,451.714,281.54,451.714,274.485z M470.036,274.485v-0.072
			c0-5.507-3.023-10.438-7.703-10.438c-4.716,0-7.667,4.823-7.667,10.366v0.072c0,5.508,3.023,10.438,7.739,10.438
			C467.12,284.852,470.036,279.992,470.036,274.485z"/>
	</g>
	<g>
		<path d="M73.921,65.893l-8.135-11.051c-0.396-0.54-0.684-1.188-0.684-1.979c0-1.476,1.224-2.664,2.771-2.664
			c1.26,0,2.052,0.684,2.736,1.691l6.119,8.819l6.227-8.891c0.684-1.008,1.512-1.656,2.664-1.656c1.691,0,2.699,1.188,2.699,2.7
			c0,0.756-0.36,1.44-0.72,1.944l-8.135,10.979v7.271c0,1.548-1.224,2.771-2.772,2.771s-2.771-1.224-2.771-2.771V65.893z"/>
		<path d="M91.526,63.085v-0.072c0-7.163,5.651-13.03,13.426-13.03s13.354,5.795,13.354,12.958v0.072
			c0,7.163-5.651,13.031-13.426,13.031C97.105,76.043,91.526,70.248,91.526,63.085z M112.512,63.085v-0.072
			c0-4.319-3.167-7.919-7.631-7.919s-7.559,3.528-7.559,7.847v0.072c0,4.32,3.167,7.919,7.631,7.919S112.512,67.404,112.512,63.085z
			"/>
		<path d="M124.646,64.812V52.97c0-1.548,1.224-2.771,2.772-2.771s2.771,1.224,2.771,2.771v11.698c0,4.104,2.052,6.228,5.436,6.228
			c3.383,0,5.435-2.052,5.435-6.047V52.97c0-1.548,1.224-2.771,2.772-2.771c1.547,0,2.771,1.224,2.771,2.771v11.663
			c0,7.631-4.284,11.375-11.051,11.375S124.646,72.228,124.646,64.812z"/>
		<path d="M154.058,53.186c0-1.548,1.224-2.771,2.772-2.771h8.747c3.204,0,5.688,0.9,7.343,2.556c1.404,1.404,2.16,3.383,2.16,5.759
			v0.072c0,3.959-1.979,6.407-5.039,7.667l3.851,4.68c0.54,0.684,0.9,1.26,0.9,2.124c0,1.548-1.296,2.556-2.627,2.556
			c-1.26,0-2.088-0.612-2.736-1.439l-5.399-6.839h-4.427v5.507c0,1.548-1.224,2.771-2.771,2.771s-2.772-1.224-2.772-2.771V53.186z
			 M165.216,62.653c2.7,0,4.248-1.439,4.248-3.563v-0.072c0-2.376-1.656-3.6-4.355-3.6h-5.507v7.235H165.216z"/>
		<path d="M194.485,53.186c0-1.548,1.224-2.771,2.772-2.771h7.055c7.919,0,13.39,5.435,13.39,12.526v0.072
			c0,7.091-5.471,12.599-13.39,12.599h-7.055c-1.548,0-2.772-1.224-2.772-2.771V53.186z M204.312,70.608
			c4.535,0,7.595-3.06,7.595-7.523v-0.072c0-4.463-3.06-7.595-7.595-7.595h-4.284v15.19H204.312z"/>
		<path d="M224.688,52.97c0-1.548,1.224-2.771,2.772-2.771s2.771,1.224,2.771,2.771v20.085c0,1.548-1.224,2.771-2.771,2.771
			s-2.772-1.224-2.772-2.771V52.97z"/>
		<path d="M237.829,72.948c-0.612-0.432-1.044-1.224-1.044-2.088c0-1.44,1.152-2.556,2.592-2.556c0.72,0,1.224,0.252,1.583,0.504
			c1.908,1.404,3.996,2.268,6.443,2.268c2.268,0,3.636-0.9,3.636-2.375v-0.072c0-1.404-0.864-2.124-5.075-3.204
			c-5.076-1.296-8.351-2.7-8.351-7.703v-0.072c0-4.571,3.671-7.595,8.819-7.595c3.06,0,5.724,0.792,7.991,2.231
			c0.611,0.36,1.224,1.116,1.224,2.196c0,1.44-1.151,2.556-2.592,2.556c-0.54,0-0.972-0.144-1.403-0.396
			c-1.836-1.08-3.563-1.692-5.292-1.692c-2.124,0-3.239,0.972-3.239,2.196v0.072c0,1.656,1.08,2.196,5.436,3.312
			c5.111,1.332,7.991,3.167,7.991,7.559v0.072c0,5.003-3.816,7.811-9.251,7.811C243.983,75.971,240.636,74.963,237.829,72.948z"/>
		<path d="M262.058,63.085v-0.072c0-7.163,5.398-13.03,13.138-13.03c3.779,0,6.335,1.008,8.423,2.556
			c0.576,0.432,1.08,1.224,1.08,2.196c0,1.512-1.224,2.7-2.735,2.7c-0.756,0-1.26-0.288-1.656-0.54
			c-1.548-1.152-3.167-1.8-5.147-1.8c-4.247,0-7.307,3.528-7.307,7.847v0.072c0,4.32,2.987,7.919,7.307,7.919
			c2.34,0,3.888-0.72,5.472-1.98c0.432-0.36,1.008-0.612,1.656-0.612c1.403,0,2.591,1.152,2.591,2.556
			c0,0.864-0.432,1.548-0.936,1.979c-2.268,1.98-4.932,3.168-8.963,3.168C267.564,76.043,262.058,70.32,262.058,63.085z"/>
		<path d="M291.54,53.186c0-1.548,1.224-2.771,2.771-2.771h8.747c3.204,0,5.688,0.9,7.344,2.556
			c1.403,1.404,2.159,3.383,2.159,5.759v0.072c0,3.959-1.979,6.407-5.039,7.667l3.852,4.68c0.54,0.684,0.899,1.26,0.899,2.124
			c0,1.548-1.296,2.556-2.628,2.556c-1.26,0-2.087-0.612-2.735-1.439l-5.399-6.839h-4.427v5.507c0,1.548-1.225,2.771-2.772,2.771
			s-2.771-1.224-2.771-2.771V53.186z M302.699,62.653c2.699,0,4.247-1.439,4.247-3.563v-0.072c0-2.376-1.656-3.6-4.355-3.6h-5.507
			v7.235H302.699z"/>
		<path d="M319.368,72.84V53.186c0-1.548,1.224-2.771,2.771-2.771h13.967c1.367,0,2.483,1.116,2.483,2.483
			c0,1.368-1.116,2.448-2.483,2.448h-11.23v5.111h9.61c1.368,0,2.483,1.116,2.483,2.484s-1.115,2.448-2.483,2.448h-9.61v5.292h11.41
			c1.368,0,2.483,1.116,2.483,2.483s-1.115,2.448-2.483,2.448H322.14C320.592,75.611,319.368,74.388,319.368,72.84z"/>
		<path d="M345.288,72.84V53.186c0-1.548,1.224-2.771,2.771-2.771h13.967c1.367,0,2.483,1.116,2.483,2.483
			c0,1.368-1.116,2.448-2.483,2.448h-11.23v5.111h9.61c1.368,0,2.483,1.116,2.483,2.484s-1.115,2.448-2.483,2.448h-9.61v5.292h11.41
			c1.368,0,2.483,1.116,2.483,2.483s-1.115,2.448-2.483,2.448H348.06C346.512,75.611,345.288,74.388,345.288,72.84z"/>
		<path d="M377.075,55.526h-5.327c-1.403,0-2.556-1.152-2.556-2.556s1.152-2.556,2.556-2.556h16.198
			c1.403,0,2.556,1.152,2.556,2.556s-1.152,2.556-2.556,2.556h-5.327v17.53c0,1.548-1.225,2.771-2.772,2.771
			s-2.771-1.224-2.771-2.771V55.526z"/>
		<path d="M408.936,53.186c0-1.548,1.224-2.771,2.771-2.771h7.056c7.919,0,13.39,5.435,13.39,12.526v0.072
			c0,7.091-5.471,12.599-13.39,12.599h-7.056c-1.548,0-2.771-1.224-2.771-2.771V53.186z M418.763,70.608
			c4.535,0,7.595-3.06,7.595-7.523v-0.072c0-4.463-3.06-7.595-7.595-7.595h-4.283v15.19H418.763z"/>
		<path d="M438.887,53.186c0-1.548,1.224-2.771,2.771-2.771h8.747c3.204,0,5.688,0.9,7.343,2.556c1.404,1.404,2.16,3.383,2.16,5.759
			v0.072c0,3.959-1.979,6.407-5.039,7.667l3.852,4.68c0.54,0.684,0.899,1.26,0.899,2.124c0,1.548-1.296,2.556-2.628,2.556
			c-1.26,0-2.087-0.612-2.735-1.439l-5.399-6.839h-4.427v5.507c0,1.548-1.225,2.771-2.772,2.771s-2.771-1.224-2.771-2.771V53.186z
			 M450.046,62.653c2.699,0,4.247-1.439,4.247-3.563v-0.072c0-2.376-1.656-3.6-4.355-3.6h-5.507v7.235H450.046z"/>
		<path d="M465.6,63.085v-0.072c0-7.163,5.65-13.03,13.426-13.03s13.354,5.795,13.354,12.958v0.072
			c0,7.163-5.651,13.031-13.427,13.031C471.179,76.043,465.6,70.248,465.6,63.085z M486.585,63.085v-0.072
			c0-4.319-3.168-7.919-7.632-7.919c-4.463,0-7.559,3.528-7.559,7.847v0.072c0,4.32,3.168,7.919,7.631,7.919
			C483.489,70.932,486.585,67.404,486.585,63.085z"/>
		<path d="M499.114,53.186c0-1.548,1.224-2.771,2.771-2.771h7.523c6.011,0,9.646,3.563,9.646,8.711v0.072
			c0,5.832-4.535,8.855-10.187,8.855h-4.211v5.003c0,1.548-1.225,2.771-2.772,2.771s-2.771-1.224-2.771-2.771V53.186z
			 M509.049,63.121c2.772,0,4.392-1.656,4.392-3.816v-0.072c0-2.484-1.728-3.815-4.499-3.815h-4.283v7.703H509.049z"/>
		<path d="M166.675,115.248l8.783-19.833c0.612-1.368,1.728-2.196,3.239-2.196h0.324c1.512,0,2.592,0.828,3.204,2.196l8.783,19.833
			c0.18,0.396,0.288,0.756,0.288,1.116c0,1.476-1.152,2.664-2.628,2.664c-1.295,0-2.16-0.756-2.664-1.908l-1.691-3.959h-11.087
			l-1.764,4.14c-0.468,1.08-1.404,1.728-2.556,1.728c-1.44,0-2.556-1.152-2.556-2.591
			C166.351,116.04,166.495,115.644,166.675,115.248z M182.261,108.265l-3.492-8.315l-3.492,8.315H182.261z"/>
		<path d="M197.454,96.386c0-1.548,1.224-2.771,2.772-2.771h7.055c7.919,0,13.39,5.435,13.39,12.526v0.072
			c0,7.091-5.471,12.599-13.39,12.599h-7.055c-1.548,0-2.772-1.224-2.772-2.771V96.386z M207.281,113.808
			c4.535,0,7.595-3.06,7.595-7.523v-0.072c0-4.463-3.06-7.595-7.595-7.595h-4.284v15.19H207.281z"/>
		<path d="M227.406,96.386c0-1.548,1.224-2.771,2.772-2.771h7.055c7.919,0,13.39,5.435,13.39,12.526v0.072
			c0,7.091-5.471,12.599-13.39,12.599h-7.055c-1.548,0-2.772-1.224-2.772-2.771V96.386z M237.233,113.808
			c4.535,0,7.595-3.06,7.595-7.523v-0.072c0-4.463-3.06-7.595-7.595-7.595h-4.284v15.19H237.233z"/>
		<path d="M257.358,96.386c0-1.548,1.224-2.771,2.771-2.771h8.747c3.204,0,5.688,0.9,7.344,2.556
			c1.403,1.404,2.159,3.383,2.159,5.759v0.072c0,3.959-1.979,6.407-5.039,7.667l3.852,4.68c0.54,0.684,0.899,1.26,0.899,2.124
			c0,1.548-1.296,2.556-2.628,2.556c-1.26,0-2.087-0.612-2.735-1.439l-5.399-6.839h-4.427v5.507c0,1.548-1.225,2.771-2.772,2.771
			s-2.771-1.224-2.771-2.771V96.386z M268.518,105.853c2.699,0,4.247-1.439,4.247-3.563v-0.072c0-2.376-1.656-3.6-4.355-3.6h-5.507
			v7.235H268.518z"/>
		<path d="M285.186,116.04V96.386c0-1.548,1.224-2.771,2.771-2.771h13.967c1.367,0,2.483,1.116,2.483,2.483
			c0,1.368-1.116,2.448-2.483,2.448h-11.23v5.111h9.61c1.368,0,2.483,1.116,2.483,2.484s-1.115,2.448-2.483,2.448h-9.61v5.292h11.41
			c1.368,0,2.483,1.116,2.483,2.483s-1.115,2.448-2.483,2.448h-14.146C286.409,118.812,285.186,117.588,285.186,116.04z"/>
		<path d="M310.602,116.148c-0.611-0.432-1.044-1.224-1.044-2.088c0-1.44,1.152-2.556,2.592-2.556c0.72,0,1.224,0.252,1.584,0.504
			c1.907,1.404,3.995,2.268,6.443,2.268c2.268,0,3.636-0.9,3.636-2.375v-0.072c0-1.404-0.864-2.124-5.076-3.204
			c-5.075-1.296-8.351-2.7-8.351-7.703v-0.072c0-4.571,3.672-7.595,8.819-7.595c3.06,0,5.723,0.792,7.99,2.231
			c0.612,0.36,1.225,1.116,1.225,2.196c0,1.44-1.152,2.556-2.592,2.556c-0.54,0-0.973-0.144-1.404-0.396
			c-1.836-1.08-3.563-1.692-5.291-1.692c-2.124,0-3.24,0.972-3.24,2.196v0.072c0,1.656,1.08,2.196,5.436,3.312
			c5.111,1.332,7.991,3.167,7.991,7.559v0.072c0,5.003-3.815,7.811-9.251,7.811C316.757,119.171,313.409,118.164,310.602,116.148z"
			/>
		<path d="M335.082,116.148c-0.611-0.432-1.044-1.224-1.044-2.088c0-1.44,1.152-2.556,2.592-2.556c0.72,0,1.224,0.252,1.584,0.504
			c1.907,1.404,3.995,2.268,6.443,2.268c2.268,0,3.636-0.9,3.636-2.375v-0.072c0-1.404-0.864-2.124-5.076-3.204
			c-5.075-1.296-8.351-2.7-8.351-7.703v-0.072c0-4.571,3.672-7.595,8.819-7.595c3.06,0,5.723,0.792,7.99,2.231
			c0.612,0.36,1.225,1.116,1.225,2.196c0,1.44-1.152,2.556-2.592,2.556c-0.54,0-0.973-0.144-1.404-0.396
			c-1.836-1.08-3.563-1.692-5.291-1.692c-2.124,0-3.24,0.972-3.24,2.196v0.072c0,1.656,1.08,2.196,5.436,3.312
			c5.111,1.332,7.991,3.167,7.991,7.559v0.072c0,5.003-3.815,7.811-9.251,7.811C341.237,119.171,337.89,118.164,335.082,116.148z"/>
		<path d="M373.277,96.17c0-1.548,1.224-2.771,2.771-2.771s2.772,1.224,2.772,2.771v20.085c0,1.548-1.225,2.771-2.772,2.771
			s-2.771-1.224-2.771-2.771V96.17z"/>
		<path d="M386.418,116.148c-0.611-0.432-1.044-1.224-1.044-2.088c0-1.44,1.152-2.556,2.592-2.556c0.72,0,1.224,0.252,1.584,0.504
			c1.907,1.404,3.995,2.268,6.443,2.268c2.268,0,3.636-0.9,3.636-2.375v-0.072c0-1.404-0.864-2.124-5.076-3.204
			c-5.075-1.296-8.351-2.7-8.351-7.703v-0.072c0-4.571,3.672-7.595,8.819-7.595c3.06,0,5.723,0.792,7.99,2.231
			c0.612,0.36,1.225,1.116,1.225,2.196c0,1.44-1.152,2.556-2.592,2.556c-0.54,0-0.973-0.144-1.404-0.396
			c-1.836-1.08-3.563-1.692-5.291-1.692c-2.124,0-3.24,0.972-3.24,2.196v0.072c0,1.656,1.08,2.196,5.436,3.312
			c5.111,1.332,7.991,3.167,7.991,7.559v0.072c0,5.003-3.815,7.811-9.251,7.811C392.573,119.171,389.226,118.164,386.418,116.148z"
			/>
		<path d="M414.065,99.302c1.8,0,3.132,1.332,3.132,3.06v0.072c0,1.728-1.332,3.06-3.132,3.06s-3.132-1.332-3.132-3.06v-0.072
			C410.934,100.634,412.266,99.302,414.065,99.302z M414.065,112.836c1.8,0,3.132,1.332,3.132,3.06v0.072
			c0,1.728-1.332,3.06-3.132,3.06s-3.132-1.332-3.132-3.06v-0.072C410.934,114.168,412.266,112.836,414.065,112.836z"/>
	</g>
</g>
<g id="Layer_3">
	<polygon fill="#1A1A1A" points="472.376,304.594 472.376,358.5 487.521,352.227 497.614,376.594 505.44,373.353 495.347,348.985 
		510.493,342.711 	"/>
</g>
</svg>
