<svg xmlns="http://www.w3.org/2000/svg" width="584.448" height="447.003" viewBox="0 0 584.448 447.003"><g><defs><filter id="a" filterUnits="userSpaceOnUse" x="0" y="0" width="584.448" height="447.003"><feColorMatrix values="-1 0 0 0 1 0 -1 0 0 1 0 0 -1 0 1 0 0 0 1 0" color-interpolation-filters="sRGB" result="source"/></filter></defs><mask maskUnits="userSpaceOnUse" x="0" y="0" width="584.448" height="447.003" id="c"><g filter="url(#a)"><linearGradient id="b" gradientUnits="userSpaceOnUse" x1="283.891" y1="461.724" x2="283.891" y2="2.002"><stop offset=".098" stop-color="#fff"/><stop offset=".503"/></linearGradient><path fill="url(#b)" d="M-31.387 2.001h630.556v459.723h-630.556z"/></g></mask><g mask="url(#c)"><path fill="#fff" d="M7.502 7.501h569.444v432h-569.444z"/><path fill="#1A1A1A" d="M577 431.999h-569.4449999999999c2.482 2.519 4.965 5.037 7.448 7.556v-432l-7.556 7.447h569.446c-2.483-2.519-4.966-5.037-7.448-7.556v432.00000000000006c0 9.686 15.004 9.771 15.004.107v-432c-.001-4.062-3.343-7.553-7.449-7.553h-569.444c-4.065 0-7.556 3.341-7.556 7.447v432.00000000000006c0 4.064 3.342 7.556 7.448 7.556h569.446c9.684 0 9.77-15.004.106-15.004z"/></g></g><g><path d="M72.279 178.078l-3.528 1.152c-.216.072-.432.108-.612.108-.648 0-1.224-.54-1.224-1.224 0-.612.396-1.008 1.008-1.224l4.139-1.439c.576-.18 1.08-.324 1.548-.324h.072c.828 0 1.404.648 1.404 1.404v22.821c0 .792-.612 1.44-1.404 1.44-.756 0-1.404-.648-1.404-1.44v-21.274zM82.791 197.948l8.603-7.595c3.888-3.456 5.255-5.399 5.255-7.919 0-2.952-2.34-4.823-5.075-4.823-2.664 0-4.463 1.296-6.263 3.671-.216.288-.576.504-1.044.504-.72 0-1.296-.576-1.296-1.296 0-.288.108-.576.288-.792 2.087-2.916 4.391-4.643 8.531-4.643 4.536 0 7.811 3.023 7.811 7.127v.072c0 3.672-1.944 5.939-6.371 9.791l-6.731 5.975h12.203c.72 0 1.332.576 1.332 1.296s-.612 1.296-1.332 1.296h-15.156c-.828 0-1.439-.54-1.439-1.332 0-.54.216-.936.684-1.332zM106.298 197.228c-.216-.216-.468-.612-.468-1.008 0-.756.648-1.404 1.404-1.404.468 0 .828.216 1.044.432 1.835 2.088 3.995 3.204 6.839 3.204 3.06 0 5.507-1.944 5.507-4.896v-.072c0-3.132-2.916-4.859-7.055-4.859h-.9c-.684 0-1.26-.54-1.26-1.224 0-.36.18-.72.576-1.116l7.343-8.315h-11.158c-.72 0-1.332-.54-1.332-1.26s.612-1.296 1.332-1.296h13.75c.792 0 1.368.504 1.368 1.224 0 .576-.288.972-.684 1.404l-7.415 8.243c4.391.36 8.315 2.484 8.315 7.091v.072c0 4.5-3.744 7.595-8.423 7.595-3.851 0-6.767-1.547-8.783-3.815zM143.917 176.854c0-.792.648-1.44 1.404-1.44h7.343c7.919 0 13.39 5.435 13.39 12.526v.072c0 7.091-5.471 12.599-13.39 12.599h-7.343c-.756 0-1.404-.648-1.404-1.44v-22.317zm8.748 21.13c6.371 0 10.438-4.32 10.438-9.899v-.072c0-5.579-4.067-9.971-10.438-9.971h-5.903v19.942h5.903zM181.537 201.043c-5.111 0-9.287-3.924-9.287-9.683v-.072c0-5.363 3.779-9.683 8.927-9.683 5.507 0 8.639 4.5 8.639 9.431 0 .756-.612 1.296-1.296 1.296h-13.462c.396 4.031 3.24 6.299 6.551 6.299 2.304 0 3.995-.9 5.363-2.16.216-.18.468-.324.792-.324.684 0 1.224.54 1.224 1.188 0 .324-.144.648-.432.9-1.764 1.692-3.852 2.808-7.019 2.808zm5.507-10.762c-.288-3.384-2.231-6.335-5.939-6.335-3.24 0-5.688 2.7-6.047 6.335h11.986zM196.514 183.226c0-.756.612-1.404 1.368-1.404.792 0 1.404.612 1.404 1.404v1.908c1.224-1.836 2.88-3.528 6.011-3.528 3.024 0 4.967 1.62 5.975 3.708 1.332-2.052 3.312-3.708 6.551-3.708 4.284 0 6.911 2.88 6.911 7.487v10.295c0 .792-.612 1.404-1.368 1.404-.792 0-1.404-.612-1.404-1.404v-9.647c0-3.6-1.8-5.615-4.823-5.615-2.808 0-5.111 2.087-5.111 5.759v9.503c0 .792-.612 1.404-1.404 1.404-.756 0-1.368-.612-1.368-1.404v-9.719c0-3.492-1.835-5.543-4.787-5.543s-5.184 2.448-5.184 5.867v9.395c0 .792-.576 1.404-1.368 1.404s-1.404-.612-1.404-1.404v-16.162zM231.397 191.396v-.072c0-5.255 4.104-9.719 9.719-9.719 5.579 0 9.683 4.392 9.683 9.647v.072c0 5.255-4.14 9.719-9.755 9.719-5.579 0-9.647-4.391-9.647-9.647zm16.558 0v-.072c0-3.996-2.987-7.271-6.911-7.271-4.031 0-6.803 3.276-6.803 7.199v.072c0 3.995 2.952 7.235 6.875 7.235 4.031.001 6.839-3.239 6.839-7.163zM269.773 197.588c-.324-.216-.54-.612-.54-1.08 0-.792.611-1.404 1.367-1.404.36 0 .685.144.864.324 2.376 2.016 4.751 2.988 7.955 2.988 3.384 0 5.615-1.8 5.615-4.283v-.072c0-2.34-1.26-3.671-6.551-4.787-5.796-1.26-8.459-3.132-8.459-7.271v-.072c0-3.959 3.491-6.875 8.278-6.875 3.312 0 5.724.828 8.027 2.483.288.216.612.612.612 1.152 0 .756-.612 1.368-1.368 1.368-.324 0-.576-.072-.828-.252-2.124-1.548-4.176-2.196-6.515-2.196-3.276 0-5.364 1.8-5.364 4.067v.072c0 2.376 1.296 3.708 6.84 4.896 5.615 1.224 8.207 3.276 8.207 7.127v.072c0 4.319-3.6 7.127-8.604 7.127-3.668-.001-6.728-1.153-9.536-3.384zM295.837 195.68v-11.231h-1.512c-.647 0-1.224-.576-1.224-1.224 0-.684.576-1.224 1.224-1.224h1.512v-4.391c0-.756.576-1.404 1.368-1.404.756 0 1.403.648 1.403 1.404v4.391h4.823c.685 0 1.261.576 1.261 1.224 0 .684-.576 1.224-1.261 1.224h-4.823v10.871c0 2.268 1.26 3.096 3.132 3.096.972 0 1.476-.252 1.691-.252.648 0 1.188.54 1.188 1.188 0 .504-.324.9-.792 1.08-.792.324-1.656.504-2.735.504-2.988-.001-5.255-1.477-5.255-5.256zM311.209 183.226c0-.756.612-1.404 1.368-1.404.791 0 1.403.612 1.403 1.404v3.492c1.368-3.096 4.067-4.968 6.407-4.968.828 0 1.368.612 1.368 1.404 0 .756-.504 1.296-1.225 1.404-3.599.432-6.551 3.132-6.551 8.495v6.335c0 .756-.576 1.404-1.368 1.404-.791 0-1.403-.612-1.403-1.404v-16.162zM334.932 201.043c-5.111 0-9.287-3.924-9.287-9.683v-.072c0-5.363 3.78-9.683 8.928-9.683 5.507 0 8.639 4.5 8.639 9.431 0 .756-.612 1.296-1.296 1.296h-13.463c.396 4.031 3.24 6.299 6.552 6.299 2.304 0 3.995-.9 5.363-2.16.216-.18.468-.324.792-.324.684 0 1.224.54 1.224 1.188 0 .324-.144.648-.432.9-1.764 1.692-3.852 2.808-7.02 2.808zm5.507-10.762c-.288-3.384-2.232-6.335-5.939-6.335-3.24 0-5.688 2.7-6.048 6.335h11.987zM358.044 201.043c-5.111 0-9.287-3.924-9.287-9.683v-.072c0-5.363 3.78-9.683 8.928-9.683 5.507 0 8.639 4.5 8.639 9.431 0 .756-.612 1.296-1.296 1.296h-13.463c.396 4.031 3.24 6.299 6.552 6.299 2.304 0 3.995-.9 5.363-2.16.216-.18.468-.324.792-.324.684 0 1.224.54 1.224 1.188 0 .324-.144.648-.432.9-1.764 1.692-3.852 2.808-7.02 2.808zm5.508-10.762c-.288-3.384-2.232-6.335-5.939-6.335-3.24 0-5.688 2.7-6.048 6.335h11.987zM373.992 195.68v-11.231h-1.512c-.647 0-1.224-.576-1.224-1.224 0-.684.576-1.224 1.224-1.224h1.512v-4.391c0-.756.576-1.404 1.368-1.404.756 0 1.403.648 1.403 1.404v4.391h4.823c.685 0 1.261.576 1.261 1.224 0 .684-.576 1.224-1.261 1.224h-4.823v10.871c0 2.268 1.26 3.096 3.132 3.096.972 0 1.476-.252 1.691-.252.648 0 1.188.54 1.188 1.188 0 .504-.324.9-.792 1.08-.792.324-1.656.504-2.735.504-2.987-.001-5.255-1.477-5.255-5.256zM68.499 240.788c-.324-.216-.54-.612-.54-1.08 0-.792.612-1.404 1.368-1.404.36 0 .684.144.864.324 2.375 2.016 4.751 2.988 7.955 2.988 3.383 0 5.615-1.8 5.615-4.283v-.072c0-2.34-1.26-3.671-6.551-4.787-5.795-1.26-8.459-3.132-8.459-7.271v-.072c0-3.959 3.492-6.875 8.279-6.875 3.312 0 5.723.828 8.027 2.483.288.216.612.612.612 1.152 0 .756-.612 1.368-1.368 1.368-.324 0-.576-.072-.828-.252-2.124-1.548-4.175-2.196-6.515-2.196-3.275 0-5.363 1.8-5.363 4.067v.072c0 2.376 1.296 3.708 6.839 4.896 5.615 1.224 8.207 3.276 8.207 7.127v.072c0 4.319-3.599 7.127-8.603 7.127-3.672 0-6.731-1.152-9.539-3.384zM109.717 242.588c0 .756-.576 1.403-1.368 1.403-.756 0-1.368-.611-1.368-1.403v-2.016c-1.26 2.016-3.168 3.635-6.372 3.635-4.499 0-7.127-3.023-7.127-7.451v-10.331c0-.792.576-1.404 1.368-1.404.756 0 1.404.612 1.404 1.404v9.646c0 3.456 1.872 5.616 5.147 5.616 3.167 0 5.58-2.34 5.58-5.832v-9.431c0-.792.576-1.404 1.368-1.404.756 0 1.368.612 1.368 1.404v16.164zM117.747 219.371c0-.9.72-1.476 1.62-1.476.936 0 1.656.576 1.656 1.476v.468c0 .864-.72 1.476-1.656 1.476-.9 0-1.62-.612-1.62-1.476v-.468zm.252 7.055c0-.756.612-1.404 1.368-1.404.792 0 1.404.612 1.404 1.404v16.162c0 .792-.576 1.403-1.368 1.403s-1.404-.611-1.404-1.403v-16.162zM129.986 238.88v-11.231h-1.512c-.648 0-1.224-.576-1.224-1.224 0-.684.576-1.224 1.224-1.224h1.512v-4.391c0-.756.576-1.404 1.368-1.404.756 0 1.404.648 1.404 1.404v4.391h4.823c.684 0 1.26.576 1.26 1.224 0 .684-.576 1.224-1.26 1.224h-4.823v10.871c0 2.268 1.26 3.096 3.131 3.096.972 0 1.476-.252 1.692-.252.648 0 1.188.54 1.188 1.188 0 .504-.324.899-.792 1.08-.792.323-1.656.504-2.736.504-2.987 0-5.255-1.477-5.255-5.256zM152.953 244.243c-5.111 0-9.287-3.923-9.287-9.683v-.072c0-5.363 3.779-9.683 8.927-9.683 5.507 0 8.639 4.5 8.639 9.431 0 .756-.612 1.296-1.296 1.296h-13.462c.396 4.031 3.24 6.299 6.551 6.299 2.304 0 3.995-.9 5.363-2.16.216-.18.468-.324.792-.324.684 0 1.224.54 1.224 1.188 0 .324-.144.648-.432.9-1.764 1.693-3.851 2.808-7.019 2.808zm5.507-10.762c-.288-3.384-2.231-6.335-5.939-6.335-3.24 0-5.688 2.7-6.047 6.335h11.986zM183.877 221.278l-3.528 1.152c-.216.072-.432.108-.612.108-.648 0-1.224-.54-1.224-1.224 0-.612.396-1.008 1.008-1.224l4.139-1.439c.576-.18 1.08-.324 1.548-.324h.072c.828 0 1.404.648 1.404 1.404v22.821c0 .792-.612 1.439-1.404 1.439-.756 0-1.404-.647-1.404-1.439v-21.274zM197.485 241.688c-2.016-2.016-3.167-4.607-3.167-9.755v-.072c0-7.667 3.887-13.678 10.475-13.678 2.627 0 4.679.828 6.551 2.232.432.288.684.648.684 1.188 0 .756-.612 1.368-1.368 1.368-.288 0-.576-.108-.792-.252-1.656-1.26-3.204-1.944-5.219-1.944-4.571 0-7.415 4.607-7.379 11.123 1.368-2.016 3.492-3.852 7.163-3.852 4.679 0 8.711 3.024 8.711 7.739v.072c0 4.859-3.924 8.387-9.035 8.387-2.773-.001-5.04-.973-6.624-2.556zm12.743-5.724v-.072c0-3.096-2.52-5.399-6.155-5.399-3.78 0-6.299 2.7-6.299 5.507v.072c0 3.204 2.664 5.651 6.371 5.651s6.083-2.555 6.083-5.759zM231.972 232.977c0-.756.648-1.44 1.44-1.44h7.487c.792 0 1.439.684 1.439 1.44 0 .792-.647 1.476-1.439 1.476h-7.487c-.792 0-1.44-.684-1.44-1.476zM265.343 221.278l-3.527 1.152c-.217.072-.433.108-.612.108-.647 0-1.224-.54-1.224-1.224 0-.612.396-1.008 1.008-1.224l4.14-1.439c.575-.18 1.079-.324 1.548-.324h.071c.828 0 1.404.648 1.404 1.404v22.821c0 .792-.612 1.439-1.404 1.439-.756 0-1.403-.647-1.403-1.439v-21.274zM275.854 241.148l8.604-7.595c3.887-3.456 5.255-5.399 5.255-7.919 0-2.952-2.34-4.823-5.075-4.823-2.664 0-4.464 1.296-6.264 3.671-.216.288-.575.504-1.044.504-.72 0-1.296-.576-1.296-1.296 0-.288.108-.576.288-.792 2.088-2.916 4.392-4.643 8.531-4.643 4.535 0 7.811 3.023 7.811 7.127v.072c0 3.672-1.943 5.939-6.371 9.791l-6.73 5.975h12.202c.72 0 1.332.576 1.332 1.296s-.612 1.296-1.332 1.296h-15.155c-.828 0-1.439-.54-1.439-1.332 0-.54.216-.936.683-1.332zM299.363 240.428c-.217-.216-.469-.612-.469-1.008 0-.756.648-1.404 1.404-1.404.468 0 .828.216 1.044.432 1.836 2.088 3.995 3.204 6.839 3.204 3.06 0 5.508-1.944 5.508-4.896v-.072c0-3.132-2.916-4.859-7.056-4.859h-.899c-.685 0-1.26-.54-1.26-1.224 0-.36.18-.72.575-1.116l7.344-8.315h-11.159c-.72 0-1.332-.54-1.332-1.26s.612-1.296 1.332-1.296h13.751c.791 0 1.367.504 1.367 1.224 0 .576-.288.972-.684 1.404l-7.415 8.243c4.392.36 8.314 2.484 8.314 7.091v.072c0 4.5-3.743 7.595-8.423 7.595-3.85 0-6.765-1.548-8.781-3.815zM336.369 237.836h-12.526c-.828 0-1.439-.576-1.439-1.368 0-.504.18-.9.54-1.368l13.103-15.982c.432-.54.827-.864 1.583-.864.864 0 1.512.648 1.512 1.476v15.73h2.844c.648 0 1.225.54 1.225 1.224 0 .648-.576 1.152-1.225 1.152h-2.844v4.788c0 .756-.611 1.367-1.403 1.367-.756 0-1.368-.611-1.368-1.367v-4.788zm0-2.376v-12.994l-10.582 12.994h10.582zM349.51 240.968c-.396-.324-.575-.684-.575-1.188 0-.684.611-1.332 1.367-1.332.36 0 .72.144.972.36 1.98 1.8 4.14 2.844 6.479 2.844 3.527 0 6.047-2.304 6.047-5.58v-.072c0-3.167-2.591-5.292-6.263-5.292-2.952 0-4.464 1.224-5.111 1.224-.54 0-.936-.216-1.439-.54-.469-.324-.648-.9-.612-1.548l.576-9.863c.036-.864.647-1.368 1.367-1.368h12.095c.72 0 1.296.576 1.296 1.332 0 .72-.576 1.296-1.296 1.296h-10.87l-.54 8.063c1.476-.648 2.879-1.116 4.967-1.116 4.896 0 8.711 2.88 8.711 7.703v.072c0 4.859-3.743 8.279-8.963 8.279-3.277.001-6.156-1.438-8.208-3.274zM375.97 241.688c-2.016-2.016-3.168-4.607-3.168-9.755v-.072c0-7.667 3.888-13.678 10.475-13.678 2.628 0 4.68.828 6.552 2.232.432.288.684.648.684 1.188 0 .756-.611 1.368-1.367 1.368-.288 0-.576-.108-.792-.252-1.656-1.26-3.204-1.944-5.22-1.944-4.571 0-7.415 4.607-7.379 11.123 1.368-2.016 3.491-3.852 7.163-3.852 4.68 0 8.711 3.024 8.711 7.739v.072c0 4.859-3.924 8.387-9.035 8.387-2.773-.001-5.04-.973-6.624-2.556zm12.742-5.724v-.072c0-3.096-2.52-5.399-6.155-5.399-3.779 0-6.299 2.7-6.299 5.507v.072c0 3.204 2.664 5.651 6.371 5.651 3.708.001 6.083-2.555 6.083-5.759zM76.058 264.442h-7.307c-.72 0-1.332-.576-1.332-1.296s.612-1.332 1.332-1.332h17.494c.72 0 1.332.612 1.332 1.332s-.612 1.296-1.332 1.296h-7.307v21.31c0 .792-.648 1.439-1.44 1.439s-1.44-.647-1.44-1.439v-21.31zM88.335 277.797v-.072c0-5.255 4.104-9.719 9.719-9.719 5.579 0 9.683 4.392 9.683 9.647v.071c0 5.256-4.139 9.719-9.755 9.719-5.58 0-9.647-4.391-9.647-9.646zm16.558 0v-.072c0-3.995-2.987-7.271-6.911-7.271-4.031 0-6.803 3.275-6.803 7.199v.071c0 3.996 2.952 7.235 6.875 7.235 4.031.001 6.839-3.238 6.839-7.162zM118.287 286.04l-5.651-15.73c-.072-.216-.18-.504-.18-.756 0-.684.576-1.332 1.404-1.332.72 0 1.188.469 1.404 1.152l4.679 13.966 4.716-14.002c.216-.647.648-1.116 1.368-1.116h.144c.756 0 1.224.469 1.44 1.116l4.679 14.002 4.751-14.038c.18-.576.576-1.08 1.332-1.08.792 0 1.368.612 1.368 1.296 0 .252-.108.54-.18.756l-5.687 15.767c-.288.828-.864 1.26-1.512 1.26h-.108c-.72 0-1.26-.432-1.512-1.26l-4.644-13.57-4.679 13.57c-.252.828-.792 1.26-1.512 1.26h-.072c-.684-.001-1.26-.433-1.548-1.261zM146.439 269.626c0-.756.612-1.404 1.368-1.404.792 0 1.404.612 1.404 1.404v2.016c1.224-2.016 3.167-3.636 6.371-3.636 4.5 0 7.127 3.023 7.127 7.451v10.331c0 .792-.612 1.403-1.368 1.403-.792 0-1.404-.611-1.404-1.403v-9.647c0-3.455-1.872-5.615-5.147-5.615-3.204 0-5.58 2.34-5.58 5.832v9.431c0 .792-.576 1.403-1.368 1.403s-1.404-.611-1.404-1.403v-16.163zM169.407 285.032c-.252-.181-.504-.54-.504-1.008 0-.648.54-1.188 1.224-1.188.252 0 .504.072.684.216 1.908 1.296 3.887 1.98 5.903 1.98 2.231 0 3.852-1.152 3.852-2.952v-.071c0-1.872-2.196-2.592-4.644-3.276-2.916-.827-6.155-1.835-6.155-5.255v-.072c0-3.203 2.664-5.327 6.335-5.327 1.98 0 4.14.612 5.939 1.584.36.216.684.611.684 1.151 0 .648-.54 1.188-1.224 1.188-.252 0-.468-.072-.612-.145-1.584-.899-3.275-1.439-4.859-1.439-2.196 0-3.6 1.151-3.6 2.699v.072c0 1.764 2.304 2.447 4.788 3.203 2.879.864 5.975 1.98 5.975 5.328v.071c0 3.528-2.916 5.58-6.623 5.58-2.448.001-5.148-.899-7.163-2.339zM197.017 287.3h-.144c-.756 0-1.26-.468-1.583-1.188l-6.983-15.767c-.072-.252-.18-.504-.18-.756 0-.72.612-1.368 1.404-1.368s1.188.469 1.404 1.08l6.011 14.542 6.119-14.614c.18-.539.576-1.008 1.296-1.008.756 0 1.368.612 1.368 1.368 0 .252-.072.504-.144.684l-7.019 15.839c-.325.72-.793 1.188-1.549 1.188zM212.354 262.57c0-.899.72-1.476 1.62-1.476.936 0 1.656.576 1.656 1.476v.469c0 .863-.72 1.476-1.656 1.476-.9 0-1.62-.612-1.62-1.476v-.469zm.252 7.056c0-.756.612-1.404 1.368-1.404.792 0 1.404.612 1.404 1.404v16.162c0 .792-.576 1.403-1.368 1.403s-1.404-.611-1.404-1.403v-16.162zM223.874 261.959c0-.756.612-1.404 1.368-1.404.792 0 1.404.648 1.404 1.404v23.829c0 .792-.576 1.403-1.368 1.403s-1.404-.611-1.404-1.403v-23.829zM235.141 261.959c0-.756.612-1.404 1.368-1.404.792 0 1.404.648 1.404 1.404v23.829c0 .792-.576 1.403-1.368 1.403s-1.404-.611-1.404-1.403v-23.829zM254.291 287.443c-5.111 0-9.287-3.923-9.287-9.683v-.072c0-5.363 3.78-9.683 8.928-9.683 5.507 0 8.639 4.5 8.639 9.431 0 .756-.612 1.296-1.296 1.296h-13.463c.396 4.032 3.24 6.3 6.552 6.3 2.304 0 3.995-.9 5.363-2.16.216-.18.468-.324.792-.324.684 0 1.224.54 1.224 1.188 0 .324-.144.647-.432.899-1.764 1.693-3.852 2.808-7.02 2.808zm5.508-10.762c-.288-3.383-2.232-6.335-5.939-6.335-3.24 0-5.688 2.7-6.048 6.335h11.987zM267.901 289.963c1.476-.647 2.088-1.547 2.016-2.951-.756-.18-1.404-.756-1.404-1.728v-.576c0-.936.685-1.656 1.656-1.656 1.044 0 1.764.792 1.764 1.98v.684c0 2.16-.468 3.491-1.296 4.319-.756.756-1.872 1.296-2.447 1.296-.468 0-.756-.288-.756-.72 0-.288.179-.54.467-.648zM292.596 263.11c0-.756.648-1.403 1.404-1.403h.396c.648 0 1.044.324 1.439.828l15.299 19.509v-19.005c0-.756.611-1.404 1.403-1.404.756 0 1.368.648 1.368 1.404v22.749c0 .756-.54 1.332-1.296 1.332h-.145c-.611 0-1.043-.36-1.476-.864l-15.622-19.978v19.51c0 .756-.611 1.403-1.403 1.403-.756 0-1.368-.647-1.368-1.403v-22.678zM330.575 277.113l-9.359-13.103c-.18-.288-.323-.612-.323-.972 0-.756.684-1.404 1.476-1.404.612 0 1.008.36 1.368.864l8.314 11.986 8.387-11.986c.36-.504.72-.864 1.332-.864.792 0 1.404.648 1.404 1.404 0 .359-.217.756-.396 1.044l-9.322 12.958v8.711c0 .792-.648 1.439-1.44 1.439s-1.439-.647-1.439-1.439v-8.638zM362.759 284.924c-.396-.288-.648-.647-.648-1.151 0-.756.612-1.368 1.368-1.368.324 0 .612.108.9.288 1.764 1.439 3.491 2.159 5.471 2.159 4.536 0 7.596-4.607 7.487-11.05-1.368 2.195-3.636 4.031-7.127 4.031-5.184 0-8.783-3.275-8.783-7.812v-.071c0-4.788 3.708-8.567 9.071-8.567 2.879 0 5.003.972 6.623 2.592 1.907 1.908 3.132 4.716 3.132 9.755v.072c0 7.99-4.248 13.642-10.475 13.642-2.88-.001-5.112-1.08-7.019-2.52zm14.038-15.226v-.072c0-3.204-2.628-5.724-6.407-5.724s-6.047 2.771-6.047 5.903v.072c0 3.203 2.52 5.507 6.191 5.507 3.852.001 6.263-2.807 6.263-5.686zM386.482 274.485v-.072c0-7.055 4.212-13.03 10.691-13.03 6.479 0 10.582 5.903 10.582 12.958v.072c0 7.056-4.176 13.03-10.654 13.03-6.515 0-10.619-5.903-10.619-12.958zm18.323 0v-.072c0-5.507-3.023-10.438-7.703-10.438-4.716 0-7.667 4.823-7.667 10.366v.072c0 5.508 3.023 10.438 7.739 10.438 4.715.001 7.631-4.859 7.631-10.366zM413.698 284.348l8.604-7.595c3.887-3.455 5.255-5.399 5.255-7.919 0-2.951-2.34-4.823-5.075-4.823-2.664 0-4.464 1.296-6.264 3.672-.216.287-.575.504-1.044.504-.72 0-1.296-.576-1.296-1.296 0-.288.108-.576.288-.792 2.088-2.916 4.392-4.644 8.531-4.644 4.535 0 7.811 3.023 7.811 7.127v.072c0 3.671-1.943 5.939-6.371 9.79l-6.73 5.976h12.202c.72 0 1.332.576 1.332 1.296s-.612 1.296-1.332 1.296h-15.154c-.828 0-1.439-.54-1.439-1.332-.001-.54.214-.936.682-1.332zM441.238 264.479l-3.527 1.152c-.217.071-.433.107-.612.107-.647 0-1.224-.54-1.224-1.224 0-.612.396-1.008 1.008-1.224l4.14-1.44c.575-.18 1.079-.323 1.548-.323h.071c.828 0 1.404.647 1.404 1.403v22.821c0 .792-.612 1.439-1.404 1.439-.756 0-1.403-.647-1.403-1.439v-21.272zM451.714 274.485v-.072c0-7.055 4.212-13.03 10.691-13.03 6.479 0 10.582 5.903 10.582 12.958v.072c0 7.056-4.176 13.03-10.654 13.03-6.516 0-10.619-5.903-10.619-12.958zm18.322 0v-.072c0-5.507-3.023-10.438-7.703-10.438-4.716 0-7.667 4.823-7.667 10.366v.072c0 5.508 3.023 10.438 7.739 10.438 4.715.001 7.631-4.859 7.631-10.366zM73.921 65.893l-8.135-11.051c-.396-.54-.684-1.188-.684-1.979 0-1.476 1.224-2.664 2.771-2.664 1.26 0 2.052.684 2.736 1.691l6.119 8.819 6.227-8.891c.684-1.008 1.512-1.656 2.664-1.656 1.691 0 2.699 1.188 2.699 2.7 0 .756-.36 1.44-.72 1.944l-8.135 10.979v7.271c0 1.548-1.224 2.771-2.772 2.771s-2.771-1.224-2.771-2.771v-7.163zM91.526 63.085v-.072c0-7.163 5.651-13.03 13.426-13.03s13.354 5.795 13.354 12.958v.072c0 7.163-5.651 13.031-13.426 13.031-7.775-.001-13.354-5.796-13.354-12.959zm20.986 0v-.072c0-4.319-3.167-7.919-7.631-7.919s-7.559 3.528-7.559 7.847v.072c0 4.32 3.167 7.919 7.631 7.919s7.559-3.528 7.559-7.847zM124.646 64.812v-11.842c0-1.548 1.224-2.771 2.772-2.771s2.771 1.224 2.771 2.771v11.698c0 4.104 2.052 6.228 5.436 6.228 3.383 0 5.435-2.052 5.435-6.047v-11.879c0-1.548 1.224-2.771 2.772-2.771 1.547 0 2.771 1.224 2.771 2.771v11.663c0 7.631-4.284 11.375-11.051 11.375s-10.906-3.78-10.906-11.196zM154.058 53.186c0-1.548 1.224-2.771 2.772-2.771h8.747c3.204 0 5.688.9 7.343 2.556 1.404 1.404 2.16 3.383 2.16 5.759v.072c0 3.959-1.979 6.407-5.039 7.667l3.851 4.68c.54.684.9 1.26.9 2.124 0 1.548-1.296 2.556-2.627 2.556-1.26 0-2.088-.612-2.736-1.439l-5.399-6.839h-4.427v5.507c0 1.548-1.224 2.771-2.771 2.771s-2.772-1.224-2.772-2.771v-19.872zm11.158 9.467c2.7 0 4.248-1.439 4.248-3.563v-.072c0-2.376-1.656-3.6-4.355-3.6h-5.507v7.235h5.614zM194.485 53.186c0-1.548 1.224-2.771 2.772-2.771h7.055c7.919 0 13.39 5.435 13.39 12.526v.072c0 7.091-5.471 12.599-13.39 12.599h-7.055c-1.548 0-2.772-1.224-2.772-2.771v-19.655zm9.827 17.422c4.535 0 7.595-3.06 7.595-7.523v-.072c0-4.463-3.06-7.595-7.595-7.595h-4.284v15.19h4.284zM224.688 52.97c0-1.548 1.224-2.771 2.772-2.771s2.771 1.224 2.771 2.771v20.085c0 1.548-1.224 2.771-2.771 2.771s-2.772-1.224-2.772-2.771v-20.085zM237.829 72.948c-.612-.432-1.044-1.224-1.044-2.088 0-1.44 1.152-2.556 2.592-2.556.72 0 1.224.252 1.583.504 1.908 1.404 3.996 2.268 6.443 2.268 2.268 0 3.636-.9 3.636-2.375v-.072c0-1.404-.864-2.124-5.075-3.204-5.076-1.296-8.351-2.7-8.351-7.703v-.072c0-4.571 3.671-7.595 8.819-7.595 3.06 0 5.724.792 7.991 2.231.611.36 1.224 1.116 1.224 2.196 0 1.44-1.151 2.556-2.592 2.556-.54 0-.972-.144-1.403-.396-1.836-1.08-3.563-1.692-5.292-1.692-2.124 0-3.239.972-3.239 2.196v.072c0 1.656 1.08 2.196 5.436 3.312 5.111 1.332 7.991 3.167 7.991 7.559v.072c0 5.003-3.816 7.811-9.251 7.811-3.314-.001-6.661-1.009-9.468-3.024zM262.058 63.085v-.072c0-7.163 5.398-13.03 13.138-13.03 3.779 0 6.335 1.008 8.423 2.556.576.432 1.08 1.224 1.08 2.196 0 1.512-1.224 2.7-2.735 2.7-.756 0-1.26-.288-1.656-.54-1.548-1.152-3.167-1.8-5.147-1.8-4.247 0-7.307 3.528-7.307 7.847v.072c0 4.32 2.987 7.919 7.307 7.919 2.34 0 3.888-.72 5.472-1.98.432-.36 1.008-.612 1.656-.612 1.403 0 2.591 1.152 2.591 2.556 0 .864-.432 1.548-.936 1.979-2.268 1.98-4.932 3.168-8.963 3.168-7.417-.001-12.923-5.724-12.923-12.959zM291.54 53.186c0-1.548 1.224-2.771 2.771-2.771h8.747c3.204 0 5.688.9 7.344 2.556 1.403 1.404 2.159 3.383 2.159 5.759v.072c0 3.959-1.979 6.407-5.039 7.667l3.852 4.68c.54.684.899 1.26.899 2.124 0 1.548-1.296 2.556-2.628 2.556-1.26 0-2.087-.612-2.735-1.439l-5.399-6.839h-4.427v5.507c0 1.548-1.225 2.771-2.772 2.771s-2.771-1.224-2.771-2.771v-19.872zm11.159 9.467c2.699 0 4.247-1.439 4.247-3.563v-.072c0-2.376-1.656-3.6-4.355-3.6h-5.507v7.235h5.615zM319.368 72.84v-19.654c0-1.548 1.224-2.771 2.771-2.771h13.967c1.367 0 2.483 1.116 2.483 2.483 0 1.368-1.116 2.448-2.483 2.448h-11.23v5.111h9.61c1.368 0 2.483 1.116 2.483 2.484s-1.115 2.448-2.483 2.448h-9.61v5.292h11.41c1.368 0 2.483 1.116 2.483 2.483s-1.115 2.448-2.483 2.448h-14.146c-1.548-.001-2.772-1.224-2.772-2.772zM345.288 72.84v-19.654c0-1.548 1.224-2.771 2.771-2.771h13.967c1.367 0 2.483 1.116 2.483 2.483 0 1.368-1.116 2.448-2.483 2.448h-11.23v5.111h9.61c1.368 0 2.483 1.116 2.483 2.484s-1.115 2.448-2.483 2.448h-9.61v5.292h11.41c1.368 0 2.483 1.116 2.483 2.483s-1.115 2.448-2.483 2.448h-14.146c-1.548-.001-2.772-1.224-2.772-2.772zM377.075 55.526h-5.327c-1.403 0-2.556-1.152-2.556-2.556s1.152-2.556 2.556-2.556h16.198c1.403 0 2.556 1.152 2.556 2.556s-1.152 2.556-2.556 2.556h-5.327v17.53c0 1.548-1.225 2.771-2.772 2.771s-2.771-1.224-2.771-2.771v-17.53zM408.936 53.186c0-1.548 1.224-2.771 2.771-2.771h7.056c7.919 0 13.39 5.435 13.39 12.526v.072c0 7.091-5.471 12.599-13.39 12.599h-7.056c-1.548 0-2.771-1.224-2.771-2.771v-19.655zm9.827 17.422c4.535 0 7.595-3.06 7.595-7.523v-.072c0-4.463-3.06-7.595-7.595-7.595h-4.283v15.19h4.283zM438.887 53.186c0-1.548 1.224-2.771 2.771-2.771h8.747c3.204 0 5.688.9 7.343 2.556 1.404 1.404 2.16 3.383 2.16 5.759v.072c0 3.959-1.979 6.407-5.039 7.667l3.852 4.68c.54.684.899 1.26.899 2.124 0 1.548-1.296 2.556-2.628 2.556-1.26 0-2.087-.612-2.735-1.439l-5.399-6.839h-4.427v5.507c0 1.548-1.225 2.771-2.772 2.771s-2.771-1.224-2.771-2.771v-19.872zm11.159 9.467c2.699 0 4.247-1.439 4.247-3.563v-.072c0-2.376-1.656-3.6-4.355-3.6h-5.507v7.235h5.615zM465.6 63.085v-.072c0-7.163 5.65-13.03 13.426-13.03s13.354 5.795 13.354 12.958v.072c0 7.163-5.651 13.031-13.427 13.031-7.774-.001-13.353-5.796-13.353-12.959zm20.985 0v-.072c0-4.319-3.168-7.919-7.632-7.919-4.463 0-7.559 3.528-7.559 7.847v.072c0 4.32 3.168 7.919 7.631 7.919 4.464 0 7.56-3.528 7.56-7.847zM499.114 53.186c0-1.548 1.224-2.771 2.771-2.771h7.523c6.011 0 9.646 3.563 9.646 8.711v.072c0 5.832-4.535 8.855-10.187 8.855h-4.211v5.003c0 1.548-1.225 2.771-2.772 2.771s-2.771-1.224-2.771-2.771v-19.87zm9.935 9.935c2.772 0 4.392-1.656 4.392-3.816v-.072c0-2.484-1.728-3.815-4.499-3.815h-4.283v7.703h4.39zM166.675 115.248l8.783-19.833c.612-1.368 1.728-2.196 3.239-2.196h.324c1.512 0 2.592.828 3.204 2.196l8.783 19.833c.18.396.288.756.288 1.116 0 1.476-1.152 2.664-2.628 2.664-1.295 0-2.16-.756-2.664-1.908l-1.691-3.959h-11.087l-1.764 4.14c-.468 1.08-1.404 1.728-2.556 1.728-1.44 0-2.556-1.152-2.556-2.591.001-.398.145-.794.325-1.19zm15.586-6.983l-3.492-8.315-3.492 8.315h6.984zM197.454 96.386c0-1.548 1.224-2.771 2.772-2.771h7.055c7.919 0 13.39 5.435 13.39 12.526v.072c0 7.091-5.471 12.599-13.39 12.599h-7.055c-1.548 0-2.772-1.224-2.772-2.771v-19.655zm9.827 17.422c4.535 0 7.595-3.06 7.595-7.523v-.072c0-4.463-3.06-7.595-7.595-7.595h-4.284v15.19h4.284zM227.406 96.386c0-1.548 1.224-2.771 2.772-2.771h7.055c7.919 0 13.39 5.435 13.39 12.526v.072c0 7.091-5.471 12.599-13.39 12.599h-7.055c-1.548 0-2.772-1.224-2.772-2.771v-19.655zm9.827 17.422c4.535 0 7.595-3.06 7.595-7.523v-.072c0-4.463-3.06-7.595-7.595-7.595h-4.284v15.19h4.284zM257.358 96.386c0-1.548 1.224-2.771 2.771-2.771h8.747c3.204 0 5.688.9 7.344 2.556 1.403 1.404 2.159 3.383 2.159 5.759v.072c0 3.959-1.979 6.407-5.039 7.667l3.852 4.68c.54.684.899 1.26.899 2.124 0 1.548-1.296 2.556-2.628 2.556-1.26 0-2.087-.612-2.735-1.439l-5.399-6.839h-4.427v5.507c0 1.548-1.225 2.771-2.772 2.771s-2.771-1.224-2.771-2.771v-19.872zm11.16 9.467c2.699 0 4.247-1.439 4.247-3.563v-.072c0-2.376-1.656-3.6-4.355-3.6h-5.507v7.235h5.615zM285.186 116.04v-19.654c0-1.548 1.224-2.771 2.771-2.771h13.967c1.367 0 2.483 1.116 2.483 2.483 0 1.368-1.116 2.448-2.483 2.448h-11.23v5.111h9.61c1.368 0 2.483 1.116 2.483 2.484s-1.115 2.448-2.483 2.448h-9.61v5.292h11.41c1.368 0 2.483 1.116 2.483 2.483s-1.115 2.448-2.483 2.448h-14.146c-1.549 0-2.772-1.224-2.772-2.772zM310.602 116.148c-.611-.432-1.044-1.224-1.044-2.088 0-1.44 1.152-2.556 2.592-2.556.72 0 1.224.252 1.584.504 1.907 1.404 3.995 2.268 6.443 2.268 2.268 0 3.636-.9 3.636-2.375v-.072c0-1.404-.864-2.124-5.076-3.204-5.075-1.296-8.351-2.7-8.351-7.703v-.072c0-4.571 3.672-7.595 8.819-7.595 3.06 0 5.723.792 7.99 2.231.612.36 1.225 1.116 1.225 2.196 0 1.44-1.152 2.556-2.592 2.556-.54 0-.973-.144-1.404-.396-1.836-1.08-3.563-1.692-5.291-1.692-2.124 0-3.24.972-3.24 2.196v.072c0 1.656 1.08 2.196 5.436 3.312 5.111 1.332 7.991 3.167 7.991 7.559v.072c0 5.003-3.815 7.811-9.251 7.811-3.312-.001-6.66-1.008-9.467-3.024zM335.082 116.148c-.611-.432-1.044-1.224-1.044-2.088 0-1.44 1.152-2.556 2.592-2.556.72 0 1.224.252 1.584.504 1.907 1.404 3.995 2.268 6.443 2.268 2.268 0 3.636-.9 3.636-2.375v-.072c0-1.404-.864-2.124-5.076-3.204-5.075-1.296-8.351-2.7-8.351-7.703v-.072c0-4.571 3.672-7.595 8.819-7.595 3.06 0 5.723.792 7.99 2.231.612.36 1.225 1.116 1.225 2.196 0 1.44-1.152 2.556-2.592 2.556-.54 0-.973-.144-1.404-.396-1.836-1.08-3.563-1.692-5.291-1.692-2.124 0-3.24.972-3.24 2.196v.072c0 1.656 1.08 2.196 5.436 3.312 5.111 1.332 7.991 3.167 7.991 7.559v.072c0 5.003-3.815 7.811-9.251 7.811-3.312-.001-6.659-1.008-9.467-3.024zM373.277 96.17c0-1.548 1.224-2.771 2.771-2.771s2.772 1.224 2.772 2.771v20.085c0 1.548-1.225 2.771-2.772 2.771s-2.771-1.224-2.771-2.771v-20.085zM386.418 116.148c-.611-.432-1.044-1.224-1.044-2.088 0-1.44 1.152-2.556 2.592-2.556.72 0 1.224.252 1.584.504 1.907 1.404 3.995 2.268 6.443 2.268 2.268 0 3.636-.9 3.636-2.375v-.072c0-1.404-.864-2.124-5.076-3.204-5.075-1.296-8.351-2.7-8.351-7.703v-.072c0-4.571 3.672-7.595 8.819-7.595 3.06 0 5.723.792 7.99 2.231.612.36 1.225 1.116 1.225 2.196 0 1.44-1.152 2.556-2.592 2.556-.54 0-.973-.144-1.404-.396-1.836-1.08-3.563-1.692-5.291-1.692-2.124 0-3.24.972-3.24 2.196v.072c0 1.656 1.08 2.196 5.436 3.312 5.111 1.332 7.991 3.167 7.991 7.559v.072c0 5.003-3.815 7.811-9.251 7.811-3.312-.001-6.659-1.008-9.467-3.024zM414.065 99.302c1.8 0 3.132 1.332 3.132 3.06v.072c0 1.728-1.332 3.06-3.132 3.06s-3.132-1.332-3.132-3.06v-.072c.001-1.728 1.333-3.06 3.132-3.06zm0 13.534c1.8 0 3.132 1.332 3.132 3.06v.072c0 1.728-1.332 3.06-3.132 3.06s-3.132-1.332-3.132-3.06v-.072c.001-1.728 1.333-3.06 3.132-3.06z"/></g><path fill="#1A1A1A" d="M472.376 304.594v53.906l15.145-6.273 10.093 24.367 7.826-3.241-10.093-24.368 15.146-6.274z"/></svg>