<svg xmlns="http://www.w3.org/2000/svg" width="597.863" height="1261.292" viewBox="0 0 597.863 1261.292"><g><path fill="#1A1A1A" d="M288.058 519.57v216c0 9.686 15.003 9.771 15.003.107v-215.999c0-9.686-15.003-9.771-15.003-.108zM300.892 740.899c16.97-16.971 33.94-33.941 50.911-50.912 6.836-6.835-3.812-17.403-10.666-10.551-16.971 16.971-33.94 33.941-50.91 50.912-6.836 6.837 3.812 17.404 10.665 10.551zM239.372 690.044c16.97 16.971 33.94 33.941 50.911 50.912 6.835 6.836 17.403-3.812 10.551-10.664-16.97-16.971-33.94-33.941-50.911-50.912-6.836-6.836-17.403 3.811-10.551 10.664z"/></g><g><g><linearGradient id="a" gradientUnits="userSpaceOnUse" x1="155.123" y1="1384.912" x2="155.123" y2="1744.912" gradientTransform="matrix(1 0 0 -1 144 1854.27)"><stop offset="0" stop-color="#C68945"/><stop offset="1" stop-color="#C69C6D"/></linearGradient><path fill="url(#a)" d="M7.883 109.357h582.48v360h-582.48z"/><path fill="#1A1A1A" d="M590.416 461.855h-582.48l7.448 7.555v-359.999c-2.519 2.481-5.038 4.965-7.556 7.448h582.4780000000001l-7.447-7.557v360.001c0 9.686 15.004 9.771 15.004.107v-360c0-4.065-3.342-7.556-7.447-7.556h-582.4810000000001c-4.065 0-7.556 3.342-7.556 7.447v360c0 4.064 3.342 7.557 7.448 7.557h582.479c9.688.001 9.774-15.003.11-15.003z"/><path fill="#C69C6D" d="M488.539 7.534l101.824 101.823h-582.48l101.824-101.823z"/><path fill="#1A1A1A" d="M483.263 12.866l100.23 100.229 1.594 1.594 5.328-12.834h-582.48c1.759 4.259 3.519 8.519 5.278 12.776 33.352-33.347 66.7-66.697 100.049-100.046l1.777-1.777-5.387 2.227h378.832c9.686 0 9.771-15.003.107-15.003h-377.594c-5.177 0-7.91 3.511-11.274 6.874-32.389 32.391-64.781 64.783-97.173 97.176-4.58 4.579-1.211 12.777 5.278 12.777h582.4780000000001c6.596 0 10.004-8.161 5.33-12.834-33.41-33.41-66.82-66.82-100.229-100.23l-1.596-1.593c-6.831-6.836-17.399 3.811-10.548 10.664z"/><path fill="#C7B299" d="M240.875 109.357h116.496v72h-116.496z"/><path fill="#1A1A1A" d="M357.423 173.856h-116.495l7.448 7.556v-72c-2.519 2.481-5.038 4.965-7.556 7.448h116.496l-7.448-7.557v72c0 9.688 15.004 9.772 15.004.108v-72c0-4.065-3.342-7.556-7.447-7.556h-116.496c-4.065 0-7.556 3.342-7.556 7.447v72c0 4.065 3.342 7.557 7.448 7.557h116.496c9.684 0 9.77-15.003.106-15.003z"/><path fill="#C7B299" d="M326.685 7.534l30.686 101.823h-116.496l30.687-101.823z"/><path fill="#1A1A1A" d="M319.441 9.474c10.229 33.941 20.457 67.883 30.686 101.823l7.299-9.442h-116.496l7.181 9.481c10.229-33.94 20.458-67.882 30.687-101.823l-7.289 5.521h55.124c9.686 0 9.771-15.003.106-15.003h-55.122c-3.433 0-6.311 2.274-7.289 5.521-10.229 33.941-20.458 67.882-30.688 101.823-1.397 4.638 2.422 9.482 7.181 9.482h116.496c4.758 0 8.72-4.728 7.298-9.443l-30.686-101.823c-2.785-9.243-17.282-5.387-14.488 3.883z"/></g><g><path fill="#3FA9F5" d="M154.223 210.405h289.8v180h-289.8z"/><path fill="#1A1A1A" d="M444.076 382.903h-289.79900000000004c2.482 2.519 4.965 5.037 7.448 7.556v-180c-2.519 2.482-5.038 4.965-7.556 7.448h289.79900000000004l-7.447-7.557v180c0 9.687 15.004 9.771 15.004.107v-180c0-4.065-3.342-7.556-7.447-7.556h-289.8c-4.065 0-7.556 3.342-7.556 7.447v180c0 4.064 3.342 7.557 7.448 7.557h289.79999999999995c9.684.002 9.77-15.002.106-15.002z"/><g stroke="#1A1A1A"><path d="M194.904 283.065c0-3.097 2.448-5.544 5.544-5.544 3.097 0 5.545 2.447 5.545 5.544v35.211h20.521c2.808 0 5.041 2.231 5.041 5.041 0 2.808-2.232 5.04-5.041 5.04h-26.066c-3.096 0-5.544-2.448-5.544-5.546v-39.746zM234.36 303.297v-.144c0-14.329 11.305-26.066 26.858-26.066s26.714 11.593 26.714 25.922v.146c0 14.329-11.305 26.065-26.858 26.065s-26.714-11.593-26.714-25.923zm41.979 0v-.144c0-8.642-6.336-15.843-15.265-15.843s-15.122 7.058-15.122 15.697v.146c0 8.641 6.337 15.842 15.266 15.842 8.929.001 15.121-7.055 15.121-15.698zM295.56 303.297v-.144c0-14.329 11.161-26.066 26.426-26.066 7.633 0 12.674 1.729 17.21 4.896 1.08.792 2.304 2.305 2.304 4.465 0 3.022-2.447 5.472-5.472 5.472-1.585 0-2.593-.575-3.386-1.151-3.023-2.159-6.264-3.457-11.016-3.457-8.064 0-14.475 7.13-14.475 15.697v.146c0 9.217 6.337 15.984 15.266 15.984 4.032 0 7.633-1.008 10.44-3.023v-7.2h-7.488c-2.663 0-4.823-2.089-4.823-4.753s2.16-4.824 4.823-4.824h12.673c3.098 0 5.545 2.448 5.545 5.545v12.24c0 3.24-1.225 5.473-3.889 7.057-4.104 2.521-10.081 5.041-17.643 5.041-15.695-.002-26.495-11.018-26.495-25.925zM352.007 303.297v-.144c0-14.329 11.305-26.066 26.857-26.066s26.715 11.593 26.715 25.922v.146c0 14.329-11.306 26.065-26.859 26.065-15.553 0-26.713-11.593-26.713-25.923zm41.979 0v-.144c0-8.642-6.337-15.843-15.266-15.843-8.93 0-15.121 7.058-15.121 15.697v.146c0 8.641 6.337 15.842 15.266 15.842 8.929.001 15.121-7.055 15.121-15.698z"/></g></g><g><path fill="#fff" d="M402.9 145.357h144v232.991h-144z"/><path fill="#1A1A1A" d="M546.953 370.846h-144c2.482 2.52 4.967 5.037 7.447 7.557v-232.992l-7.555 7.448h144l-7.449-7.557v232.993c0 9.687 15.006 9.771 15.006.107v-232.992c0-4.065-3.344-7.557-7.449-7.557h-144c-4.064 0-7.556 3.343-7.556 7.448v232.993c0 4.064 3.343 7.556 7.448 7.556h144c9.686 0 9.772-15.004.108-15.004z"/><path stroke="#1A1A1A" stroke-miterlimit="10" fill="none" d="M546.9 378.348h-144"/><path fill="#1A1A1A" d="M424.4 358.126v-54c0-4.514-7-4.514-7 0v54c0 4.514 7 4.514 7 0zM442.4 357.848v-53.722c0-4.514-7-4.514-7 0v53.722c0 4.515 7 4.515 7 0zM460.4 357.848v-53.722c0-4.514-7-4.514-7 0v53.722c0 4.515 7 4.515 7 0zM478.4 357.848v-53.722c0-4.514-7-4.514-7 0v53.722c0 4.515 7 4.515 7 0zM496.4 357.848v-53.722c0-4.514-7-4.514-7 0v53.722c0 4.515 7 4.515 7 0zM514.4 357.848v-53.722c0-4.514-7-4.514-7 0v53.722c0 4.515 7 4.515 7 0zM532.4 357.848v-53.722c0-4.514-7-4.514-7 0v53.722c0 4.515 7 4.515 7 0zM501.482 273.626h-53.721c-4.514 0-4.514 7 0 7h53.721c4.514 0 4.514-7 0-7zM501.482 255.626h-53.721c-4.514 0-4.514 7 0 7h53.721c4.514 0 4.514-7 0-7zM501.482 237.626h-53.721c-4.514 0-4.514 7 0 7h53.721c4.514 0 4.514-7 0-7zM501.482 219.626h-53.721c-4.514 0-4.514 7 0 7h53.721c4.514 0 4.514-7 0-7z"/><path fill="#1A1A1A" stroke="#1A1A1A" d="M425.939 169.693c0-2.58 2.041-4.62 4.619-4.62h12.541c10.02 0 16.078 5.938 16.078 14.519v.12c0 9.72-7.559 14.759-16.979 14.759h-7.02v8.34c0 2.58-2.041 4.62-4.621 4.62-2.578 0-4.619-2.04-4.619-4.62v-33.118h.001zm16.561 16.558c4.619 0 7.318-2.76 7.318-6.359v-.119c0-4.141-2.881-6.36-7.5-6.36h-7.141v12.839h7.323z"/><path fill="#1A1A1A" d="M528.343 189.19h-53.721c-4.516 0-4.516 7 0 7h53.721c4.514 0 4.514-7 0-7zM528.343 171.19h-53.721c-4.516 0-4.516 7 0 7h53.721c4.514 0 4.514-7 0-7z"/></g><g><path fill="#FF7BAC" d="M63.904 150.961h116.495v72.001h-116.495z"/><path fill="#1A1A1A" d="M180.454 215.46h-116.495c2.482 2.52 4.965 5.037 7.448 7.556v-72.001l-7.556 7.447h116.495c-2.482-2.519-4.965-5.037-7.448-7.556v72.002c0 9.686 15.004 9.771 15.004.106v-72.001c0-4.064-3.342-7.556-7.448-7.556h-116.495c-4.065 0-7.556 3.341-7.556 7.447v72.002c0 4.063 3.342 7.556 7.448 7.556h116.495c9.686.002 9.771-15.002.108-15.002zM147.943 190.577h-53.722c-4.514 0-4.514 7 0 7h53.722c4.515 0 4.515-7 0-7zM147.943 172.577h-53.722c-4.514 0-4.514 7 0 7h53.722c4.515 0 4.515-7 0-7z"/><path fill="#FCEE21" d="M379.582 364.405h116.496v72.001h-116.496z"/><path fill="#1A1A1A" d="M496.13 428.904h-116.494c2.481 2.519 4.966 5.038 7.447 7.555v-72c-2.519 2.483-5.037 4.966-7.556 7.448h116.495c-2.482-2.52-4.967-5.037-7.447-7.557v72.001c0 9.686 15.004 9.771 15.004.107v-72.001c0-4.064-3.344-7.556-7.449-7.556h-116.494c-4.064 0-7.557 3.342-7.557 7.447v72c0 4.064 3.342 7.557 7.448 7.557h116.495c9.686.003 9.772-15.001.108-15.001z"/><path fill="none" d="M463.621 407.519h-53.721"/><path fill="#1A1A1A" d="M463.621 404.019h-53.723c-4.514 0-4.514 7 0 7h53.723c4.513 0 4.513-7 0-7z"/><path fill="none" d="M463.621 389.519h-53.721"/><path fill="#1A1A1A" d="M463.621 386.019h-53.723c-4.514 0-4.514 7 0 7h53.723c4.513 0 4.513-7 0-7z"/></g><g><path fill="#8C6239" d="M79.883 397.357l-72 72h144l-144-144v144"/><path fill="#1A1A1A" d="M74.55 392.082l-72 72c-4.58 4.578-1.211 12.777 5.278 12.777h144c6.596 0 10.004-8.16 5.33-12.836l-104.133-104.133-39.867-39.866c-4.579-4.579-12.777-1.21-12.777 5.278v144.001c0 9.686 15.004 9.771 15.004.107v-144.001l-12.777 5.279c34.711 34.712 69.422 69.423 104.133 104.134l39.867 39.867c1.776-4.279 3.553-8.559 5.33-12.836h-144c1.759 4.26 3.519 8.52 5.278 12.777l72-72c6.835-6.834-3.813-17.402-10.666-10.548z"/><path fill="#fff" d="M43.883 433.357h72l-72-72z"/><path fill="#1A1A1A" d="M43.829 440.859h72c6.596 0 10.004-8.161 5.33-12.835l-72-72c-4.58-4.579-12.778-1.21-12.778 5.278v72c0 9.686 15.004 9.771 15.004.107v-72l-12.777 5.279 72 72c1.776-4.279 3.553-8.558 5.33-12.836h-72c-9.687.003-9.773 15.007-.109 15.007zM306.624 109.411v-101.823c0-9.687-15.004-9.771-15.004-.107v101.822c0 9.686 15.004 9.772 15.004.108z"/></g></g><g><linearGradient id="b" gradientUnits="userSpaceOnUse" x1="154.744" y1="600.482" x2="154.744" y2="960.482" gradientTransform="matrix(1 0 0 -1 144 1854.27)"><stop offset="0" stop-color="#C68945"/><stop offset="1" stop-color="#C69C6D"/></linearGradient><path fill="url(#b)" d="M7.504 893.787h582.479v360h-582.479z"/><path fill="#1A1A1A" d="M590.038 1246.285h-582.4810000000001l7.448 7.556v-359.999c-2.519 2.481-5.038 4.965-7.556 7.448h582.479l-7.449-7.557v360.001c0 9.687 15.006 9.771 15.006.107v-359.999c0-4.065-3.344-7.556-7.449-7.556h-582.48c-4.065 0-7.556 3.342-7.556 7.447v360.001c0 4.064 3.342 7.557 7.448 7.557h582.478c9.69-.002 9.776-15.006.112-15.006z"/><path fill="#C69C6D" d="M488.161 791.964l101.822 101.823h-582.479l101.824-101.823z"/><path fill="#1A1A1A" d="M482.885 797.296c33.41 33.41 66.818 66.819 100.229 100.229l1.594 1.594 5.33-12.834h-582.4810000000001c1.759 4.259 3.519 8.519 5.278 12.776 33.351-33.348 66.699-66.697 100.048-100.046l1.777-1.777-5.387 2.227h378.833c9.686 0 9.77-15.003.105-15.003h-377.592c-5.177 0-7.91 3.511-11.274 6.874-32.39 32.392-64.782 64.783-97.174 97.176-4.58 4.579-1.211 12.777 5.278 12.777h582.479c6.596 0 10.002-8.161 5.328-12.834-33.41-33.41-66.818-66.82-100.229-100.23l-1.594-1.593c-6.833-6.836-17.401 3.811-10.548 10.664z"/><path fill="#C7B299" d="M240.496 893.787h116.495v72h-116.495z"/><path fill="#1A1A1A" d="M357.045 958.286h-116.496l7.448 7.556v-72c-2.519 2.481-5.038 4.965-7.556 7.448h116.496l-7.448-7.557v72c0 9.688 15.005 9.772 15.005.108v-72c0-4.065-3.343-7.556-7.449-7.556h-116.495c-4.065 0-7.556 3.342-7.556 7.447v72c0 4.065 3.342 7.557 7.448 7.557h116.496c9.686 0 9.771-15.003.107-15.003z"/><path fill="#C7B299" d="M326.306 791.964l30.685 101.823h-116.495l30.687-101.823z"/><path fill="#1A1A1A" d="M319.062 793.904c10.229 33.941 20.457 67.883 30.687 101.823l7.297-9.442h-116.495l7.181 9.481c10.229-33.94 20.458-67.882 30.687-101.823l-7.289 5.521h55.123c9.687 0 9.771-15.003.107-15.003h-55.122c-3.433 0-6.311 2.274-7.289 5.521-10.229 33.941-20.458 67.882-30.688 101.823-1.397 4.638 2.422 9.482 7.181 9.482h116.496c4.758 0 8.721-4.728 7.298-9.443-10.229-33.941-20.457-67.882-30.687-101.823-2.784-9.243-17.281-5.387-14.487 3.883z"/></g></svg>