<?xml version="1.0" standalone="no"?>
<!DOCTYPE svg PUBLIC "-//W3C//DTD SVG 20010904//EN"
 "http://www.w3.org/TR/2001/REC-SVG-20010904/DTD/svg10.dtd">
<svg version="1.0" xmlns="http://www.w3.org/2000/svg"
 width="16.000000pt" height="16.000000pt" viewBox="0 0 16.000000 16.000000"
 preserveAspectRatio="xMidYMid meet">
<metadata>
Created by potrace 1.11, written by Peter Selinger 2001-2013
</metadata>
<g transform="translate(0.000000,16.000000) scale(0.001208,-0.001208)"
fill="#000000" stroke="none">
<path d="M6547 13220 c-21 -6 -52 -17 -70 -26 -18 -9 -367 -350 -777 -758
l-745 -743 -1705 -983 c-938 -541 -1775 -1024 -1860 -1073 -174 -100 -218
-137 -252 -211 l-23 -51 -3 -3015 c-2 -2072 1 -3037 8 -3084 14 -90 43 -155
88 -199 22 -22 1062 -628 2612 -1523 1416 -818 2602 -1502 2636 -1520 58 -33
65 -34 165 -34 l104 0 2585 1493 c1422 820 2603 1503 2625 1517 67 41 137 112
161 165 l24 50 0 3080 0 3080 -24 50 c-33 71 -70 101 -247 201 -85 49 -920
530 -1855 1069 l-1699 980 -750 747 c-597 595 -759 751 -797 768 -54 24 -148
33 -201 20z m2109 -2795 c113 -132 267 -365 347 -523 188 -368 280 -723 302
-1162 10 -194 -20 -535 -48 -558 -10 -8 -695 -404 -2430 -1404 l-207 -120 -43
24 c-328 185 -2583 1490 -2594 1501 -37 38 -66 518 -44 738 57 581 278 1073
709 1574 47 55 509 524 1026 1043 l941 942 978 -977 c538 -538 1017 -1023
1063 -1078z m-4645 -2981 c1245 -719 2272 -1314 2282 -1322 16 -14 17 -153 17
-2650 0 -2103 -3 -2633 -12 -2629 -7 3 -1037 597 -2288 1319 l-2275 1314 -3
2637 c-1 1503 2 2637 7 2637 5 0 1027 -588 2272 -1306z m7489 -1332 l0 -2637
-2277 -1315 c-1252 -723 -2280 -1317 -2285 -1318 -4 -2 -8 1184 -8 2636 l0
2639 2277 1316 c1253 724 2281 1316 2286 1316 4 1 7 -1186 7 -2637z"/>
</g>
</svg>
