<svg version="1" xmlns="http://www.w3.org/2000/svg" width="848" height="848" viewBox="0 0 636.000000 636.000000"><path d="M313 1.6c-2.1.9-17.4 15.4-39.5 37.3l-36 35.9-88 50.7c-48.4 27.9-89.2 51.9-90.8 53.3-1.5 1.5-3.2 4.2-3.8 6.2-.7 2.3-.9 51.8-.7 149.5.3 136.3.4 146.2 2 149.2 1 1.7 3 4 4.5 5.1 5.4 3.8 249.9 144.6 253.7 146.1 3.4 1.3 4.3 1.3 8 0 3.8-1.4 247.7-141.8 254-146.2 1.5-1.1 3.7-3.8 4.7-6.1 1.8-3.9 1.9-9.9 1.9-149.9 0-157.1.3-149.5-5.1-154.3-1.3-1.2-42-25-90.4-52.9l-88-50.7-36-35.9C322.8-1.6 321.9-2.2 313 1.6zm111.8 144.1c10.6 16.1 17.6 33.3 20.8 51.3 1.8 10.1 2.2 35.5.6 42-.7 3.4-2.7 4.6-63.7 39.8-38.2 22-63.7 36.1-64.8 35.8-2-.5-123.6-70.3-125.4-72-.7-.6-1.7-6.2-2.4-12.5-2.5-24.6 2.7-49.6 15.2-72.4 8.8-15.8 14.7-22.5 64.4-72.5l49-49.3 50.1 50.3c41.9 42.1 51.1 51.8 56.2 59.5zM193.1 277.6c59.6 34.4 109 63 109.7 63.6.9.8 1.2 27.6 1.2 127.5 0 78.3-.4 126.3-.9 126.1-.6-.2-50.1-28.6-110-63.3L84 468.5V341.8c0-69.8.2-126.8.3-126.8.2 0 49.2 28.2 108.8 62.6zM553 341.8v126.7l-109.1 63c-59.9 34.7-109.4 63.2-110 63.3-.5.2-.9-46.8-.9-126.2V342l3.3-2.1c5.3-3.4 215.1-124.7 216-124.8.4-.1.7 56.9.7 126.7z"/></svg>